solid OpenSCAD_Model
  facet normal 0.951059 0.309008 0
    outer loop
      vertex 14.6722 3.11868 20
      vertex 13.7032 6.10105 0
      vertex 13.7032 6.10105 20
    endloop
  endfacet
  facet normal 0.951059 0.309008 0
    outer loop
      vertex 13.7032 6.10105 0
      vertex 14.6722 3.11868 20
      vertex 14.6722 3.11868 0
    endloop
  endfacet
  facet normal 0.994521 0.104537 0
    outer loop
      vertex 14.8949 1 20
      vertex 14.6722 3.11868 0
      vertex 14.6722 3.11868 20
    endloop
  endfacet
  facet normal 0.994521 0.104537 0
    outer loop
      vertex 14.6722 3.11868 0
      vertex 14.8949 1 20
      vertex 14.8949 1 0
    endloop
  endfacet
  facet normal 0.866029 0.499993 0
    outer loop
      vertex 13.7032 6.10105 20
      vertex 12.1353 8.81678 0
      vertex 12.1353 8.81678 20
    endloop
  endfacet
  facet normal 0.866029 0.499993 0
    outer loop
      vertex 12.1353 8.81678 0
      vertex 13.7032 6.10105 20
      vertex 13.7032 6.10105 0
    endloop
  endfacet
  facet normal 0.587777 0.809023 -0
    outer loop
      vertex 10.037 11.1472 0
      vertex 7.5 12.9904 20
      vertex 10.037 11.1472 20
    endloop
  endfacet
  facet normal 0.587777 0.809023 0
    outer loop
      vertex 7.5 12.9904 20
      vertex 10.037 11.1472 0
      vertex 7.5 12.9904 0
    endloop
  endfacet
  facet normal 0.951059 -0.309008 0
    outer loop
      vertex 13.7032 -6.10105 20
      vertex 14.6722 -3.11868 0
      vertex 14.6722 -3.11868 20
    endloop
  endfacet
  facet normal 0.951059 -0.309008 0
    outer loop
      vertex 14.6722 -3.11868 0
      vertex 13.7032 -6.10105 20
      vertex 13.7032 -6.10105 0
    endloop
  endfacet
  facet normal 0.994521 -0.104537 0
    outer loop
      vertex 14.6722 -3.11868 20
      vertex 14.8949 -1 0
      vertex 14.8949 -1 20
    endloop
  endfacet
  facet normal 0.994521 -0.104537 0
    outer loop
      vertex 14.8949 -1 0
      vertex 14.6722 -3.11868 20
      vertex 14.6722 -3.11868 0
    endloop
  endfacet
  facet normal 0.743148 0.669127 0
    outer loop
      vertex 12.1353 8.81678 20
      vertex 10.037 11.1472 0
      vertex 10.037 11.1472 20
    endloop
  endfacet
  facet normal 0.743148 0.669127 0
    outer loop
      vertex 10.037 11.1472 0
      vertex 12.1353 8.81678 20
      vertex 12.1353 8.81678 0
    endloop
  endfacet
  facet normal -0.951059 -0.309008 0
    outer loop
      vertex -13.7032 -6.10105 0
      vertex -14.6722 -3.11868 20
      vertex -14.6722 -3.11868 0
    endloop
  endfacet
  facet normal -0.951059 -0.309008 0
    outer loop
      vertex -14.6722 -3.11868 20
      vertex -13.7032 -6.10105 0
      vertex -13.7032 -6.10105 20
    endloop
  endfacet
  facet normal -0.743148 0.669127 0
    outer loop
      vertex -12.1353 8.81678 0
      vertex -10.037 11.1472 20
      vertex -10.037 11.1472 0
    endloop
  endfacet
  facet normal -0.743148 0.669127 0
    outer loop
      vertex -10.037 11.1472 20
      vertex -12.1353 8.81678 0
      vertex -12.1353 8.81678 20
    endloop
  endfacet
  facet normal -0.951059 0.309008 0
    outer loop
      vertex -14.6722 3.11868 0
      vertex -13.7032 6.10105 20
      vertex -13.7032 6.10105 0
    endloop
  endfacet
  facet normal -0.951059 0.309008 0
    outer loop
      vertex -13.7032 6.10105 20
      vertex -14.6722 3.11868 0
      vertex -14.6722 3.11868 20
    endloop
  endfacet
  facet normal 0.587777 -0.809023 0
    outer loop
      vertex 7.5 -12.9904 0
      vertex 10.037 -11.1472 20
      vertex 7.5 -12.9904 20
    endloop
  endfacet
  facet normal 0.587777 -0.809023 0
    outer loop
      vertex 10.037 -11.1472 20
      vertex 7.5 -12.9904 0
      vertex 10.037 -11.1472 0
    endloop
  endfacet
  facet normal -0.587777 0.809023 0
    outer loop
      vertex -7.5 12.9904 0
      vertex -10.037 11.1472 20
      vertex -7.5 12.9904 20
    endloop
  endfacet
  facet normal -0.587777 0.809023 0
    outer loop
      vertex -10.037 11.1472 20
      vertex -7.5 12.9904 0
      vertex -10.037 11.1472 0
    endloop
  endfacet
  facet normal -0 0 1
    outer loop
      vertex 14.8949 1 20
      vertex 25 -1 20
      vertex 25 1 20
    endloop
  endfacet
  facet normal 0 0 1
    outer loop
      vertex 14.8949 1 20
      vertex 14.8949 -1 20
      vertex 25 -1 20
    endloop
  endfacet
  facet normal 0 0 1
    outer loop
      vertex 1.56504 0.332658 20
      vertex 14.8949 1 20
      vertex 14.6722 3.11868 20
    endloop
  endfacet
  facet normal 0 0 1
    outer loop
      vertex 14.8949 1 20
      vertex 1.6 0 20
      vertex 14.8949 -1 20
    endloop
  endfacet
  facet normal 0 0 1
    outer loop
      vertex 1.56504 0.332658 20
      vertex 14.6722 3.11868 20
      vertex 13.7032 6.10105 20
    endloop
  endfacet
  facet normal -0 0 1
    outer loop
      vertex 1.56504 -0.332658 20
      vertex 14.8949 -1 20
      vertex 1.6 0 20
    endloop
  endfacet
  facet normal 0 0 1
    outer loop
      vertex 1.46167 0.650778 20
      vertex 13.7032 6.10105 20
      vertex 12.1353 8.81678 20
    endloop
  endfacet
  facet normal 0 0 1
    outer loop
      vertex 14.8949 -1 20
      vertex 1.56504 -0.332658 20
      vertex 14.6722 -3.11868 20
    endloop
  endfacet
  facet normal 0 0 1
    outer loop
      vertex 1.29443 0.940456 20
      vertex 12.1353 8.81678 20
      vertex 10.037 11.1472 20
    endloop
  endfacet
  facet normal 0 0 1
    outer loop
      vertex 14.6722 -3.11868 20
      vertex 1.56504 -0.332658 20
      vertex 13.7032 -6.10105 20
    endloop
  endfacet
  facet normal 0 0 1
    outer loop
      vertex 1.07061 1.18903 20
      vertex 10.037 11.1472 20
      vertex 7.5 12.9904 20
    endloop
  endfacet
  facet normal -0 0 1
    outer loop
      vertex 1.46167 -0.650778 20
      vertex 13.7032 -6.10105 20
      vertex 1.56504 -0.332658 20
    endloop
  endfacet
  facet normal 0 0 1
    outer loop
      vertex 0.799999 1.38564 20
      vertex 7.5 12.9904 20
      vertex 4.63525 14.2658 20
    endloop
  endfacet
  facet normal 0 0 1
    outer loop
      vertex 13.7032 -6.10105 20
      vertex 1.46167 -0.650778 20
      vertex 12.1353 -8.81678 20
    endloop
  endfacet
  facet normal -0 0 1
    outer loop
      vertex 1.29443 -0.940456 20
      vertex 12.1353 -8.81678 20
      vertex 1.46167 -0.650778 20
    endloop
  endfacet
  facet normal 0 0 1
    outer loop
      vertex 0.494427 1.52169 20
      vertex 4.63525 14.2658 20
      vertex 1.56793 14.9178 20
    endloop
  endfacet
  facet normal 0 0 1
    outer loop
      vertex 14.8949 1 20
      vertex 1.56504 0.332658 20
      vertex 1.6 0 20
    endloop
  endfacet
  facet normal 0 0 1
    outer loop
      vertex 13.7032 6.10105 20
      vertex 1.46167 0.650778 20
      vertex 1.56504 0.332658 20
    endloop
  endfacet
  facet normal 0 0 1
    outer loop
      vertex 12.1353 8.81678 20
      vertex 1.29443 0.940456 20
      vertex 1.46167 0.650778 20
    endloop
  endfacet
  facet normal 0 0 1
    outer loop
      vertex 10.037 11.1472 20
      vertex 1.07061 1.18903 20
      vertex 1.29443 0.940456 20
    endloop
  endfacet
  facet normal 0 0 1
    outer loop
      vertex 7.5 12.9904 20
      vertex 0.799999 1.38564 20
      vertex 1.07061 1.18903 20
    endloop
  endfacet
  facet normal 0 0 1
    outer loop
      vertex 4.63525 14.2658 20
      vertex 0.494427 1.52169 20
      vertex 0.799999 1.38564 20
    endloop
  endfacet
  facet normal 0 0 1
    outer loop
      vertex 1.56793 14.9178 20
      vertex 0.167245 1.59123 20
      vertex 0.494427 1.52169 20
    endloop
  endfacet
  facet normal 0 0 1
    outer loop
      vertex 1.56793 14.9178 20
      vertex -0.167245 1.59123 20
      vertex 0.167245 1.59123 20
    endloop
  endfacet
  facet normal -0 0 1
    outer loop
      vertex -1.56793 14.9178 20
      vertex -0.167245 1.59123 20
      vertex 1.56793 14.9178 20
    endloop
  endfacet
  facet normal 0 0 1
    outer loop
      vertex -0.167245 1.59123 20
      vertex -1.56793 14.9178 20
      vertex -0.494427 1.52169 20
    endloop
  endfacet
  facet normal -0 0 1
    outer loop
      vertex -4.63525 14.2658 20
      vertex -0.494427 1.52169 20
      vertex -1.56793 14.9178 20
    endloop
  endfacet
  facet normal 0 0 1
    outer loop
      vertex -0.494427 1.52169 20
      vertex -4.63525 14.2658 20
      vertex -0.799999 1.38564 20
    endloop
  endfacet
  facet normal -0 0 1
    outer loop
      vertex -7.5 12.9904 20
      vertex -0.799999 1.38564 20
      vertex -4.63525 14.2658 20
    endloop
  endfacet
  facet normal 0 0 1
    outer loop
      vertex -0.799999 1.38564 20
      vertex -7.5 12.9904 20
      vertex -1.07061 1.18903 20
    endloop
  endfacet
  facet normal -0 0 1
    outer loop
      vertex -10.037 11.1472 20
      vertex -1.07061 1.18903 20
      vertex -7.5 12.9904 20
    endloop
  endfacet
  facet normal 0 0 1
    outer loop
      vertex -1.07061 1.18903 20
      vertex -10.037 11.1472 20
      vertex -1.29443 0.940456 20
    endloop
  endfacet
  facet normal -0 0 1
    outer loop
      vertex -12.1353 8.81678 20
      vertex -1.29443 0.940456 20
      vertex -10.037 11.1472 20
    endloop
  endfacet
  facet normal 0 0 1
    outer loop
      vertex 12.1353 -8.81678 20
      vertex 1.29443 -0.940456 20
      vertex 10.037 -11.1472 20
    endloop
  endfacet
  facet normal -0 0 1
    outer loop
      vertex 1.07061 -1.18903 20
      vertex 10.037 -11.1472 20
      vertex 1.29443 -0.940456 20
    endloop
  endfacet
  facet normal 0 0 1
    outer loop
      vertex 10.037 -11.1472 20
      vertex 1.07061 -1.18903 20
      vertex 7.5 -12.9904 20
    endloop
  endfacet
  facet normal -0 0 1
    outer loop
      vertex 0.799999 -1.38564 20
      vertex 7.5 -12.9904 20
      vertex 1.07061 -1.18903 20
    endloop
  endfacet
  facet normal 0 0 1
    outer loop
      vertex 7.5 -12.9904 20
      vertex 0.799999 -1.38564 20
      vertex 4.63525 -14.2658 20
    endloop
  endfacet
  facet normal -0 0 1
    outer loop
      vertex 0.494427 -1.52169 20
      vertex 4.63525 -14.2658 20
      vertex 0.799999 -1.38564 20
    endloop
  endfacet
  facet normal 0 0 1
    outer loop
      vertex 4.63525 -14.2658 20
      vertex 0.494427 -1.52169 20
      vertex 1.56793 -14.9178 20
    endloop
  endfacet
  facet normal -0 0 1
    outer loop
      vertex 0.167245 -1.59123 20
      vertex 1.56793 -14.9178 20
      vertex 0.494427 -1.52169 20
    endloop
  endfacet
  facet normal -0 0 1
    outer loop
      vertex -0.167245 -1.59123 20
      vertex 1.56793 -14.9178 20
      vertex 0.167245 -1.59123 20
    endloop
  endfacet
  facet normal 0 0 1
    outer loop
      vertex -1.56793 -14.9178 20
      vertex -0.167245 -1.59123 20
      vertex -0.494427 -1.52169 20
    endloop
  endfacet
  facet normal 0 0 1
    outer loop
      vertex -4.63525 -14.2658 20
      vertex -0.494427 -1.52169 20
      vertex -0.799999 -1.38564 20
    endloop
  endfacet
  facet normal 0 0 1
    outer loop
      vertex -7.5 -12.9904 20
      vertex -0.799999 -1.38564 20
      vertex -1.07061 -1.18903 20
    endloop
  endfacet
  facet normal 0 0 1
    outer loop
      vertex -10.037 -11.1472 20
      vertex -1.07061 -1.18903 20
      vertex -1.29443 -0.940456 20
    endloop
  endfacet
  facet normal 0 0 1
    outer loop
      vertex -12.1353 -8.81678 20
      vertex -1.29443 -0.940456 20
      vertex -1.46167 -0.650778 20
    endloop
  endfacet
  facet normal 0 0 1
    outer loop
      vertex -13.7032 -6.10105 20
      vertex -1.46167 -0.650778 20
      vertex -1.56504 -0.332658 20
    endloop
  endfacet
  facet normal 0 0 1
    outer loop
      vertex -0.167245 -1.59123 20
      vertex -1.56793 -14.9178 20
      vertex 1.56793 -14.9178 20
    endloop
  endfacet
  facet normal 0 0 1
    outer loop
      vertex -14.6722 -3.11868 20
      vertex -1.56504 -0.332658 20
      vertex -1.6 0 20
    endloop
  endfacet
  facet normal 0 0 1
    outer loop
      vertex -1.29443 0.940456 20
      vertex -12.1353 8.81678 20
      vertex -1.46167 0.650778 20
    endloop
  endfacet
  facet normal 0 0 1
    outer loop
      vertex -0.494427 -1.52169 20
      vertex -4.63525 -14.2658 20
      vertex -1.56793 -14.9178 20
    endloop
  endfacet
  facet normal -0 0 1
    outer loop
      vertex -13.7032 6.10105 20
      vertex -1.46167 0.650778 20
      vertex -12.1353 8.81678 20
    endloop
  endfacet
  facet normal 0 0 1
    outer loop
      vertex -0.799999 -1.38564 20
      vertex -7.5 -12.9904 20
      vertex -4.63525 -14.2658 20
    endloop
  endfacet
  facet normal 0 0 1
    outer loop
      vertex -1.46167 0.650778 20
      vertex -13.7032 6.10105 20
      vertex -1.56504 0.332658 20
    endloop
  endfacet
  facet normal 0 0 1
    outer loop
      vertex -1.07061 -1.18903 20
      vertex -10.037 -11.1472 20
      vertex -7.5 -12.9904 20
    endloop
  endfacet
  facet normal -0 0 1
    outer loop
      vertex -14.6722 3.11868 20
      vertex -1.56504 0.332658 20
      vertex -13.7032 6.10105 20
    endloop
  endfacet
  facet normal 0 0 1
    outer loop
      vertex -1.29443 -0.940456 20
      vertex -12.1353 -8.81678 20
      vertex -10.037 -11.1472 20
    endloop
  endfacet
  facet normal 0 0 1
    outer loop
      vertex -1.56504 0.332658 20
      vertex -14.6722 3.11868 20
      vertex -1.6 0 20
    endloop
  endfacet
  facet normal 0 0 1
    outer loop
      vertex -1.46167 -0.650778 20
      vertex -13.7032 -6.10105 20
      vertex -12.1353 -8.81678 20
    endloop
  endfacet
  facet normal 0 0 1
    outer loop
      vertex -15 0 20
      vertex -1.6 0 20
      vertex -14.6722 3.11868 20
    endloop
  endfacet
  facet normal 0 0 1
    outer loop
      vertex -1.56504 -0.332658 20
      vertex -14.6722 -3.11868 20
      vertex -13.7032 -6.10105 20
    endloop
  endfacet
  facet normal 0 0 1
    outer loop
      vertex -1.6 0 20
      vertex -15 0 20
      vertex -14.6722 -3.11868 20
    endloop
  endfacet
  facet normal -0.866029 0.499993 0
    outer loop
      vertex -13.7032 6.10105 0
      vertex -12.1353 8.81678 20
      vertex -12.1353 8.81678 0
    endloop
  endfacet
  facet normal -0.866029 0.499993 0
    outer loop
      vertex -12.1353 8.81678 20
      vertex -13.7032 6.10105 0
      vertex -13.7032 6.10105 20
    endloop
  endfacet
  facet normal 0.866029 -0.499993 0
    outer loop
      vertex 12.1353 -8.81678 20
      vertex 13.7032 -6.10105 0
      vertex 13.7032 -6.10105 20
    endloop
  endfacet
  facet normal 0.866029 -0.499993 0
    outer loop
      vertex 13.7032 -6.10105 0
      vertex 12.1353 -8.81678 20
      vertex 12.1353 -8.81678 0
    endloop
  endfacet
  facet normal 0 1 -0
    outer loop
      vertex 1.56793 14.9178 0
      vertex -1.56793 14.9178 20
      vertex 1.56793 14.9178 20
    endloop
  endfacet
  facet normal 0 1 0
    outer loop
      vertex -1.56793 14.9178 20
      vertex 1.56793 14.9178 0
      vertex -1.56793 14.9178 0
    endloop
  endfacet
  facet normal -0.406718 0.913554 0
    outer loop
      vertex -4.63525 14.2658 0
      vertex -7.5 12.9904 20
      vertex -4.63525 14.2658 20
    endloop
  endfacet
  facet normal -0.406718 0.913554 0
    outer loop
      vertex -7.5 12.9904 20
      vertex -4.63525 14.2658 0
      vertex -7.5 12.9904 0
    endloop
  endfacet
  facet normal -0.207918 -0.978146 0
    outer loop
      vertex -4.63525 -14.2658 0
      vertex -1.56793 -14.9178 20
      vertex -4.63525 -14.2658 20
    endloop
  endfacet
  facet normal -0.207918 -0.978146 -0
    outer loop
      vertex -1.56793 -14.9178 20
      vertex -4.63525 -14.2658 0
      vertex -1.56793 -14.9178 0
    endloop
  endfacet
  facet normal 0 -1 0
    outer loop
      vertex -1.56793 -14.9178 0
      vertex 1.56793 -14.9178 20
      vertex -1.56793 -14.9178 20
    endloop
  endfacet
  facet normal 0 -1 -0
    outer loop
      vertex 1.56793 -14.9178 20
      vertex -1.56793 -14.9178 0
      vertex 1.56793 -14.9178 0
    endloop
  endfacet
  facet normal -0.207918 0.978146 0
    outer loop
      vertex -1.56793 14.9178 0
      vertex -4.63525 14.2658 20
      vertex -1.56793 14.9178 20
    endloop
  endfacet
  facet normal -0.207918 0.978146 0
    outer loop
      vertex -4.63525 14.2658 20
      vertex -1.56793 14.9178 0
      vertex -4.63525 14.2658 0
    endloop
  endfacet
  facet normal 0.207918 -0.978146 0
    outer loop
      vertex 1.56793 -14.9178 0
      vertex 4.63525 -14.2658 20
      vertex 1.56793 -14.9178 20
    endloop
  endfacet
  facet normal 0.207918 -0.978146 0
    outer loop
      vertex 4.63525 -14.2658 20
      vertex 1.56793 -14.9178 0
      vertex 4.63525 -14.2658 0
    endloop
  endfacet
  facet normal 0.743148 -0.669127 0
    outer loop
      vertex 10.037 -11.1472 20
      vertex 12.1353 -8.81678 0
      vertex 12.1353 -8.81678 20
    endloop
  endfacet
  facet normal 0.743148 -0.669127 0
    outer loop
      vertex 12.1353 -8.81678 0
      vertex 10.037 -11.1472 20
      vertex 10.037 -11.1472 0
    endloop
  endfacet
  facet normal 0.406718 -0.913554 0
    outer loop
      vertex 4.63525 -14.2658 0
      vertex 7.5 -12.9904 20
      vertex 4.63525 -14.2658 20
    endloop
  endfacet
  facet normal 0.406718 -0.913554 0
    outer loop
      vertex 7.5 -12.9904 20
      vertex 4.63525 -14.2658 0
      vertex 7.5 -12.9904 0
    endloop
  endfacet
  facet normal -0.587777 -0.809023 0
    outer loop
      vertex -10.037 -11.1472 0
      vertex -7.5 -12.9904 20
      vertex -10.037 -11.1472 20
    endloop
  endfacet
  facet normal -0.587777 -0.809023 -0
    outer loop
      vertex -7.5 -12.9904 20
      vertex -10.037 -11.1472 0
      vertex -7.5 -12.9904 0
    endloop
  endfacet
  facet normal -0.994521 0.104533 0
    outer loop
      vertex -15 0 0
      vertex -14.6722 3.11868 20
      vertex -14.6722 3.11868 0
    endloop
  endfacet
  facet normal -0.994521 0.104533 0
    outer loop
      vertex -14.6722 3.11868 20
      vertex -15 0 0
      vertex -15 0 20
    endloop
  endfacet
  facet normal 0.207918 0.978146 -0
    outer loop
      vertex 4.63525 14.2658 0
      vertex 1.56793 14.9178 20
      vertex 4.63525 14.2658 20
    endloop
  endfacet
  facet normal 0.207918 0.978146 0
    outer loop
      vertex 1.56793 14.9178 20
      vertex 4.63525 14.2658 0
      vertex 1.56793 14.9178 0
    endloop
  endfacet
  facet normal -0.866029 -0.499993 0
    outer loop
      vertex -12.1353 -8.81678 0
      vertex -13.7032 -6.10105 20
      vertex -13.7032 -6.10105 0
    endloop
  endfacet
  facet normal -0.866029 -0.499993 0
    outer loop
      vertex -13.7032 -6.10105 20
      vertex -12.1353 -8.81678 0
      vertex -12.1353 -8.81678 20
    endloop
  endfacet
  facet normal 0.406718 0.913554 -0
    outer loop
      vertex 7.5 12.9904 0
      vertex 4.63525 14.2658 20
      vertex 7.5 12.9904 20
    endloop
  endfacet
  facet normal 0.406718 0.913554 0
    outer loop
      vertex 4.63525 14.2658 20
      vertex 7.5 12.9904 0
      vertex 4.63525 14.2658 0
    endloop
  endfacet
  facet normal -0.994521 -0.104533 0
    outer loop
      vertex -14.6722 -3.11868 0
      vertex -15 0 20
      vertex -15 0 0
    endloop
  endfacet
  facet normal -0.994521 -0.104533 0
    outer loop
      vertex -15 0 20
      vertex -14.6722 -3.11868 0
      vertex -14.6722 -3.11868 20
    endloop
  endfacet
  facet normal -0.743148 -0.669127 0
    outer loop
      vertex -10.037 -11.1472 0
      vertex -12.1353 -8.81678 20
      vertex -12.1353 -8.81678 0
    endloop
  endfacet
  facet normal -0.743148 -0.669127 0
    outer loop
      vertex -12.1353 -8.81678 20
      vertex -10.037 -11.1472 0
      vertex -10.037 -11.1472 20
    endloop
  endfacet
  facet normal 0 0 -1
    outer loop
      vertex 14.8949 -1 0
      vertex 25 1 0
      vertex 25 -1 0
    endloop
  endfacet
  facet normal 0 0 -1
    outer loop
      vertex 14.8949 -1 0
      vertex 14.8949 1 0
      vertex 25 1 0
    endloop
  endfacet
  facet normal 0 0 -1
    outer loop
      vertex 1.56504 -0.332658 0
      vertex 14.8949 -1 0
      vertex 14.6722 -3.11868 0
    endloop
  endfacet
  facet normal 0 0 -1
    outer loop
      vertex 14.8949 -1 0
      vertex 1.6 0 0
      vertex 14.8949 1 0
    endloop
  endfacet
  facet normal 0 0 -1
    outer loop
      vertex 1.56504 -0.332658 0
      vertex 14.6722 -3.11868 0
      vertex 13.7032 -6.10105 0
    endloop
  endfacet
  facet normal 0 0 -1
    outer loop
      vertex 1.56504 0.332658 0
      vertex 14.8949 1 0
      vertex 1.6 0 0
    endloop
  endfacet
  facet normal 0 0 -1
    outer loop
      vertex 1.46167 -0.650778 0
      vertex 13.7032 -6.10105 0
      vertex 12.1353 -8.81678 0
    endloop
  endfacet
  facet normal -0 0 -1
    outer loop
      vertex 14.8949 1 0
      vertex 1.56504 0.332658 0
      vertex 14.6722 3.11868 0
    endloop
  endfacet
  facet normal 0 0 -1
    outer loop
      vertex 1.29443 -0.940456 0
      vertex 12.1353 -8.81678 0
      vertex 10.037 -11.1472 0
    endloop
  endfacet
  facet normal -0 0 -1
    outer loop
      vertex 14.6722 3.11868 0
      vertex 1.56504 0.332658 0
      vertex 13.7032 6.10105 0
    endloop
  endfacet
  facet normal 0 0 -1
    outer loop
      vertex 1.07061 -1.18903 0
      vertex 10.037 -11.1472 0
      vertex 7.5 -12.9904 0
    endloop
  endfacet
  facet normal 0 0 -1
    outer loop
      vertex 1.46167 0.650778 0
      vertex 13.7032 6.10105 0
      vertex 1.56504 0.332658 0
    endloop
  endfacet
  facet normal 0 0 -1
    outer loop
      vertex 0.799999 -1.38564 0
      vertex 7.5 -12.9904 0
      vertex 4.63525 -14.2658 0
    endloop
  endfacet
  facet normal -0 0 -1
    outer loop
      vertex 13.7032 6.10105 0
      vertex 1.46167 0.650778 0
      vertex 12.1353 8.81678 0
    endloop
  endfacet
  facet normal 0 0 -1
    outer loop
      vertex 1.29443 0.940456 0
      vertex 12.1353 8.81678 0
      vertex 1.46167 0.650778 0
    endloop
  endfacet
  facet normal 0 0 -1
    outer loop
      vertex 0.494427 -1.52169 0
      vertex 4.63525 -14.2658 0
      vertex 1.56793 -14.9178 0
    endloop
  endfacet
  facet normal 0 0 -1
    outer loop
      vertex 14.8949 -1 0
      vertex 1.56504 -0.332658 0
      vertex 1.6 0 0
    endloop
  endfacet
  facet normal 0 0 -1
    outer loop
      vertex 13.7032 -6.10105 0
      vertex 1.46167 -0.650778 0
      vertex 1.56504 -0.332658 0
    endloop
  endfacet
  facet normal 0 0 -1
    outer loop
      vertex 12.1353 -8.81678 0
      vertex 1.29443 -0.940456 0
      vertex 1.46167 -0.650778 0
    endloop
  endfacet
  facet normal 0 0 -1
    outer loop
      vertex 10.037 -11.1472 0
      vertex 1.07061 -1.18903 0
      vertex 1.29443 -0.940456 0
    endloop
  endfacet
  facet normal 0 0 -1
    outer loop
      vertex 7.5 -12.9904 0
      vertex 0.799999 -1.38564 0
      vertex 1.07061 -1.18903 0
    endloop
  endfacet
  facet normal 0 0 -1
    outer loop
      vertex 4.63525 -14.2658 0
      vertex 0.494427 -1.52169 0
      vertex 0.799999 -1.38564 0
    endloop
  endfacet
  facet normal 0 0 -1
    outer loop
      vertex 1.56793 -14.9178 0
      vertex 0.167245 -1.59123 0
      vertex 0.494427 -1.52169 0
    endloop
  endfacet
  facet normal 0 0 -1
    outer loop
      vertex 1.56793 -14.9178 0
      vertex -0.167245 -1.59123 0
      vertex 0.167245 -1.59123 0
    endloop
  endfacet
  facet normal 0 0 -1
    outer loop
      vertex -1.56793 -14.9178 0
      vertex -0.167245 -1.59123 0
      vertex 1.56793 -14.9178 0
    endloop
  endfacet
  facet normal -0 0 -1
    outer loop
      vertex -0.167245 -1.59123 0
      vertex -1.56793 -14.9178 0
      vertex -0.494427 -1.52169 0
    endloop
  endfacet
  facet normal 0 0 -1
    outer loop
      vertex -4.63525 -14.2658 0
      vertex -0.494427 -1.52169 0
      vertex -1.56793 -14.9178 0
    endloop
  endfacet
  facet normal -0 0 -1
    outer loop
      vertex -0.494427 -1.52169 0
      vertex -4.63525 -14.2658 0
      vertex -0.799999 -1.38564 0
    endloop
  endfacet
  facet normal 0 0 -1
    outer loop
      vertex -7.5 -12.9904 0
      vertex -0.799999 -1.38564 0
      vertex -4.63525 -14.2658 0
    endloop
  endfacet
  facet normal -0 0 -1
    outer loop
      vertex -0.799999 -1.38564 0
      vertex -7.5 -12.9904 0
      vertex -1.07061 -1.18903 0
    endloop
  endfacet
  facet normal 0 0 -1
    outer loop
      vertex -10.037 -11.1472 0
      vertex -1.07061 -1.18903 0
      vertex -7.5 -12.9904 0
    endloop
  endfacet
  facet normal -0 0 -1
    outer loop
      vertex -1.07061 -1.18903 0
      vertex -10.037 -11.1472 0
      vertex -1.29443 -0.940456 0
    endloop
  endfacet
  facet normal 0 0 -1
    outer loop
      vertex -12.1353 -8.81678 0
      vertex -1.29443 -0.940456 0
      vertex -10.037 -11.1472 0
    endloop
  endfacet
  facet normal -0 0 -1
    outer loop
      vertex 12.1353 8.81678 0
      vertex 1.29443 0.940456 0
      vertex 10.037 11.1472 0
    endloop
  endfacet
  facet normal 0 0 -1
    outer loop
      vertex 1.07061 1.18903 0
      vertex 10.037 11.1472 0
      vertex 1.29443 0.940456 0
    endloop
  endfacet
  facet normal -0 0 -1
    outer loop
      vertex 10.037 11.1472 0
      vertex 1.07061 1.18903 0
      vertex 7.5 12.9904 0
    endloop
  endfacet
  facet normal 0 0 -1
    outer loop
      vertex 0.799999 1.38564 0
      vertex 7.5 12.9904 0
      vertex 1.07061 1.18903 0
    endloop
  endfacet
  facet normal -0 0 -1
    outer loop
      vertex 7.5 12.9904 0
      vertex 0.799999 1.38564 0
      vertex 4.63525 14.2658 0
    endloop
  endfacet
  facet normal 0 0 -1
    outer loop
      vertex 0.494427 1.52169 0
      vertex 4.63525 14.2658 0
      vertex 0.799999 1.38564 0
    endloop
  endfacet
  facet normal -0 0 -1
    outer loop
      vertex 4.63525 14.2658 0
      vertex 0.494427 1.52169 0
      vertex 1.56793 14.9178 0
    endloop
  endfacet
  facet normal 0 0 -1
    outer loop
      vertex 0.167245 1.59123 0
      vertex 1.56793 14.9178 0
      vertex 0.494427 1.52169 0
    endloop
  endfacet
  facet normal 0 0 -1
    outer loop
      vertex -0.167245 1.59123 0
      vertex 1.56793 14.9178 0
      vertex 0.167245 1.59123 0
    endloop
  endfacet
  facet normal 0 0 -1
    outer loop
      vertex -1.56793 14.9178 0
      vertex -0.167245 1.59123 0
      vertex -0.494427 1.52169 0
    endloop
  endfacet
  facet normal 0 0 -1
    outer loop
      vertex -4.63525 14.2658 0
      vertex -0.494427 1.52169 0
      vertex -0.799999 1.38564 0
    endloop
  endfacet
  facet normal 0 0 -1
    outer loop
      vertex -7.5 12.9904 0
      vertex -0.799999 1.38564 0
      vertex -1.07061 1.18903 0
    endloop
  endfacet
  facet normal 0 0 -1
    outer loop
      vertex -10.037 11.1472 0
      vertex -1.07061 1.18903 0
      vertex -1.29443 0.940456 0
    endloop
  endfacet
  facet normal 0 0 -1
    outer loop
      vertex -12.1353 8.81678 0
      vertex -1.29443 0.940456 0
      vertex -1.46167 0.650778 0
    endloop
  endfacet
  facet normal 0 0 -1
    outer loop
      vertex -13.7032 6.10105 0
      vertex -1.46167 0.650778 0
      vertex -1.56504 0.332658 0
    endloop
  endfacet
  facet normal 0 0 -1
    outer loop
      vertex -0.167245 1.59123 0
      vertex -1.56793 14.9178 0
      vertex 1.56793 14.9178 0
    endloop
  endfacet
  facet normal 0 0 -1
    outer loop
      vertex -14.6722 3.11868 0
      vertex -1.56504 0.332658 0
      vertex -1.6 0 0
    endloop
  endfacet
  facet normal -0 0 -1
    outer loop
      vertex -1.29443 -0.940456 0
      vertex -12.1353 -8.81678 0
      vertex -1.46167 -0.650778 0
    endloop
  endfacet
  facet normal 0 0 -1
    outer loop
      vertex -0.494427 1.52169 0
      vertex -4.63525 14.2658 0
      vertex -1.56793 14.9178 0
    endloop
  endfacet
  facet normal 0 0 -1
    outer loop
      vertex -13.7032 -6.10105 0
      vertex -1.46167 -0.650778 0
      vertex -12.1353 -8.81678 0
    endloop
  endfacet
  facet normal 0 0 -1
    outer loop
      vertex -0.799999 1.38564 0
      vertex -7.5 12.9904 0
      vertex -4.63525 14.2658 0
    endloop
  endfacet
  facet normal -0 0 -1
    outer loop
      vertex -1.46167 -0.650778 0
      vertex -13.7032 -6.10105 0
      vertex -1.56504 -0.332658 0
    endloop
  endfacet
  facet normal 0 0 -1
    outer loop
      vertex -1.07061 1.18903 0
      vertex -10.037 11.1472 0
      vertex -7.5 12.9904 0
    endloop
  endfacet
  facet normal 0 0 -1
    outer loop
      vertex -14.6722 -3.11868 0
      vertex -1.56504 -0.332658 0
      vertex -13.7032 -6.10105 0
    endloop
  endfacet
  facet normal 0 0 -1
    outer loop
      vertex -1.29443 0.940456 0
      vertex -12.1353 8.81678 0
      vertex -10.037 11.1472 0
    endloop
  endfacet
  facet normal -0 0 -1
    outer loop
      vertex -1.56504 -0.332658 0
      vertex -14.6722 -3.11868 0
      vertex -1.6 0 0
    endloop
  endfacet
  facet normal 0 0 -1
    outer loop
      vertex -1.46167 0.650778 0
      vertex -13.7032 6.10105 0
      vertex -12.1353 8.81678 0
    endloop
  endfacet
  facet normal 0 0 -1
    outer loop
      vertex -15 0 0
      vertex -1.6 0 0
      vertex -14.6722 -3.11868 0
    endloop
  endfacet
  facet normal 0 0 -1
    outer loop
      vertex -1.56504 0.332658 0
      vertex -14.6722 3.11868 0
      vertex -13.7032 6.10105 0
    endloop
  endfacet
  facet normal 0 0 -1
    outer loop
      vertex -1.6 0 0
      vertex -15 0 0
      vertex -14.6722 3.11868 0
    endloop
  endfacet
  facet normal -0.406718 -0.913554 0
    outer loop
      vertex -7.5 -12.9904 0
      vertex -4.63525 -14.2658 20
      vertex -7.5 -12.9904 20
    endloop
  endfacet
  facet normal -0.406718 -0.913554 -0
    outer loop
      vertex -4.63525 -14.2658 20
      vertex -7.5 -12.9904 0
      vertex -4.63525 -14.2658 0
    endloop
  endfacet
  facet normal 1 -0 0
    outer loop
      vertex 25 -1 20
      vertex 25 1 0
      vertex 25 1 20
    endloop
  endfacet
  facet normal 1 0 0
    outer loop
      vertex 25 1 0
      vertex 25 -1 20
      vertex 25 -1 0
    endloop
  endfacet
  facet normal 0 1 -0
    outer loop
      vertex 25 1 0
      vertex 14.8949 1 20
      vertex 25 1 20
    endloop
  endfacet
  facet normal 0 1 0
    outer loop
      vertex 14.8949 1 20
      vertex 25 1 0
      vertex 14.8949 1 0
    endloop
  endfacet
  facet normal 0 -1 0
    outer loop
      vertex 14.8949 -1 0
      vertex 25 -1 20
      vertex 14.8949 -1 20
    endloop
  endfacet
  facet normal 0 -1 -0
    outer loop
      vertex 25 -1 20
      vertex 14.8949 -1 0
      vertex 25 -1 0
    endloop
  endfacet
  facet normal 0.994523 -0.104517 0
    outer loop
      vertex -1.6 0 20
      vertex -1.56504 0.332658 0
      vertex -1.56504 0.332658 20
    endloop
  endfacet
  facet normal 0.994523 -0.104517 0
    outer loop
      vertex -1.56504 0.332658 0
      vertex -1.6 0 20
      vertex -1.6 0 0
    endloop
  endfacet
  facet normal -0.951051 -0.309035 0
    outer loop
      vertex 1.56504 0.332658 0
      vertex 1.46167 0.650778 20
      vertex 1.46167 0.650778 0
    endloop
  endfacet
  facet normal -0.951051 -0.309035 0
    outer loop
      vertex 1.46167 0.650778 20
      vertex 1.56504 0.332658 0
      vertex 1.56504 0.332658 20
    endloop
  endfacet
  facet normal -0.994523 -0.104517 0
    outer loop
      vertex 1.6 0 0
      vertex 1.56504 0.332658 20
      vertex 1.56504 0.332658 0
    endloop
  endfacet
  facet normal -0.994523 -0.104517 0
    outer loop
      vertex 1.56504 0.332658 20
      vertex 1.6 0 0
      vertex 1.6 0 20
    endloop
  endfacet
  facet normal -0.866033 -0.499987 0
    outer loop
      vertex 1.46167 0.650778 0
      vertex 1.29443 0.940456 20
      vertex 1.29443 0.940456 0
    endloop
  endfacet
  facet normal -0.866033 -0.499987 0
    outer loop
      vertex 1.29443 0.940456 20
      vertex 1.46167 0.650778 0
      vertex 1.46167 0.650778 20
    endloop
  endfacet
  facet normal -0.994523 0.104517 0
    outer loop
      vertex 1.56504 -0.332658 0
      vertex 1.6 0 20
      vertex 1.6 0 0
    endloop
  endfacet
  facet normal -0.994523 0.104517 0
    outer loop
      vertex 1.6 0 20
      vertex 1.56504 -0.332658 0
      vertex 1.56504 -0.332658 20
    endloop
  endfacet
  facet normal -0.74314 -0.669136 0
    outer loop
      vertex 1.29443 0.940456 0
      vertex 1.07061 1.18903 20
      vertex 1.07061 1.18903 0
    endloop
  endfacet
  facet normal -0.74314 -0.669136 0
    outer loop
      vertex 1.07061 1.18903 20
      vertex 1.29443 0.940456 0
      vertex 1.29443 0.940456 20
    endloop
  endfacet
  facet normal -0.866033 0.499987 0
    outer loop
      vertex 1.29443 -0.940456 0
      vertex 1.46167 -0.650778 20
      vertex 1.46167 -0.650778 0
    endloop
  endfacet
  facet normal -0.866033 0.499987 0
    outer loop
      vertex 1.46167 -0.650778 20
      vertex 1.29443 -0.940456 0
      vertex 1.29443 -0.940456 20
    endloop
  endfacet
  facet normal -0.207898 -0.97815 0
    outer loop
      vertex 0.167245 1.59123 0
      vertex 0.494427 1.52169 20
      vertex 0.167245 1.59123 20
    endloop
  endfacet
  facet normal -0.207898 -0.97815 -0
    outer loop
      vertex 0.494427 1.52169 20
      vertex 0.167245 1.59123 0
      vertex 0.494427 1.52169 0
    endloop
  endfacet
  facet normal 0.951051 0.309035 0
    outer loop
      vertex -1.46167 -0.650778 20
      vertex -1.56504 -0.332658 0
      vertex -1.56504 -0.332658 20
    endloop
  endfacet
  facet normal 0.951051 0.309035 0
    outer loop
      vertex -1.56504 -0.332658 0
      vertex -1.46167 -0.650778 20
      vertex -1.46167 -0.650778 0
    endloop
  endfacet
  facet normal -0.587784 -0.809018 0
    outer loop
      vertex 0.799999 1.38564 0
      vertex 1.07061 1.18903 20
      vertex 0.799999 1.38564 20
    endloop
  endfacet
  facet normal -0.587784 -0.809018 -0
    outer loop
      vertex 1.07061 1.18903 20
      vertex 0.799999 1.38564 0
      vertex 1.07061 1.18903 0
    endloop
  endfacet
  facet normal 0.74314 0.669136 0
    outer loop
      vertex -1.07061 -1.18903 20
      vertex -1.29443 -0.940456 0
      vertex -1.29443 -0.940456 20
    endloop
  endfacet
  facet normal 0.74314 0.669136 0
    outer loop
      vertex -1.29443 -0.940456 0
      vertex -1.07061 -1.18903 20
      vertex -1.07061 -1.18903 0
    endloop
  endfacet
  facet normal 0.587784 -0.809018 0
    outer loop
      vertex -1.07061 1.18903 0
      vertex -0.799999 1.38564 20
      vertex -1.07061 1.18903 20
    endloop
  endfacet
  facet normal 0.587784 -0.809018 0
    outer loop
      vertex -0.799999 1.38564 20
      vertex -1.07061 1.18903 0
      vertex -0.799999 1.38564 0
    endloop
  endfacet
  facet normal -0.207898 0.97815 0
    outer loop
      vertex 0.494427 -1.52169 0
      vertex 0.167245 -1.59123 20
      vertex 0.494427 -1.52169 20
    endloop
  endfacet
  facet normal -0.207898 0.97815 0
    outer loop
      vertex 0.167245 -1.59123 20
      vertex 0.494427 -1.52169 0
      vertex 0.167245 -1.59123 0
    endloop
  endfacet
  facet normal -0.74314 0.669136 0
    outer loop
      vertex 1.07061 -1.18903 0
      vertex 1.29443 -0.940456 20
      vertex 1.29443 -0.940456 0
    endloop
  endfacet
  facet normal -0.74314 0.669136 0
    outer loop
      vertex 1.29443 -0.940456 20
      vertex 1.07061 -1.18903 0
      vertex 1.07061 -1.18903 20
    endloop
  endfacet
  facet normal 0.951051 -0.309035 0
    outer loop
      vertex -1.56504 0.332658 20
      vertex -1.46167 0.650778 0
      vertex -1.46167 0.650778 20
    endloop
  endfacet
  facet normal 0.951051 -0.309035 0
    outer loop
      vertex -1.46167 0.650778 0
      vertex -1.56504 0.332658 20
      vertex -1.56504 0.332658 0
    endloop
  endfacet
  facet normal 0.406738 0.913545 -0
    outer loop
      vertex -0.494427 -1.52169 0
      vertex -0.799999 -1.38564 20
      vertex -0.494427 -1.52169 20
    endloop
  endfacet
  facet normal 0.406738 0.913545 0
    outer loop
      vertex -0.799999 -1.38564 20
      vertex -0.494427 -1.52169 0
      vertex -0.799999 -1.38564 0
    endloop
  endfacet
  facet normal 0.406738 -0.913545 0
    outer loop
      vertex -0.799999 1.38564 0
      vertex -0.494427 1.52169 20
      vertex -0.799999 1.38564 20
    endloop
  endfacet
  facet normal 0.406738 -0.913545 0
    outer loop
      vertex -0.494427 1.52169 20
      vertex -0.799999 1.38564 0
      vertex -0.494427 1.52169 0
    endloop
  endfacet
  facet normal -0.406738 0.913545 0
    outer loop
      vertex 0.799999 -1.38564 0
      vertex 0.494427 -1.52169 20
      vertex 0.799999 -1.38564 20
    endloop
  endfacet
  facet normal -0.406738 0.913545 0
    outer loop
      vertex 0.494427 -1.52169 20
      vertex 0.799999 -1.38564 0
      vertex 0.494427 -1.52169 0
    endloop
  endfacet
  facet normal -0.951051 0.309035 0
    outer loop
      vertex 1.46167 -0.650778 0
      vertex 1.56504 -0.332658 20
      vertex 1.56504 -0.332658 0
    endloop
  endfacet
  facet normal -0.951051 0.309035 0
    outer loop
      vertex 1.56504 -0.332658 20
      vertex 1.46167 -0.650778 0
      vertex 1.46167 -0.650778 20
    endloop
  endfacet
  facet normal 0.994523 0.104517 0
    outer loop
      vertex -1.56504 -0.332658 20
      vertex -1.6 0 0
      vertex -1.6 0 20
    endloop
  endfacet
  facet normal 0.994523 0.104517 0
    outer loop
      vertex -1.6 0 0
      vertex -1.56504 -0.332658 20
      vertex -1.56504 -0.332658 0
    endloop
  endfacet
  facet normal 0.207898 0.97815 -0
    outer loop
      vertex -0.167245 -1.59123 0
      vertex -0.494427 -1.52169 20
      vertex -0.167245 -1.59123 20
    endloop
  endfacet
  facet normal 0.207898 0.97815 0
    outer loop
      vertex -0.494427 -1.52169 20
      vertex -0.167245 -1.59123 0
      vertex -0.494427 -1.52169 0
    endloop
  endfacet
  facet normal 0.866033 0.499987 0
    outer loop
      vertex -1.29443 -0.940456 20
      vertex -1.46167 -0.650778 0
      vertex -1.46167 -0.650778 20
    endloop
  endfacet
  facet normal 0.866033 0.499987 0
    outer loop
      vertex -1.46167 -0.650778 0
      vertex -1.29443 -0.940456 20
      vertex -1.29443 -0.940456 0
    endloop
  endfacet
  facet normal 0.207898 -0.97815 0
    outer loop
      vertex -0.494427 1.52169 0
      vertex -0.167245 1.59123 20
      vertex -0.494427 1.52169 20
    endloop
  endfacet
  facet normal 0.207898 -0.97815 0
    outer loop
      vertex -0.167245 1.59123 20
      vertex -0.494427 1.52169 0
      vertex -0.167245 1.59123 0
    endloop
  endfacet
  facet normal -0.406738 -0.913545 0
    outer loop
      vertex 0.494427 1.52169 0
      vertex 0.799999 1.38564 20
      vertex 0.494427 1.52169 20
    endloop
  endfacet
  facet normal -0.406738 -0.913545 -0
    outer loop
      vertex 0.799999 1.38564 20
      vertex 0.494427 1.52169 0
      vertex 0.799999 1.38564 0
    endloop
  endfacet
  facet normal 0.74314 -0.669136 0
    outer loop
      vertex -1.29443 0.940456 20
      vertex -1.07061 1.18903 0
      vertex -1.07061 1.18903 20
    endloop
  endfacet
  facet normal 0.74314 -0.669136 0
    outer loop
      vertex -1.07061 1.18903 0
      vertex -1.29443 0.940456 20
      vertex -1.29443 0.940456 0
    endloop
  endfacet
  facet normal 0.866033 -0.499987 0
    outer loop
      vertex -1.46167 0.650778 20
      vertex -1.29443 0.940456 0
      vertex -1.29443 0.940456 20
    endloop
  endfacet
  facet normal 0.866033 -0.499987 0
    outer loop
      vertex -1.29443 0.940456 0
      vertex -1.46167 0.650778 20
      vertex -1.46167 0.650778 0
    endloop
  endfacet
  facet normal 0 1 -0
    outer loop
      vertex 0.167245 -1.59123 0
      vertex -0.167245 -1.59123 20
      vertex 0.167245 -1.59123 20
    endloop
  endfacet
  facet normal 0 1 0
    outer loop
      vertex -0.167245 -1.59123 20
      vertex 0.167245 -1.59123 0
      vertex -0.167245 -1.59123 0
    endloop
  endfacet
  facet normal -0.587784 0.809018 0
    outer loop
      vertex 1.07061 -1.18903 0
      vertex 0.799999 -1.38564 20
      vertex 1.07061 -1.18903 20
    endloop
  endfacet
  facet normal -0.587784 0.809018 0
    outer loop
      vertex 0.799999 -1.38564 20
      vertex 1.07061 -1.18903 0
      vertex 0.799999 -1.38564 0
    endloop
  endfacet
  facet normal 0 -1 0
    outer loop
      vertex -0.167245 1.59123 0
      vertex 0.167245 1.59123 20
      vertex -0.167245 1.59123 20
    endloop
  endfacet
  facet normal 0 -1 -0
    outer loop
      vertex 0.167245 1.59123 20
      vertex -0.167245 1.59123 0
      vertex 0.167245 1.59123 0
    endloop
  endfacet
  facet normal 0.587784 0.809018 -0
    outer loop
      vertex -0.799999 -1.38564 0
      vertex -1.07061 -1.18903 20
      vertex -0.799999 -1.38564 20
    endloop
  endfacet
  facet normal 0.587784 0.809018 0
    outer loop
      vertex -1.07061 -1.18903 20
      vertex -0.799999 -1.38564 0
      vertex -1.07061 -1.18903 0
    endloop
  endfacet
endsolid OpenSCAD_Model
