<?xml version="1.0" encoding="UTF-8" standalone="no"?>
<svg width="100.0mm" height="84.8mm" viewBox="0 0 100.000 84.838"
     xmlns="http://www.w3.org/2000/svg" version="1.1">
  <g fill="black" fill-rule="evenodd" stroke="none">
    <path d="M 46.751 0.000 L 47.112 0.000 L 47.473 0.000 L 47.834 0.000 L 48.195 0.000 L 48.556 0.000 L 48.917 0.000 L 49.278 0.000 L 49.639 0.000 L 50.000 0.000 L 50.361 0.000 L 50.722 0.000 L 51.083 0.000 L 51.444 0.000 L 51.805 0.000 L 52.166 0.000 L 52.527 0.000 L 52.708 0.181 L 52.888 0.361 L 53.069 0.542 L 53.069 0.903 L 53.069 1.264 L 53.249 1.444 L 53.430 1.625 L 53.430 1.986 L 53.430 2.347 L 53.430 2.708 L 53.430 3.069 L 53.430 3.430 L 53.610 3.610 L 53.791 3.791 L 53.791 4.152 L 53.971 4.332 L 54.332 4.332 L 54.693 4.332 L 55.054 4.332 L 55.415 4.332 L 55.776 4.332 L 56.137 4.332 L 56.318 4.513 L 56.498 4.693 L 56.859 4.693 L 57.220 4.693 L 57.581 4.693 L 57.942 4.693 L 58.303 4.693 L 58.484 4.874 L 58.664 5.054 L 59.025 5.054 L 59.386 5.054 L 59.747 5.054 L 59.928 4.874 L 59.928 4.513 L 60.108 4.332 L 60.289 4.152 L 60.469 3.971 L 60.650 3.791 L 60.830 3.610 L 61.011 3.430 L 61.011 3.069 L 61.191 2.888 L 61.372 2.708 L 61.552 2.527 L 61.733 2.347 L 61.733 1.986 L 61.913 1.805 L 62.094 1.625 L 62.274 1.444 L 62.635 1.444 L 62.996 1.444 L 63.357 1.444 L 63.538 1.625 L 63.718 1.805 L 64.079 1.805 L 64.260 1.986 L 64.440 2.166 L 64.801 2.166 L 64.982 2.347 L 65.162 2.527 L 65.523 2.527 L 65.884 2.527 L 66.065 2.708 L 66.245 2.888 L 66.606 2.888 L 66.787 3.069 L 66.968 3.249 L 67.329 3.249 L 67.509 3.430 L 67.690 3.610 L 67.870 3.791 L 67.870 4.152 L 67.870 4.513 L 67.870 4.874 L 67.690 5.054 L 67.509 5.235 L 67.509 5.596 L 67.509 5.957 L 67.509 6.318 L 67.509 6.679 L 67.509 7.040 L 67.329 7.220 L 67.148 7.401 L 67.148 7.762 L 67.329 7.942 L 67.509 8.123 L 67.690 8.303 L 68.051 8.303 L 68.231 8.484 L 68.412 8.664 L 68.773 8.664 L 68.953 8.845 L 69.134 9.025 L 69.495 9.025 L 69.675 9.206 L 69.856 9.386 L 70.217 9.386 L 70.397 9.567 L 70.578 9.747 L 70.758 9.928 L 70.939 10.108 L 71.300 10.108 L 71.480 10.289 L 71.661 10.469 L 71.841 10.289 L 72.022 10.108 L 72.202 9.928 L 72.383 9.747 L 72.744 9.747 L 72.924 9.567 L 73.105 9.386 L 73.285 9.206 L 73.466 9.025 L 73.827 9.025 L 74.007 8.845 L 74.188 8.664 L 74.368 8.484 L 74.549 8.303 L 74.910 8.303 L 75.090 8.123 L 75.271 7.942 L 75.451 8.123 L 75.632 8.303 L 75.812 8.484 L 75.993 8.664 L 76.173 8.845 L 76.354 9.025 L 76.534 9.206 L 76.715 9.386 L 76.895 9.567 L 77.076 9.747 L 77.256 9.928 L 77.437 10.108 L 77.617 10.289 L 77.798 10.469 L 78.159 10.469 L 78.339 10.650 L 78.339 11.011 L 78.520 11.191 L 78.700 11.372 L 78.881 11.552 L 79.061 11.733 L 79.242 11.913 L 79.422 12.094 L 79.422 12.455 L 79.422 12.816 L 79.242 12.996 L 79.061 13.177 L 78.881 13.357 L 78.700 13.538 L 78.700 13.899 L 78.520 14.079 L 78.339 14.260 L 78.339 14.621 L 78.159 14.801 L 77.978 14.982 L 77.798 15.162 L 77.617 15.343 L 77.798 15.523 L 77.978 15.704 L 78.159 15.884 L 78.339 16.065 L 78.520 16.245 L 78.700 16.426 L 78.881 16.606 L 79.061 16.787 L 79.242 16.968 L 79.422 17.148 L 79.603 17.329 L 79.783 17.509 L 79.783 17.870 L 79.964 18.051 L 80.144 18.231 L 80.325 18.412 L 80.505 18.592 L 80.325 18.773 L 80.144 18.953 L 79.964 19.134 L 79.783 19.314 L 79.603 19.495 L 79.422 19.675 L 79.242 19.856 L 79.061 20.036 L 78.881 20.217 L 78.700 20.397 L 78.520 20.578 L 78.339 20.758 L 78.159 20.939 L 77.978 21.119 L 77.798 21.300 L 77.437 21.300 L 77.256 21.119 L 77.256 20.758 L 77.076 20.578 L 76.895 20.397 L 76.715 20.217 L 76.354 20.217 L 76.173 20.036 L 76.173 19.675 L 75.993 19.495 L 75.812 19.314 L 75.632 19.134 L 75.451 18.953 L 75.271 18.773 L 75.090 18.592 L 74.910 18.412 L 74.729 18.231 L 74.549 18.051 L 74.368 17.870 L 74.188 17.690 L 74.007 17.509 L 73.827 17.329 L 73.466 17.329 L 73.285 17.148 L 73.285 16.787 L 73.105 16.606 L 72.744 16.606 L 72.563 16.426 L 72.563 16.065 L 72.383 15.884 L 72.022 15.884 L 71.841 15.704 L 71.661 15.523 L 71.480 15.343 L 71.300 15.162 L 70.939 15.162 L 70.758 14.982 L 70.578 14.801 L 70.397 14.621 L 70.217 14.440 L 70.036 14.260 L 69.856 14.079 L 69.495 14.079 L 69.314 13.899 L 69.134 13.718 L 68.953 13.538 L 68.773 13.357 L 68.412 13.357 L 68.231 13.177 L 68.051 12.996 L 67.690 12.996 L 67.509 12.816 L 67.329 12.635 L 67.148 12.455 L 66.968 12.274 L 66.606 12.274 L 66.426 12.094 L 66.245 11.913 L 65.884 11.913 L 65.704 11.733 L 65.523 11.552 L 65.162 11.552 L 64.982 11.372 L 64.801 11.191 L 64.440 11.191 L 64.079 11.191 L 63.899 11.011 L 63.718 10.830 L 63.357 10.830 L 63.177 10.650 L 62.996 10.469 L 62.635 10.469 L 62.455 10.289 L 62.274 10.108 L 61.913 10.108 L 61.552 10.108 L 61.372 9.928 L 61.191 9.747 L 60.830 9.747 L 60.469 9.747 L 60.108 9.747 L 59.928 9.567 L 59.747 9.386 L 59.386 9.386 L 59.025 9.386 L 58.845 9.206 L 58.664 9.025 L 58.303 9.025 L 57.942 9.025 L 57.581 9.025 L 57.401 8.845 L 57.220 8.664 L 56.859 8.664 L 56.498 8.664 L 56.137 8.664 L 55.776 8.664 L 55.415 8.664 L 55.235 8.484 L 55.054 8.303 L 54.693 8.303 L 54.332 8.303 L 53.971 8.303 L 53.610 8.303 L 53.249 8.303 L 53.069 8.123 L 52.888 7.942 L 52.527 7.942 L 52.166 7.942 L 51.805 7.942 L 51.444 7.942 L 51.083 7.942 L 50.722 7.942 L 50.361 7.942 L 50.000 7.942 L 49.639 7.942 L 49.278 7.942 L 48.917 7.942 L 48.556 7.942 L 48.195 7.942 L 47.834 7.942 L 47.653 8.123 L 47.473 8.303 L 47.112 8.303 L 46.751 8.303 L 46.390 8.303 L 46.029 8.303 L 45.668 8.303 L 45.307 8.303 L 44.946 8.303 L 44.765 8.484 L 44.585 8.664 L 44.224 8.664 L 43.863 8.664 L 43.502 8.664 L 43.141 8.664 L 42.780 8.664 L 42.599 8.845 L 42.419 9.025 L 42.058 9.025 L 41.697 9.025 L 41.336 9.025 L 41.155 9.206 L 40.975 9.386 L 40.614 9.386 L 40.253 9.386 L 40.072 9.567 L 39.892 9.747 L 39.531 9.747 L 39.170 9.747 L 38.809 9.747 L 38.628 9.928 L 38.448 10.108 L 38.087 10.108 L 37.906 10.289 L 37.726 10.469 L 37.365 10.469 L 37.004 10.469 L 36.823 10.650 L 36.643 10.830 L 36.282 10.830 L 36.101 11.011 L 35.921 11.191 L 35.560 11.191 L 35.199 11.191 L 35.018 11.372 L 34.838 11.552 L 34.477 11.552 L 34.296 11.733 L 34.116 11.913 L 33.935 12.094 L 33.755 12.274 L 33.394 12.274 L 33.213 12.455 L 33.032 12.635 L 32.671 12.635 L 32.491 12.816 L 32.310 12.996 L 31.949 12.996 L 31.769 13.177 L 31.588 13.357 L 31.408 13.538 L 31.227 13.718 L 30.866 13.718 L 30.686 13.899 L 30.505 14.079 L 30.325 14.260 L 30.144 14.440 L 29.783 14.440 L 29.603 14.621 L 29.422 14.801 L 29.242 14.982 L 29.061 15.162 L 28.700 15.162 L 28.520 15.343 L 28.339 15.523 L 28.159 15.704 L 27.978 15.884 L 27.798 16.065 L 27.617 16.245 L 27.437 16.426 L 27.256 16.606 L 27.076 16.787 L 26.895 16.968 L 26.715 17.148 L 26.534 17.329 L 26.173 17.329 L 25.993 17.509 L 25.993 17.870 L 25.812 18.051 L 25.451 18.051 L 25.271 18.231 L 25.090 18.412 L 24.910 18.592 L 24.910 18.953 L 24.729 19.134 L 24.549 19.314 L 24.368 19.495 L 24.188 19.675 L 24.007 19.856 L 23.827 20.036 L 23.646 20.217 L 23.466 20.397 L 23.285 20.578 L 23.105 20.758 L 23.105 21.119 L 22.924 21.300 L 22.563 21.300 L 22.383 21.480 L 22.383 21.841 L 22.202 22.022 L 22.022 22.202 L 21.841 22.383 L 21.661 22.563 L 21.661 22.924 L 21.480 23.105 L 21.300 23.285 L 21.119 23.466 L 20.939 23.646 L 20.939 24.007 L 20.758 24.188 L 20.578 24.368 L 20.397 24.549 L 20.217 24.729 L 20.217 25.090 L 20.036 25.271 L 19.856 25.451 L 19.675 25.632 L 19.495 25.812 L 19.495 26.173 L 19.314 26.354 L 19.134 26.534 L 18.953 26.715 L 18.592 26.715 L 18.231 26.715 L 17.870 26.715 L 17.509 26.715 L 17.148 26.715 L 16.787 26.715 L 16.426 26.715 L 16.065 26.715 L 15.704 26.715 L 15.343 26.715 L 14.982 26.715 L 14.801 26.534 L 14.801 26.173 L 14.801 25.812 L 14.621 25.632 L 14.440 25.451 L 14.260 25.271 L 13.899 25.271 L 13.718 25.090 L 13.538 24.910 L 13.357 24.729 L 13.177 24.549 L 12.996 24.368 L 12.816 24.188 L 12.455 24.188 L 12.274 24.007 L 12.455 23.827 L 12.635 23.646 L 12.635 23.285 L 12.635 22.924 L 12.816 22.744 L 12.996 22.563 L 12.996 22.202 L 13.177 22.022 L 13.357 21.841 L 13.357 21.480 L 13.357 21.119 L 13.538 20.939 L 13.718 20.758 L 13.718 20.397 L 13.899 20.217 L 14.079 20.036 L 14.079 19.675 L 14.079 19.314 L 14.260 19.134 L 14.440 18.953 L 14.440 18.592 L 14.621 18.412 L 14.982 18.412 L 15.343 18.412 L 15.704 18.412 L 15.884 18.592 L 16.065 18.773 L 16.426 18.773 L 16.787 18.773 L 17.148 18.773 L 17.509 18.773 L 17.690 18.953 L 17.870 19.134 L 18.231 19.134 L 18.592 19.134 L 18.953 19.134 L 19.314 19.134 L 19.495 18.953 L 19.495 18.592 L 19.675 18.412 L 19.856 18.231 L 20.036 18.051 L 20.217 17.870 L 20.397 17.690 L 20.578 17.509 L 20.758 17.329 L 20.939 17.148 L 21.119 16.968 L 21.300 16.787 L 21.300 16.426 L 21.480 16.245 L 21.661 16.065 L 21.841 15.884 L 22.022 15.704 L 22.202 15.523 L 22.383 15.343 L 22.202 15.162 L 22.022 14.982 L 22.022 14.621 L 21.841 14.440 L 21.661 14.260 L 21.480 14.079 L 21.300 13.899 L 21.300 13.538 L 21.119 13.357 L 20.939 13.177 L 20.758 12.996 L 20.578 12.816 L 20.578 12.455 L 20.578 12.094 L 20.758 11.913 L 20.939 11.733 L 21.119 11.552 L 21.300 11.372 L 21.480 11.191 L 21.661 11.011 L 21.841 10.830 L 22.022 10.650 L 22.202 10.469 L 22.383 10.289 L 22.563 10.108 L 22.744 9.928 L 22.924 9.747 L 23.105 9.567 L 23.285 9.386 L 23.466 9.206 L 23.646 9.025 L 23.827 8.845 L 24.007 8.664 L 24.188 8.484 L 24.368 8.303 L 24.549 8.123 L 24.729 7.942 L 24.910 8.123 L 25.090 8.303 L 25.271 8.484 L 25.451 8.664 L 25.812 8.664 L 25.993 8.845 L 26.173 9.025 L 26.354 9.206 L 26.534 9.386 L 26.895 9.386 L 27.076 9.567 L 27.256 9.747 L 27.617 9.747 L 27.798 9.928 L 27.978 10.108 L 28.159 10.289 L 28.339 10.469 L 28.700 10.469 L 28.881 10.289 L 29.061 10.108 L 29.242 9.928 L 29.422 9.747 L 29.783 9.747 L 29.964 9.567 L 30.144 9.386 L 30.505 9.386 L 30.686 9.206 L 30.866 9.025 L 31.227 9.025 L 31.408 8.845 L 31.588 8.664 L 31.769 8.484 L 31.949 8.303 L 32.310 8.303 L 32.491 8.123 L 32.671 7.942 L 33.032 7.942 L 33.213 7.762 L 33.032 7.581 L 32.852 7.401 L 32.852 7.040 L 32.852 6.679 L 32.852 6.318 L 32.852 5.957 L 32.852 5.596 L 32.852 5.235 L 32.852 4.874 L 32.671 4.693 L 32.491 4.513 L 32.491 4.152 L 32.491 3.791 L 32.671 3.610 L 33.032 3.610 L 33.213 3.430 L 33.394 3.249 L 33.755 3.249 L 34.116 3.249 L 34.296 3.069 L 34.477 2.888 L 34.838 2.888 L 35.018 2.708 L 35.199 2.527 L 35.560 2.527 L 35.740 2.347 L 35.921 2.166 L 36.282 2.166 L 36.643 2.166 L 36.823 1.986 L 37.004 1.805 L 37.365 1.805 L 37.545 1.625 L 37.726 1.444 L 38.087 1.444 L 38.267 1.625 L 38.267 1.986 L 38.448 2.166 L 38.628 2.347 L 38.809 2.527 L 38.989 2.708 L 38.989 3.069 L 39.170 3.249 L 39.350 3.430 L 39.531 3.610 L 39.711 3.791 L 39.711 4.152 L 39.892 4.332 L 40.072 4.513 L 40.253 4.693 L 40.433 4.874 L 40.614 5.054 L 40.975 5.054 L 41.336 5.054 L 41.516 4.874 L 41.697 4.693 L 42.058 4.693 L 42.419 4.693 L 42.780 4.693 L 43.141 4.693 L 43.502 4.693 L 43.863 4.693 L 44.043 4.513 L 44.224 4.332 L 44.585 4.332 L 44.946 4.332 L 45.307 4.332 L 45.668 4.332 L 45.848 4.152 L 45.848 3.791 L 45.848 3.430 L 46.029 3.249 L 46.209 3.069 L 46.209 2.708 L 46.209 2.347 L 46.209 1.986 L 46.209 1.625 L 46.390 1.444 L 46.570 1.264 L 46.570 0.903 L 46.570 0.542 L 46.570 0.181 L 46.751 0.000 Z M 44.224 13.718 L 44.585 13.718 L 44.946 13.718 L 45.307 13.718 L 45.487 13.899 L 45.668 14.079 L 45.848 14.260 L 45.848 14.621 L 45.848 14.982 L 45.848 15.343 L 45.668 15.523 L 45.487 15.343 L 45.487 14.982 L 45.487 14.621 L 45.307 14.440 L 45.126 14.260 L 44.946 14.079 L 44.585 14.079 L 44.404 14.260 L 44.224 14.440 L 44.043 14.621 L 44.043 14.982 L 44.043 15.343 L 43.863 15.523 L 43.682 15.343 L 43.682 14.982 L 43.682 14.621 L 43.682 14.260 L 43.863 14.079 L 44.043 13.899 L 44.224 13.718 Z M 44.224 15.523 L 44.585 15.523 L 44.946 15.523 L 45.307 15.523 L 45.487 15.704 L 45.307 15.884 L 45.126 16.065 L 45.126 16.426 L 45.126 16.787 L 45.126 17.148 L 45.126 17.509 L 45.126 17.870 L 45.126 18.231 L 45.126 18.592 L 45.126 18.953 L 45.126 19.314 L 45.126 19.675 L 45.126 20.036 L 45.126 20.397 L 45.126 20.758 L 45.126 21.119 L 45.307 21.300 L 45.487 21.480 L 45.668 21.661 L 45.848 21.841 L 46.029 22.022 L 46.209 22.202 L 46.390 22.383 L 46.570 22.563 L 46.751 22.744 L 46.931 22.924 L 47.112 23.105 L 47.292 23.285 L 47.292 23.646 L 47.292 24.007 L 47.292 24.368 L 47.292 24.729 L 47.292 25.090 L 47.292 25.451 L 47.292 25.812 L 47.292 26.173 L 47.292 26.534 L 47.292 26.895 L 47.292 27.256 L 47.292 27.617 L 47.292 27.978 L 47.292 28.339 L 47.292 28.700 L 47.292 29.061 L 47.292 29.422 L 47.292 29.783 L 47.292 30.144 L 47.292 30.505 L 47.292 30.866 L 47.292 31.227 L 47.292 31.588 L 47.292 31.949 L 47.292 32.310 L 47.292 32.671 L 47.292 33.032 L 47.473 33.213 L 47.834 33.213 L 48.195 33.213 L 48.556 33.213 L 48.917 33.213 L 49.278 33.213 L 49.639 33.213 L 49.819 33.032 L 49.819 32.671 L 49.819 32.310 L 49.819 31.949 L 49.819 31.588 L 49.819 31.227 L 49.819 30.866 L 49.819 30.505 L 49.819 30.144 L 49.819 29.783 L 49.819 29.422 L 49.819 29.061 L 49.819 28.700 L 49.819 28.339 L 49.819 27.978 L 49.819 27.617 L 49.819 27.256 L 49.819 26.895 L 49.819 26.534 L 49.819 26.173 L 49.819 25.812 L 49.819 25.451 L 49.819 25.090 L 49.819 24.729 L 49.819 24.368 L 49.819 24.007 L 50.000 23.827 L 50.361 23.827 L 50.722 23.827 L 50.903 24.007 L 50.722 24.188 L 50.542 24.368 L 50.542 24.729 L 50.542 25.090 L 50.542 25.451 L 50.542 25.812 L 50.542 26.173 L 50.542 26.534 L 50.542 26.895 L 50.542 27.256 L 50.542 27.617 L 50.542 27.978 L 50.542 28.339 L 50.542 28.700 L 50.542 29.061 L 50.542 29.422 L 50.542 29.783 L 50.542 30.144 L 50.542 30.505 L 50.542 30.866 L 50.542 31.227 L 50.542 31.588 L 50.542 31.949 L 50.542 32.310 L 50.542 32.671 L 50.542 33.032 L 50.722 33.213 L 51.083 33.213 L 51.444 33.213 L 51.805 33.213 L 52.166 33.213 L 52.527 33.213 L 52.888 33.213 L 53.249 33.213 L 53.430 33.032 L 53.430 32.671 L 53.430 32.310 L 53.430 31.949 L 53.430 31.588 L 53.430 31.227 L 53.430 30.866 L 53.430 30.505 L 53.430 30.144 L 53.430 29.783 L 53.430 29.422 L 53.430 29.061 L 53.430 28.700 L 53.430 28.339 L 53.430 27.978 L 53.430 27.617 L 53.430 27.256 L 53.430 26.895 L 53.430 26.534 L 53.430 26.173 L 53.430 25.812 L 53.430 25.451 L 53.430 25.090 L 53.430 24.729 L 53.430 24.368 L 53.610 24.188 L 53.791 24.007 L 53.971 23.827 L 54.152 23.646 L 54.152 23.285 L 54.332 23.105 L 54.513 22.924 L 54.693 22.744 L 54.874 22.563 L 54.874 22.202 L 55.054 22.022 L 55.235 21.841 L 55.415 21.661 L 55.596 21.480 L 55.596 21.119 L 55.776 20.939 L 55.957 20.758 L 56.137 20.578 L 56.318 20.397 L 56.318 20.036 L 56.318 19.675 L 56.318 19.314 L 56.318 18.953 L 56.498 18.773 L 56.679 18.953 L 56.679 19.314 L 56.679 19.675 L 56.679 20.036 L 56.859 20.217 L 57.220 20.217 L 57.581 20.217 L 57.762 20.036 L 57.942 19.856 L 58.123 20.036 L 58.123 20.397 L 57.942 20.578 L 57.581 20.578 L 57.220 20.578 L 57.040 20.758 L 56.859 20.939 L 56.679 21.119 L 56.498 21.300 L 56.318 21.480 L 56.318 21.841 L 56.137 22.022 L 55.957 22.202 L 55.776 22.383 L 55.596 22.563 L 55.596 22.924 L 55.415 23.105 L 55.235 23.285 L 55.054 23.466 L 54.874 23.646 L 54.874 24.007 L 54.693 24.188 L 54.513 24.368 L 54.332 24.549 L 54.152 24.729 L 54.152 25.090 L 54.152 25.451 L 54.152 25.812 L 54.152 26.173 L 54.152 26.534 L 54.152 26.895 L 54.152 27.256 L 54.152 27.617 L 54.152 27.978 L 54.152 28.339 L 54.152 28.700 L 54.152 29.061 L 54.152 29.422 L 54.152 29.783 L 54.152 30.144 L 54.152 30.505 L 54.152 30.866 L 54.152 31.227 L 54.152 31.588 L 54.152 31.949 L 54.152 32.310 L 54.152 32.671 L 54.152 33.032 L 54.332 33.213 L 54.693 33.213 L 55.054 33.213 L 55.415 33.213 L 55.776 33.213 L 56.137 33.213 L 56.498 33.213 L 56.859 33.213 L 57.220 33.213 L 57.401 33.394 L 57.581 33.574 L 57.942 33.574 L 58.123 33.755 L 58.303 33.935 L 58.484 34.116 L 58.484 34.477 L 58.664 34.657 L 58.845 34.838 L 58.845 35.199 L 58.845 35.560 L 59.025 35.740 L 59.386 35.740 L 59.747 35.740 L 60.108 35.740 L 60.469 35.740 L 60.830 35.740 L 61.191 35.740 L 61.552 35.740 L 61.913 35.740 L 62.274 35.740 L 62.635 35.740 L 62.996 35.740 L 63.357 35.740 L 63.718 35.740 L 64.079 35.740 L 64.260 35.560 L 64.260 35.199 L 64.440 35.018 L 64.621 34.838 L 64.801 34.657 L 64.982 34.477 L 65.162 34.296 L 65.343 34.116 L 65.343 33.755 L 65.523 33.574 L 65.704 33.394 L 65.884 33.213 L 66.065 33.032 L 66.245 32.852 L 66.426 32.671 L 66.606 32.491 L 66.787 32.310 L 66.968 32.130 L 67.148 31.949 L 67.148 31.588 L 67.329 31.408 L 67.509 31.227 L 67.690 31.047 L 67.870 30.866 L 68.051 30.686 L 68.231 30.505 L 68.412 30.325 L 68.592 30.144 L 68.592 29.783 L 68.773 29.603 L 68.953 29.422 L 69.134 29.242 L 69.314 29.061 L 69.495 28.881 L 69.675 28.700 L 69.856 28.520 L 70.036 28.339 L 70.217 28.159 L 70.397 27.978 L 70.578 27.798 L 70.758 27.617 L 70.758 27.256 L 70.939 27.076 L 71.119 26.895 L 71.300 26.715 L 71.480 26.534 L 71.661 26.354 L 72.022 26.354 L 72.383 26.354 L 72.744 26.354 L 73.105 26.354 L 73.466 26.354 L 73.827 26.354 L 74.188 26.354 L 74.549 26.354 L 74.910 26.354 L 75.271 26.354 L 75.632 26.354 L 75.993 26.354 L 76.354 26.354 L 76.715 26.354 L 77.076 26.354 L 77.437 26.354 L 77.798 26.354 L 78.159 26.354 L 78.339 26.173 L 78.339 25.812 L 78.520 25.632 L 78.700 25.451 L 78.881 25.271 L 79.061 25.090 L 79.242 24.910 L 79.422 24.729 L 79.603 24.549 L 79.783 24.368 L 79.964 24.188 L 80.144 24.007 L 80.144 23.646 L 80.325 23.466 L 80.505 23.285 L 80.686 23.105 L 80.866 22.924 L 81.047 22.744 L 81.227 22.563 L 81.408 22.383 L 81.588 22.202 L 81.769 22.022 L 81.949 21.841 L 81.949 21.480 L 82.130 21.300 L 82.310 21.119 L 82.491 20.939 L 82.852 20.939 L 83.213 20.939 L 83.574 20.939 L 83.935 20.939 L 84.296 20.939 L 84.657 20.939 L 85.018 20.939 L 85.379 20.939 L 85.740 20.939 L 86.101 20.939 L 86.462 20.939 L 86.823 20.939 L 87.184 20.939 L 87.545 20.939 L 87.906 20.939 L 88.267 20.939 L 88.628 20.939 L 88.989 20.939 L 89.350 20.939 L 89.711 20.939 L 90.072 20.939 L 90.433 20.939 L 90.794 20.939 L 91.155 20.939 L 91.516 20.939 L 91.877 20.939 L 92.238 20.939 L 92.599 20.939 L 92.960 20.939 L 93.321 20.939 L 93.682 20.939 L 94.043 20.939 L 94.404 20.939 L 94.765 20.939 L 95.126 20.939 L 95.487 20.939 L 95.848 20.939 L 96.209 20.939 L 96.570 20.939 L 96.931 20.939 L 97.292 20.939 L 97.653 20.939 L 97.834 20.758 L 98.014 20.578 L 98.195 20.758 L 98.195 21.119 L 98.195 21.480 L 98.014 21.661 L 97.653 21.661 L 97.292 21.661 L 96.931 21.661 L 96.570 21.661 L 96.209 21.661 L 95.848 21.661 L 95.487 21.661 L 95.126 21.661 L 94.765 21.661 L 94.404 21.661 L 94.043 21.661 L 93.682 21.661 L 93.321 21.661 L 92.960 21.661 L 92.599 21.661 L 92.238 21.661 L 91.877 21.661 L 91.516 21.661 L 91.155 21.661 L 90.794 21.661 L 90.433 21.661 L 90.072 21.661 L 89.711 21.661 L 89.350 21.661 L 88.989 21.661 L 88.628 21.661 L 88.267 21.661 L 87.906 21.661 L 87.545 21.661 L 87.184 21.661 L 86.823 21.661 L 86.462 21.661 L 86.101 21.661 L 85.740 21.661 L 85.379 21.661 L 85.018 21.661 L 84.657 21.661 L 84.296 21.661 L 83.935 21.661 L 83.574 21.661 L 83.213 21.661 L 82.852 21.661 L 82.671 21.841 L 82.491 22.022 L 82.310 22.202 L 82.310 22.563 L 82.130 22.744 L 81.949 22.924 L 81.769 23.105 L 81.588 23.285 L 81.408 23.466 L 81.227 23.646 L 81.047 23.827 L 80.866 24.007 L 80.866 24.368 L 80.686 24.549 L 80.505 24.729 L 80.325 24.910 L 80.144 25.090 L 79.964 25.271 L 79.783 25.451 L 79.603 25.632 L 79.422 25.812 L 79.603 25.993 L 79.783 26.173 L 79.964 26.354 L 80.325 26.354 L 80.686 26.354 L 81.047 26.354 L 81.408 26.354 L 81.769 26.354 L 82.130 26.354 L 82.491 26.354 L 82.852 26.354 L 83.213 26.354 L 83.574 26.354 L 83.935 26.354 L 84.296 26.354 L 84.657 26.354 L 85.018 26.354 L 85.379 26.354 L 85.740 26.354 L 86.101 26.354 L 86.462 26.354 L 86.823 26.354 L 87.184 26.354 L 87.545 26.354 L 87.906 26.354 L 88.267 26.354 L 88.628 26.354 L 88.989 26.354 L 89.350 26.354 L 89.711 26.354 L 90.072 26.354 L 90.433 26.354 L 90.794 26.354 L 91.155 26.354 L 91.336 26.173 L 91.516 25.993 L 91.697 25.812 L 91.877 25.632 L 92.238 25.632 L 92.599 25.632 L 92.960 25.632 L 93.321 25.632 L 93.502 25.812 L 93.321 25.993 L 92.960 25.993 L 92.599 25.993 L 92.238 25.993 L 92.058 26.173 L 92.058 26.534 L 92.058 26.895 L 92.238 27.076 L 92.419 27.256 L 92.238 27.437 L 91.877 27.437 L 91.697 27.256 L 91.516 27.076 L 91.155 27.076 L 90.794 27.076 L 90.433 27.076 L 90.072 27.076 L 89.711 27.076 L 89.350 27.076 L 88.989 27.076 L 88.628 27.076 L 88.267 27.076 L 87.906 27.076 L 87.545 27.076 L 87.184 27.076 L 86.823 27.076 L 86.462 27.076 L 86.101 27.076 L 85.740 27.076 L 85.379 27.076 L 85.018 27.076 L 84.657 27.076 L 84.296 27.076 L 84.116 27.256 L 84.296 27.437 L 84.477 27.617 L 84.657 27.798 L 84.838 27.978 L 85.018 28.159 L 85.199 28.339 L 85.379 28.520 L 85.740 28.520 L 85.921 28.700 L 86.101 28.881 L 86.282 29.061 L 86.462 29.242 L 86.823 29.242 L 87.184 29.242 L 87.545 29.242 L 87.906 29.242 L 88.267 29.242 L 88.628 29.242 L 88.989 29.242 L 89.350 29.242 L 89.711 29.242 L 90.072 29.242 L 90.433 29.242 L 90.794 29.242 L 91.155 29.242 L 91.516 29.242 L 91.877 29.242 L 92.238 29.242 L 92.599 29.242 L 92.960 29.242 L 93.321 29.242 L 93.682 29.242 L 94.043 29.242 L 94.404 29.242 L 94.765 29.242 L 95.126 29.242 L 95.487 29.242 L 95.848 29.242 L 96.209 29.242 L 96.390 29.422 L 96.390 29.783 L 96.570 29.964 L 96.751 30.144 L 96.931 30.325 L 97.292 30.325 L 97.653 30.325 L 97.834 30.144 L 98.014 29.964 L 98.195 29.783 L 98.195 29.422 L 98.375 29.242 L 98.556 29.422 L 98.556 29.783 L 98.556 30.144 L 98.375 30.325 L 98.195 30.505 L 98.014 30.686 L 97.653 30.686 L 97.292 30.686 L 96.931 30.686 L 96.570 30.686 L 96.390 30.505 L 96.209 30.325 L 95.848 30.325 L 95.487 30.325 L 95.126 30.325 L 94.765 30.325 L 94.404 30.325 L 94.043 30.325 L 93.682 30.325 L 93.321 30.325 L 92.960 30.325 L 92.599 30.325 L 92.238 30.325 L 91.877 30.325 L 91.516 30.325 L 91.155 30.325 L 90.794 30.325 L 90.433 30.325 L 90.072 30.325 L 89.711 30.325 L 89.350 30.325 L 88.989 30.325 L 88.628 30.325 L 88.267 30.325 L 87.906 30.325 L 87.545 30.325 L 87.184 30.325 L 86.823 30.325 L 86.643 30.144 L 86.462 29.964 L 86.101 29.964 L 85.921 29.783 L 85.740 29.603 L 85.560 29.422 L 85.379 29.242 L 85.018 29.242 L 84.838 29.061 L 84.657 28.881 L 84.477 28.700 L 84.296 28.520 L 84.116 28.339 L 83.935 28.159 L 83.574 28.159 L 83.394 27.978 L 83.213 27.798 L 83.032 27.617 L 82.852 27.437 L 82.671 27.256 L 82.491 27.076 L 82.130 27.076 L 81.769 27.076 L 81.408 27.076 L 81.047 27.076 L 80.686 27.076 L 80.325 27.076 L 79.964 27.076 L 79.603 27.076 L 79.242 27.076 L 78.881 27.076 L 78.520 27.076 L 78.159 27.076 L 77.798 27.076 L 77.437 27.076 L 77.076 27.076 L 76.715 27.076 L 76.354 27.076 L 75.993 27.076 L 75.632 27.076 L 75.271 27.076 L 74.910 27.076 L 74.549 27.076 L 74.188 27.076 L 73.827 27.076 L 73.466 27.076 L 73.105 27.076 L 72.744 27.076 L 72.383 27.076 L 72.022 27.076 L 71.841 27.256 L 71.661 27.437 L 71.480 27.617 L 71.300 27.798 L 71.119 27.978 L 71.119 28.339 L 70.939 28.520 L 70.758 28.700 L 70.578 28.881 L 70.397 29.061 L 70.217 29.242 L 70.036 29.422 L 69.856 29.603 L 69.675 29.783 L 69.675 30.144 L 69.495 30.325 L 69.314 30.505 L 69.134 30.686 L 68.953 30.866 L 68.773 31.047 L 68.592 31.227 L 68.412 31.408 L 68.231 31.588 L 68.231 31.949 L 68.051 32.130 L 67.870 32.310 L 67.690 32.491 L 67.509 32.671 L 67.329 32.852 L 67.148 33.032 L 66.968 33.213 L 66.787 33.394 L 66.606 33.574 L 66.426 33.755 L 66.426 34.116 L 66.245 34.296 L 66.065 34.477 L 65.884 34.657 L 65.704 34.838 L 65.523 35.018 L 65.343 35.199 L 65.162 35.379 L 64.982 35.560 L 65.162 35.740 L 65.523 35.740 L 65.884 35.740 L 66.245 35.740 L 66.606 35.740 L 66.968 35.740 L 67.329 35.740 L 67.690 35.740 L 68.051 35.740 L 68.412 35.740 L 68.773 35.740 L 69.134 35.740 L 69.495 35.740 L 69.856 35.740 L 70.217 35.740 L 70.578 35.740 L 70.939 35.740 L 71.300 35.740 L 71.661 35.740 L 72.022 35.740 L 72.383 35.740 L 72.744 35.740 L 73.105 35.740 L 73.466 35.740 L 73.646 35.560 L 73.827 35.379 L 74.007 35.199 L 74.188 35.018 L 74.368 34.838 L 74.549 34.657 L 74.729 34.477 L 74.910 34.296 L 75.090 34.116 L 75.271 33.935 L 75.451 33.755 L 75.632 33.574 L 75.993 33.574 L 76.354 33.574 L 76.715 33.574 L 77.076 33.574 L 77.437 33.574 L 77.798 33.574 L 78.159 33.574 L 78.520 33.574 L 78.881 33.574 L 79.242 33.574 L 79.603 33.574 L 79.964 33.574 L 80.325 33.574 L 80.686 33.574 L 81.047 33.574 L 81.408 33.574 L 81.769 33.574 L 82.130 33.574 L 82.491 33.574 L 82.852 33.574 L 83.213 33.574 L 83.574 33.574 L 83.935 33.574 L 84.296 33.574 L 84.657 33.574 L 85.018 33.574 L 85.379 33.574 L 85.740 33.574 L 86.101 33.574 L 86.462 33.574 L 86.823 33.574 L 87.184 33.574 L 87.545 33.574 L 87.906 33.574 L 88.267 33.574 L 88.628 33.574 L 88.989 33.574 L 89.350 33.574 L 89.531 33.755 L 89.531 34.116 L 89.711 34.296 L 89.892 34.477 L 90.072 34.657 L 90.433 34.657 L 90.794 34.657 L 90.975 34.477 L 91.155 34.296 L 91.336 34.116 L 91.155 33.935 L 90.975 33.755 L 90.975 33.394 L 91.155 33.213 L 91.336 33.394 L 91.516 33.574 L 91.697 33.755 L 91.697 34.116 L 91.697 34.477 L 91.516 34.657 L 91.336 34.838 L 91.155 35.018 L 90.794 35.018 L 90.433 35.018 L 90.072 35.018 L 89.711 35.018 L 89.531 34.838 L 89.350 34.657 L 89.170 34.477 L 88.989 34.296 L 88.628 34.296 L 88.267 34.296 L 87.906 34.296 L 87.545 34.296 L 87.184 34.296 L 86.823 34.296 L 86.462 34.296 L 86.101 34.296 L 85.740 34.296 L 85.379 34.296 L 85.018 34.296 L 84.657 34.296 L 84.296 34.296 L 83.935 34.296 L 83.574 34.296 L 83.213 34.296 L 82.852 34.296 L 82.491 34.296 L 82.130 34.296 L 81.949 34.477 L 81.769 34.657 L 81.588 34.838 L 81.769 35.018 L 82.130 35.018 L 82.310 35.199 L 82.491 35.379 L 82.671 35.560 L 82.852 35.740 L 83.032 35.921 L 83.213 36.101 L 83.394 36.282 L 83.574 36.462 L 83.755 36.643 L 83.935 36.823 L 84.296 36.823 L 84.477 37.004 L 84.657 37.184 L 85.018 37.184 L 85.379 37.184 L 85.740 37.184 L 86.101 37.184 L 86.462 37.184 L 86.823 37.184 L 87.184 37.184 L 87.545 37.184 L 87.906 37.184 L 88.267 37.184 L 88.628 37.184 L 88.989 37.184 L 89.350 37.184 L 89.711 37.184 L 90.072 37.184 L 90.433 37.184 L 90.794 37.184 L 91.155 37.184 L 91.516 37.184 L 91.877 37.184 L 92.238 37.184 L 92.599 37.184 L 92.960 37.184 L 93.321 37.184 L 93.502 37.004 L 93.502 36.643 L 93.682 36.462 L 94.043 36.462 L 94.404 36.462 L 94.765 36.462 L 95.126 36.462 L 95.307 36.643 L 95.126 36.823 L 94.765 36.823 L 94.404 36.823 L 94.043 36.823 L 93.863 37.004 L 93.863 37.365 L 93.863 37.726 L 94.043 37.906 L 94.224 38.087 L 94.043 38.267 L 93.682 38.267 L 93.502 38.087 L 93.321 37.906 L 92.960 37.906 L 92.599 37.906 L 92.238 37.906 L 91.877 37.906 L 91.516 37.906 L 91.155 37.906 L 90.794 37.906 L 90.433 37.906 L 90.072 37.906 L 89.711 37.906 L 89.350 37.906 L 88.989 37.906 L 88.628 37.906 L 88.267 37.906 L 87.906 37.906 L 87.545 37.906 L 87.184 37.906 L 86.823 37.906 L 86.462 37.906 L 86.101 37.906 L 85.740 37.906 L 85.379 37.906 L 85.018 37.906 L 84.657 37.906 L 84.296 37.906 L 84.116 37.726 L 83.935 37.545 L 83.574 37.545 L 83.394 37.365 L 83.213 37.184 L 83.032 37.004 L 82.852 36.823 L 82.671 36.643 L 82.491 36.462 L 82.310 36.282 L 82.130 36.101 L 81.949 35.921 L 81.769 35.740 L 81.408 35.740 L 81.227 35.560 L 81.047 35.379 L 80.866 35.199 L 80.686 35.018 L 80.505 34.838 L 80.325 34.657 L 79.964 34.657 L 79.783 34.477 L 79.603 34.296 L 79.242 34.296 L 78.881 34.296 L 78.520 34.296 L 78.159 34.296 L 77.798 34.296 L 77.437 34.296 L 77.076 34.296 L 76.715 34.296 L 76.354 34.296 L 75.993 34.296 L 75.812 34.477 L 75.632 34.657 L 75.451 34.838 L 75.271 35.018 L 75.090 35.199 L 74.910 35.379 L 74.729 35.560 L 74.549 35.740 L 74.368 35.921 L 74.188 36.101 L 74.007 36.282 L 73.827 36.462 L 73.646 36.643 L 73.466 36.823 L 73.105 36.823 L 72.744 36.823 L 72.383 36.823 L 72.022 36.823 L 71.661 36.823 L 71.300 36.823 L 70.939 36.823 L 70.578 36.823 L 70.217 36.823 L 69.856 36.823 L 69.495 36.823 L 69.134 36.823 L 68.773 36.823 L 68.412 36.823 L 68.051 36.823 L 67.690 36.823 L 67.329 36.823 L 66.968 36.823 L 66.606 36.823 L 66.245 36.823 L 65.884 36.823 L 65.523 36.823 L 65.162 36.823 L 64.801 36.823 L 64.440 36.823 L 64.079 36.823 L 63.718 36.823 L 63.357 36.823 L 62.996 36.823 L 62.635 36.823 L 62.274 36.823 L 61.913 36.823 L 61.552 36.823 L 61.191 36.823 L 60.830 36.823 L 60.469 36.823 L 60.108 36.823 L 59.747 36.823 L 59.386 36.823 L 59.025 36.823 L 58.845 37.004 L 58.845 37.365 L 58.845 37.726 L 58.845 38.087 L 58.845 38.448 L 58.845 38.809 L 58.845 39.170 L 58.845 39.531 L 58.845 39.892 L 58.845 40.253 L 58.845 40.614 L 58.845 40.975 L 58.845 41.336 L 58.845 41.697 L 58.845 42.058 L 58.845 42.419 L 58.845 42.780 L 58.845 43.141 L 58.845 43.502 L 58.845 43.863 L 58.845 44.224 L 58.845 44.585 L 58.845 44.946 L 58.845 45.307 L 58.845 45.668 L 58.845 46.029 L 58.845 46.390 L 58.845 46.751 L 58.845 47.112 L 58.845 47.473 L 58.845 47.834 L 58.845 48.195 L 58.845 48.556 L 58.845 48.917 L 58.845 49.278 L 58.664 49.458 L 58.484 49.639 L 58.484 50.000 L 58.303 50.181 L 58.123 50.361 L 57.942 50.542 L 57.581 50.542 L 57.401 50.722 L 57.220 50.903 L 56.859 50.903 L 56.498 50.903 L 56.137 50.903 L 55.776 50.903 L 55.415 50.903 L 55.054 50.903 L 54.693 50.903 L 54.332 50.903 L 54.152 51.083 L 54.152 51.444 L 54.152 51.805 L 54.152 52.166 L 54.152 52.527 L 54.152 52.888 L 54.152 53.249 L 54.152 53.610 L 54.152 53.971 L 54.152 54.332 L 54.152 54.693 L 54.152 55.054 L 54.152 55.415 L 54.152 55.776 L 54.152 56.137 L 54.152 56.498 L 54.152 56.859 L 54.152 57.220 L 54.152 57.581 L 54.152 57.942 L 54.152 58.303 L 54.152 58.664 L 54.152 59.025 L 54.152 59.386 L 54.152 59.747 L 54.152 60.108 L 54.152 60.469 L 54.152 60.830 L 54.332 61.011 L 54.513 61.191 L 54.693 61.372 L 54.874 61.552 L 55.054 61.733 L 55.235 61.913 L 55.415 62.094 L 55.596 62.274 L 55.776 62.455 L 55.957 62.635 L 55.957 62.996 L 55.957 63.357 L 55.957 63.718 L 55.957 64.079 L 55.957 64.440 L 55.957 64.801 L 55.957 65.162 L 55.957 65.523 L 55.957 65.884 L 55.957 66.245 L 55.957 66.606 L 55.957 66.968 L 55.957 67.329 L 55.957 67.690 L 55.957 68.051 L 56.137 68.231 L 56.498 68.231 L 56.679 68.412 L 56.679 68.773 L 56.679 69.134 L 56.679 69.495 L 56.679 69.856 L 56.498 70.036 L 56.137 70.036 L 55.957 69.856 L 56.137 69.675 L 56.318 69.495 L 56.318 69.134 L 56.318 68.773 L 56.137 68.592 L 55.776 68.592 L 55.415 68.592 L 55.054 68.592 L 54.874 68.412 L 55.054 68.231 L 55.235 68.051 L 55.235 67.690 L 55.235 67.329 L 55.235 66.968 L 55.235 66.606 L 55.235 66.245 L 55.235 65.884 L 55.235 65.523 L 55.235 65.162 L 55.235 64.801 L 55.235 64.440 L 55.235 64.079 L 55.235 63.718 L 55.235 63.357 L 55.235 62.996 L 55.054 62.816 L 54.874 62.635 L 54.693 62.455 L 54.513 62.274 L 54.332 62.094 L 54.152 61.913 L 53.971 61.733 L 53.791 61.552 L 53.610 61.372 L 53.430 61.191 L 53.249 61.011 L 53.069 60.830 L 53.069 60.469 L 53.069 60.108 L 53.069 59.747 L 53.069 59.386 L 53.069 59.025 L 53.069 58.664 L 53.069 58.303 L 53.069 57.942 L 53.069 57.581 L 53.069 57.220 L 53.069 56.859 L 53.069 56.498 L 53.069 56.137 L 53.069 55.776 L 53.069 55.415 L 53.069 55.054 L 53.069 54.693 L 53.069 54.332 L 53.069 53.971 L 53.069 53.610 L 53.069 53.249 L 53.069 52.888 L 53.069 52.527 L 53.069 52.166 L 53.069 51.805 L 53.069 51.444 L 53.069 51.083 L 52.888 50.903 L 52.527 50.903 L 52.166 50.903 L 51.805 50.903 L 51.444 50.903 L 51.083 50.903 L 50.722 50.903 L 50.542 51.083 L 50.542 51.444 L 50.542 51.805 L 50.542 52.166 L 50.542 52.527 L 50.542 52.888 L 50.542 53.249 L 50.542 53.610 L 50.542 53.971 L 50.542 54.332 L 50.542 54.693 L 50.542 55.054 L 50.542 55.415 L 50.542 55.776 L 50.542 56.137 L 50.542 56.498 L 50.542 56.859 L 50.542 57.220 L 50.542 57.581 L 50.542 57.942 L 50.542 58.303 L 50.542 58.664 L 50.542 59.025 L 50.361 59.206 L 50.181 59.386 L 50.361 59.567 L 50.542 59.747 L 50.542 60.108 L 50.361 60.289 L 50.000 60.289 L 49.639 60.289 L 49.458 60.108 L 49.458 59.747 L 49.458 59.386 L 49.458 59.025 L 49.458 58.664 L 49.458 58.303 L 49.458 57.942 L 49.458 57.581 L 49.458 57.220 L 49.458 56.859 L 49.458 56.498 L 49.458 56.137 L 49.458 55.776 L 49.458 55.415 L 49.458 55.054 L 49.458 54.693 L 49.458 54.332 L 49.458 53.971 L 49.458 53.610 L 49.458 53.249 L 49.458 52.888 L 49.458 52.527 L 49.458 52.166 L 49.458 51.805 L 49.458 51.444 L 49.458 51.083 L 49.278 50.903 L 48.917 50.903 L 48.556 50.903 L 48.195 50.903 L 47.834 50.903 L 47.473 50.903 L 47.112 50.903 L 46.931 51.083 L 46.931 51.444 L 46.931 51.805 L 46.931 52.166 L 46.931 52.527 L 46.931 52.888 L 46.931 53.249 L 46.931 53.610 L 46.931 53.971 L 46.931 54.332 L 46.931 54.693 L 46.931 55.054 L 46.931 55.415 L 46.931 55.776 L 46.931 56.137 L 46.931 56.498 L 46.931 56.859 L 46.931 57.220 L 46.931 57.581 L 46.931 57.942 L 46.931 58.303 L 46.931 58.664 L 46.931 59.025 L 46.931 59.386 L 46.751 59.567 L 46.570 59.747 L 46.570 60.108 L 46.390 60.289 L 46.209 60.469 L 46.209 60.830 L 46.029 61.011 L 45.848 61.191 L 45.668 61.372 L 45.487 61.552 L 45.307 61.733 L 45.126 61.913 L 45.126 62.274 L 44.946 62.455 L 44.765 62.635 L 44.585 62.816 L 44.404 62.996 L 44.404 63.357 L 44.224 63.538 L 44.043 63.718 L 44.043 64.079 L 44.043 64.440 L 44.043 64.801 L 44.043 65.162 L 43.863 65.343 L 43.682 65.162 L 43.682 64.801 L 43.682 64.440 L 43.682 64.079 L 43.502 63.899 L 43.141 63.899 L 42.780 63.899 L 42.419 63.899 L 42.238 63.718 L 42.419 63.538 L 42.780 63.538 L 43.141 63.538 L 43.321 63.357 L 43.502 63.177 L 43.682 62.996 L 43.682 62.635 L 43.863 62.455 L 44.043 62.274 L 44.224 62.094 L 44.404 61.913 L 44.404 61.552 L 44.585 61.372 L 44.765 61.191 L 44.946 61.011 L 45.126 60.830 L 45.307 60.650 L 45.487 60.469 L 45.487 60.108 L 45.668 59.928 L 45.848 59.747 L 45.848 59.386 L 46.029 59.206 L 46.209 59.025 L 46.209 58.664 L 46.209 58.303 L 46.209 57.942 L 46.209 57.581 L 46.209 57.220 L 46.209 56.859 L 46.209 56.498 L 46.209 56.137 L 46.209 55.776 L 46.209 55.415 L 46.209 55.054 L 46.209 54.693 L 46.209 54.332 L 46.209 53.971 L 46.209 53.610 L 46.209 53.249 L 46.209 52.888 L 46.209 52.527 L 46.209 52.166 L 46.209 51.805 L 46.209 51.444 L 46.209 51.083 L 46.029 50.903 L 45.668 50.903 L 45.307 50.903 L 44.946 50.903 L 44.585 50.903 L 44.224 50.903 L 43.863 50.903 L 43.502 50.903 L 43.141 50.903 L 42.960 50.722 L 42.780 50.542 L 42.419 50.542 L 42.238 50.361 L 42.058 50.181 L 41.877 50.000 L 41.877 49.639 L 41.697 49.458 L 41.516 49.278 L 41.516 48.917 L 41.516 48.556 L 41.336 48.375 L 40.975 48.375 L 40.614 48.375 L 40.253 48.375 L 39.892 48.375 L 39.531 48.375 L 39.170 48.375 L 38.809 48.375 L 38.448 48.375 L 38.087 48.375 L 37.726 48.375 L 37.365 48.375 L 37.004 48.375 L 36.643 48.375 L 36.282 48.375 L 36.101 48.556 L 35.921 48.736 L 35.740 48.917 L 35.740 49.278 L 35.560 49.458 L 35.379 49.639 L 35.199 49.819 L 35.018 50.000 L 34.838 50.181 L 34.657 50.361 L 34.657 50.722 L 34.477 50.903 L 34.116 50.903 L 33.935 51.083 L 33.935 51.444 L 33.755 51.625 L 33.574 51.805 L 33.394 51.986 L 33.213 52.166 L 33.032 52.347 L 32.852 52.527 L 32.671 52.708 L 32.491 52.888 L 32.491 53.249 L 32.310 53.430 L 32.130 53.610 L 31.949 53.791 L 31.769 53.971 L 31.588 54.152 L 31.408 54.332 L 31.408 54.693 L 31.227 54.874 L 31.047 55.054 L 30.866 55.235 L 30.686 55.415 L 30.505 55.596 L 30.325 55.776 L 30.144 55.957 L 29.964 56.137 L 29.783 56.318 L 29.603 56.498 L 29.422 56.679 L 29.242 56.859 L 29.242 57.220 L 29.061 57.401 L 28.881 57.581 L 28.700 57.762 L 28.339 57.762 L 27.978 57.762 L 27.617 57.762 L 27.256 57.762 L 26.895 57.762 L 26.534 57.762 L 26.173 57.762 L 25.812 57.762 L 25.451 57.762 L 25.090 57.762 L 24.729 57.762 L 24.368 57.762 L 24.007 57.762 L 23.646 57.762 L 23.285 57.762 L 22.924 57.762 L 22.563 57.762 L 22.202 57.762 L 22.022 57.942 L 21.841 58.123 L 21.661 58.303 L 21.480 58.484 L 21.300 58.664 L 21.300 59.025 L 21.119 59.206 L 20.939 59.386 L 20.758 59.567 L 20.578 59.747 L 20.397 59.928 L 20.217 60.108 L 20.036 60.289 L 19.856 60.469 L 19.856 60.830 L 19.675 61.011 L 19.495 61.191 L 19.314 61.372 L 19.134 61.552 L 18.953 61.733 L 18.773 61.913 L 18.592 62.094 L 18.412 62.274 L 18.231 62.455 L 18.051 62.635 L 18.051 62.996 L 17.870 63.177 L 17.509 63.177 L 17.148 63.177 L 16.787 63.177 L 16.426 63.177 L 16.065 63.177 L 15.704 63.177 L 15.343 63.177 L 14.982 63.177 L 14.621 63.177 L 14.260 63.177 L 13.899 63.177 L 13.538 63.177 L 13.177 63.177 L 12.816 63.177 L 12.455 63.177 L 12.094 63.177 L 11.733 63.177 L 11.372 63.177 L 11.011 63.177 L 10.650 63.177 L 10.289 63.177 L 9.928 63.177 L 9.567 63.177 L 9.206 63.177 L 8.845 63.177 L 8.484 63.177 L 8.123 63.177 L 7.762 63.177 L 7.401 63.177 L 7.040 63.177 L 6.679 63.177 L 6.318 63.177 L 5.957 63.177 L 5.596 63.177 L 5.235 63.177 L 4.874 63.177 L 4.513 63.177 L 4.152 63.177 L 3.791 63.177 L 3.430 63.177 L 3.069 63.177 L 2.708 63.177 L 2.527 63.357 L 2.347 63.538 L 2.166 63.718 L 1.986 63.899 L 1.625 63.899 L 1.444 63.718 L 1.625 63.538 L 1.805 63.357 L 1.805 62.996 L 1.805 62.635 L 1.625 62.455 L 1.444 62.274 L 1.625 62.094 L 1.986 62.094 L 2.166 62.274 L 2.347 62.455 L 2.708 62.455 L 3.069 62.455 L 3.430 62.455 L 3.791 62.455 L 4.152 62.455 L 4.513 62.455 L 4.874 62.455 L 5.235 62.455 L 5.596 62.455 L 5.957 62.455 L 6.318 62.455 L 6.679 62.455 L 7.040 62.455 L 7.401 62.455 L 7.762 62.455 L 8.123 62.455 L 8.484 62.455 L 8.845 62.455 L 9.206 62.455 L 9.567 62.455 L 9.928 62.455 L 10.289 62.455 L 10.650 62.455 L 11.011 62.455 L 11.372 62.455 L 11.733 62.455 L 12.094 62.455 L 12.455 62.455 L 12.816 62.455 L 13.177 62.455 L 13.538 62.455 L 13.899 62.455 L 14.260 62.455 L 14.621 62.455 L 14.982 62.455 L 15.343 62.455 L 15.704 62.455 L 16.065 62.455 L 16.426 62.455 L 16.787 62.455 L 17.148 62.455 L 17.329 62.274 L 17.509 62.094 L 17.690 61.913 L 17.870 61.733 L 18.051 61.552 L 18.231 61.372 L 18.412 61.191 L 18.592 61.011 L 18.773 60.830 L 18.953 60.650 L 19.134 60.469 L 19.134 60.108 L 19.314 59.928 L 19.495 59.747 L 19.675 59.567 L 19.856 59.386 L 20.036 59.206 L 20.217 59.025 L 20.397 58.845 L 20.578 58.664 L 20.578 58.303 L 20.758 58.123 L 20.939 57.942 L 20.758 57.762 L 20.397 57.762 L 20.036 57.762 L 19.675 57.762 L 19.314 57.762 L 18.953 57.762 L 18.592 57.762 L 18.231 57.762 L 17.870 57.762 L 17.509 57.762 L 17.148 57.762 L 16.787 57.762 L 16.426 57.762 L 16.065 57.762 L 15.704 57.762 L 15.343 57.762 L 14.982 57.762 L 14.621 57.762 L 14.260 57.762 L 13.899 57.762 L 13.538 57.762 L 13.177 57.762 L 12.816 57.762 L 12.455 57.762 L 12.094 57.762 L 11.733 57.762 L 11.372 57.762 L 11.011 57.762 L 10.650 57.762 L 10.289 57.762 L 9.928 57.762 L 9.567 57.762 L 9.206 57.762 L 8.845 57.762 L 8.664 57.942 L 8.484 58.123 L 8.303 57.942 L 8.303 57.581 L 8.303 57.220 L 8.123 57.040 L 7.942 56.859 L 7.762 56.679 L 7.401 56.679 L 7.220 56.498 L 7.401 56.318 L 7.762 56.318 L 8.123 56.318 L 8.303 56.498 L 8.484 56.679 L 8.664 56.859 L 8.845 57.040 L 9.206 57.040 L 9.567 57.040 L 9.928 57.040 L 10.289 57.040 L 10.650 57.040 L 11.011 57.040 L 11.372 57.040 L 11.733 57.040 L 12.094 57.040 L 12.455 57.040 L 12.816 57.040 L 13.177 57.040 L 13.538 57.040 L 13.899 57.040 L 14.260 57.040 L 14.621 57.040 L 14.982 57.040 L 15.343 57.040 L 15.704 57.040 L 16.065 57.040 L 16.245 56.859 L 16.065 56.679 L 15.884 56.498 L 15.704 56.318 L 15.523 56.137 L 15.343 55.957 L 15.162 55.776 L 14.982 55.596 L 14.801 55.415 L 14.621 55.235 L 14.260 55.235 L 14.079 55.054 L 13.899 54.874 L 13.718 54.693 L 13.538 54.513 L 13.177 54.513 L 12.816 54.513 L 12.455 54.513 L 12.094 54.513 L 11.733 54.513 L 11.372 54.513 L 11.011 54.513 L 10.650 54.513 L 10.289 54.513 L 9.928 54.513 L 9.567 54.513 L 9.206 54.513 L 8.845 54.513 L 8.484 54.513 L 8.123 54.513 L 7.762 54.513 L 7.401 54.513 L 7.040 54.513 L 6.679 54.513 L 6.318 54.513 L 5.957 54.513 L 5.596 54.513 L 5.235 54.513 L 4.874 54.513 L 4.513 54.513 L 4.332 54.693 L 4.152 54.874 L 3.971 54.693 L 3.971 54.332 L 3.971 53.971 L 4.152 53.791 L 4.513 53.791 L 4.874 53.791 L 5.235 53.791 L 5.596 53.791 L 5.957 53.791 L 6.318 53.791 L 6.679 53.791 L 7.040 53.791 L 7.401 53.791 L 7.762 53.791 L 8.123 53.791 L 8.484 53.791 L 8.845 53.791 L 9.206 53.791 L 9.567 53.791 L 9.928 53.791 L 10.289 53.791 L 10.650 53.791 L 11.011 53.791 L 11.372 53.791 L 11.733 53.791 L 12.094 53.791 L 12.455 53.791 L 12.816 53.791 L 13.177 53.791 L 13.538 53.791 L 13.718 53.971 L 13.899 54.152 L 14.260 54.152 L 14.440 54.332 L 14.621 54.513 L 14.801 54.693 L 14.982 54.874 L 15.343 54.874 L 15.523 55.054 L 15.704 55.235 L 15.884 55.415 L 16.065 55.596 L 16.245 55.776 L 16.426 55.957 L 16.787 55.957 L 16.968 56.137 L 17.148 56.318 L 17.329 56.498 L 17.509 56.679 L 17.690 56.859 L 17.870 57.040 L 18.231 57.040 L 18.592 57.040 L 18.953 57.040 L 19.314 57.040 L 19.675 57.040 L 20.036 57.040 L 20.397 57.040 L 20.758 57.040 L 21.119 57.040 L 21.480 57.040 L 21.841 57.040 L 22.202 57.040 L 22.563 57.040 L 22.924 57.040 L 23.285 57.040 L 23.646 57.040 L 24.007 57.040 L 24.368 57.040 L 24.729 57.040 L 25.090 57.040 L 25.451 57.040 L 25.812 57.040 L 26.173 57.040 L 26.534 57.040 L 26.895 57.040 L 27.256 57.040 L 27.617 57.040 L 27.978 57.040 L 28.159 56.859 L 28.339 56.679 L 28.520 56.498 L 28.700 56.318 L 28.881 56.137 L 29.061 55.957 L 29.242 55.776 L 29.422 55.596 L 29.603 55.415 L 29.783 55.235 L 29.964 55.054 L 30.144 54.874 L 30.325 54.693 L 30.325 54.332 L 30.505 54.152 L 30.686 53.971 L 30.866 53.791 L 31.047 53.610 L 31.227 53.430 L 31.408 53.249 L 31.408 52.888 L 31.588 52.708 L 31.769 52.527 L 31.949 52.347 L 32.130 52.166 L 32.310 51.986 L 32.491 51.805 L 32.671 51.625 L 32.852 51.444 L 33.032 51.264 L 33.213 51.083 L 33.394 50.903 L 33.574 50.722 L 33.574 50.361 L 33.755 50.181 L 33.935 50.000 L 34.116 49.819 L 34.296 49.639 L 34.477 49.458 L 34.657 49.278 L 34.838 49.097 L 35.018 48.917 L 35.018 48.556 L 34.838 48.375 L 34.477 48.375 L 34.116 48.375 L 33.755 48.375 L 33.394 48.375 L 33.032 48.375 L 32.671 48.375 L 32.310 48.375 L 31.949 48.375 L 31.588 48.375 L 31.227 48.375 L 30.866 48.375 L 30.505 48.375 L 30.144 48.375 L 29.783 48.375 L 29.422 48.375 L 29.061 48.375 L 28.700 48.375 L 28.339 48.375 L 27.978 48.375 L 27.617 48.375 L 27.256 48.375 L 26.895 48.375 L 26.534 48.375 L 26.354 48.556 L 26.354 48.917 L 26.173 49.097 L 25.812 49.097 L 25.632 49.278 L 25.451 49.458 L 25.271 49.639 L 25.090 49.819 L 24.910 50.000 L 24.729 50.181 L 24.549 50.361 L 24.368 50.542 L 24.007 50.542 L 23.646 50.542 L 23.285 50.542 L 22.924 50.542 L 22.563 50.542 L 22.202 50.542 L 21.841 50.542 L 21.480 50.542 L 21.119 50.542 L 20.758 50.542 L 20.397 50.542 L 20.036 50.542 L 19.675 50.542 L 19.314 50.542 L 18.953 50.542 L 18.592 50.542 L 18.231 50.542 L 17.870 50.542 L 17.509 50.542 L 17.148 50.542 L 16.787 50.542 L 16.426 50.542 L 16.065 50.542 L 15.704 50.542 L 15.343 50.542 L 14.982 50.542 L 14.621 50.542 L 14.260 50.542 L 13.899 50.542 L 13.538 50.542 L 13.177 50.542 L 12.816 50.542 L 12.455 50.542 L 12.094 50.542 L 11.733 50.542 L 11.372 50.542 L 11.011 50.542 L 10.830 50.722 L 10.650 50.903 L 10.469 50.722 L 10.469 50.361 L 10.469 50.000 L 10.469 49.639 L 10.289 49.458 L 10.108 49.278 L 9.928 49.097 L 9.567 49.097 L 9.386 48.917 L 9.567 48.736 L 9.928 48.736 L 10.289 48.736 L 10.469 48.917 L 10.650 49.097 L 10.830 49.278 L 11.011 49.458 L 11.372 49.458 L 11.733 49.458 L 12.094 49.458 L 12.455 49.458 L 12.816 49.458 L 13.177 49.458 L 13.538 49.458 L 13.899 49.458 L 14.260 49.458 L 14.621 49.458 L 14.982 49.458 L 15.343 49.458 L 15.704 49.458 L 16.065 49.458 L 16.426 49.458 L 16.787 49.458 L 17.148 49.458 L 17.509 49.458 L 17.870 49.458 L 18.231 49.458 L 18.592 49.458 L 18.773 49.278 L 18.592 49.097 L 18.231 49.097 L 18.051 48.917 L 17.870 48.736 L 17.690 48.556 L 17.509 48.375 L 17.329 48.195 L 17.148 48.014 L 16.968 47.834 L 16.787 47.653 L 16.606 47.473 L 16.426 47.292 L 16.065 47.292 L 15.884 47.112 L 15.704 46.931 L 15.343 46.931 L 14.982 46.931 L 14.621 46.931 L 14.260 46.931 L 13.899 46.931 L 13.538 46.931 L 13.177 46.931 L 12.816 46.931 L 12.455 46.931 L 12.094 46.931 L 11.733 46.931 L 11.372 46.931 L 11.011 46.931 L 10.650 46.931 L 10.289 46.931 L 9.928 46.931 L 9.567 46.931 L 9.206 46.931 L 8.845 46.931 L 8.484 46.931 L 8.123 46.931 L 7.762 46.931 L 7.401 46.931 L 7.040 46.931 L 6.859 47.112 L 6.679 47.292 L 6.498 47.112 L 6.498 46.751 L 6.498 46.390 L 6.318 46.209 L 6.137 46.029 L 5.957 45.848 L 5.596 45.848 L 5.415 46.029 L 5.235 46.209 L 5.054 46.390 L 5.054 46.751 L 5.054 47.112 L 4.874 47.292 L 4.693 47.112 L 4.693 46.751 L 4.693 46.390 L 4.693 46.029 L 4.874 45.848 L 5.054 45.668 L 5.235 45.487 L 5.596 45.487 L 5.957 45.487 L 6.318 45.487 L 6.498 45.668 L 6.679 45.848 L 6.859 46.029 L 7.040 46.209 L 7.401 46.209 L 7.762 46.209 L 8.123 46.209 L 8.484 46.209 L 8.845 46.209 L 9.206 46.209 L 9.567 46.209 L 9.928 46.209 L 10.289 46.209 L 10.650 46.209 L 11.011 46.209 L 11.372 46.209 L 11.733 46.209 L 12.094 46.209 L 12.455 46.209 L 12.816 46.209 L 13.177 46.209 L 13.538 46.209 L 13.899 46.209 L 14.260 46.209 L 14.621 46.209 L 14.982 46.209 L 15.343 46.209 L 15.704 46.209 L 16.065 46.209 L 16.245 46.390 L 16.426 46.570 L 16.787 46.570 L 16.968 46.751 L 17.148 46.931 L 17.329 47.112 L 17.509 47.292 L 17.690 47.473 L 17.870 47.653 L 18.051 47.834 L 18.231 48.014 L 18.412 48.195 L 18.592 48.375 L 18.953 48.375 L 19.134 48.556 L 19.314 48.736 L 19.495 48.917 L 19.675 49.097 L 19.856 49.278 L 20.036 49.458 L 20.397 49.458 L 20.758 49.458 L 21.119 49.458 L 21.480 49.458 L 21.841 49.458 L 22.202 49.458 L 22.563 49.458 L 22.924 49.458 L 23.285 49.458 L 23.646 49.458 L 24.007 49.458 L 24.368 49.458 L 24.729 49.458 L 24.910 49.278 L 25.090 49.097 L 25.271 48.917 L 25.271 48.556 L 25.451 48.375 L 25.632 48.195 L 25.812 48.014 L 25.993 47.834 L 26.173 47.653 L 26.354 47.473 L 26.534 47.292 L 26.895 47.292 L 27.256 47.292 L 27.617 47.292 L 27.978 47.292 L 28.339 47.292 L 28.700 47.292 L 29.061 47.292 L 29.422 47.292 L 29.783 47.292 L 30.144 47.292 L 30.505 47.292 L 30.866 47.292 L 31.227 47.292 L 31.588 47.292 L 31.949 47.292 L 32.310 47.292 L 32.671 47.292 L 33.032 47.292 L 33.394 47.292 L 33.755 47.292 L 34.116 47.292 L 34.477 47.292 L 34.838 47.292 L 35.199 47.292 L 35.560 47.292 L 35.921 47.292 L 36.282 47.292 L 36.643 47.292 L 37.004 47.292 L 37.365 47.292 L 37.726 47.292 L 38.087 47.292 L 38.448 47.292 L 38.809 47.292 L 39.170 47.292 L 39.531 47.292 L 39.892 47.292 L 40.253 47.292 L 40.614 47.292 L 40.975 47.292 L 41.336 47.292 L 41.516 47.112 L 41.516 46.751 L 41.516 46.390 L 41.516 46.029 L 41.516 45.668 L 41.516 45.307 L 41.516 44.946 L 41.516 44.585 L 41.516 44.224 L 41.516 43.863 L 41.516 43.502 L 41.516 43.141 L 41.516 42.780 L 41.516 42.419 L 41.516 42.058 L 41.516 41.697 L 41.516 41.336 L 41.516 40.975 L 41.516 40.614 L 41.516 40.253 L 41.516 39.892 L 41.516 39.531 L 41.516 39.170 L 41.516 38.809 L 41.516 38.448 L 41.516 38.087 L 41.516 37.726 L 41.516 37.365 L 41.516 37.004 L 41.516 36.643 L 41.516 36.282 L 41.516 35.921 L 41.516 35.560 L 41.516 35.199 L 41.516 34.838 L 41.516 34.477 L 41.697 34.296 L 41.877 34.116 L 42.058 33.935 L 42.238 33.755 L 42.419 33.574 L 42.780 33.574 L 42.960 33.394 L 43.141 33.213 L 43.502 33.213 L 43.863 33.213 L 44.224 33.213 L 44.585 33.213 L 44.946 33.213 L 45.307 33.213 L 45.668 33.213 L 46.029 33.213 L 46.209 33.032 L 46.209 32.671 L 46.209 32.310 L 46.209 31.949 L 46.209 31.588 L 46.209 31.227 L 46.209 30.866 L 46.209 30.505 L 46.209 30.144 L 46.209 29.783 L 46.209 29.422 L 46.209 29.061 L 46.209 28.700 L 46.209 28.339 L 46.209 27.978 L 46.209 27.617 L 46.209 27.256 L 46.209 26.895 L 46.209 26.534 L 46.209 26.173 L 46.209 25.812 L 46.209 25.451 L 46.209 25.090 L 46.209 24.729 L 46.209 24.368 L 46.209 24.007 L 46.209 23.646 L 46.209 23.285 L 46.029 23.105 L 45.848 22.924 L 45.668 22.744 L 45.487 22.563 L 45.307 22.383 L 45.126 22.202 L 44.946 22.022 L 44.765 21.841 L 44.585 21.661 L 44.404 21.480 L 44.404 21.119 L 44.404 20.758 L 44.404 20.397 L 44.404 20.036 L 44.404 19.675 L 44.404 19.314 L 44.404 18.953 L 44.404 18.592 L 44.404 18.231 L 44.404 17.870 L 44.404 17.509 L 44.404 17.148 L 44.404 16.787 L 44.404 16.426 L 44.404 16.065 L 44.224 15.884 L 44.043 15.704 L 44.224 15.523 Z M 56.859 18.412 L 57.220 18.412 L 57.581 18.412 L 57.762 18.592 L 57.581 18.773 L 57.220 18.773 L 56.859 18.773 L 56.679 18.592 L 56.859 18.412 Z M 57.942 18.773 L 58.123 18.953 L 57.942 19.134 L 57.762 18.953 L 57.942 18.773 Z M 58.303 19.134 L 58.484 19.314 L 58.484 19.675 L 58.303 19.856 L 58.123 19.675 L 58.123 19.314 L 58.303 19.134 Z M 98.736 19.856 L 99.097 19.856 L 99.458 19.856 L 99.639 20.036 L 99.819 20.217 L 100.000 20.397 L 100.000 20.758 L 100.000 21.119 L 100.000 21.480 L 100.000 21.841 L 99.819 22.022 L 99.458 22.022 L 99.278 21.841 L 99.458 21.661 L 99.639 21.480 L 99.639 21.119 L 99.639 20.758 L 99.458 20.578 L 99.278 20.397 L 99.097 20.217 L 98.736 20.217 L 98.556 20.036 L 98.736 19.856 Z M 98.375 20.217 L 98.556 20.397 L 98.375 20.578 L 98.195 20.397 L 98.375 20.217 Z M 50.000 21.661 L 50.361 21.661 L 50.542 21.841 L 50.361 22.022 L 50.000 22.022 L 49.819 21.841 L 50.000 21.661 Z M 98.375 21.661 L 98.736 21.661 L 98.917 21.841 L 98.736 22.022 L 98.375 22.022 L 98.195 21.841 L 98.375 21.661 Z M 49.639 22.022 L 49.819 22.202 L 49.639 22.383 L 49.458 22.202 L 49.639 22.022 Z M 50.722 22.022 L 51.083 22.022 L 51.264 22.202 L 51.264 22.563 L 51.264 22.924 L 51.264 23.285 L 51.264 23.646 L 51.083 23.827 L 50.903 23.646 L 50.903 23.285 L 50.903 22.924 L 50.903 22.563 L 50.722 22.383 L 50.542 22.202 L 50.722 22.022 Z M 99.097 22.022 L 99.278 22.202 L 99.097 22.383 L 98.917 22.202 L 99.097 22.022 Z M 49.278 22.383 L 49.458 22.563 L 49.458 22.924 L 49.458 23.285 L 49.278 23.466 L 49.097 23.285 L 49.097 22.924 L 49.097 22.563 L 49.278 22.383 Z M 49.639 23.466 L 49.819 23.646 L 49.639 23.827 L 49.458 23.646 L 49.639 23.466 Z M 93.682 25.993 L 93.863 26.173 L 93.863 26.534 L 93.863 26.895 L 93.863 27.256 L 93.682 27.437 L 93.321 27.437 L 93.141 27.256 L 93.321 27.076 L 93.502 26.895 L 93.502 26.534 L 93.502 26.173 L 93.682 25.993 Z M 92.599 27.437 L 92.960 27.437 L 93.141 27.617 L 92.960 27.798 L 92.599 27.798 L 92.419 27.617 L 92.599 27.437 Z M 96.931 28.520 L 97.292 28.520 L 97.653 28.520 L 97.834 28.700 L 97.653 28.881 L 97.292 28.881 L 96.931 28.881 L 96.751 28.700 L 96.931 28.520 Z M 96.570 28.881 L 96.751 29.061 L 96.570 29.242 L 96.390 29.061 L 96.570 28.881 Z M 98.014 28.881 L 98.195 29.061 L 98.014 29.242 L 97.834 29.061 L 98.014 28.881 Z M 12.094 29.242 L 12.455 29.242 L 12.816 29.242 L 13.177 29.242 L 13.538 29.242 L 13.899 29.242 L 14.260 29.242 L 14.621 29.242 L 14.982 29.242 L 15.343 29.242 L 15.704 29.242 L 16.065 29.242 L 16.426 29.242 L 16.787 29.242 L 17.148 29.242 L 17.509 29.242 L 17.870 29.242 L 18.051 29.422 L 18.231 29.603 L 18.592 29.603 L 18.773 29.783 L 18.953 29.964 L 19.314 29.964 L 19.495 30.144 L 19.675 30.325 L 19.856 30.505 L 20.036 30.686 L 20.217 30.866 L 20.217 31.227 L 20.397 31.408 L 20.578 31.588 L 20.578 31.949 L 20.578 32.310 L 20.758 32.491 L 20.939 32.671 L 20.939 33.032 L 20.939 33.394 L 20.758 33.574 L 20.578 33.755 L 20.578 34.116 L 20.397 34.296 L 20.217 34.477 L 20.217 34.838 L 20.036 35.018 L 19.856 35.199 L 19.675 35.379 L 19.495 35.560 L 19.314 35.740 L 19.134 35.921 L 19.314 36.101 L 19.495 36.282 L 19.675 36.462 L 20.036 36.462 L 20.217 36.643 L 20.397 36.823 L 20.758 36.823 L 20.939 37.004 L 21.119 37.184 L 21.300 37.365 L 21.300 37.726 L 21.480 37.906 L 21.661 38.087 L 21.661 38.448 L 21.661 38.809 L 21.841 38.989 L 22.022 39.170 L 22.022 39.531 L 22.022 39.892 L 22.022 40.253 L 21.841 40.433 L 21.661 40.614 L 21.661 40.975 L 21.661 41.336 L 21.661 41.697 L 21.480 41.877 L 21.300 42.058 L 21.119 42.238 L 20.939 42.419 L 20.939 42.780 L 20.758 42.960 L 20.397 42.960 L 20.217 43.141 L 20.036 43.321 L 19.675 43.321 L 19.495 43.502 L 19.314 43.682 L 18.953 43.682 L 18.592 43.682 L 18.231 43.682 L 17.870 43.682 L 17.509 43.682 L 17.148 43.682 L 16.787 43.682 L 16.426 43.682 L 16.065 43.682 L 15.704 43.682 L 15.343 43.682 L 14.982 43.682 L 14.621 43.682 L 14.260 43.682 L 13.899 43.682 L 13.538 43.682 L 13.177 43.682 L 12.816 43.682 L 12.455 43.682 L 12.094 43.682 L 11.913 43.502 L 11.913 43.141 L 11.913 42.780 L 11.913 42.419 L 11.913 42.058 L 11.913 41.697 L 11.913 41.336 L 11.913 40.975 L 11.913 40.614 L 11.913 40.253 L 11.913 39.892 L 11.913 39.531 L 11.913 39.170 L 11.913 38.809 L 11.913 38.448 L 11.913 38.087 L 11.913 37.726 L 11.913 37.365 L 11.913 37.004 L 11.913 36.643 L 11.913 36.282 L 11.913 35.921 L 11.913 35.560 L 11.913 35.199 L 11.913 34.838 L 11.913 34.477 L 11.913 34.116 L 11.913 33.755 L 11.913 33.394 L 11.913 33.032 L 11.913 32.671 L 11.913 32.310 L 11.913 31.949 L 11.913 31.588 L 11.913 31.227 L 11.913 30.866 L 11.913 30.505 L 11.913 30.144 L 11.913 29.783 L 11.913 29.422 L 12.094 29.242 Z M 23.646 29.242 L 24.007 29.242 L 24.368 29.242 L 24.729 29.242 L 25.090 29.242 L 25.451 29.242 L 25.812 29.242 L 26.173 29.242 L 26.534 29.242 L 26.715 29.422 L 26.715 29.783 L 26.715 30.144 L 26.715 30.505 L 26.715 30.866 L 26.715 31.227 L 26.715 31.588 L 26.715 31.949 L 26.715 32.310 L 26.715 32.671 L 26.715 33.032 L 26.715 33.394 L 26.715 33.755 L 26.715 34.116 L 26.715 34.477 L 26.715 34.838 L 26.715 35.199 L 26.715 35.560 L 26.715 35.921 L 26.715 36.282 L 26.715 36.643 L 26.715 37.004 L 26.715 37.365 L 26.715 37.726 L 26.715 38.087 L 26.715 38.448 L 26.715 38.809 L 26.715 39.170 L 26.715 39.531 L 26.715 39.892 L 26.715 40.253 L 26.715 40.614 L 26.715 40.975 L 26.715 41.336 L 26.715 41.697 L 26.715 42.058 L 26.715 42.419 L 26.715 42.780 L 26.715 43.141 L 26.715 43.502 L 26.534 43.682 L 26.173 43.682 L 25.812 43.682 L 25.451 43.682 L 25.090 43.682 L 24.729 43.682 L 24.368 43.682 L 24.007 43.682 L 23.646 43.682 L 23.466 43.502 L 23.466 43.141 L 23.466 42.780 L 23.466 42.419 L 23.466 42.058 L 23.466 41.697 L 23.466 41.336 L 23.466 40.975 L 23.466 40.614 L 23.466 40.253 L 23.466 39.892 L 23.466 39.531 L 23.466 39.170 L 23.466 38.809 L 23.466 38.448 L 23.466 38.087 L 23.466 37.726 L 23.466 37.365 L 23.466 37.004 L 23.466 36.643 L 23.466 36.282 L 23.466 35.921 L 23.466 35.560 L 23.466 35.199 L 23.466 34.838 L 23.466 34.477 L 23.466 34.116 L 23.466 33.755 L 23.466 33.394 L 23.466 33.032 L 23.466 32.671 L 23.466 32.310 L 23.466 31.949 L 23.466 31.588 L 23.466 31.227 L 23.466 30.866 L 23.466 30.505 L 23.466 30.144 L 23.466 29.783 L 23.466 29.422 L 23.646 29.242 Z M 28.339 29.242 L 28.700 29.242 L 29.061 29.242 L 29.422 29.242 L 29.783 29.242 L 30.144 29.242 L 30.505 29.242 L 30.866 29.242 L 31.227 29.242 L 31.588 29.242 L 31.949 29.242 L 32.310 29.242 L 32.671 29.242 L 33.032 29.242 L 33.394 29.242 L 33.755 29.242 L 34.116 29.242 L 34.477 29.242 L 34.838 29.242 L 35.199 29.242 L 35.560 29.242 L 35.921 29.242 L 36.282 29.242 L 36.643 29.242 L 37.004 29.242 L 37.365 29.242 L 37.726 29.242 L 38.087 29.242 L 38.448 29.242 L 38.809 29.242 L 39.170 29.242 L 39.531 29.242 L 39.711 29.422 L 39.711 29.783 L 39.711 30.144 L 39.711 30.505 L 39.711 30.866 L 39.711 31.227 L 39.711 31.588 L 39.711 31.949 L 39.531 32.130 L 39.170 32.130 L 38.809 32.130 L 38.448 32.130 L 38.087 32.130 L 37.726 32.130 L 37.365 32.130 L 37.004 32.130 L 36.643 32.130 L 36.282 32.130 L 35.921 32.130 L 35.740 32.310 L 35.740 32.671 L 35.740 33.032 L 35.740 33.394 L 35.740 33.755 L 35.740 34.116 L 35.740 34.477 L 35.740 34.838 L 35.740 35.199 L 35.740 35.560 L 35.740 35.921 L 35.740 36.282 L 35.740 36.643 L 35.740 37.004 L 35.740 37.365 L 35.740 37.726 L 35.740 38.087 L 35.740 38.448 L 35.740 38.809 L 35.740 39.170 L 35.740 39.531 L 35.740 39.892 L 35.740 40.253 L 35.740 40.614 L 35.740 40.975 L 35.740 41.336 L 35.740 41.697 L 35.740 42.058 L 35.740 42.419 L 35.740 42.780 L 35.740 43.141 L 35.740 43.502 L 35.560 43.682 L 35.199 43.682 L 34.838 43.682 L 34.477 43.682 L 34.116 43.682 L 33.755 43.682 L 33.394 43.682 L 33.032 43.682 L 32.671 43.682 L 32.491 43.502 L 32.491 43.141 L 32.491 42.780 L 32.491 42.419 L 32.491 42.058 L 32.491 41.697 L 32.491 41.336 L 32.491 40.975 L 32.491 40.614 L 32.491 40.253 L 32.491 39.892 L 32.491 39.531 L 32.491 39.170 L 32.491 38.809 L 32.491 38.448 L 32.491 38.087 L 32.491 37.726 L 32.491 37.365 L 32.491 37.004 L 32.491 36.643 L 32.491 36.282 L 32.491 35.921 L 32.491 35.560 L 32.491 35.199 L 32.491 34.838 L 32.491 34.477 L 32.491 34.116 L 32.491 33.755 L 32.491 33.394 L 32.491 33.032 L 32.491 32.671 L 32.491 32.310 L 32.310 32.130 L 31.949 32.130 L 31.588 32.130 L 31.227 32.130 L 30.866 32.130 L 30.505 32.130 L 30.144 32.130 L 29.783 32.130 L 29.422 32.130 L 29.061 32.130 L 28.700 32.130 L 28.339 32.130 L 28.159 31.949 L 28.159 31.588 L 28.159 31.227 L 28.159 30.866 L 28.159 30.505 L 28.159 30.144 L 28.159 29.783 L 28.159 29.422 L 28.339 29.242 Z M 14.982 31.769 L 14.801 31.949 L 14.801 32.310 L 14.801 32.671 L 14.801 33.032 L 14.801 33.394 L 14.801 33.755 L 14.801 34.116 L 14.801 34.477 L 14.801 34.838 L 14.801 35.199 L 14.982 35.379 L 15.343 35.379 L 15.704 35.379 L 16.065 35.379 L 16.245 35.199 L 16.426 35.018 L 16.787 35.018 L 16.968 34.838 L 17.148 34.657 L 17.329 34.477 L 17.509 34.296 L 17.690 34.116 L 17.690 33.755 L 17.690 33.394 L 17.690 33.032 L 17.690 32.671 L 17.509 32.491 L 17.329 32.310 L 17.148 32.130 L 16.968 31.949 L 16.787 31.769 L 16.426 31.769 L 16.065 31.769 L 15.704 31.769 L 15.343 31.769 L 14.982 31.769 Z M 90.072 32.852 L 90.433 32.852 L 90.794 32.852 L 90.975 33.032 L 90.794 33.213 L 90.433 33.213 L 90.072 33.213 L 89.892 33.032 L 90.072 32.852 Z M 89.711 33.213 L 89.892 33.394 L 89.711 33.574 L 89.531 33.394 L 89.711 33.213 Z M 44.224 34.296 L 44.043 34.477 L 43.863 34.657 L 43.682 34.838 L 43.502 35.018 L 43.321 35.199 L 43.141 35.379 L 42.960 35.560 L 42.780 35.740 L 42.599 35.921 L 42.599 36.282 L 42.599 36.643 L 42.599 37.004 L 42.599 37.365 L 42.599 37.726 L 42.599 38.087 L 42.599 38.448 L 42.599 38.809 L 42.599 39.170 L 42.599 39.531 L 42.599 39.892 L 42.599 40.253 L 42.599 40.614 L 42.599 40.975 L 42.599 41.336 L 42.599 41.697 L 42.599 42.058 L 42.599 42.419 L 42.599 42.780 L 42.599 43.141 L 42.599 43.502 L 42.599 43.863 L 42.599 44.224 L 42.599 44.585 L 42.599 44.946 L 42.599 45.307 L 42.599 45.668 L 42.599 46.029 L 42.599 46.390 L 42.599 46.751 L 42.599 47.112 L 42.599 47.473 L 42.599 47.834 L 42.780 48.014 L 42.960 48.195 L 43.141 48.375 L 43.321 48.556 L 43.502 48.736 L 43.682 48.917 L 43.863 49.097 L 44.043 49.278 L 44.224 49.458 L 44.585 49.458 L 44.946 49.458 L 45.307 49.458 L 45.668 49.458 L 46.029 49.458 L 46.390 49.458 L 46.751 49.458 L 47.112 49.458 L 47.473 49.458 L 47.834 49.458 L 48.195 49.458 L 48.556 49.458 L 48.917 49.458 L 49.278 49.458 L 49.639 49.458 L 50.000 49.458 L 50.361 49.458 L 50.722 49.458 L 51.083 49.458 L 51.444 49.458 L 51.805 49.458 L 52.166 49.458 L 52.527 49.458 L 52.888 49.458 L 53.249 49.458 L 53.610 49.458 L 53.971 49.458 L 54.332 49.458 L 54.693 49.458 L 55.054 49.458 L 55.415 49.458 L 55.776 49.458 L 56.137 49.458 L 56.318 49.278 L 56.498 49.097 L 56.679 48.917 L 56.859 48.736 L 57.040 48.556 L 57.220 48.375 L 57.401 48.195 L 57.581 48.014 L 57.762 47.834 L 57.762 47.473 L 57.762 47.112 L 57.762 46.751 L 57.762 46.390 L 57.762 46.029 L 57.762 45.668 L 57.762 45.307 L 57.762 44.946 L 57.762 44.585 L 57.762 44.224 L 57.762 43.863 L 57.762 43.502 L 57.762 43.141 L 57.762 42.780 L 57.762 42.419 L 57.762 42.058 L 57.762 41.697 L 57.762 41.336 L 57.762 40.975 L 57.762 40.614 L 57.762 40.253 L 57.762 39.892 L 57.762 39.531 L 57.762 39.170 L 57.762 38.809 L 57.762 38.448 L 57.762 38.087 L 57.762 37.726 L 57.762 37.365 L 57.762 37.004 L 57.762 36.643 L 57.762 36.282 L 57.762 35.921 L 57.581 35.740 L 57.401 35.560 L 57.401 35.199 L 57.220 35.018 L 57.040 34.838 L 56.859 34.657 L 56.498 34.657 L 56.318 34.477 L 56.137 34.296 L 55.776 34.296 L 55.415 34.296 L 55.054 34.296 L 54.693 34.296 L 54.332 34.296 L 53.971 34.296 L 53.610 34.296 L 53.249 34.296 L 52.888 34.296 L 52.527 34.296 L 52.166 34.296 L 51.805 34.296 L 51.444 34.296 L 51.083 34.296 L 50.722 34.296 L 50.361 34.296 L 50.000 34.296 L 49.639 34.296 L 49.278 34.296 L 48.917 34.296 L 48.556 34.296 L 48.195 34.296 L 47.834 34.296 L 47.473 34.296 L 47.112 34.296 L 46.751 34.296 L 46.390 34.296 L 46.029 34.296 L 45.668 34.296 L 45.307 34.296 L 44.946 34.296 L 44.585 34.296 L 44.224 34.296 Z M 45.668 35.018 L 46.029 35.018 L 46.390 35.018 L 46.751 35.018 L 47.112 35.018 L 47.473 35.018 L 47.834 35.018 L 48.195 35.018 L 48.556 35.018 L 48.917 35.018 L 49.278 35.018 L 49.639 35.018 L 50.000 35.018 L 50.361 35.018 L 50.722 35.018 L 51.083 35.018 L 51.444 35.018 L 51.805 35.018 L 52.166 35.018 L 52.527 35.018 L 52.888 35.018 L 53.249 35.018 L 53.610 35.018 L 53.971 35.018 L 54.332 35.018 L 54.693 35.018 L 55.054 35.018 L 55.235 35.199 L 55.415 35.379 L 55.776 35.379 L 55.957 35.560 L 56.137 35.740 L 56.318 35.921 L 56.498 36.101 L 56.679 36.282 L 56.679 36.643 L 56.679 37.004 L 56.679 37.365 L 56.679 37.726 L 56.679 38.087 L 56.679 38.448 L 56.679 38.809 L 56.679 39.170 L 56.679 39.531 L 56.679 39.892 L 56.679 40.253 L 56.679 40.614 L 56.679 40.975 L 56.679 41.336 L 56.679 41.697 L 56.679 42.058 L 56.679 42.419 L 56.679 42.780 L 56.679 43.141 L 56.679 43.502 L 56.679 43.863 L 56.679 44.224 L 56.679 44.585 L 56.679 44.946 L 56.679 45.307 L 56.679 45.668 L 56.679 46.029 L 56.679 46.390 L 56.679 46.751 L 56.679 47.112 L 56.679 47.473 L 56.498 47.653 L 56.318 47.834 L 56.137 48.014 L 55.957 48.195 L 55.776 48.375 L 55.415 48.375 L 55.054 48.375 L 54.693 48.375 L 54.332 48.375 L 53.971 48.375 L 53.610 48.375 L 53.249 48.375 L 52.888 48.375 L 52.527 48.375 L 52.166 48.375 L 51.805 48.375 L 51.444 48.375 L 51.083 48.375 L 50.722 48.375 L 50.361 48.375 L 50.000 48.375 L 49.639 48.375 L 49.278 48.375 L 48.917 48.375 L 48.556 48.375 L 48.195 48.375 L 47.834 48.375 L 47.473 48.375 L 47.112 48.375 L 46.751 48.375 L 46.390 48.375 L 46.029 48.375 L 45.668 48.375 L 45.307 48.375 L 44.946 48.375 L 44.585 48.375 L 44.404 48.195 L 44.224 48.014 L 44.043 47.834 L 43.863 47.653 L 43.682 47.473 L 43.682 47.112 L 43.682 46.751 L 43.682 46.390 L 43.682 46.029 L 43.682 45.668 L 43.682 45.307 L 43.682 44.946 L 43.682 44.585 L 43.682 44.224 L 43.682 43.863 L 43.682 43.502 L 43.682 43.141 L 43.682 42.780 L 43.682 42.419 L 43.682 42.058 L 43.682 41.697 L 43.682 41.336 L 43.682 40.975 L 43.682 40.614 L 43.682 40.253 L 43.682 39.892 L 43.682 39.531 L 43.682 39.170 L 43.682 38.809 L 43.682 38.448 L 43.682 38.087 L 43.682 37.726 L 43.682 37.365 L 43.682 37.004 L 43.682 36.643 L 43.682 36.282 L 43.863 36.101 L 44.043 35.921 L 44.224 35.740 L 44.404 35.560 L 44.585 35.379 L 44.946 35.379 L 45.307 35.379 L 45.487 35.199 L 45.668 35.018 Z M 49.639 36.462 L 49.458 36.643 L 49.278 36.823 L 49.097 37.004 L 49.097 37.365 L 48.917 37.545 L 48.736 37.726 L 48.736 38.087 L 48.736 38.448 L 48.556 38.628 L 48.375 38.809 L 48.375 39.170 L 48.195 39.350 L 48.014 39.531 L 48.014 39.892 L 48.014 40.253 L 47.834 40.433 L 47.653 40.614 L 47.653 40.975 L 47.473 41.155 L 47.292 41.336 L 47.292 41.697 L 47.292 42.058 L 47.112 42.238 L 46.931 42.419 L 46.931 42.780 L 46.751 42.960 L 46.570 43.141 L 46.570 43.502 L 46.570 43.863 L 46.390 44.043 L 46.209 44.224 L 46.209 44.585 L 46.029 44.765 L 45.848 44.946 L 45.848 45.307 L 45.668 45.487 L 45.487 45.668 L 45.487 46.029 L 45.668 46.209 L 46.029 46.209 L 46.390 46.209 L 46.751 46.209 L 47.112 46.209 L 47.473 46.209 L 47.834 46.209 L 48.014 46.029 L 48.014 45.668 L 48.014 45.307 L 48.195 45.126 L 48.375 44.946 L 48.375 44.585 L 48.556 44.404 L 48.736 44.224 L 48.917 44.043 L 49.278 44.043 L 49.639 44.043 L 50.000 44.043 L 50.361 44.043 L 50.722 44.043 L 51.083 44.043 L 51.444 44.043 L 51.805 44.043 L 51.986 44.224 L 51.986 44.585 L 52.166 44.765 L 52.347 44.946 L 52.347 45.307 L 52.527 45.487 L 52.708 45.668 L 52.708 46.029 L 52.888 46.209 L 53.249 46.209 L 53.610 46.209 L 53.971 46.209 L 54.332 46.209 L 54.693 46.209 L 54.874 46.029 L 54.874 45.668 L 54.874 45.307 L 54.693 45.126 L 54.513 44.946 L 54.513 44.585 L 54.332 44.404 L 54.152 44.224 L 54.152 43.863 L 54.152 43.502 L 53.971 43.321 L 53.791 43.141 L 53.791 42.780 L 53.791 42.419 L 53.610 42.238 L 53.430 42.058 L 53.430 41.697 L 53.249 41.516 L 53.069 41.336 L 53.069 40.975 L 52.888 40.794 L 52.708 40.614 L 52.708 40.253 L 52.527 40.072 L 52.347 39.892 L 52.347 39.531 L 52.347 39.170 L 52.166 38.989 L 51.986 38.809 L 51.986 38.448 L 51.986 38.087 L 51.805 37.906 L 51.625 37.726 L 51.625 37.365 L 51.444 37.184 L 51.264 37.004 L 51.264 36.643 L 51.083 36.462 L 50.722 36.462 L 50.361 36.462 L 50.000 36.462 L 49.639 36.462 Z M 95.487 36.823 L 95.668 37.004 L 95.668 37.365 L 95.668 37.726 L 95.487 37.906 L 95.307 37.726 L 95.307 37.365 L 95.307 37.004 L 95.487 36.823 Z M 15.343 37.545 L 15.162 37.726 L 14.982 37.906 L 14.801 38.087 L 14.801 38.448 L 14.801 38.809 L 14.801 39.170 L 14.801 39.531 L 14.801 39.892 L 14.801 40.253 L 14.801 40.614 L 14.801 40.975 L 14.801 41.336 L 14.982 41.516 L 15.343 41.516 L 15.704 41.516 L 16.065 41.516 L 16.426 41.516 L 16.787 41.516 L 17.148 41.516 L 17.509 41.516 L 17.690 41.336 L 17.870 41.155 L 18.051 40.975 L 18.231 40.794 L 18.412 40.614 L 18.592 40.433 L 18.773 40.253 L 18.773 39.892 L 18.773 39.531 L 18.773 39.170 L 18.773 38.809 L 18.592 38.628 L 18.412 38.448 L 18.231 38.267 L 18.051 38.087 L 17.870 37.906 L 17.509 37.906 L 17.148 37.906 L 16.968 37.726 L 16.787 37.545 L 16.426 37.545 L 16.065 37.545 L 15.704 37.545 L 15.343 37.545 Z M 95.126 37.906 L 95.307 38.087 L 95.126 38.267 L 94.946 38.087 L 95.126 37.906 Z M 94.404 38.267 L 94.765 38.267 L 94.946 38.448 L 94.765 38.628 L 94.404 38.628 L 94.224 38.448 L 94.404 38.267 Z M 50.361 39.711 L 50.542 39.892 L 50.542 40.253 L 50.722 40.433 L 50.903 40.614 L 50.903 40.975 L 50.903 41.336 L 51.083 41.516 L 51.264 41.697 L 51.264 42.058 L 51.083 42.238 L 50.722 42.238 L 50.361 42.238 L 50.000 42.238 L 49.639 42.238 L 49.458 42.058 L 49.458 41.697 L 49.458 41.336 L 49.639 41.155 L 49.819 40.975 L 49.819 40.614 L 49.819 40.253 L 50.000 40.072 L 50.181 39.892 L 50.361 39.711 Z M 62.274 40.794 L 62.635 40.794 L 62.996 40.794 L 63.357 40.794 L 63.718 40.794 L 64.079 40.794 L 64.440 40.794 L 64.801 40.794 L 65.162 40.794 L 65.523 40.794 L 65.884 40.794 L 66.245 40.794 L 66.606 40.794 L 66.968 40.794 L 67.329 40.794 L 67.690 40.794 L 68.051 40.794 L 68.412 40.794 L 68.592 40.975 L 68.773 41.155 L 69.134 41.155 L 69.495 41.155 L 69.675 41.336 L 69.856 41.516 L 70.036 41.697 L 70.217 41.877 L 70.397 42.058 L 70.578 42.238 L 70.758 42.419 L 70.758 42.780 L 70.939 42.960 L 71.119 43.141 L 71.119 43.502 L 71.119 43.863 L 71.119 44.224 L 71.119 44.585 L 71.119 44.946 L 71.119 45.307 L 71.119 45.668 L 70.939 45.848 L 70.758 46.029 L 70.758 46.390 L 70.578 46.570 L 70.397 46.751 L 70.217 46.931 L 69.856 46.931 L 69.675 47.112 L 69.675 47.473 L 69.856 47.653 L 70.217 47.653 L 70.397 47.834 L 70.578 48.014 L 70.939 48.014 L 71.119 48.195 L 71.300 48.375 L 71.480 48.556 L 71.661 48.736 L 71.841 48.917 L 71.841 49.278 L 72.022 49.458 L 72.202 49.639 L 72.202 50.000 L 72.202 50.361 L 72.202 50.722 L 72.202 51.083 L 72.202 51.444 L 72.202 51.805 L 72.202 52.166 L 72.202 52.527 L 72.202 52.888 L 72.022 53.069 L 71.841 53.249 L 71.841 53.610 L 71.661 53.791 L 71.480 53.971 L 71.300 54.152 L 71.119 54.332 L 70.939 54.513 L 70.578 54.513 L 70.397 54.693 L 70.217 54.874 L 69.856 54.874 L 69.675 55.054 L 69.495 55.235 L 69.134 55.235 L 68.773 55.235 L 68.412 55.235 L 68.051 55.235 L 67.690 55.235 L 67.329 55.235 L 66.968 55.235 L 66.606 55.235 L 66.245 55.235 L 65.884 55.235 L 65.523 55.235 L 65.162 55.235 L 64.801 55.235 L 64.440 55.235 L 64.079 55.235 L 63.718 55.235 L 63.357 55.235 L 62.996 55.235 L 62.635 55.235 L 62.274 55.235 L 62.094 55.054 L 62.094 54.693 L 62.094 54.332 L 62.094 53.971 L 62.094 53.610 L 62.094 53.249 L 62.094 52.888 L 62.094 52.527 L 62.094 52.166 L 62.094 51.805 L 62.094 51.444 L 62.094 51.083 L 62.094 50.722 L 62.094 50.361 L 62.094 50.000 L 62.094 49.639 L 62.094 49.278 L 62.094 48.917 L 62.094 48.556 L 62.094 48.195 L 62.094 47.834 L 62.094 47.473 L 62.094 47.112 L 62.094 46.751 L 62.094 46.390 L 62.094 46.029 L 62.094 45.668 L 62.094 45.307 L 62.094 44.946 L 62.094 44.585 L 62.094 44.224 L 62.094 43.863 L 62.094 43.502 L 62.094 43.141 L 62.094 42.780 L 62.094 42.419 L 62.094 42.058 L 62.094 41.697 L 62.094 41.336 L 62.094 40.975 L 62.274 40.794 Z M 74.188 40.794 L 74.549 40.794 L 74.910 40.794 L 75.271 40.794 L 75.632 40.794 L 75.993 40.794 L 76.354 40.794 L 76.715 40.794 L 77.076 40.794 L 77.256 40.975 L 77.256 41.336 L 77.256 41.697 L 77.256 42.058 L 77.256 42.419 L 77.256 42.780 L 77.256 43.141 L 77.256 43.502 L 77.256 43.863 L 77.256 44.224 L 77.256 44.585 L 77.256 44.946 L 77.256 45.307 L 77.256 45.668 L 77.256 46.029 L 77.256 46.390 L 77.256 46.751 L 77.256 47.112 L 77.256 47.473 L 77.256 47.834 L 77.256 48.195 L 77.256 48.556 L 77.256 48.917 L 77.256 49.278 L 77.256 49.639 L 77.256 50.000 L 77.256 50.361 L 77.256 50.722 L 77.256 51.083 L 77.256 51.444 L 77.256 51.805 L 77.256 52.166 L 77.256 52.527 L 77.256 52.888 L 77.256 53.249 L 77.256 53.610 L 77.256 53.971 L 77.256 54.332 L 77.256 54.693 L 77.256 55.054 L 77.076 55.235 L 76.715 55.235 L 76.354 55.235 L 75.993 55.235 L 75.632 55.235 L 75.271 55.235 L 74.910 55.235 L 74.549 55.235 L 74.188 55.235 L 74.007 55.054 L 74.007 54.693 L 74.007 54.332 L 74.007 53.971 L 74.007 53.610 L 74.007 53.249 L 74.007 52.888 L 74.007 52.527 L 74.007 52.166 L 74.007 51.805 L 74.007 51.444 L 74.007 51.083 L 74.007 50.722 L 74.007 50.361 L 74.007 50.000 L 74.007 49.639 L 74.007 49.278 L 74.007 48.917 L 74.007 48.556 L 74.007 48.195 L 74.007 47.834 L 74.007 47.473 L 74.007 47.112 L 74.007 46.751 L 74.007 46.390 L 74.007 46.029 L 74.007 45.668 L 74.007 45.307 L 74.007 44.946 L 74.007 44.585 L 74.007 44.224 L 74.007 43.863 L 74.007 43.502 L 74.007 43.141 L 74.007 42.780 L 74.007 42.419 L 74.007 42.058 L 74.007 41.697 L 74.007 41.336 L 74.007 40.975 L 74.188 40.794 Z M 78.881 40.794 L 79.242 40.794 L 79.603 40.794 L 79.964 40.794 L 80.325 40.794 L 80.686 40.794 L 81.047 40.794 L 81.408 40.794 L 81.769 40.794 L 82.130 40.794 L 82.491 40.794 L 82.852 40.794 L 83.213 40.794 L 83.574 40.794 L 83.935 40.794 L 84.296 40.794 L 84.657 40.794 L 85.018 40.794 L 85.379 40.794 L 85.740 40.794 L 86.101 40.794 L 86.462 40.794 L 86.823 40.794 L 87.184 40.794 L 87.545 40.794 L 87.906 40.794 L 88.267 40.794 L 88.628 40.794 L 88.989 40.794 L 89.350 40.794 L 89.711 40.794 L 90.072 40.794 L 90.253 40.975 L 90.253 41.336 L 90.253 41.697 L 90.253 42.058 L 90.253 42.419 L 90.253 42.780 L 90.253 43.141 L 90.253 43.502 L 90.072 43.682 L 89.711 43.682 L 89.350 43.682 L 88.989 43.682 L 88.628 43.682 L 88.267 43.682 L 87.906 43.682 L 87.545 43.682 L 87.184 43.682 L 86.823 43.682 L 86.462 43.682 L 86.101 43.682 L 85.921 43.863 L 85.921 44.224 L 85.921 44.585 L 85.921 44.946 L 85.921 45.307 L 85.921 45.668 L 85.921 46.029 L 85.921 46.390 L 85.921 46.751 L 85.921 47.112 L 85.921 47.473 L 85.921 47.834 L 85.921 48.195 L 85.921 48.556 L 85.921 48.917 L 85.921 49.278 L 85.921 49.639 L 85.921 50.000 L 85.921 50.361 L 85.921 50.722 L 85.921 51.083 L 85.921 51.444 L 85.921 51.805 L 85.921 52.166 L 85.921 52.527 L 85.921 52.888 L 85.921 53.249 L 85.921 53.610 L 85.921 53.971 L 85.921 54.332 L 85.921 54.693 L 85.921 55.054 L 85.740 55.235 L 85.379 55.235 L 85.018 55.235 L 84.657 55.235 L 84.296 55.235 L 83.935 55.235 L 83.574 55.235 L 83.213 55.235 L 82.852 55.235 L 82.671 55.054 L 82.671 54.693 L 82.671 54.332 L 82.671 53.971 L 82.671 53.610 L 82.671 53.249 L 82.671 52.888 L 82.671 52.527 L 82.671 52.166 L 82.671 51.805 L 82.671 51.444 L 82.671 51.083 L 82.671 50.722 L 82.671 50.361 L 82.671 50.000 L 82.671 49.639 L 82.671 49.278 L 82.671 48.917 L 82.671 48.556 L 82.671 48.195 L 82.671 47.834 L 82.671 47.473 L 82.671 47.112 L 82.671 46.751 L 82.671 46.390 L 82.671 46.029 L 82.671 45.668 L 82.671 45.307 L 82.671 44.946 L 82.671 44.585 L 82.671 44.224 L 82.671 43.863 L 82.491 43.682 L 82.130 43.682 L 81.769 43.682 L 81.408 43.682 L 81.047 43.682 L 80.686 43.682 L 80.325 43.682 L 79.964 43.682 L 79.603 43.682 L 79.242 43.682 L 78.881 43.682 L 78.700 43.502 L 78.700 43.141 L 78.700 42.780 L 78.700 42.419 L 78.700 42.058 L 78.700 41.697 L 78.700 41.336 L 78.700 40.975 L 78.881 40.794 Z M 65.523 42.960 L 65.343 43.141 L 65.343 43.502 L 65.343 43.863 L 65.343 44.224 L 65.343 44.585 L 65.343 44.946 L 65.343 45.307 L 65.343 45.668 L 65.343 46.029 L 65.343 46.390 L 65.523 46.570 L 65.884 46.570 L 66.245 46.570 L 66.606 46.570 L 66.968 46.570 L 67.329 46.570 L 67.509 46.390 L 67.690 46.209 L 67.870 46.029 L 67.870 45.668 L 68.051 45.487 L 68.231 45.307 L 68.231 44.946 L 68.231 44.585 L 68.231 44.224 L 68.051 44.043 L 67.870 43.863 L 67.690 43.682 L 67.509 43.502 L 67.329 43.321 L 67.148 43.141 L 66.968 42.960 L 66.606 42.960 L 66.245 42.960 L 65.884 42.960 L 65.523 42.960 Z M 49.278 46.570 L 49.097 46.751 L 49.097 47.112 L 49.278 47.292 L 49.458 47.473 L 49.278 47.653 L 49.097 47.834 L 49.278 48.014 L 49.639 48.014 L 50.000 48.014 L 50.181 47.834 L 50.000 47.653 L 49.819 47.473 L 49.819 47.112 L 49.819 46.751 L 49.639 46.570 L 49.278 46.570 Z M 50.722 46.570 L 50.542 46.751 L 50.542 47.112 L 50.542 47.473 L 50.542 47.834 L 50.722 48.014 L 51.083 48.014 L 51.264 47.834 L 51.444 47.653 L 51.625 47.473 L 51.625 47.112 L 51.444 46.931 L 51.264 46.751 L 51.083 46.570 L 50.722 46.570 Z M 51.083 46.931 L 51.264 47.112 L 51.264 47.473 L 51.083 47.653 L 50.903 47.473 L 50.903 47.112 L 51.083 46.931 Z M 5.235 47.292 L 5.596 47.292 L 5.957 47.292 L 6.318 47.292 L 6.498 47.473 L 6.318 47.653 L 5.957 47.653 L 5.596 47.653 L 5.235 47.653 L 5.054 47.473 L 5.235 47.292 Z M 9.206 49.097 L 9.386 49.278 L 9.206 49.458 L 9.025 49.278 L 9.206 49.097 Z M 65.523 49.097 L 65.343 49.278 L 65.343 49.639 L 65.343 50.000 L 65.343 50.361 L 65.343 50.722 L 65.343 51.083 L 65.343 51.444 L 65.343 51.805 L 65.343 52.166 L 65.343 52.527 L 65.523 52.708 L 65.884 52.708 L 66.245 52.708 L 66.606 52.708 L 66.968 52.708 L 67.329 52.708 L 67.690 52.708 L 68.051 52.708 L 68.412 52.708 L 68.592 52.527 L 68.773 52.347 L 68.953 52.166 L 68.953 51.805 L 69.134 51.625 L 69.314 51.444 L 69.314 51.083 L 69.314 50.722 L 69.134 50.542 L 68.953 50.361 L 68.953 50.000 L 68.773 49.819 L 68.592 49.639 L 68.412 49.458 L 68.051 49.458 L 67.870 49.278 L 67.690 49.097 L 67.329 49.097 L 66.968 49.097 L 66.606 49.097 L 66.245 49.097 L 65.884 49.097 L 65.523 49.097 Z M 8.845 49.458 L 9.025 49.639 L 9.025 50.000 L 9.025 50.361 L 8.845 50.542 L 8.664 50.361 L 8.664 50.000 L 8.664 49.639 L 8.845 49.458 Z M 9.206 50.542 L 9.386 50.722 L 9.206 50.903 L 9.025 50.722 L 9.206 50.542 Z M 9.567 50.903 L 9.928 50.903 L 10.108 51.083 L 9.928 51.264 L 9.567 51.264 L 9.386 51.083 L 9.567 50.903 Z M 3.069 53.069 L 3.249 53.249 L 3.069 53.430 L 2.888 53.249 L 3.069 53.069 Z M 2.347 53.430 L 2.708 53.430 L 2.888 53.610 L 2.708 53.791 L 2.347 53.791 L 2.166 53.610 L 2.347 53.430 Z M 3.430 53.430 L 3.791 53.430 L 3.971 53.610 L 3.791 53.791 L 3.430 53.791 L 3.249 53.610 L 3.430 53.430 Z M 1.986 53.791 L 2.166 53.971 L 2.166 54.332 L 2.166 54.693 L 1.986 54.874 L 1.805 54.693 L 1.805 54.332 L 1.805 53.971 L 1.986 53.791 Z M 2.347 54.874 L 2.527 55.054 L 2.347 55.235 L 2.166 55.054 L 2.347 54.874 Z M 3.430 54.874 L 3.791 54.874 L 3.971 55.054 L 3.791 55.235 L 3.610 55.415 L 3.430 55.596 L 3.069 55.596 L 2.708 55.596 L 2.527 55.415 L 2.708 55.235 L 3.069 55.235 L 3.249 55.054 L 3.430 54.874 Z M 6.679 56.679 L 7.040 56.679 L 7.220 56.859 L 7.040 57.040 L 6.859 57.220 L 6.859 57.581 L 6.859 57.942 L 6.679 58.123 L 6.498 57.942 L 6.498 57.581 L 6.498 57.220 L 6.498 56.859 L 6.679 56.679 Z M 7.040 58.123 L 7.401 58.123 L 7.762 58.123 L 8.123 58.123 L 8.303 58.303 L 8.123 58.484 L 7.762 58.484 L 7.401 58.484 L 7.040 58.484 L 6.859 58.303 L 7.040 58.123 Z M 80.325 58.123 L 80.686 58.123 L 81.047 58.123 L 81.408 58.123 L 81.769 58.123 L 82.130 58.123 L 82.491 58.123 L 82.852 58.123 L 83.213 58.123 L 83.574 58.123 L 83.935 58.123 L 84.296 58.123 L 84.477 58.303 L 84.477 58.664 L 84.657 58.845 L 84.838 59.025 L 85.018 59.206 L 85.379 59.206 L 85.560 59.386 L 85.740 59.567 L 85.921 59.747 L 86.101 59.928 L 86.462 59.928 L 86.643 60.108 L 86.823 60.289 L 87.004 60.469 L 87.004 60.830 L 87.004 61.191 L 86.823 61.372 L 86.643 61.552 L 86.643 61.913 L 86.643 62.274 L 86.462 62.455 L 86.282 62.635 L 86.282 62.996 L 86.101 63.177 L 85.921 63.357 L 85.921 63.718 L 85.921 64.079 L 85.740 64.260 L 85.560 64.440 L 85.560 64.801 L 85.379 64.982 L 85.199 65.162 L 85.199 65.523 L 85.018 65.704 L 84.838 65.884 L 84.657 66.065 L 84.296 66.065 L 83.935 66.065 L 83.574 66.065 L 83.394 65.884 L 83.213 65.704 L 82.852 65.704 L 82.491 65.704 L 82.130 65.704 L 81.769 65.704 L 81.408 65.704 L 81.227 65.523 L 81.047 65.343 L 80.686 65.343 L 80.325 65.343 L 80.144 65.523 L 79.964 65.704 L 79.783 65.884 L 79.783 66.245 L 79.603 66.426 L 79.422 66.606 L 79.242 66.787 L 79.061 66.968 L 78.881 67.148 L 78.700 67.329 L 78.520 67.509 L 78.339 67.690 L 78.159 67.870 L 77.978 68.051 L 77.798 68.231 L 77.617 68.412 L 77.437 68.592 L 77.256 68.773 L 77.256 69.134 L 77.256 69.495 L 77.437 69.675 L 77.617 69.856 L 77.617 70.217 L 77.798 70.397 L 77.978 70.578 L 78.159 70.758 L 78.339 70.939 L 78.339 71.300 L 78.520 71.480 L 78.700 71.661 L 78.881 71.841 L 79.061 72.022 L 79.061 72.383 L 78.881 72.563 L 78.700 72.744 L 78.520 72.924 L 78.339 73.105 L 78.159 73.285 L 77.978 73.466 L 77.798 73.646 L 77.617 73.827 L 77.437 74.007 L 77.256 74.188 L 77.076 74.368 L 76.895 74.549 L 76.715 74.729 L 76.534 74.910 L 76.354 75.090 L 76.173 75.271 L 75.993 75.451 L 75.812 75.632 L 75.632 75.812 L 75.451 75.993 L 75.271 76.173 L 75.090 76.354 L 74.910 76.534 L 74.549 76.534 L 74.368 76.354 L 74.188 76.173 L 74.007 75.993 L 73.827 75.812 L 73.466 75.812 L 73.285 75.632 L 73.105 75.451 L 72.924 75.271 L 72.744 75.090 L 72.383 75.090 L 72.202 74.910 L 72.022 74.729 L 71.661 74.729 L 71.480 74.549 L 71.300 74.368 L 71.119 74.188 L 70.939 74.007 L 70.758 74.188 L 70.578 74.368 L 70.397 74.549 L 70.217 74.729 L 69.856 74.729 L 69.675 74.910 L 69.495 75.090 L 69.134 75.090 L 68.953 75.271 L 68.773 75.451 L 68.592 75.632 L 68.412 75.812 L 68.051 75.812 L 67.870 75.993 L 67.690 76.173 L 67.329 76.173 L 67.148 76.354 L 66.968 76.534 L 66.606 76.534 L 66.426 76.715 L 66.426 77.076 L 66.426 77.437 L 66.426 77.798 L 66.606 77.978 L 66.787 78.159 L 66.787 78.520 L 66.787 78.881 L 66.787 79.242 L 66.787 79.603 L 66.787 79.964 L 66.787 80.325 L 66.787 80.686 L 66.606 80.866 L 66.426 81.047 L 66.245 81.227 L 65.884 81.227 L 65.523 81.227 L 65.343 81.408 L 65.162 81.588 L 64.801 81.588 L 64.621 81.769 L 64.440 81.949 L 64.079 81.949 L 63.899 82.130 L 63.718 82.310 L 63.357 82.310 L 62.996 82.310 L 62.816 82.491 L 62.635 82.671 L 62.274 82.671 L 62.094 82.852 L 61.913 83.032 L 61.552 83.032 L 61.372 82.852 L 61.191 82.671 L 61.011 82.491 L 60.830 82.310 L 60.650 82.130 L 60.650 81.769 L 60.469 81.588 L 60.289 81.408 L 60.108 81.227 L 59.928 81.047 L 59.928 80.686 L 59.747 80.505 L 59.567 80.325 L 59.386 80.144 L 59.206 79.964 L 59.025 79.783 L 58.845 79.603 L 58.664 79.422 L 58.303 79.422 L 58.123 79.603 L 57.942 79.783 L 57.581 79.783 L 57.220 79.783 L 56.859 79.783 L 56.679 79.964 L 56.498 80.144 L 56.137 80.144 L 55.776 80.144 L 55.415 80.144 L 55.054 80.144 L 54.693 80.144 L 54.332 80.144 L 53.971 80.144 L 53.791 80.325 L 53.610 80.505 L 53.430 80.686 L 53.430 81.047 L 53.430 81.408 L 53.430 81.769 L 53.430 82.130 L 53.249 82.310 L 53.069 82.491 L 53.069 82.852 L 53.069 83.213 L 53.069 83.574 L 52.888 83.755 L 52.708 83.935 L 52.708 84.296 L 52.708 84.657 L 52.527 84.838 L 52.166 84.838 L 51.805 84.838 L 51.444 84.838 L 51.083 84.838 L 50.722 84.838 L 50.361 84.838 L 50.000 84.838 L 49.639 84.838 L 49.278 84.838 L 48.917 84.838 L 48.556 84.838 L 48.195 84.838 L 47.834 84.838 L 47.473 84.838 L 47.112 84.838 L 46.751 84.838 L 46.570 84.657 L 46.570 84.296 L 46.570 83.935 L 46.570 83.574 L 46.390 83.394 L 46.209 83.213 L 46.209 82.852 L 46.209 82.491 L 46.209 82.130 L 46.209 81.769 L 46.029 81.588 L 45.848 81.408 L 45.848 81.047 L 45.848 80.686 L 45.668 80.505 L 45.307 80.505 L 45.126 80.325 L 44.946 80.144 L 44.585 80.144 L 44.224 80.144 L 43.863 80.144 L 43.502 80.144 L 43.141 80.144 L 42.780 80.144 L 42.419 80.144 L 42.238 79.964 L 42.058 79.783 L 41.697 79.783 L 41.336 79.783 L 40.975 79.783 L 40.794 79.603 L 40.614 79.422 L 40.253 79.422 L 39.892 79.422 L 39.711 79.603 L 39.531 79.783 L 39.350 79.964 L 39.350 80.325 L 39.170 80.505 L 38.989 80.686 L 38.809 80.866 L 38.628 81.047 L 38.628 81.408 L 38.448 81.588 L 38.267 81.769 L 38.087 81.949 L 37.906 82.130 L 37.906 82.491 L 37.726 82.671 L 37.545 82.852 L 37.365 83.032 L 37.184 83.213 L 37.004 83.394 L 36.823 83.213 L 36.643 83.032 L 36.282 83.032 L 36.101 82.852 L 35.921 82.671 L 35.560 82.671 L 35.199 82.671 L 35.018 82.491 L 34.838 82.310 L 34.477 82.310 L 34.296 82.130 L 34.116 81.949 L 33.755 81.949 L 33.394 81.949 L 33.213 81.769 L 33.032 81.588 L 32.671 81.588 L 32.491 81.408 L 32.310 81.227 L 31.949 81.227 L 31.769 81.047 L 31.769 80.686 L 31.769 80.325 L 31.769 79.964 L 31.769 79.603 L 31.769 79.242 L 31.949 79.061 L 32.130 78.881 L 32.130 78.520 L 32.130 78.159 L 32.130 77.798 L 32.130 77.437 L 32.130 77.076 L 32.130 76.715 L 31.949 76.534 L 31.769 76.354 L 31.588 76.173 L 31.227 76.173 L 31.047 75.993 L 30.866 75.812 L 30.505 75.812 L 30.325 75.632 L 30.144 75.451 L 29.783 75.451 L 29.603 75.271 L 29.422 75.090 L 29.242 74.910 L 29.061 74.729 L 28.700 74.729 L 28.520 74.549 L 28.339 74.368 L 27.978 74.368 L 27.617 74.368 L 27.437 74.549 L 27.256 74.729 L 26.895 74.729 L 26.715 74.910 L 26.534 75.090 L 26.354 75.271 L 26.173 75.451 L 25.812 75.451 L 25.632 75.632 L 25.451 75.812 L 25.090 75.812 L 24.910 75.993 L 24.729 76.173 L 24.549 76.354 L 24.368 76.534 L 24.007 76.534 L 23.827 76.354 L 23.646 76.173 L 23.466 75.993 L 23.285 75.812 L 23.105 75.632 L 22.924 75.451 L 22.744 75.271 L 22.563 75.090 L 22.383 74.910 L 22.202 74.729 L 22.022 74.549 L 21.841 74.368 L 21.661 74.188 L 21.480 74.007 L 21.300 73.827 L 21.119 73.646 L 20.939 73.466 L 20.758 73.285 L 20.578 73.105 L 20.397 72.924 L 20.217 72.744 L 20.036 72.563 L 19.856 72.383 L 20.036 72.202 L 20.217 72.022 L 20.217 71.661 L 20.397 71.480 L 20.578 71.300 L 20.578 70.939 L 20.758 70.758 L 20.939 70.578 L 21.119 70.397 L 21.300 70.217 L 21.300 69.856 L 21.480 69.675 L 21.661 69.495 L 21.661 69.134 L 21.480 68.953 L 21.300 68.773 L 21.119 68.592 L 20.939 68.412 L 20.939 68.051 L 20.758 67.870 L 20.578 67.690 L 20.397 67.509 L 20.217 67.329 L 20.036 67.148 L 19.856 66.968 L 19.675 66.787 L 19.495 66.606 L 19.314 66.426 L 19.134 66.245 L 19.134 65.884 L 19.314 65.704 L 19.495 65.523 L 19.675 65.343 L 19.856 65.162 L 20.036 64.982 L 20.217 64.801 L 20.397 64.621 L 20.578 64.440 L 20.758 64.260 L 20.939 64.079 L 21.119 63.899 L 21.300 63.718 L 21.480 63.538 L 21.661 63.357 L 21.841 63.177 L 22.022 63.357 L 22.202 63.538 L 22.383 63.718 L 22.563 63.899 L 22.744 64.079 L 22.924 64.260 L 23.105 64.440 L 23.285 64.621 L 23.466 64.801 L 23.646 64.982 L 23.827 65.162 L 23.827 65.523 L 24.007 65.704 L 24.188 65.884 L 24.368 66.065 L 24.549 66.245 L 24.729 66.426 L 25.090 66.426 L 25.271 66.606 L 25.271 66.968 L 25.451 67.148 L 25.632 67.329 L 25.812 67.509 L 26.173 67.509 L 26.354 67.690 L 26.534 67.870 L 26.715 68.051 L 26.895 68.231 L 27.076 68.412 L 27.256 68.592 L 27.437 68.773 L 27.617 68.953 L 27.798 69.134 L 27.978 69.314 L 28.339 69.314 L 28.520 69.495 L 28.700 69.675 L 28.881 69.856 L 29.061 70.036 L 29.422 70.036 L 29.603 70.217 L 29.783 70.397 L 29.964 70.578 L 30.144 70.758 L 30.505 70.758 L 30.686 70.939 L 30.866 71.119 L 31.047 71.300 L 31.227 71.480 L 31.588 71.480 L 31.769 71.661 L 31.949 71.841 L 32.310 71.841 L 32.491 72.022 L 32.671 72.202 L 33.032 72.202 L 33.213 72.383 L 33.394 72.563 L 33.574 72.744 L 33.755 72.924 L 34.116 72.924 L 34.296 73.105 L 34.477 73.285 L 34.838 73.285 L 35.018 73.466 L 35.199 73.646 L 35.560 73.646 L 35.921 73.646 L 36.101 73.827 L 36.282 74.007 L 36.643 74.007 L 36.823 74.188 L 37.004 74.368 L 37.365 74.368 L 37.726 74.368 L 38.087 74.368 L 38.267 74.549 L 38.448 74.729 L 38.809 74.729 L 38.989 74.910 L 39.170 75.090 L 39.531 75.090 L 39.892 75.090 L 40.253 75.090 L 40.433 75.271 L 40.614 75.451 L 40.975 75.451 L 41.336 75.451 L 41.516 75.632 L 41.697 75.812 L 42.058 75.812 L 42.419 75.812 L 42.780 75.812 L 43.141 75.812 L 43.502 75.812 L 43.863 75.812 L 44.043 75.993 L 44.224 76.173 L 44.585 76.173 L 44.946 76.173 L 45.307 76.173 L 45.668 76.173 L 46.029 76.173 L 46.209 76.354 L 46.390 76.534 L 46.751 76.534 L 47.112 76.534 L 47.473 76.534 L 47.834 76.534 L 48.195 76.534 L 48.556 76.534 L 48.917 76.534 L 49.278 76.534 L 49.639 76.534 L 50.000 76.534 L 50.361 76.534 L 50.722 76.534 L 51.083 76.534 L 51.444 76.534 L 51.805 76.534 L 51.986 76.354 L 52.166 76.173 L 52.527 76.173 L 52.888 76.173 L 53.249 76.173 L 53.610 76.173 L 53.971 76.173 L 54.332 76.173 L 54.693 76.173 L 54.874 75.993 L 55.054 75.812 L 55.415 75.812 L 55.776 75.812 L 56.137 75.812 L 56.498 75.812 L 56.859 75.812 L 57.220 75.812 L 57.401 75.632 L 57.581 75.451 L 57.942 75.451 L 58.303 75.451 L 58.484 75.271 L 58.664 75.090 L 59.025 75.090 L 59.386 75.090 L 59.747 75.090 L 59.928 74.910 L 60.108 74.729 L 60.469 74.729 L 60.650 74.549 L 60.830 74.368 L 61.191 74.368 L 61.552 74.368 L 61.913 74.368 L 62.094 74.188 L 62.274 74.007 L 62.635 74.007 L 62.816 73.827 L 62.996 73.646 L 63.357 73.646 L 63.718 73.646 L 63.899 73.466 L 64.079 73.285 L 64.260 73.105 L 64.440 72.924 L 64.801 72.924 L 65.162 72.924 L 65.343 72.744 L 65.523 72.563 L 65.704 72.383 L 65.884 72.202 L 66.245 72.202 L 66.426 72.022 L 66.606 71.841 L 66.968 71.841 L 67.148 71.661 L 67.329 71.480 L 67.690 71.480 L 67.870 71.300 L 68.051 71.119 L 68.231 70.939 L 68.412 70.758 L 68.773 70.758 L 68.953 70.578 L 69.134 70.397 L 69.314 70.217 L 69.495 70.036 L 69.856 70.036 L 70.036 69.856 L 70.217 69.675 L 70.397 69.495 L 70.578 69.314 L 70.758 69.134 L 70.939 68.953 L 71.300 68.953 L 71.480 68.773 L 71.661 68.592 L 71.841 68.412 L 72.022 68.231 L 72.202 68.051 L 72.383 67.870 L 72.563 67.690 L 72.744 67.509 L 72.924 67.329 L 73.105 67.148 L 73.285 66.968 L 73.466 66.787 L 73.646 66.606 L 73.827 66.426 L 74.007 66.245 L 74.188 66.065 L 74.368 65.884 L 74.549 65.704 L 74.729 65.523 L 74.910 65.343 L 75.090 65.162 L 75.271 64.982 L 75.451 64.801 L 75.632 64.621 L 75.812 64.440 L 75.993 64.260 L 76.173 64.079 L 76.354 63.899 L 76.534 63.718 L 76.715 63.538 L 76.895 63.357 L 76.895 62.996 L 77.076 62.816 L 77.256 62.635 L 77.437 62.455 L 77.617 62.274 L 77.798 62.094 L 77.978 61.913 L 77.978 61.552 L 78.159 61.372 L 78.339 61.191 L 78.520 61.011 L 78.700 60.830 L 78.700 60.469 L 78.881 60.289 L 79.061 60.108 L 79.242 59.928 L 79.422 59.747 L 79.422 59.386 L 79.603 59.206 L 79.783 59.025 L 79.783 58.664 L 79.964 58.484 L 80.144 58.303 L 80.325 58.123 Z M 49.278 60.289 L 49.458 60.469 L 49.278 60.650 L 49.097 60.469 L 49.278 60.289 Z M 50.722 60.289 L 50.903 60.469 L 50.722 60.650 L 50.542 60.469 L 50.722 60.289 Z M 48.917 60.650 L 49.097 60.830 L 49.097 61.191 L 48.917 61.372 L 48.736 61.191 L 48.736 60.830 L 48.917 60.650 Z M 51.083 60.650 L 51.264 60.830 L 51.264 61.191 L 51.264 61.552 L 51.083 61.733 L 50.903 61.913 L 50.722 62.094 L 50.361 62.094 L 50.181 61.913 L 50.361 61.733 L 50.542 61.552 L 50.722 61.372 L 50.903 61.191 L 50.903 60.830 L 51.083 60.650 Z M 49.278 61.372 L 49.458 61.552 L 49.639 61.733 L 49.819 61.913 L 49.639 62.094 L 49.278 62.094 L 49.097 61.913 L 49.097 61.552 L 49.278 61.372 Z M 0.903 61.733 L 1.264 61.733 L 1.444 61.913 L 1.264 62.094 L 1.083 62.274 L 0.903 62.455 L 0.722 62.635 L 0.542 62.816 L 0.361 62.996 L 0.181 63.177 L 0.000 62.996 L 0.000 62.635 L 0.181 62.455 L 0.361 62.274 L 0.542 62.094 L 0.722 61.913 L 0.903 61.733 Z M 50.000 62.094 L 50.181 62.274 L 50.000 62.455 L 49.819 62.274 L 50.000 62.094 Z M 0.542 63.177 L 0.722 63.357 L 0.903 63.538 L 1.083 63.718 L 0.903 63.899 L 0.542 63.899 L 0.361 63.718 L 0.361 63.357 L 0.542 63.177 Z M 1.264 63.899 L 1.444 64.079 L 1.264 64.260 L 1.083 64.079 L 1.264 63.899 Z M 42.058 63.899 L 42.238 64.079 L 42.238 64.440 L 42.238 64.801 L 42.058 64.982 L 41.877 64.801 L 41.877 64.440 L 41.877 64.079 L 42.058 63.899 Z M 42.419 64.982 L 42.599 65.162 L 42.419 65.343 L 42.238 65.162 L 42.419 64.982 Z M 42.780 65.343 L 43.141 65.343 L 43.502 65.343 L 43.682 65.523 L 43.502 65.704 L 43.141 65.704 L 42.780 65.704 L 42.599 65.523 L 42.780 65.343 Z M 54.693 68.592 L 54.874 68.773 L 54.874 69.134 L 54.874 69.495 L 55.054 69.675 L 55.235 69.856 L 55.054 70.036 L 54.693 70.036 L 54.513 69.856 L 54.513 69.495 L 54.513 69.134 L 54.513 68.773 L 54.693 68.592 Z M 55.415 70.036 L 55.776 70.036 L 55.957 70.217 L 55.776 70.397 L 55.415 70.397 L 55.235 70.217 L 55.415 70.036 Z" />
  </g>
</svg>
