<?xml version="1.0" encoding="UTF-8" standalone="no"?>
<svg width="100.0mm" height="87.0mm" viewBox="0 0 100.000 87.037"
     xmlns="http://www.w3.org/2000/svg" version="1.1">
  <g fill="black" fill-rule="evenodd" stroke="none">
    <path d="M 46.852 0.000 L 47.222 0.000 L 47.593 0.000 L 47.963 0.000 L 48.333 0.000 L 48.704 0.000 L 49.074 0.000 L 49.444 0.000 L 49.815 0.000 L 50.185 0.000 L 50.556 0.000 L 50.926 0.000 L 51.296 0.000 L 51.667 0.000 L 52.037 0.000 L 52.407 0.000 L 52.778 0.000 L 52.963 0.185 L 53.148 0.370 L 53.333 0.556 L 53.333 0.926 L 53.333 1.296 L 53.519 1.481 L 53.704 1.667 L 53.704 2.037 L 53.704 2.407 L 53.704 2.778 L 53.704 3.148 L 53.704 3.519 L 53.889 3.704 L 54.074 3.889 L 54.074 4.259 L 54.259 4.444 L 54.630 4.444 L 55.000 4.444 L 55.370 4.444 L 55.741 4.444 L 56.111 4.444 L 56.481 4.444 L 56.667 4.630 L 56.852 4.815 L 57.222 4.815 L 57.593 4.815 L 57.963 4.815 L 58.333 4.815 L 58.704 4.815 L 58.889 5.000 L 59.074 5.185 L 59.444 5.185 L 59.815 5.185 L 60.185 5.185 L 60.370 5.000 L 60.370 4.630 L 60.556 4.444 L 60.741 4.259 L 60.926 4.074 L 61.111 3.889 L 61.296 3.704 L 61.481 3.519 L 61.481 3.148 L 61.667 2.963 L 61.852 2.778 L 62.037 2.593 L 62.222 2.407 L 62.222 2.037 L 62.407 1.852 L 62.593 1.667 L 62.778 1.481 L 63.148 1.481 L 63.519 1.481 L 63.889 1.481 L 64.074 1.667 L 64.259 1.852 L 64.630 1.852 L 64.815 2.037 L 65.000 2.222 L 65.370 2.222 L 65.556 2.407 L 65.741 2.593 L 66.111 2.593 L 66.481 2.593 L 66.667 2.778 L 66.852 2.963 L 67.222 2.963 L 67.407 3.148 L 67.593 3.333 L 67.963 3.333 L 68.148 3.519 L 68.333 3.704 L 68.519 3.889 L 68.519 4.259 L 68.519 4.630 L 68.519 5.000 L 68.333 5.185 L 68.148 5.370 L 68.148 5.741 L 68.148 6.111 L 68.148 6.481 L 68.148 6.852 L 68.148 7.222 L 67.963 7.407 L 67.778 7.593 L 67.778 7.963 L 67.963 8.148 L 68.148 8.333 L 68.333 8.519 L 68.704 8.519 L 68.889 8.704 L 69.074 8.889 L 69.444 8.889 L 69.630 9.074 L 69.815 9.259 L 70.185 9.259 L 70.370 9.444 L 70.556 9.630 L 70.926 9.630 L 71.111 9.815 L 71.296 10.000 L 71.481 10.185 L 71.667 10.370 L 72.037 10.370 L 72.222 10.556 L 72.407 10.741 L 72.593 10.556 L 72.778 10.370 L 72.963 10.185 L 73.148 10.000 L 73.519 10.000 L 73.704 9.815 L 73.889 9.630 L 74.074 9.444 L 74.259 9.259 L 74.630 9.259 L 74.815 9.074 L 75.000 8.889 L 75.185 8.704 L 75.370 8.519 L 75.741 8.519 L 75.926 8.333 L 76.111 8.148 L 76.296 8.333 L 76.481 8.519 L 76.667 8.704 L 76.852 8.889 L 77.037 9.074 L 77.222 9.259 L 77.407 9.444 L 77.593 9.630 L 77.778 9.815 L 77.963 10.000 L 78.148 10.185 L 78.333 10.370 L 78.519 10.556 L 78.704 10.741 L 79.074 10.741 L 79.259 10.926 L 79.259 11.296 L 79.444 11.481 L 79.630 11.667 L 79.815 11.852 L 80.000 12.037 L 80.185 12.222 L 80.370 12.407 L 80.370 12.778 L 80.370 13.148 L 80.185 13.333 L 80.000 13.519 L 79.815 13.704 L 79.630 13.889 L 79.630 14.259 L 79.444 14.444 L 79.259 14.630 L 79.259 15.000 L 79.074 15.185 L 78.889 15.370 L 78.704 15.556 L 78.519 15.741 L 78.704 15.926 L 78.889 16.111 L 79.074 16.296 L 79.259 16.481 L 79.444 16.667 L 79.630 16.852 L 79.815 17.037 L 80.000 17.222 L 80.185 17.407 L 80.370 17.593 L 80.556 17.778 L 80.741 17.963 L 80.741 18.333 L 80.926 18.519 L 81.111 18.704 L 81.296 18.889 L 81.481 19.074 L 81.296 19.259 L 81.111 19.444 L 80.926 19.630 L 80.741 19.815 L 80.556 20.000 L 80.370 20.185 L 80.185 20.370 L 80.000 20.556 L 79.815 20.741 L 79.630 20.926 L 79.444 21.111 L 79.259 21.296 L 79.074 21.481 L 78.889 21.667 L 78.704 21.852 L 78.333 21.852 L 78.148 21.667 L 78.148 21.296 L 77.963 21.111 L 77.778 20.926 L 77.593 20.741 L 77.222 20.741 L 77.037 20.556 L 77.037 20.185 L 76.852 20.000 L 76.667 19.815 L 76.481 19.630 L 76.296 19.444 L 76.111 19.259 L 75.926 19.074 L 75.741 18.889 L 75.556 18.704 L 75.370 18.519 L 75.185 18.333 L 75.000 18.148 L 74.815 17.963 L 74.630 17.778 L 74.259 17.778 L 74.074 17.593 L 74.074 17.222 L 73.889 17.037 L 73.519 17.037 L 73.333 16.852 L 73.333 16.481 L 73.148 16.296 L 72.778 16.296 L 72.593 16.111 L 72.407 15.926 L 72.222 15.741 L 72.037 15.556 L 71.667 15.556 L 71.481 15.370 L 71.296 15.185 L 71.111 15.000 L 70.926 14.815 L 70.741 14.630 L 70.556 14.444 L 70.185 14.444 L 70.000 14.259 L 69.815 14.074 L 69.630 13.889 L 69.444 13.704 L 69.074 13.704 L 68.889 13.519 L 68.704 13.333 L 68.333 13.333 L 68.148 13.148 L 67.963 12.963 L 67.778 12.778 L 67.593 12.593 L 67.222 12.593 L 67.037 12.407 L 66.852 12.222 L 66.481 12.222 L 66.296 12.037 L 66.111 11.852 L 65.741 11.852 L 65.556 11.667 L 65.370 11.481 L 65.000 11.481 L 64.630 11.481 L 64.444 11.296 L 64.259 11.111 L 63.889 11.111 L 63.704 10.926 L 63.519 10.741 L 63.148 10.741 L 62.963 10.556 L 62.778 10.370 L 62.407 10.370 L 62.037 10.370 L 61.852 10.185 L 61.667 10.000 L 61.296 10.000 L 60.926 10.000 L 60.556 10.000 L 60.370 9.815 L 60.185 9.630 L 59.815 9.630 L 59.444 9.630 L 59.259 9.444 L 59.074 9.259 L 58.704 9.259 L 58.333 9.259 L 57.963 9.259 L 57.778 9.074 L 57.593 8.889 L 57.222 8.889 L 56.852 8.889 L 56.481 8.889 L 56.111 8.889 L 55.741 8.889 L 55.556 8.704 L 55.370 8.519 L 55.000 8.519 L 54.630 8.519 L 54.259 8.519 L 53.889 8.519 L 53.519 8.519 L 53.333 8.333 L 53.148 8.148 L 52.778 8.148 L 52.407 8.148 L 52.037 8.148 L 51.667 8.148 L 51.296 8.148 L 50.926 8.148 L 50.556 8.148 L 50.185 8.148 L 49.815 8.148 L 49.444 8.148 L 49.074 8.148 L 48.704 8.148 L 48.333 8.148 L 47.963 8.148 L 47.778 8.333 L 47.593 8.519 L 47.222 8.519 L 46.852 8.519 L 46.481 8.519 L 46.111 8.519 L 45.741 8.519 L 45.370 8.519 L 45.000 8.519 L 44.815 8.704 L 44.630 8.889 L 44.259 8.889 L 43.889 8.889 L 43.519 8.889 L 43.148 8.889 L 42.778 8.889 L 42.593 9.074 L 42.407 9.259 L 42.037 9.259 L 41.667 9.259 L 41.296 9.259 L 41.111 9.444 L 40.926 9.630 L 40.556 9.630 L 40.185 9.630 L 40.000 9.815 L 39.815 10.000 L 39.444 10.000 L 39.074 10.000 L 38.704 10.000 L 38.519 10.185 L 38.333 10.370 L 37.963 10.370 L 37.778 10.556 L 37.593 10.741 L 37.222 10.741 L 36.852 10.741 L 36.667 10.926 L 36.481 11.111 L 36.111 11.111 L 35.926 11.296 L 35.741 11.481 L 35.370 11.481 L 35.000 11.481 L 34.815 11.667 L 34.630 11.852 L 34.259 11.852 L 34.074 12.037 L 33.889 12.222 L 33.704 12.407 L 33.519 12.593 L 33.148 12.593 L 32.963 12.778 L 32.778 12.963 L 32.407 12.963 L 32.222 13.148 L 32.037 13.333 L 31.667 13.333 L 31.481 13.519 L 31.296 13.704 L 31.111 13.889 L 30.926 14.074 L 30.556 14.074 L 30.370 14.259 L 30.185 14.444 L 30.000 14.630 L 29.815 14.815 L 29.444 14.815 L 29.259 15.000 L 29.074 15.185 L 28.889 15.370 L 28.704 15.556 L 28.333 15.556 L 28.148 15.741 L 27.963 15.926 L 27.778 16.111 L 27.593 16.296 L 27.407 16.481 L 27.222 16.667 L 27.037 16.852 L 26.852 17.037 L 26.667 17.222 L 26.481 17.407 L 26.296 17.593 L 26.111 17.778 L 25.741 17.778 L 25.556 17.963 L 25.556 18.333 L 25.370 18.519 L 25.000 18.519 L 24.815 18.704 L 24.630 18.889 L 24.444 19.074 L 24.444 19.444 L 24.259 19.630 L 24.074 19.815 L 23.889 20.000 L 23.704 20.185 L 23.519 20.370 L 23.333 20.556 L 23.148 20.741 L 22.963 20.926 L 22.778 21.111 L 22.593 21.296 L 22.593 21.667 L 22.407 21.852 L 22.037 21.852 L 21.852 22.037 L 21.852 22.407 L 21.667 22.593 L 21.481 22.778 L 21.296 22.963 L 21.111 23.148 L 21.111 23.519 L 20.926 23.704 L 20.741 23.889 L 20.556 24.074 L 20.370 24.259 L 20.370 24.630 L 20.185 24.815 L 20.000 25.000 L 19.815 25.185 L 19.630 25.370 L 19.630 25.741 L 19.444 25.926 L 19.259 26.111 L 19.074 26.296 L 18.889 26.481 L 18.889 26.852 L 18.704 27.037 L 18.519 27.222 L 18.333 27.407 L 17.963 27.407 L 17.593 27.407 L 17.222 27.407 L 16.852 27.407 L 16.481 27.407 L 16.111 27.407 L 15.741 27.407 L 15.370 27.407 L 15.000 27.407 L 14.630 27.407 L 14.259 27.407 L 14.074 27.222 L 14.074 26.852 L 14.074 26.481 L 13.889 26.296 L 13.704 26.111 L 13.519 25.926 L 13.148 25.926 L 12.963 25.741 L 12.778 25.556 L 12.593 25.370 L 12.407 25.185 L 12.222 25.000 L 12.037 24.815 L 11.667 24.815 L 11.481 24.630 L 11.667 24.444 L 11.852 24.259 L 11.852 23.889 L 11.852 23.519 L 12.037 23.333 L 12.222 23.148 L 12.222 22.778 L 12.407 22.593 L 12.593 22.407 L 12.593 22.037 L 12.593 21.667 L 12.778 21.481 L 12.963 21.296 L 12.963 20.926 L 13.148 20.741 L 13.333 20.556 L 13.333 20.185 L 13.333 19.815 L 13.519 19.630 L 13.704 19.444 L 13.704 19.074 L 13.889 18.889 L 14.259 18.889 L 14.630 18.889 L 15.000 18.889 L 15.185 19.074 L 15.370 19.259 L 15.741 19.259 L 16.111 19.259 L 16.481 19.259 L 16.852 19.259 L 17.037 19.444 L 17.222 19.630 L 17.593 19.630 L 17.963 19.630 L 18.333 19.630 L 18.704 19.630 L 18.889 19.444 L 18.889 19.074 L 19.074 18.889 L 19.259 18.704 L 19.444 18.519 L 19.630 18.333 L 19.815 18.148 L 20.000 17.963 L 20.185 17.778 L 20.370 17.593 L 20.556 17.407 L 20.741 17.222 L 20.741 16.852 L 20.926 16.667 L 21.111 16.481 L 21.296 16.296 L 21.481 16.111 L 21.667 15.926 L 21.852 15.741 L 21.667 15.556 L 21.481 15.370 L 21.481 15.000 L 21.296 14.815 L 21.111 14.630 L 20.926 14.444 L 20.741 14.259 L 20.741 13.889 L 20.556 13.704 L 20.370 13.519 L 20.185 13.333 L 20.000 13.148 L 20.000 12.778 L 20.000 12.407 L 20.185 12.222 L 20.370 12.037 L 20.556 11.852 L 20.741 11.667 L 20.926 11.481 L 21.111 11.296 L 21.296 11.111 L 21.481 10.926 L 21.667 10.741 L 21.852 10.556 L 22.037 10.370 L 22.222 10.185 L 22.407 10.000 L 22.593 9.815 L 22.778 9.630 L 22.963 9.444 L 23.148 9.259 L 23.333 9.074 L 23.519 8.889 L 23.704 8.704 L 23.889 8.519 L 24.074 8.333 L 24.259 8.148 L 24.444 8.333 L 24.630 8.519 L 24.815 8.704 L 25.000 8.889 L 25.370 8.889 L 25.556 9.074 L 25.741 9.259 L 25.926 9.444 L 26.111 9.630 L 26.481 9.630 L 26.667 9.815 L 26.852 10.000 L 27.222 10.000 L 27.407 10.185 L 27.593 10.370 L 27.778 10.556 L 27.963 10.741 L 28.333 10.741 L 28.519 10.556 L 28.704 10.370 L 28.889 10.185 L 29.074 10.000 L 29.444 10.000 L 29.630 9.815 L 29.815 9.630 L 30.185 9.630 L 30.370 9.444 L 30.556 9.259 L 30.926 9.259 L 31.111 9.074 L 31.296 8.889 L 31.481 8.704 L 31.667 8.519 L 32.037 8.519 L 32.222 8.333 L 32.407 8.148 L 32.778 8.148 L 32.963 7.963 L 32.778 7.778 L 32.593 7.593 L 32.593 7.222 L 32.593 6.852 L 32.593 6.481 L 32.593 6.111 L 32.593 5.741 L 32.593 5.370 L 32.593 5.000 L 32.407 4.815 L 32.222 4.630 L 32.222 4.259 L 32.222 3.889 L 32.407 3.704 L 32.778 3.704 L 32.963 3.519 L 33.148 3.333 L 33.519 3.333 L 33.889 3.333 L 34.074 3.148 L 34.259 2.963 L 34.630 2.963 L 34.815 2.778 L 35.000 2.593 L 35.370 2.593 L 35.556 2.407 L 35.741 2.222 L 36.111 2.222 L 36.481 2.222 L 36.667 2.037 L 36.852 1.852 L 37.222 1.852 L 37.407 1.667 L 37.593 1.481 L 37.963 1.481 L 38.148 1.667 L 38.148 2.037 L 38.333 2.222 L 38.519 2.407 L 38.704 2.593 L 38.889 2.778 L 38.889 3.148 L 39.074 3.333 L 39.259 3.519 L 39.444 3.704 L 39.630 3.889 L 39.630 4.259 L 39.815 4.444 L 40.000 4.630 L 40.185 4.815 L 40.370 5.000 L 40.556 5.185 L 40.926 5.185 L 41.296 5.185 L 41.481 5.000 L 41.667 4.815 L 42.037 4.815 L 42.407 4.815 L 42.778 4.815 L 43.148 4.815 L 43.519 4.815 L 43.889 4.815 L 44.074 4.630 L 44.259 4.444 L 44.630 4.444 L 45.000 4.444 L 45.370 4.444 L 45.741 4.444 L 45.926 4.259 L 45.926 3.889 L 45.926 3.519 L 46.111 3.333 L 46.296 3.148 L 46.296 2.778 L 46.296 2.407 L 46.296 2.037 L 46.296 1.667 L 46.481 1.481 L 46.667 1.296 L 46.667 0.926 L 46.667 0.556 L 46.667 0.185 L 46.852 0.000 Z M 44.259 14.074 L 44.630 14.074 L 45.000 14.074 L 45.370 14.074 L 45.556 14.259 L 45.741 14.444 L 45.926 14.630 L 45.926 15.000 L 45.926 15.370 L 45.926 15.741 L 45.741 15.926 L 45.556 15.741 L 45.556 15.370 L 45.556 15.000 L 45.370 14.815 L 45.185 14.630 L 45.000 14.444 L 44.630 14.444 L 44.444 14.630 L 44.259 14.815 L 44.074 15.000 L 44.074 15.370 L 44.074 15.741 L 43.889 15.926 L 43.704 15.741 L 43.704 15.370 L 43.704 15.000 L 43.704 14.630 L 43.889 14.444 L 44.074 14.259 L 44.259 14.074 Z M 44.259 15.926 L 44.630 15.926 L 45.000 15.926 L 45.370 15.926 L 45.556 16.111 L 45.370 16.296 L 45.185 16.481 L 45.185 16.852 L 45.185 17.222 L 45.185 17.593 L 45.185 17.963 L 45.185 18.333 L 45.185 18.704 L 45.185 19.074 L 45.185 19.444 L 45.185 19.815 L 45.185 20.185 L 45.185 20.556 L 45.185 20.926 L 45.185 21.296 L 45.185 21.667 L 45.370 21.852 L 45.556 22.037 L 45.741 22.222 L 45.926 22.407 L 46.111 22.593 L 46.296 22.778 L 46.481 22.963 L 46.667 23.148 L 46.852 23.333 L 47.037 23.519 L 47.222 23.704 L 47.407 23.889 L 47.407 24.259 L 47.407 24.630 L 47.407 25.000 L 47.407 25.370 L 47.407 25.741 L 47.407 26.111 L 47.407 26.481 L 47.407 26.852 L 47.407 27.222 L 47.407 27.593 L 47.407 27.963 L 47.407 28.333 L 47.407 28.704 L 47.407 29.074 L 47.407 29.444 L 47.407 29.815 L 47.407 30.185 L 47.407 30.556 L 47.407 30.926 L 47.407 31.296 L 47.407 31.667 L 47.407 32.037 L 47.407 32.407 L 47.407 32.778 L 47.407 33.148 L 47.407 33.519 L 47.407 33.889 L 47.593 34.074 L 47.963 34.074 L 48.333 34.074 L 48.704 34.074 L 49.074 34.074 L 49.444 34.074 L 49.815 34.074 L 50.000 33.889 L 50.000 33.519 L 50.000 33.148 L 50.000 32.778 L 50.000 32.407 L 50.000 32.037 L 50.000 31.667 L 50.000 31.296 L 50.000 30.926 L 50.000 30.556 L 50.000 30.185 L 50.000 29.815 L 50.000 29.444 L 50.000 29.074 L 50.000 28.704 L 50.000 28.333 L 50.000 27.963 L 50.000 27.593 L 50.000 27.222 L 50.000 26.852 L 50.000 26.481 L 50.000 26.111 L 50.000 25.741 L 50.000 25.370 L 50.000 25.000 L 50.000 24.630 L 50.185 24.444 L 50.556 24.444 L 50.926 24.444 L 51.111 24.630 L 50.926 24.815 L 50.741 25.000 L 50.741 25.370 L 50.741 25.741 L 50.741 26.111 L 50.741 26.481 L 50.741 26.852 L 50.741 27.222 L 50.741 27.593 L 50.741 27.963 L 50.741 28.333 L 50.741 28.704 L 50.741 29.074 L 50.741 29.444 L 50.741 29.815 L 50.741 30.185 L 50.741 30.556 L 50.741 30.926 L 50.741 31.296 L 50.741 31.667 L 50.741 32.037 L 50.741 32.407 L 50.741 32.778 L 50.741 33.148 L 50.741 33.519 L 50.741 33.889 L 50.926 34.074 L 51.296 34.074 L 51.667 34.074 L 52.037 34.074 L 52.407 34.074 L 52.778 34.074 L 53.148 34.074 L 53.519 34.074 L 53.704 33.889 L 53.704 33.519 L 53.704 33.148 L 53.704 32.778 L 53.704 32.407 L 53.704 32.037 L 53.704 31.667 L 53.704 31.296 L 53.704 30.926 L 53.704 30.556 L 53.704 30.185 L 53.704 29.815 L 53.704 29.444 L 53.704 29.074 L 53.704 28.704 L 53.704 28.333 L 53.704 27.963 L 53.704 27.593 L 53.704 27.222 L 53.704 26.852 L 53.704 26.481 L 53.704 26.111 L 53.704 25.741 L 53.704 25.370 L 53.704 25.000 L 53.889 24.815 L 54.074 24.630 L 54.259 24.444 L 54.444 24.259 L 54.444 23.889 L 54.630 23.704 L 54.815 23.519 L 55.000 23.333 L 55.185 23.148 L 55.185 22.778 L 55.370 22.593 L 55.556 22.407 L 55.741 22.222 L 55.926 22.037 L 55.926 21.667 L 56.111 21.481 L 56.296 21.296 L 56.481 21.111 L 56.667 20.926 L 56.667 20.556 L 56.667 20.185 L 56.667 19.815 L 56.667 19.444 L 56.852 19.259 L 57.037 19.444 L 57.037 19.815 L 57.037 20.185 L 57.037 20.556 L 57.222 20.741 L 57.593 20.741 L 57.963 20.741 L 58.148 20.556 L 58.333 20.370 L 58.519 20.556 L 58.519 20.926 L 58.333 21.111 L 57.963 21.111 L 57.593 21.111 L 57.407 21.296 L 57.222 21.481 L 57.037 21.667 L 56.852 21.852 L 56.667 22.037 L 56.667 22.407 L 56.481 22.593 L 56.296 22.778 L 56.111 22.963 L 55.926 23.148 L 55.926 23.519 L 55.741 23.704 L 55.556 23.889 L 55.370 24.074 L 55.185 24.259 L 55.185 24.630 L 55.000 24.815 L 54.815 25.000 L 54.630 25.185 L 54.444 25.370 L 54.444 25.741 L 54.444 26.111 L 54.444 26.481 L 54.444 26.852 L 54.444 27.222 L 54.444 27.593 L 54.444 27.963 L 54.444 28.333 L 54.444 28.704 L 54.444 29.074 L 54.444 29.444 L 54.444 29.815 L 54.444 30.185 L 54.444 30.556 L 54.444 30.926 L 54.444 31.296 L 54.444 31.667 L 54.444 32.037 L 54.444 32.407 L 54.444 32.778 L 54.444 33.148 L 54.444 33.519 L 54.444 33.889 L 54.630 34.074 L 55.000 34.074 L 55.370 34.074 L 55.741 34.074 L 56.111 34.074 L 56.481 34.074 L 56.852 34.074 L 57.222 34.074 L 57.593 34.074 L 57.778 34.259 L 57.963 34.444 L 58.333 34.444 L 58.519 34.630 L 58.704 34.815 L 58.889 35.000 L 58.889 35.370 L 59.074 35.556 L 59.259 35.741 L 59.259 36.111 L 59.259 36.481 L 59.444 36.667 L 59.815 36.667 L 60.185 36.667 L 60.556 36.667 L 60.926 36.667 L 61.296 36.667 L 61.667 36.667 L 62.037 36.667 L 62.407 36.667 L 62.778 36.667 L 63.148 36.667 L 63.519 36.667 L 63.889 36.667 L 64.259 36.667 L 64.630 36.667 L 64.815 36.481 L 64.815 36.111 L 65.000 35.926 L 65.185 35.741 L 65.370 35.556 L 65.556 35.370 L 65.741 35.185 L 65.926 35.000 L 65.926 34.630 L 66.111 34.444 L 66.296 34.259 L 66.481 34.074 L 66.667 33.889 L 66.852 33.704 L 67.037 33.519 L 67.222 33.333 L 67.407 33.148 L 67.593 32.963 L 67.778 32.778 L 67.778 32.407 L 67.963 32.222 L 68.148 32.037 L 68.333 31.852 L 68.519 31.667 L 68.704 31.481 L 68.889 31.296 L 69.074 31.111 L 69.259 30.926 L 69.259 30.556 L 69.444 30.370 L 69.630 30.185 L 69.815 30.000 L 70.000 29.815 L 70.185 29.630 L 70.370 29.444 L 70.556 29.259 L 70.741 29.074 L 70.926 28.889 L 71.111 28.704 L 71.296 28.519 L 71.481 28.333 L 71.481 27.963 L 71.667 27.778 L 71.852 27.593 L 72.037 27.407 L 72.222 27.222 L 72.407 27.037 L 72.778 27.037 L 73.148 27.037 L 73.519 27.037 L 73.889 27.037 L 74.259 27.037 L 74.630 27.037 L 75.000 27.037 L 75.370 27.037 L 75.741 27.037 L 76.111 27.037 L 76.481 27.037 L 76.852 27.037 L 77.222 27.037 L 77.593 27.037 L 77.963 27.037 L 78.333 27.037 L 78.704 27.037 L 79.074 27.037 L 79.259 26.852 L 79.259 26.481 L 79.444 26.296 L 79.630 26.111 L 79.815 25.926 L 80.000 25.741 L 80.185 25.556 L 80.370 25.370 L 80.556 25.185 L 80.741 25.000 L 80.926 24.815 L 81.111 24.630 L 81.111 24.259 L 81.296 24.074 L 81.481 23.889 L 81.667 23.704 L 81.852 23.519 L 82.037 23.333 L 82.222 23.148 L 82.407 22.963 L 82.593 22.778 L 82.778 22.593 L 82.963 22.407 L 82.963 22.037 L 83.148 21.852 L 83.333 21.667 L 83.519 21.481 L 83.889 21.481 L 84.259 21.481 L 84.630 21.481 L 85.000 21.481 L 85.370 21.481 L 85.741 21.481 L 86.111 21.481 L 86.481 21.481 L 86.852 21.481 L 87.222 21.481 L 87.593 21.481 L 87.963 21.481 L 88.333 21.481 L 88.704 21.481 L 89.074 21.481 L 89.444 21.481 L 89.815 21.481 L 90.185 21.481 L 90.556 21.481 L 90.926 21.481 L 91.296 21.481 L 91.667 21.481 L 92.037 21.481 L 92.407 21.481 L 92.778 21.481 L 93.148 21.481 L 93.519 21.481 L 93.889 21.481 L 94.259 21.481 L 94.630 21.481 L 95.000 21.481 L 95.370 21.481 L 95.741 21.481 L 96.111 21.481 L 96.481 21.481 L 96.852 21.481 L 97.037 21.667 L 97.222 21.852 L 97.407 22.037 L 97.222 22.222 L 96.852 22.222 L 96.481 22.222 L 96.111 22.222 L 95.741 22.222 L 95.370 22.222 L 95.000 22.222 L 94.630 22.222 L 94.259 22.222 L 93.889 22.222 L 93.519 22.222 L 93.148 22.222 L 92.778 22.222 L 92.407 22.222 L 92.037 22.222 L 91.667 22.222 L 91.296 22.222 L 90.926 22.222 L 90.556 22.222 L 90.185 22.222 L 89.815 22.222 L 89.444 22.222 L 89.074 22.222 L 88.704 22.222 L 88.333 22.222 L 87.963 22.222 L 87.593 22.222 L 87.222 22.222 L 86.852 22.222 L 86.481 22.222 L 86.111 22.222 L 85.741 22.222 L 85.370 22.222 L 85.000 22.222 L 84.630 22.222 L 84.259 22.222 L 83.889 22.222 L 83.704 22.407 L 83.519 22.593 L 83.333 22.778 L 83.333 23.148 L 83.148 23.333 L 82.963 23.519 L 82.778 23.704 L 82.593 23.889 L 82.407 24.074 L 82.222 24.259 L 82.037 24.444 L 81.852 24.630 L 81.852 25.000 L 81.667 25.185 L 81.481 25.370 L 81.296 25.556 L 81.111 25.741 L 80.926 25.926 L 80.741 26.111 L 80.556 26.296 L 80.370 26.481 L 80.556 26.667 L 80.741 26.852 L 80.926 27.037 L 81.296 27.037 L 81.667 27.037 L 82.037 27.037 L 82.407 27.037 L 82.778 27.037 L 83.148 27.037 L 83.519 27.037 L 83.889 27.037 L 84.259 27.037 L 84.630 27.037 L 85.000 27.037 L 85.370 27.037 L 85.741 27.037 L 86.111 27.037 L 86.481 27.037 L 86.852 27.037 L 87.222 27.037 L 87.593 27.037 L 87.963 27.037 L 88.333 27.037 L 88.704 27.037 L 89.074 27.037 L 89.444 27.037 L 89.815 27.037 L 90.185 27.037 L 90.556 27.037 L 90.926 27.037 L 91.296 27.037 L 91.667 27.037 L 92.037 27.037 L 92.407 27.037 L 92.593 26.852 L 92.778 26.667 L 92.963 26.481 L 93.148 26.296 L 93.519 26.296 L 93.889 26.296 L 94.259 26.296 L 94.630 26.296 L 94.815 26.481 L 94.630 26.667 L 94.259 26.667 L 93.889 26.667 L 93.519 26.667 L 93.333 26.852 L 93.333 27.222 L 93.333 27.593 L 93.519 27.778 L 93.704 27.963 L 93.519 28.148 L 93.148 28.148 L 92.963 27.963 L 92.778 27.778 L 92.407 27.778 L 92.037 27.778 L 91.667 27.778 L 91.296 27.778 L 90.926 27.778 L 90.556 27.778 L 90.185 27.778 L 89.815 27.778 L 89.444 27.778 L 89.074 27.778 L 88.704 27.778 L 88.333 27.778 L 87.963 27.778 L 87.593 27.778 L 87.222 27.778 L 86.852 27.778 L 86.481 27.778 L 86.111 27.778 L 85.741 27.778 L 85.370 27.778 L 85.185 27.963 L 85.370 28.148 L 85.556 28.333 L 85.741 28.519 L 85.926 28.704 L 86.111 28.889 L 86.296 29.074 L 86.481 29.259 L 86.852 29.259 L 87.037 29.444 L 87.222 29.630 L 87.407 29.815 L 87.593 30.000 L 87.963 30.000 L 88.333 30.000 L 88.704 30.000 L 89.074 30.000 L 89.444 30.000 L 89.815 30.000 L 90.185 30.000 L 90.556 30.000 L 90.926 30.000 L 91.296 30.000 L 91.667 30.000 L 92.037 30.000 L 92.407 30.000 L 92.778 30.000 L 93.148 30.000 L 93.519 30.000 L 93.889 30.000 L 94.259 30.000 L 94.630 30.000 L 95.000 30.000 L 95.370 30.000 L 95.741 30.000 L 96.111 30.000 L 96.481 30.000 L 96.852 30.000 L 97.222 30.000 L 97.593 30.000 L 97.778 30.185 L 97.778 30.556 L 97.963 30.741 L 98.148 30.926 L 98.333 31.111 L 98.704 31.111 L 99.074 31.111 L 99.259 30.926 L 99.444 30.741 L 99.630 30.556 L 99.630 30.185 L 99.815 30.000 L 100.000 30.185 L 100.000 30.556 L 100.000 30.926 L 99.815 31.111 L 99.630 31.296 L 99.444 31.481 L 99.074 31.481 L 98.704 31.481 L 98.333 31.481 L 97.963 31.481 L 97.778 31.296 L 97.593 31.111 L 97.222 31.111 L 96.852 31.111 L 96.481 31.111 L 96.111 31.111 L 95.741 31.111 L 95.370 31.111 L 95.000 31.111 L 94.630 31.111 L 94.259 31.111 L 93.889 31.111 L 93.519 31.111 L 93.148 31.111 L 92.778 31.111 L 92.407 31.111 L 92.037 31.111 L 91.667 31.111 L 91.296 31.111 L 90.926 31.111 L 90.556 31.111 L 90.185 31.111 L 89.815 31.111 L 89.444 31.111 L 89.074 31.111 L 88.704 31.111 L 88.333 31.111 L 87.963 31.111 L 87.778 30.926 L 87.593 30.741 L 87.222 30.741 L 87.037 30.556 L 86.852 30.370 L 86.667 30.185 L 86.481 30.000 L 86.111 30.000 L 85.926 29.815 L 85.741 29.630 L 85.556 29.444 L 85.370 29.259 L 85.185 29.074 L 85.000 28.889 L 84.630 28.889 L 84.444 28.704 L 84.259 28.519 L 84.074 28.333 L 83.889 28.148 L 83.704 27.963 L 83.519 27.778 L 83.148 27.778 L 82.778 27.778 L 82.407 27.778 L 82.037 27.778 L 81.667 27.778 L 81.296 27.778 L 80.926 27.778 L 80.556 27.778 L 80.185 27.778 L 79.815 27.778 L 79.444 27.778 L 79.074 27.778 L 78.704 27.778 L 78.333 27.778 L 77.963 27.778 L 77.593 27.778 L 77.222 27.778 L 76.852 27.778 L 76.481 27.778 L 76.111 27.778 L 75.741 27.778 L 75.370 27.778 L 75.000 27.778 L 74.630 27.778 L 74.259 27.778 L 73.889 27.778 L 73.519 27.778 L 73.148 27.778 L 72.778 27.778 L 72.593 27.963 L 72.407 28.148 L 72.222 28.333 L 72.037 28.519 L 71.852 28.704 L 71.852 29.074 L 71.667 29.259 L 71.481 29.444 L 71.296 29.630 L 71.111 29.815 L 70.926 30.000 L 70.741 30.185 L 70.556 30.370 L 70.370 30.556 L 70.370 30.926 L 70.185 31.111 L 70.000 31.296 L 69.815 31.481 L 69.630 31.667 L 69.444 31.852 L 69.259 32.037 L 69.074 32.222 L 68.889 32.407 L 68.889 32.778 L 68.704 32.963 L 68.519 33.148 L 68.333 33.333 L 68.148 33.519 L 67.963 33.704 L 67.778 33.889 L 67.593 34.074 L 67.407 34.259 L 67.222 34.444 L 67.037 34.630 L 67.037 35.000 L 66.852 35.185 L 66.667 35.370 L 66.481 35.556 L 66.296 35.741 L 66.111 35.926 L 65.926 36.111 L 65.741 36.296 L 65.556 36.481 L 65.741 36.667 L 66.111 36.667 L 66.481 36.667 L 66.852 36.667 L 67.222 36.667 L 67.593 36.667 L 67.963 36.667 L 68.333 36.667 L 68.704 36.667 L 69.074 36.667 L 69.444 36.667 L 69.815 36.667 L 70.185 36.667 L 70.556 36.667 L 70.926 36.667 L 71.296 36.667 L 71.667 36.667 L 72.037 36.667 L 72.407 36.667 L 72.778 36.667 L 73.148 36.667 L 73.519 36.667 L 73.889 36.667 L 74.259 36.667 L 74.444 36.481 L 74.630 36.296 L 74.815 36.111 L 75.000 35.926 L 75.185 35.741 L 75.370 35.556 L 75.556 35.370 L 75.741 35.185 L 75.926 35.000 L 76.111 34.815 L 76.296 34.630 L 76.481 34.444 L 76.852 34.444 L 77.222 34.444 L 77.593 34.444 L 77.963 34.444 L 78.333 34.444 L 78.704 34.444 L 79.074 34.444 L 79.444 34.444 L 79.815 34.444 L 80.185 34.444 L 80.556 34.444 L 80.926 34.444 L 81.296 34.444 L 81.667 34.444 L 82.037 34.444 L 82.407 34.444 L 82.778 34.444 L 83.148 34.444 L 83.519 34.444 L 83.889 34.444 L 84.259 34.444 L 84.630 34.444 L 85.000 34.444 L 85.370 34.444 L 85.741 34.444 L 86.111 34.444 L 86.481 34.444 L 86.852 34.444 L 87.222 34.444 L 87.593 34.444 L 87.963 34.444 L 88.333 34.444 L 88.704 34.444 L 89.074 34.444 L 89.444 34.444 L 89.815 34.444 L 90.185 34.444 L 90.556 34.444 L 90.741 34.630 L 90.741 35.000 L 90.926 35.185 L 91.111 35.370 L 91.296 35.556 L 91.667 35.556 L 92.037 35.556 L 92.222 35.370 L 92.407 35.185 L 92.593 35.000 L 92.407 34.815 L 92.222 34.630 L 92.222 34.259 L 92.407 34.074 L 92.593 34.259 L 92.778 34.444 L 92.963 34.630 L 92.963 35.000 L 92.963 35.370 L 92.778 35.556 L 92.593 35.741 L 92.407 35.926 L 92.037 35.926 L 91.667 35.926 L 91.296 35.926 L 90.926 35.926 L 90.741 35.741 L 90.556 35.556 L 90.370 35.370 L 90.185 35.185 L 89.815 35.185 L 89.444 35.185 L 89.074 35.185 L 88.704 35.185 L 88.333 35.185 L 87.963 35.185 L 87.593 35.185 L 87.222 35.185 L 86.852 35.185 L 86.481 35.185 L 86.111 35.185 L 85.741 35.185 L 85.370 35.185 L 85.000 35.185 L 84.630 35.185 L 84.259 35.185 L 83.889 35.185 L 83.519 35.185 L 83.148 35.185 L 82.963 35.370 L 82.778 35.556 L 82.593 35.741 L 82.778 35.926 L 83.148 35.926 L 83.333 36.111 L 83.519 36.296 L 83.704 36.481 L 83.889 36.667 L 84.074 36.852 L 84.259 37.037 L 84.444 37.222 L 84.630 37.407 L 84.815 37.593 L 85.000 37.778 L 85.370 37.778 L 85.556 37.963 L 85.741 38.148 L 86.111 38.148 L 86.481 38.148 L 86.852 38.148 L 87.222 38.148 L 87.593 38.148 L 87.963 38.148 L 88.333 38.148 L 88.704 38.148 L 89.074 38.148 L 89.444 38.148 L 89.815 38.148 L 90.185 38.148 L 90.556 38.148 L 90.926 38.148 L 91.296 38.148 L 91.667 38.148 L 92.037 38.148 L 92.407 38.148 L 92.778 38.148 L 93.148 38.148 L 93.519 38.148 L 93.889 38.148 L 94.259 38.148 L 94.630 38.148 L 94.815 37.963 L 94.815 37.593 L 95.000 37.407 L 95.370 37.407 L 95.741 37.407 L 96.111 37.407 L 96.481 37.407 L 96.667 37.593 L 96.481 37.778 L 96.111 37.778 L 95.741 37.778 L 95.370 37.778 L 95.185 37.963 L 95.185 38.333 L 95.185 38.704 L 95.370 38.889 L 95.556 39.074 L 95.370 39.259 L 95.000 39.259 L 94.815 39.074 L 94.630 38.889 L 94.259 38.889 L 93.889 38.889 L 93.519 38.889 L 93.148 38.889 L 92.778 38.889 L 92.407 38.889 L 92.037 38.889 L 91.667 38.889 L 91.296 38.889 L 90.926 38.889 L 90.556 38.889 L 90.185 38.889 L 89.815 38.889 L 89.444 38.889 L 89.074 38.889 L 88.704 38.889 L 88.333 38.889 L 87.963 38.889 L 87.593 38.889 L 87.222 38.889 L 86.852 38.889 L 86.481 38.889 L 86.111 38.889 L 85.741 38.889 L 85.370 38.889 L 85.185 38.704 L 85.000 38.519 L 84.630 38.519 L 84.444 38.333 L 84.259 38.148 L 84.074 37.963 L 83.889 37.778 L 83.704 37.593 L 83.519 37.407 L 83.333 37.222 L 83.148 37.037 L 82.963 36.852 L 82.778 36.667 L 82.407 36.667 L 82.222 36.481 L 82.037 36.296 L 81.852 36.111 L 81.667 35.926 L 81.481 35.741 L 81.296 35.556 L 80.926 35.556 L 80.741 35.370 L 80.556 35.185 L 80.185 35.185 L 79.815 35.185 L 79.444 35.185 L 79.074 35.185 L 78.704 35.185 L 78.333 35.185 L 77.963 35.185 L 77.593 35.185 L 77.222 35.185 L 76.852 35.185 L 76.667 35.370 L 76.481 35.556 L 76.296 35.741 L 76.111 35.926 L 75.926 36.111 L 75.741 36.296 L 75.556 36.481 L 75.370 36.667 L 75.185 36.852 L 75.000 37.037 L 74.815 37.222 L 74.630 37.407 L 74.444 37.593 L 74.259 37.778 L 73.889 37.778 L 73.519 37.778 L 73.148 37.778 L 72.778 37.778 L 72.407 37.778 L 72.037 37.778 L 71.667 37.778 L 71.296 37.778 L 70.926 37.778 L 70.556 37.778 L 70.185 37.778 L 69.815 37.778 L 69.444 37.778 L 69.074 37.778 L 68.704 37.778 L 68.333 37.778 L 67.963 37.778 L 67.593 37.778 L 67.222 37.778 L 66.852 37.778 L 66.481 37.778 L 66.111 37.778 L 65.741 37.778 L 65.370 37.778 L 65.000 37.778 L 64.630 37.778 L 64.259 37.778 L 63.889 37.778 L 63.519 37.778 L 63.148 37.778 L 62.778 37.778 L 62.407 37.778 L 62.037 37.778 L 61.667 37.778 L 61.296 37.778 L 60.926 37.778 L 60.556 37.778 L 60.185 37.778 L 59.815 37.778 L 59.444 37.778 L 59.259 37.963 L 59.259 38.333 L 59.259 38.704 L 59.259 39.074 L 59.259 39.444 L 59.259 39.815 L 59.259 40.185 L 59.259 40.556 L 59.259 40.926 L 59.259 41.296 L 59.259 41.667 L 59.259 42.037 L 59.259 42.407 L 59.259 42.778 L 59.259 43.148 L 59.259 43.519 L 59.259 43.889 L 59.259 44.259 L 59.259 44.630 L 59.259 45.000 L 59.259 45.370 L 59.259 45.741 L 59.259 46.111 L 59.259 46.481 L 59.259 46.852 L 59.259 47.222 L 59.259 47.593 L 59.259 47.963 L 59.259 48.333 L 59.259 48.704 L 59.259 49.074 L 59.259 49.444 L 59.259 49.815 L 59.259 50.185 L 59.259 50.556 L 59.074 50.741 L 58.889 50.926 L 58.889 51.296 L 58.704 51.481 L 58.519 51.667 L 58.333 51.852 L 57.963 51.852 L 57.778 52.037 L 57.593 52.222 L 57.222 52.222 L 56.852 52.222 L 56.481 52.222 L 56.111 52.222 L 55.741 52.222 L 55.370 52.222 L 55.000 52.222 L 54.630 52.222 L 54.444 52.407 L 54.444 52.778 L 54.444 53.148 L 54.444 53.519 L 54.444 53.889 L 54.444 54.259 L 54.444 54.630 L 54.444 55.000 L 54.444 55.370 L 54.444 55.741 L 54.444 56.111 L 54.444 56.481 L 54.444 56.852 L 54.444 57.222 L 54.444 57.593 L 54.444 57.963 L 54.444 58.333 L 54.444 58.704 L 54.444 59.074 L 54.444 59.444 L 54.444 59.815 L 54.444 60.185 L 54.444 60.556 L 54.444 60.926 L 54.444 61.296 L 54.444 61.667 L 54.444 62.037 L 54.444 62.407 L 54.630 62.593 L 54.815 62.778 L 55.000 62.963 L 55.185 63.148 L 55.370 63.333 L 55.556 63.519 L 55.741 63.704 L 55.926 63.889 L 56.111 64.074 L 56.296 64.259 L 56.296 64.630 L 56.296 65.000 L 56.296 65.370 L 56.296 65.741 L 56.296 66.111 L 56.296 66.481 L 56.296 66.852 L 56.296 67.222 L 56.296 67.593 L 56.296 67.963 L 56.296 68.333 L 56.296 68.704 L 56.296 69.074 L 56.296 69.444 L 56.296 69.815 L 56.481 70.000 L 56.852 70.000 L 57.037 70.185 L 57.037 70.556 L 57.037 70.926 L 57.037 71.296 L 57.037 71.667 L 56.852 71.852 L 56.481 71.852 L 56.296 71.667 L 56.481 71.481 L 56.667 71.296 L 56.667 70.926 L 56.667 70.556 L 56.481 70.370 L 56.111 70.370 L 55.741 70.370 L 55.370 70.370 L 55.185 70.185 L 55.370 70.000 L 55.556 69.815 L 55.556 69.444 L 55.556 69.074 L 55.556 68.704 L 55.556 68.333 L 55.556 67.963 L 55.556 67.593 L 55.556 67.222 L 55.556 66.852 L 55.556 66.481 L 55.556 66.111 L 55.556 65.741 L 55.556 65.370 L 55.556 65.000 L 55.556 64.630 L 55.370 64.444 L 55.185 64.259 L 55.000 64.074 L 54.815 63.889 L 54.630 63.704 L 54.444 63.519 L 54.259 63.333 L 54.074 63.148 L 53.889 62.963 L 53.704 62.778 L 53.519 62.593 L 53.333 62.407 L 53.333 62.037 L 53.333 61.667 L 53.333 61.296 L 53.333 60.926 L 53.333 60.556 L 53.333 60.185 L 53.333 59.815 L 53.333 59.444 L 53.333 59.074 L 53.333 58.704 L 53.333 58.333 L 53.333 57.963 L 53.333 57.593 L 53.333 57.222 L 53.333 56.852 L 53.333 56.481 L 53.333 56.111 L 53.333 55.741 L 53.333 55.370 L 53.333 55.000 L 53.333 54.630 L 53.333 54.259 L 53.333 53.889 L 53.333 53.519 L 53.333 53.148 L 53.333 52.778 L 53.333 52.407 L 53.148 52.222 L 52.778 52.222 L 52.407 52.222 L 52.037 52.222 L 51.667 52.222 L 51.296 52.222 L 50.926 52.222 L 50.741 52.407 L 50.741 52.778 L 50.741 53.148 L 50.741 53.519 L 50.741 53.889 L 50.741 54.259 L 50.741 54.630 L 50.741 55.000 L 50.741 55.370 L 50.741 55.741 L 50.741 56.111 L 50.741 56.481 L 50.741 56.852 L 50.741 57.222 L 50.741 57.593 L 50.741 57.963 L 50.741 58.333 L 50.741 58.704 L 50.741 59.074 L 50.741 59.444 L 50.741 59.815 L 50.741 60.185 L 50.741 60.556 L 50.556 60.741 L 50.370 60.926 L 50.556 61.111 L 50.741 61.296 L 50.741 61.667 L 50.556 61.852 L 50.185 61.852 L 49.815 61.852 L 49.630 61.667 L 49.630 61.296 L 49.630 60.926 L 49.630 60.556 L 49.630 60.185 L 49.630 59.815 L 49.630 59.444 L 49.630 59.074 L 49.630 58.704 L 49.630 58.333 L 49.630 57.963 L 49.630 57.593 L 49.630 57.222 L 49.630 56.852 L 49.630 56.481 L 49.630 56.111 L 49.630 55.741 L 49.630 55.370 L 49.630 55.000 L 49.630 54.630 L 49.630 54.259 L 49.630 53.889 L 49.630 53.519 L 49.630 53.148 L 49.630 52.778 L 49.630 52.407 L 49.444 52.222 L 49.074 52.222 L 48.704 52.222 L 48.333 52.222 L 47.963 52.222 L 47.593 52.222 L 47.222 52.222 L 47.037 52.407 L 47.037 52.778 L 47.037 53.148 L 47.037 53.519 L 47.037 53.889 L 47.037 54.259 L 47.037 54.630 L 47.037 55.000 L 47.037 55.370 L 47.037 55.741 L 47.037 56.111 L 47.037 56.481 L 47.037 56.852 L 47.037 57.222 L 47.037 57.593 L 47.037 57.963 L 47.037 58.333 L 47.037 58.704 L 47.037 59.074 L 47.037 59.444 L 47.037 59.815 L 47.037 60.185 L 47.037 60.556 L 47.037 60.926 L 46.852 61.111 L 46.667 61.296 L 46.667 61.667 L 46.481 61.852 L 46.296 62.037 L 46.296 62.407 L 46.111 62.593 L 45.926 62.778 L 45.741 62.963 L 45.556 63.148 L 45.370 63.333 L 45.185 63.519 L 45.185 63.889 L 45.000 64.074 L 44.815 64.259 L 44.630 64.444 L 44.444 64.630 L 44.444 65.000 L 44.259 65.185 L 44.074 65.370 L 44.074 65.741 L 44.074 66.111 L 44.074 66.481 L 44.074 66.852 L 43.889 67.037 L 43.704 66.852 L 43.704 66.481 L 43.704 66.111 L 43.704 65.741 L 43.519 65.556 L 43.148 65.556 L 42.778 65.556 L 42.407 65.556 L 42.222 65.370 L 42.407 65.185 L 42.778 65.185 L 43.148 65.185 L 43.333 65.000 L 43.519 64.815 L 43.704 64.630 L 43.704 64.259 L 43.889 64.074 L 44.074 63.889 L 44.259 63.704 L 44.444 63.519 L 44.444 63.148 L 44.630 62.963 L 44.815 62.778 L 45.000 62.593 L 45.185 62.407 L 45.370 62.222 L 45.556 62.037 L 45.556 61.667 L 45.741 61.481 L 45.926 61.296 L 45.926 60.926 L 46.111 60.741 L 46.296 60.556 L 46.296 60.185 L 46.296 59.815 L 46.296 59.444 L 46.296 59.074 L 46.296 58.704 L 46.296 58.333 L 46.296 57.963 L 46.296 57.593 L 46.296 57.222 L 46.296 56.852 L 46.296 56.481 L 46.296 56.111 L 46.296 55.741 L 46.296 55.370 L 46.296 55.000 L 46.296 54.630 L 46.296 54.259 L 46.296 53.889 L 46.296 53.519 L 46.296 53.148 L 46.296 52.778 L 46.296 52.407 L 46.111 52.222 L 45.741 52.222 L 45.370 52.222 L 45.000 52.222 L 44.630 52.222 L 44.259 52.222 L 43.889 52.222 L 43.519 52.222 L 43.148 52.222 L 42.963 52.037 L 42.778 51.852 L 42.407 51.852 L 42.222 51.667 L 42.037 51.481 L 41.852 51.296 L 41.852 50.926 L 41.667 50.741 L 41.481 50.556 L 41.481 50.185 L 41.481 49.815 L 41.296 49.630 L 40.926 49.630 L 40.556 49.630 L 40.185 49.630 L 39.815 49.630 L 39.444 49.630 L 39.074 49.630 L 38.704 49.630 L 38.333 49.630 L 37.963 49.630 L 37.593 49.630 L 37.222 49.630 L 36.852 49.630 L 36.481 49.630 L 36.111 49.630 L 35.926 49.815 L 35.741 50.000 L 35.556 50.185 L 35.556 50.556 L 35.370 50.741 L 35.185 50.926 L 35.000 51.111 L 34.815 51.296 L 34.630 51.481 L 34.444 51.667 L 34.444 52.037 L 34.259 52.222 L 33.889 52.222 L 33.704 52.407 L 33.704 52.778 L 33.519 52.963 L 33.333 53.148 L 33.148 53.333 L 32.963 53.519 L 32.778 53.704 L 32.593 53.889 L 32.407 54.074 L 32.222 54.259 L 32.222 54.630 L 32.037 54.815 L 31.852 55.000 L 31.667 55.185 L 31.481 55.370 L 31.296 55.556 L 31.111 55.741 L 31.111 56.111 L 30.926 56.296 L 30.741 56.481 L 30.556 56.667 L 30.370 56.852 L 30.185 57.037 L 30.000 57.222 L 29.815 57.407 L 29.630 57.593 L 29.444 57.778 L 29.259 57.963 L 29.074 58.148 L 28.889 58.333 L 28.889 58.704 L 28.704 58.889 L 28.519 59.074 L 28.333 59.259 L 27.963 59.259 L 27.593 59.259 L 27.222 59.259 L 26.852 59.259 L 26.481 59.259 L 26.111 59.259 L 25.741 59.259 L 25.370 59.259 L 25.000 59.259 L 24.630 59.259 L 24.259 59.259 L 23.889 59.259 L 23.519 59.259 L 23.148 59.259 L 22.778 59.259 L 22.407 59.259 L 22.037 59.259 L 21.667 59.259 L 21.481 59.444 L 21.296 59.630 L 21.111 59.815 L 20.926 60.000 L 20.741 60.185 L 20.741 60.556 L 20.556 60.741 L 20.370 60.926 L 20.185 61.111 L 20.000 61.296 L 19.815 61.481 L 19.630 61.667 L 19.444 61.852 L 19.259 62.037 L 19.259 62.407 L 19.074 62.593 L 18.889 62.778 L 18.704 62.963 L 18.519 63.148 L 18.333 63.333 L 18.148 63.519 L 17.963 63.704 L 17.778 63.889 L 17.593 64.074 L 17.407 64.259 L 17.407 64.630 L 17.222 64.815 L 16.852 64.815 L 16.481 64.815 L 16.111 64.815 L 15.741 64.815 L 15.370 64.815 L 15.000 64.815 L 14.630 64.815 L 14.259 64.815 L 13.889 64.815 L 13.519 64.815 L 13.148 64.815 L 12.778 64.815 L 12.407 64.815 L 12.037 64.815 L 11.667 64.815 L 11.296 64.815 L 10.926 64.815 L 10.556 64.815 L 10.185 64.815 L 9.815 64.815 L 9.444 64.815 L 9.074 64.815 L 8.704 64.815 L 8.333 64.815 L 7.963 64.815 L 7.593 64.815 L 7.222 64.815 L 6.852 64.815 L 6.481 64.815 L 6.111 64.815 L 5.741 64.815 L 5.370 64.815 L 5.000 64.815 L 4.630 64.815 L 4.259 64.815 L 3.889 64.815 L 3.519 64.815 L 3.148 64.815 L 2.778 64.815 L 2.407 64.815 L 2.037 64.815 L 1.667 64.815 L 1.481 65.000 L 1.296 65.185 L 1.111 65.370 L 0.926 65.556 L 0.741 65.370 L 0.741 65.000 L 0.741 64.630 L 0.741 64.259 L 0.556 64.074 L 0.370 63.889 L 0.556 63.704 L 0.926 63.704 L 1.111 63.889 L 1.296 64.074 L 1.667 64.074 L 2.037 64.074 L 2.407 64.074 L 2.778 64.074 L 3.148 64.074 L 3.519 64.074 L 3.889 64.074 L 4.259 64.074 L 4.630 64.074 L 5.000 64.074 L 5.370 64.074 L 5.741 64.074 L 6.111 64.074 L 6.481 64.074 L 6.852 64.074 L 7.222 64.074 L 7.593 64.074 L 7.963 64.074 L 8.333 64.074 L 8.704 64.074 L 9.074 64.074 L 9.444 64.074 L 9.815 64.074 L 10.185 64.074 L 10.556 64.074 L 10.926 64.074 L 11.296 64.074 L 11.667 64.074 L 12.037 64.074 L 12.407 64.074 L 12.778 64.074 L 13.148 64.074 L 13.519 64.074 L 13.889 64.074 L 14.259 64.074 L 14.630 64.074 L 15.000 64.074 L 15.370 64.074 L 15.741 64.074 L 16.111 64.074 L 16.481 64.074 L 16.667 63.889 L 16.852 63.704 L 17.037 63.519 L 17.222 63.333 L 17.407 63.148 L 17.593 62.963 L 17.778 62.778 L 17.963 62.593 L 18.148 62.407 L 18.333 62.222 L 18.519 62.037 L 18.519 61.667 L 18.704 61.481 L 18.889 61.296 L 19.074 61.111 L 19.259 60.926 L 19.444 60.741 L 19.630 60.556 L 19.815 60.370 L 20.000 60.185 L 20.000 59.815 L 20.185 59.630 L 20.370 59.444 L 20.185 59.259 L 19.815 59.259 L 19.444 59.259 L 19.074 59.259 L 18.704 59.259 L 18.333 59.259 L 17.963 59.259 L 17.593 59.259 L 17.222 59.259 L 16.852 59.259 L 16.481 59.259 L 16.111 59.259 L 15.741 59.259 L 15.370 59.259 L 15.000 59.259 L 14.630 59.259 L 14.259 59.259 L 13.889 59.259 L 13.519 59.259 L 13.148 59.259 L 12.778 59.259 L 12.407 59.259 L 12.037 59.259 L 11.667 59.259 L 11.296 59.259 L 10.926 59.259 L 10.556 59.259 L 10.185 59.259 L 9.815 59.259 L 9.444 59.259 L 9.074 59.259 L 8.704 59.259 L 8.333 59.259 L 7.963 59.259 L 7.778 59.444 L 7.593 59.630 L 7.407 59.444 L 7.407 59.074 L 7.407 58.704 L 7.222 58.519 L 7.037 58.333 L 6.852 58.148 L 6.481 58.148 L 6.296 57.963 L 6.481 57.778 L 6.852 57.778 L 7.222 57.778 L 7.407 57.963 L 7.593 58.148 L 7.778 58.333 L 7.963 58.519 L 8.333 58.519 L 8.704 58.519 L 9.074 58.519 L 9.444 58.519 L 9.815 58.519 L 10.185 58.519 L 10.556 58.519 L 10.926 58.519 L 11.296 58.519 L 11.667 58.519 L 12.037 58.519 L 12.407 58.519 L 12.778 58.519 L 13.148 58.519 L 13.519 58.519 L 13.889 58.519 L 14.259 58.519 L 14.630 58.519 L 15.000 58.519 L 15.370 58.519 L 15.556 58.333 L 15.370 58.148 L 15.185 57.963 L 15.000 57.778 L 14.815 57.593 L 14.630 57.407 L 14.444 57.222 L 14.259 57.037 L 14.074 56.852 L 13.889 56.667 L 13.519 56.667 L 13.333 56.481 L 13.148 56.296 L 12.963 56.111 L 12.778 55.926 L 12.407 55.926 L 12.037 55.926 L 11.667 55.926 L 11.296 55.926 L 10.926 55.926 L 10.556 55.926 L 10.185 55.926 L 9.815 55.926 L 9.444 55.926 L 9.074 55.926 L 8.704 55.926 L 8.333 55.926 L 7.963 55.926 L 7.593 55.926 L 7.222 55.926 L 6.852 55.926 L 6.481 55.926 L 6.111 55.926 L 5.741 55.926 L 5.370 55.926 L 5.000 55.926 L 4.630 55.926 L 4.259 55.926 L 3.889 55.926 L 3.519 55.926 L 3.333 56.111 L 3.148 56.296 L 2.963 56.111 L 2.963 55.741 L 2.963 55.370 L 3.148 55.185 L 3.519 55.185 L 3.889 55.185 L 4.259 55.185 L 4.630 55.185 L 5.000 55.185 L 5.370 55.185 L 5.741 55.185 L 6.111 55.185 L 6.481 55.185 L 6.852 55.185 L 7.222 55.185 L 7.593 55.185 L 7.963 55.185 L 8.333 55.185 L 8.704 55.185 L 9.074 55.185 L 9.444 55.185 L 9.815 55.185 L 10.185 55.185 L 10.556 55.185 L 10.926 55.185 L 11.296 55.185 L 11.667 55.185 L 12.037 55.185 L 12.407 55.185 L 12.778 55.185 L 12.963 55.370 L 13.148 55.556 L 13.519 55.556 L 13.704 55.741 L 13.889 55.926 L 14.074 56.111 L 14.259 56.296 L 14.630 56.296 L 14.815 56.481 L 15.000 56.667 L 15.185 56.852 L 15.370 57.037 L 15.556 57.222 L 15.741 57.407 L 16.111 57.407 L 16.296 57.593 L 16.481 57.778 L 16.667 57.963 L 16.852 58.148 L 17.037 58.333 L 17.222 58.519 L 17.593 58.519 L 17.963 58.519 L 18.333 58.519 L 18.704 58.519 L 19.074 58.519 L 19.444 58.519 L 19.815 58.519 L 20.185 58.519 L 20.556 58.519 L 20.926 58.519 L 21.296 58.519 L 21.667 58.519 L 22.037 58.519 L 22.407 58.519 L 22.778 58.519 L 23.148 58.519 L 23.519 58.519 L 23.889 58.519 L 24.259 58.519 L 24.630 58.519 L 25.000 58.519 L 25.370 58.519 L 25.741 58.519 L 26.111 58.519 L 26.481 58.519 L 26.852 58.519 L 27.222 58.519 L 27.593 58.519 L 27.778 58.333 L 27.963 58.148 L 28.148 57.963 L 28.333 57.778 L 28.519 57.593 L 28.704 57.407 L 28.889 57.222 L 29.074 57.037 L 29.259 56.852 L 29.444 56.667 L 29.630 56.481 L 29.815 56.296 L 30.000 56.111 L 30.000 55.741 L 30.185 55.556 L 30.370 55.370 L 30.556 55.185 L 30.741 55.000 L 30.926 54.815 L 31.111 54.630 L 31.111 54.259 L 31.296 54.074 L 31.481 53.889 L 31.667 53.704 L 31.852 53.519 L 32.037 53.333 L 32.222 53.148 L 32.407 52.963 L 32.593 52.778 L 32.778 52.593 L 32.963 52.407 L 33.148 52.222 L 33.333 52.037 L 33.333 51.667 L 33.519 51.481 L 33.704 51.296 L 33.889 51.111 L 34.074 50.926 L 34.259 50.741 L 34.444 50.556 L 34.630 50.370 L 34.815 50.185 L 34.815 49.815 L 34.630 49.630 L 34.259 49.630 L 33.889 49.630 L 33.519 49.630 L 33.148 49.630 L 32.778 49.630 L 32.407 49.630 L 32.037 49.630 L 31.667 49.630 L 31.296 49.630 L 30.926 49.630 L 30.556 49.630 L 30.185 49.630 L 29.815 49.630 L 29.444 49.630 L 29.074 49.630 L 28.704 49.630 L 28.333 49.630 L 27.963 49.630 L 27.593 49.630 L 27.222 49.630 L 26.852 49.630 L 26.481 49.630 L 26.111 49.630 L 25.926 49.815 L 25.926 50.185 L 25.741 50.370 L 25.370 50.370 L 25.185 50.556 L 25.000 50.741 L 24.815 50.926 L 24.630 51.111 L 24.444 51.296 L 24.259 51.481 L 24.074 51.667 L 23.889 51.852 L 23.519 51.852 L 23.148 51.852 L 22.778 51.852 L 22.407 51.852 L 22.037 51.852 L 21.667 51.852 L 21.296 51.852 L 20.926 51.852 L 20.556 51.852 L 20.185 51.852 L 19.815 51.852 L 19.444 51.852 L 19.074 51.852 L 18.704 51.852 L 18.333 51.852 L 17.963 51.852 L 17.593 51.852 L 17.222 51.852 L 16.852 51.852 L 16.481 51.852 L 16.111 51.852 L 15.741 51.852 L 15.370 51.852 L 15.000 51.852 L 14.630 51.852 L 14.259 51.852 L 13.889 51.852 L 13.519 51.852 L 13.148 51.852 L 12.778 51.852 L 12.407 51.852 L 12.037 51.852 L 11.667 51.852 L 11.296 51.852 L 10.926 51.852 L 10.556 51.852 L 10.185 51.852 L 10.000 52.037 L 9.815 52.222 L 9.630 52.037 L 9.630 51.667 L 9.630 51.296 L 9.630 50.926 L 9.444 50.741 L 9.259 50.556 L 9.074 50.370 L 8.704 50.370 L 8.519 50.185 L 8.704 50.000 L 9.074 50.000 L 9.444 50.000 L 9.630 50.185 L 9.815 50.370 L 10.000 50.556 L 10.185 50.741 L 10.556 50.741 L 10.926 50.741 L 11.296 50.741 L 11.667 50.741 L 12.037 50.741 L 12.407 50.741 L 12.778 50.741 L 13.148 50.741 L 13.519 50.741 L 13.889 50.741 L 14.259 50.741 L 14.630 50.741 L 15.000 50.741 L 15.370 50.741 L 15.741 50.741 L 16.111 50.741 L 16.481 50.741 L 16.852 50.741 L 17.222 50.741 L 17.593 50.741 L 17.963 50.741 L 18.148 50.556 L 17.963 50.370 L 17.593 50.370 L 17.407 50.185 L 17.222 50.000 L 17.037 49.815 L 16.852 49.630 L 16.667 49.444 L 16.481 49.259 L 16.296 49.074 L 16.111 48.889 L 15.926 48.704 L 15.741 48.519 L 15.370 48.519 L 15.185 48.333 L 15.000 48.148 L 14.630 48.148 L 14.259 48.148 L 13.889 48.148 L 13.519 48.148 L 13.148 48.148 L 12.778 48.148 L 12.407 48.148 L 12.037 48.148 L 11.667 48.148 L 11.296 48.148 L 10.926 48.148 L 10.556 48.148 L 10.185 48.148 L 9.815 48.148 L 9.444 48.148 L 9.074 48.148 L 8.704 48.148 L 8.333 48.148 L 7.963 48.148 L 7.593 48.148 L 7.222 48.148 L 6.852 48.148 L 6.481 48.148 L 6.111 48.148 L 5.926 48.333 L 5.741 48.519 L 5.556 48.333 L 5.556 47.963 L 5.556 47.593 L 5.370 47.407 L 5.185 47.222 L 5.000 47.037 L 4.630 47.037 L 4.444 47.222 L 4.259 47.407 L 4.074 47.593 L 4.074 47.963 L 4.074 48.333 L 3.889 48.519 L 3.704 48.333 L 3.704 47.963 L 3.704 47.593 L 3.704 47.222 L 3.889 47.037 L 4.074 46.852 L 4.259 46.667 L 4.630 46.667 L 5.000 46.667 L 5.370 46.667 L 5.556 46.852 L 5.741 47.037 L 5.926 47.222 L 6.111 47.407 L 6.481 47.407 L 6.852 47.407 L 7.222 47.407 L 7.593 47.407 L 7.963 47.407 L 8.333 47.407 L 8.704 47.407 L 9.074 47.407 L 9.444 47.407 L 9.815 47.407 L 10.185 47.407 L 10.556 47.407 L 10.926 47.407 L 11.296 47.407 L 11.667 47.407 L 12.037 47.407 L 12.407 47.407 L 12.778 47.407 L 13.148 47.407 L 13.519 47.407 L 13.889 47.407 L 14.259 47.407 L 14.630 47.407 L 15.000 47.407 L 15.370 47.407 L 15.556 47.593 L 15.741 47.778 L 16.111 47.778 L 16.296 47.963 L 16.481 48.148 L 16.667 48.333 L 16.852 48.519 L 17.037 48.704 L 17.222 48.889 L 17.407 49.074 L 17.593 49.259 L 17.778 49.444 L 17.963 49.630 L 18.333 49.630 L 18.519 49.815 L 18.704 50.000 L 18.889 50.185 L 19.074 50.370 L 19.259 50.556 L 19.444 50.741 L 19.815 50.741 L 20.185 50.741 L 20.556 50.741 L 20.926 50.741 L 21.296 50.741 L 21.667 50.741 L 22.037 50.741 L 22.407 50.741 L 22.778 50.741 L 23.148 50.741 L 23.519 50.741 L 23.889 50.741 L 24.259 50.741 L 24.444 50.556 L 24.630 50.370 L 24.815 50.185 L 24.815 49.815 L 25.000 49.630 L 25.185 49.444 L 25.370 49.259 L 25.556 49.074 L 25.741 48.889 L 25.926 48.704 L 26.111 48.519 L 26.481 48.519 L 26.852 48.519 L 27.222 48.519 L 27.593 48.519 L 27.963 48.519 L 28.333 48.519 L 28.704 48.519 L 29.074 48.519 L 29.444 48.519 L 29.815 48.519 L 30.185 48.519 L 30.556 48.519 L 30.926 48.519 L 31.296 48.519 L 31.667 48.519 L 32.037 48.519 L 32.407 48.519 L 32.778 48.519 L 33.148 48.519 L 33.519 48.519 L 33.889 48.519 L 34.259 48.519 L 34.630 48.519 L 35.000 48.519 L 35.370 48.519 L 35.741 48.519 L 36.111 48.519 L 36.481 48.519 L 36.852 48.519 L 37.222 48.519 L 37.593 48.519 L 37.963 48.519 L 38.333 48.519 L 38.704 48.519 L 39.074 48.519 L 39.444 48.519 L 39.815 48.519 L 40.185 48.519 L 40.556 48.519 L 40.926 48.519 L 41.296 48.519 L 41.481 48.333 L 41.481 47.963 L 41.481 47.593 L 41.481 47.222 L 41.481 46.852 L 41.481 46.481 L 41.481 46.111 L 41.481 45.741 L 41.481 45.370 L 41.481 45.000 L 41.481 44.630 L 41.481 44.259 L 41.481 43.889 L 41.481 43.519 L 41.481 43.148 L 41.481 42.778 L 41.481 42.407 L 41.481 42.037 L 41.481 41.667 L 41.481 41.296 L 41.481 40.926 L 41.481 40.556 L 41.481 40.185 L 41.481 39.815 L 41.481 39.444 L 41.481 39.074 L 41.481 38.704 L 41.481 38.333 L 41.481 37.963 L 41.481 37.593 L 41.481 37.222 L 41.481 36.852 L 41.481 36.481 L 41.481 36.111 L 41.481 35.741 L 41.481 35.370 L 41.667 35.185 L 41.852 35.000 L 42.037 34.815 L 42.222 34.630 L 42.407 34.444 L 42.778 34.444 L 42.963 34.259 L 43.148 34.074 L 43.519 34.074 L 43.889 34.074 L 44.259 34.074 L 44.630 34.074 L 45.000 34.074 L 45.370 34.074 L 45.741 34.074 L 46.111 34.074 L 46.296 33.889 L 46.296 33.519 L 46.296 33.148 L 46.296 32.778 L 46.296 32.407 L 46.296 32.037 L 46.296 31.667 L 46.296 31.296 L 46.296 30.926 L 46.296 30.556 L 46.296 30.185 L 46.296 29.815 L 46.296 29.444 L 46.296 29.074 L 46.296 28.704 L 46.296 28.333 L 46.296 27.963 L 46.296 27.593 L 46.296 27.222 L 46.296 26.852 L 46.296 26.481 L 46.296 26.111 L 46.296 25.741 L 46.296 25.370 L 46.296 25.000 L 46.296 24.630 L 46.296 24.259 L 46.296 23.889 L 46.111 23.704 L 45.926 23.519 L 45.741 23.333 L 45.556 23.148 L 45.370 22.963 L 45.185 22.778 L 45.000 22.593 L 44.815 22.407 L 44.630 22.222 L 44.444 22.037 L 44.444 21.667 L 44.444 21.296 L 44.444 20.926 L 44.444 20.556 L 44.444 20.185 L 44.444 19.815 L 44.444 19.444 L 44.444 19.074 L 44.444 18.704 L 44.444 18.333 L 44.444 17.963 L 44.444 17.593 L 44.444 17.222 L 44.444 16.852 L 44.444 16.481 L 44.259 16.296 L 44.074 16.111 L 44.259 15.926 Z M 57.222 18.889 L 57.593 18.889 L 57.963 18.889 L 58.148 19.074 L 57.963 19.259 L 57.593 19.259 L 57.222 19.259 L 57.037 19.074 L 57.222 18.889 Z M 58.333 19.259 L 58.519 19.444 L 58.333 19.630 L 58.148 19.444 L 58.333 19.259 Z M 58.704 19.630 L 58.889 19.815 L 58.889 20.185 L 58.704 20.370 L 58.519 20.185 L 58.519 19.815 L 58.704 19.630 Z M 50.185 22.222 L 50.556 22.222 L 50.741 22.407 L 50.556 22.593 L 50.185 22.593 L 50.000 22.407 L 50.185 22.222 Z M 49.815 22.593 L 50.000 22.778 L 49.815 22.963 L 49.630 22.778 L 49.815 22.593 Z M 50.926 22.593 L 51.296 22.593 L 51.481 22.778 L 51.481 23.148 L 51.481 23.519 L 51.481 23.889 L 51.481 24.259 L 51.296 24.444 L 51.111 24.259 L 51.111 23.889 L 51.111 23.519 L 51.111 23.148 L 50.926 22.963 L 50.741 22.778 L 50.926 22.593 Z M 49.444 22.963 L 49.630 23.148 L 49.630 23.519 L 49.630 23.889 L 49.444 24.074 L 49.259 23.889 L 49.259 23.519 L 49.259 23.148 L 49.444 22.963 Z M 49.815 24.074 L 50.000 24.259 L 49.815 24.444 L 49.630 24.259 L 49.815 24.074 Z M 95.000 26.667 L 95.185 26.852 L 95.185 27.222 L 95.185 27.593 L 95.185 27.963 L 95.000 28.148 L 94.630 28.148 L 94.444 27.963 L 94.630 27.778 L 94.815 27.593 L 94.815 27.222 L 94.815 26.852 L 95.000 26.667 Z M 93.889 28.148 L 94.259 28.148 L 94.444 28.333 L 94.259 28.519 L 93.889 28.519 L 93.704 28.333 L 93.889 28.148 Z M 98.333 29.259 L 98.704 29.259 L 99.074 29.259 L 99.259 29.444 L 99.074 29.630 L 98.704 29.630 L 98.333 29.630 L 98.148 29.444 L 98.333 29.259 Z M 97.963 29.630 L 98.148 29.815 L 97.963 30.000 L 97.778 29.815 L 97.963 29.630 Z M 99.444 29.630 L 99.630 29.815 L 99.444 30.000 L 99.259 29.815 L 99.444 29.630 Z M 11.296 30.000 L 11.667 30.000 L 12.037 30.000 L 12.407 30.000 L 12.778 30.000 L 13.148 30.000 L 13.519 30.000 L 13.889 30.000 L 14.259 30.000 L 14.630 30.000 L 15.000 30.000 L 15.370 30.000 L 15.741 30.000 L 16.111 30.000 L 16.481 30.000 L 16.852 30.000 L 17.222 30.000 L 17.407 30.185 L 17.593 30.370 L 17.963 30.370 L 18.148 30.556 L 18.333 30.741 L 18.704 30.741 L 18.889 30.926 L 19.074 31.111 L 19.259 31.296 L 19.444 31.481 L 19.630 31.667 L 19.630 32.037 L 19.815 32.222 L 20.000 32.407 L 20.000 32.778 L 20.000 33.148 L 20.185 33.333 L 20.370 33.519 L 20.370 33.889 L 20.370 34.259 L 20.185 34.444 L 20.000 34.630 L 20.000 35.000 L 19.815 35.185 L 19.630 35.370 L 19.630 35.741 L 19.444 35.926 L 19.259 36.111 L 19.074 36.296 L 18.889 36.481 L 18.704 36.667 L 18.519 36.852 L 18.704 37.037 L 18.889 37.222 L 19.074 37.407 L 19.444 37.407 L 19.630 37.593 L 19.815 37.778 L 20.185 37.778 L 20.370 37.963 L 20.556 38.148 L 20.741 38.333 L 20.741 38.704 L 20.926 38.889 L 21.111 39.074 L 21.111 39.444 L 21.111 39.815 L 21.296 40.000 L 21.481 40.185 L 21.481 40.556 L 21.481 40.926 L 21.481 41.296 L 21.296 41.481 L 21.111 41.667 L 21.111 42.037 L 21.111 42.407 L 21.111 42.778 L 20.926 42.963 L 20.741 43.148 L 20.556 43.333 L 20.370 43.519 L 20.370 43.889 L 20.185 44.074 L 19.815 44.074 L 19.630 44.259 L 19.444 44.444 L 19.074 44.444 L 18.889 44.630 L 18.704 44.815 L 18.333 44.815 L 17.963 44.815 L 17.593 44.815 L 17.222 44.815 L 16.852 44.815 L 16.481 44.815 L 16.111 44.815 L 15.741 44.815 L 15.370 44.815 L 15.000 44.815 L 14.630 44.815 L 14.259 44.815 L 13.889 44.815 L 13.519 44.815 L 13.148 44.815 L 12.778 44.815 L 12.407 44.815 L 12.037 44.815 L 11.667 44.815 L 11.296 44.815 L 11.111 44.630 L 11.111 44.259 L 11.111 43.889 L 11.111 43.519 L 11.111 43.148 L 11.111 42.778 L 11.111 42.407 L 11.111 42.037 L 11.111 41.667 L 11.111 41.296 L 11.111 40.926 L 11.111 40.556 L 11.111 40.185 L 11.111 39.815 L 11.111 39.444 L 11.111 39.074 L 11.111 38.704 L 11.111 38.333 L 11.111 37.963 L 11.111 37.593 L 11.111 37.222 L 11.111 36.852 L 11.111 36.481 L 11.111 36.111 L 11.111 35.741 L 11.111 35.370 L 11.111 35.000 L 11.111 34.630 L 11.111 34.259 L 11.111 33.889 L 11.111 33.519 L 11.111 33.148 L 11.111 32.778 L 11.111 32.407 L 11.111 32.037 L 11.111 31.667 L 11.111 31.296 L 11.111 30.926 L 11.111 30.556 L 11.111 30.185 L 11.296 30.000 Z M 23.148 30.000 L 23.519 30.000 L 23.889 30.000 L 24.259 30.000 L 24.630 30.000 L 25.000 30.000 L 25.370 30.000 L 25.741 30.000 L 26.111 30.000 L 26.296 30.185 L 26.296 30.556 L 26.296 30.926 L 26.296 31.296 L 26.296 31.667 L 26.296 32.037 L 26.296 32.407 L 26.296 32.778 L 26.296 33.148 L 26.296 33.519 L 26.296 33.889 L 26.296 34.259 L 26.296 34.630 L 26.296 35.000 L 26.296 35.370 L 26.296 35.741 L 26.296 36.111 L 26.296 36.481 L 26.296 36.852 L 26.296 37.222 L 26.296 37.593 L 26.296 37.963 L 26.296 38.333 L 26.296 38.704 L 26.296 39.074 L 26.296 39.444 L 26.296 39.815 L 26.296 40.185 L 26.296 40.556 L 26.296 40.926 L 26.296 41.296 L 26.296 41.667 L 26.296 42.037 L 26.296 42.407 L 26.296 42.778 L 26.296 43.148 L 26.296 43.519 L 26.296 43.889 L 26.296 44.259 L 26.296 44.630 L 26.111 44.815 L 25.741 44.815 L 25.370 44.815 L 25.000 44.815 L 24.630 44.815 L 24.259 44.815 L 23.889 44.815 L 23.519 44.815 L 23.148 44.815 L 22.963 44.630 L 22.963 44.259 L 22.963 43.889 L 22.963 43.519 L 22.963 43.148 L 22.963 42.778 L 22.963 42.407 L 22.963 42.037 L 22.963 41.667 L 22.963 41.296 L 22.963 40.926 L 22.963 40.556 L 22.963 40.185 L 22.963 39.815 L 22.963 39.444 L 22.963 39.074 L 22.963 38.704 L 22.963 38.333 L 22.963 37.963 L 22.963 37.593 L 22.963 37.222 L 22.963 36.852 L 22.963 36.481 L 22.963 36.111 L 22.963 35.741 L 22.963 35.370 L 22.963 35.000 L 22.963 34.630 L 22.963 34.259 L 22.963 33.889 L 22.963 33.519 L 22.963 33.148 L 22.963 32.778 L 22.963 32.407 L 22.963 32.037 L 22.963 31.667 L 22.963 31.296 L 22.963 30.926 L 22.963 30.556 L 22.963 30.185 L 23.148 30.000 Z M 27.963 30.000 L 28.333 30.000 L 28.704 30.000 L 29.074 30.000 L 29.444 30.000 L 29.815 30.000 L 30.185 30.000 L 30.556 30.000 L 30.926 30.000 L 31.296 30.000 L 31.667 30.000 L 32.037 30.000 L 32.407 30.000 L 32.778 30.000 L 33.148 30.000 L 33.519 30.000 L 33.889 30.000 L 34.259 30.000 L 34.630 30.000 L 35.000 30.000 L 35.370 30.000 L 35.741 30.000 L 36.111 30.000 L 36.481 30.000 L 36.852 30.000 L 37.222 30.000 L 37.593 30.000 L 37.963 30.000 L 38.333 30.000 L 38.704 30.000 L 39.074 30.000 L 39.444 30.000 L 39.630 30.185 L 39.630 30.556 L 39.630 30.926 L 39.630 31.296 L 39.630 31.667 L 39.630 32.037 L 39.630 32.407 L 39.630 32.778 L 39.444 32.963 L 39.074 32.963 L 38.704 32.963 L 38.333 32.963 L 37.963 32.963 L 37.593 32.963 L 37.222 32.963 L 36.852 32.963 L 36.481 32.963 L 36.111 32.963 L 35.741 32.963 L 35.556 33.148 L 35.556 33.519 L 35.556 33.889 L 35.556 34.259 L 35.556 34.630 L 35.556 35.000 L 35.556 35.370 L 35.556 35.741 L 35.556 36.111 L 35.556 36.481 L 35.556 36.852 L 35.556 37.222 L 35.556 37.593 L 35.556 37.963 L 35.556 38.333 L 35.556 38.704 L 35.556 39.074 L 35.556 39.444 L 35.556 39.815 L 35.556 40.185 L 35.556 40.556 L 35.556 40.926 L 35.556 41.296 L 35.556 41.667 L 35.556 42.037 L 35.556 42.407 L 35.556 42.778 L 35.556 43.148 L 35.556 43.519 L 35.556 43.889 L 35.556 44.259 L 35.556 44.630 L 35.370 44.815 L 35.000 44.815 L 34.630 44.815 L 34.259 44.815 L 33.889 44.815 L 33.519 44.815 L 33.148 44.815 L 32.778 44.815 L 32.407 44.815 L 32.222 44.630 L 32.222 44.259 L 32.222 43.889 L 32.222 43.519 L 32.222 43.148 L 32.222 42.778 L 32.222 42.407 L 32.222 42.037 L 32.222 41.667 L 32.222 41.296 L 32.222 40.926 L 32.222 40.556 L 32.222 40.185 L 32.222 39.815 L 32.222 39.444 L 32.222 39.074 L 32.222 38.704 L 32.222 38.333 L 32.222 37.963 L 32.222 37.593 L 32.222 37.222 L 32.222 36.852 L 32.222 36.481 L 32.222 36.111 L 32.222 35.741 L 32.222 35.370 L 32.222 35.000 L 32.222 34.630 L 32.222 34.259 L 32.222 33.889 L 32.222 33.519 L 32.222 33.148 L 32.037 32.963 L 31.667 32.963 L 31.296 32.963 L 30.926 32.963 L 30.556 32.963 L 30.185 32.963 L 29.815 32.963 L 29.444 32.963 L 29.074 32.963 L 28.704 32.963 L 28.333 32.963 L 27.963 32.963 L 27.778 32.778 L 27.778 32.407 L 27.778 32.037 L 27.778 31.667 L 27.778 31.296 L 27.778 30.926 L 27.778 30.556 L 27.778 30.185 L 27.963 30.000 Z M 14.259 32.593 L 14.074 32.778 L 14.074 33.148 L 14.074 33.519 L 14.074 33.889 L 14.074 34.259 L 14.074 34.630 L 14.074 35.000 L 14.074 35.370 L 14.074 35.741 L 14.074 36.111 L 14.259 36.296 L 14.630 36.296 L 15.000 36.296 L 15.370 36.296 L 15.556 36.111 L 15.741 35.926 L 16.111 35.926 L 16.296 35.741 L 16.481 35.556 L 16.667 35.370 L 16.852 35.185 L 17.037 35.000 L 17.037 34.630 L 17.037 34.259 L 17.037 33.889 L 17.037 33.519 L 16.852 33.333 L 16.667 33.148 L 16.481 32.963 L 16.296 32.778 L 16.111 32.593 L 15.741 32.593 L 15.370 32.593 L 15.000 32.593 L 14.630 32.593 L 14.259 32.593 Z M 91.296 33.704 L 91.667 33.704 L 92.037 33.704 L 92.222 33.889 L 92.037 34.074 L 91.667 34.074 L 91.296 34.074 L 91.111 33.889 L 91.296 33.704 Z M 90.926 34.074 L 91.111 34.259 L 90.926 34.444 L 90.741 34.259 L 90.926 34.074 Z M 44.259 35.185 L 44.074 35.370 L 43.889 35.556 L 43.704 35.741 L 43.519 35.926 L 43.333 36.111 L 43.148 36.296 L 42.963 36.481 L 42.778 36.667 L 42.593 36.852 L 42.593 37.222 L 42.593 37.593 L 42.593 37.963 L 42.593 38.333 L 42.593 38.704 L 42.593 39.074 L 42.593 39.444 L 42.593 39.815 L 42.593 40.185 L 42.593 40.556 L 42.593 40.926 L 42.593 41.296 L 42.593 41.667 L 42.593 42.037 L 42.593 42.407 L 42.593 42.778 L 42.593 43.148 L 42.593 43.519 L 42.593 43.889 L 42.593 44.259 L 42.593 44.630 L 42.593 45.000 L 42.593 45.370 L 42.593 45.741 L 42.593 46.111 L 42.593 46.481 L 42.593 46.852 L 42.593 47.222 L 42.593 47.593 L 42.593 47.963 L 42.593 48.333 L 42.593 48.704 L 42.593 49.074 L 42.778 49.259 L 42.963 49.444 L 43.148 49.630 L 43.333 49.815 L 43.519 50.000 L 43.704 50.185 L 43.889 50.370 L 44.074 50.556 L 44.259 50.741 L 44.630 50.741 L 45.000 50.741 L 45.370 50.741 L 45.741 50.741 L 46.111 50.741 L 46.481 50.741 L 46.852 50.741 L 47.222 50.741 L 47.593 50.741 L 47.963 50.741 L 48.333 50.741 L 48.704 50.741 L 49.074 50.741 L 49.444 50.741 L 49.815 50.741 L 50.185 50.741 L 50.556 50.741 L 50.926 50.741 L 51.296 50.741 L 51.667 50.741 L 52.037 50.741 L 52.407 50.741 L 52.778 50.741 L 53.148 50.741 L 53.519 50.741 L 53.889 50.741 L 54.259 50.741 L 54.630 50.741 L 55.000 50.741 L 55.370 50.741 L 55.741 50.741 L 56.111 50.741 L 56.481 50.741 L 56.667 50.556 L 56.852 50.370 L 57.037 50.185 L 57.222 50.000 L 57.407 49.815 L 57.593 49.630 L 57.778 49.444 L 57.963 49.259 L 58.148 49.074 L 58.148 48.704 L 58.148 48.333 L 58.148 47.963 L 58.148 47.593 L 58.148 47.222 L 58.148 46.852 L 58.148 46.481 L 58.148 46.111 L 58.148 45.741 L 58.148 45.370 L 58.148 45.000 L 58.148 44.630 L 58.148 44.259 L 58.148 43.889 L 58.148 43.519 L 58.148 43.148 L 58.148 42.778 L 58.148 42.407 L 58.148 42.037 L 58.148 41.667 L 58.148 41.296 L 58.148 40.926 L 58.148 40.556 L 58.148 40.185 L 58.148 39.815 L 58.148 39.444 L 58.148 39.074 L 58.148 38.704 L 58.148 38.333 L 58.148 37.963 L 58.148 37.593 L 58.148 37.222 L 58.148 36.852 L 57.963 36.667 L 57.778 36.481 L 57.778 36.111 L 57.593 35.926 L 57.407 35.741 L 57.222 35.556 L 56.852 35.556 L 56.667 35.370 L 56.481 35.185 L 56.111 35.185 L 55.741 35.185 L 55.370 35.185 L 55.000 35.185 L 54.630 35.185 L 54.259 35.185 L 53.889 35.185 L 53.519 35.185 L 53.148 35.185 L 52.778 35.185 L 52.407 35.185 L 52.037 35.185 L 51.667 35.185 L 51.296 35.185 L 50.926 35.185 L 50.556 35.185 L 50.185 35.185 L 49.815 35.185 L 49.444 35.185 L 49.074 35.185 L 48.704 35.185 L 48.333 35.185 L 47.963 35.185 L 47.593 35.185 L 47.222 35.185 L 46.852 35.185 L 46.481 35.185 L 46.111 35.185 L 45.741 35.185 L 45.370 35.185 L 45.000 35.185 L 44.630 35.185 L 44.259 35.185 Z M 45.741 35.926 L 46.111 35.926 L 46.481 35.926 L 46.852 35.926 L 47.222 35.926 L 47.593 35.926 L 47.963 35.926 L 48.333 35.926 L 48.704 35.926 L 49.074 35.926 L 49.444 35.926 L 49.815 35.926 L 50.185 35.926 L 50.556 35.926 L 50.926 35.926 L 51.296 35.926 L 51.667 35.926 L 52.037 35.926 L 52.407 35.926 L 52.778 35.926 L 53.148 35.926 L 53.519 35.926 L 53.889 35.926 L 54.259 35.926 L 54.630 35.926 L 55.000 35.926 L 55.370 35.926 L 55.556 36.111 L 55.741 36.296 L 56.111 36.296 L 56.296 36.481 L 56.481 36.667 L 56.667 36.852 L 56.852 37.037 L 57.037 37.222 L 57.037 37.593 L 57.037 37.963 L 57.037 38.333 L 57.037 38.704 L 57.037 39.074 L 57.037 39.444 L 57.037 39.815 L 57.037 40.185 L 57.037 40.556 L 57.037 40.926 L 57.037 41.296 L 57.037 41.667 L 57.037 42.037 L 57.037 42.407 L 57.037 42.778 L 57.037 43.148 L 57.037 43.519 L 57.037 43.889 L 57.037 44.259 L 57.037 44.630 L 57.037 45.000 L 57.037 45.370 L 57.037 45.741 L 57.037 46.111 L 57.037 46.481 L 57.037 46.852 L 57.037 47.222 L 57.037 47.593 L 57.037 47.963 L 57.037 48.333 L 57.037 48.704 L 56.852 48.889 L 56.667 49.074 L 56.481 49.259 L 56.296 49.444 L 56.111 49.630 L 55.741 49.630 L 55.370 49.630 L 55.000 49.630 L 54.630 49.630 L 54.259 49.630 L 53.889 49.630 L 53.519 49.630 L 53.148 49.630 L 52.778 49.630 L 52.407 49.630 L 52.037 49.630 L 51.667 49.630 L 51.296 49.630 L 50.926 49.630 L 50.556 49.630 L 50.185 49.630 L 49.815 49.630 L 49.444 49.630 L 49.074 49.630 L 48.704 49.630 L 48.333 49.630 L 47.963 49.630 L 47.593 49.630 L 47.222 49.630 L 46.852 49.630 L 46.481 49.630 L 46.111 49.630 L 45.741 49.630 L 45.370 49.630 L 45.000 49.630 L 44.630 49.630 L 44.444 49.444 L 44.259 49.259 L 44.074 49.074 L 43.889 48.889 L 43.704 48.704 L 43.704 48.333 L 43.704 47.963 L 43.704 47.593 L 43.704 47.222 L 43.704 46.852 L 43.704 46.481 L 43.704 46.111 L 43.704 45.741 L 43.704 45.370 L 43.704 45.000 L 43.704 44.630 L 43.704 44.259 L 43.704 43.889 L 43.704 43.519 L 43.704 43.148 L 43.704 42.778 L 43.704 42.407 L 43.704 42.037 L 43.704 41.667 L 43.704 41.296 L 43.704 40.926 L 43.704 40.556 L 43.704 40.185 L 43.704 39.815 L 43.704 39.444 L 43.704 39.074 L 43.704 38.704 L 43.704 38.333 L 43.704 37.963 L 43.704 37.593 L 43.704 37.222 L 43.889 37.037 L 44.074 36.852 L 44.259 36.667 L 44.444 36.481 L 44.630 36.296 L 45.000 36.296 L 45.370 36.296 L 45.556 36.111 L 45.741 35.926 Z M 49.815 37.407 L 49.630 37.593 L 49.444 37.778 L 49.259 37.963 L 49.259 38.333 L 49.074 38.519 L 48.889 38.704 L 48.889 39.074 L 48.889 39.444 L 48.704 39.630 L 48.519 39.815 L 48.519 40.185 L 48.333 40.370 L 48.148 40.556 L 48.148 40.926 L 48.148 41.296 L 47.963 41.481 L 47.778 41.667 L 47.778 42.037 L 47.593 42.222 L 47.407 42.407 L 47.407 42.778 L 47.407 43.148 L 47.222 43.333 L 47.037 43.519 L 47.037 43.889 L 46.852 44.074 L 46.667 44.259 L 46.667 44.630 L 46.667 45.000 L 46.481 45.185 L 46.296 45.370 L 46.296 45.741 L 46.111 45.926 L 45.926 46.111 L 45.926 46.481 L 45.741 46.667 L 45.556 46.852 L 45.556 47.222 L 45.741 47.407 L 46.111 47.407 L 46.481 47.407 L 46.852 47.407 L 47.222 47.407 L 47.593 47.407 L 47.963 47.407 L 48.148 47.222 L 48.148 46.852 L 48.148 46.481 L 48.333 46.296 L 48.519 46.111 L 48.519 45.741 L 48.704 45.556 L 48.889 45.370 L 49.074 45.185 L 49.444 45.185 L 49.815 45.185 L 50.185 45.185 L 50.556 45.185 L 50.926 45.185 L 51.296 45.185 L 51.667 45.185 L 52.037 45.185 L 52.222 45.370 L 52.222 45.741 L 52.407 45.926 L 52.593 46.111 L 52.593 46.481 L 52.778 46.667 L 52.963 46.852 L 52.963 47.222 L 53.148 47.407 L 53.519 47.407 L 53.889 47.407 L 54.259 47.407 L 54.630 47.407 L 55.000 47.407 L 55.185 47.222 L 55.185 46.852 L 55.185 46.481 L 55.000 46.296 L 54.815 46.111 L 54.815 45.741 L 54.630 45.556 L 54.444 45.370 L 54.444 45.000 L 54.444 44.630 L 54.259 44.444 L 54.074 44.259 L 54.074 43.889 L 54.074 43.519 L 53.889 43.333 L 53.704 43.148 L 53.704 42.778 L 53.519 42.593 L 53.333 42.407 L 53.333 42.037 L 53.148 41.852 L 52.963 41.667 L 52.963 41.296 L 52.778 41.111 L 52.593 40.926 L 52.593 40.556 L 52.593 40.185 L 52.407 40.000 L 52.222 39.815 L 52.222 39.444 L 52.222 39.074 L 52.037 38.889 L 51.852 38.704 L 51.852 38.333 L 51.667 38.148 L 51.481 37.963 L 51.481 37.593 L 51.296 37.407 L 50.926 37.407 L 50.556 37.407 L 50.185 37.407 L 49.815 37.407 Z M 96.852 37.778 L 97.037 37.963 L 97.037 38.333 L 97.037 38.704 L 96.852 38.889 L 96.667 38.704 L 96.667 38.333 L 96.667 37.963 L 96.852 37.778 Z M 14.630 38.519 L 14.444 38.704 L 14.259 38.889 L 14.074 39.074 L 14.074 39.444 L 14.074 39.815 L 14.074 40.185 L 14.074 40.556 L 14.074 40.926 L 14.074 41.296 L 14.074 41.667 L 14.074 42.037 L 14.074 42.407 L 14.259 42.593 L 14.630 42.593 L 15.000 42.593 L 15.370 42.593 L 15.741 42.593 L 16.111 42.593 L 16.481 42.593 L 16.852 42.593 L 17.037 42.407 L 17.222 42.222 L 17.407 42.037 L 17.593 41.852 L 17.778 41.667 L 17.963 41.481 L 18.148 41.296 L 18.148 40.926 L 18.148 40.556 L 18.148 40.185 L 18.148 39.815 L 17.963 39.630 L 17.778 39.444 L 17.593 39.259 L 17.407 39.074 L 17.222 38.889 L 16.852 38.889 L 16.481 38.889 L 16.296 38.704 L 16.111 38.519 L 15.741 38.519 L 15.370 38.519 L 15.000 38.519 L 14.630 38.519 Z M 96.481 38.889 L 96.667 39.074 L 96.481 39.259 L 96.296 39.074 L 96.481 38.889 Z M 95.741 39.259 L 96.111 39.259 L 96.296 39.444 L 96.111 39.630 L 95.741 39.630 L 95.556 39.444 L 95.741 39.259 Z M 50.556 40.741 L 50.741 40.926 L 50.741 41.296 L 50.926 41.481 L 51.111 41.667 L 51.111 42.037 L 51.111 42.407 L 51.296 42.593 L 51.481 42.778 L 51.481 43.148 L 51.296 43.333 L 50.926 43.333 L 50.556 43.333 L 50.185 43.333 L 49.815 43.333 L 49.630 43.148 L 49.630 42.778 L 49.630 42.407 L 49.815 42.222 L 50.000 42.037 L 50.000 41.667 L 50.000 41.296 L 50.185 41.111 L 50.370 40.926 L 50.556 40.741 Z M 62.778 41.852 L 63.148 41.852 L 63.519 41.852 L 63.889 41.852 L 64.259 41.852 L 64.630 41.852 L 65.000 41.852 L 65.370 41.852 L 65.741 41.852 L 66.111 41.852 L 66.481 41.852 L 66.852 41.852 L 67.222 41.852 L 67.593 41.852 L 67.963 41.852 L 68.333 41.852 L 68.704 41.852 L 69.074 41.852 L 69.259 42.037 L 69.444 42.222 L 69.815 42.222 L 70.185 42.222 L 70.370 42.407 L 70.556 42.593 L 70.741 42.778 L 70.926 42.963 L 71.111 43.148 L 71.296 43.333 L 71.481 43.519 L 71.481 43.889 L 71.667 44.074 L 71.852 44.259 L 71.852 44.630 L 71.852 45.000 L 71.852 45.370 L 71.852 45.741 L 71.852 46.111 L 71.852 46.481 L 71.852 46.852 L 71.667 47.037 L 71.481 47.222 L 71.481 47.593 L 71.296 47.778 L 71.111 47.963 L 70.926 48.148 L 70.556 48.148 L 70.370 48.333 L 70.370 48.704 L 70.556 48.889 L 70.926 48.889 L 71.111 49.074 L 71.296 49.259 L 71.667 49.259 L 71.852 49.444 L 72.037 49.630 L 72.222 49.815 L 72.407 50.000 L 72.593 50.185 L 72.593 50.556 L 72.778 50.741 L 72.963 50.926 L 72.963 51.296 L 72.963 51.667 L 72.963 52.037 L 72.963 52.407 L 72.963 52.778 L 72.963 53.148 L 72.963 53.519 L 72.963 53.889 L 72.963 54.259 L 72.778 54.444 L 72.593 54.630 L 72.593 55.000 L 72.407 55.185 L 72.222 55.370 L 72.037 55.556 L 71.852 55.741 L 71.667 55.926 L 71.296 55.926 L 71.111 56.111 L 70.926 56.296 L 70.556 56.296 L 70.370 56.481 L 70.185 56.667 L 69.815 56.667 L 69.444 56.667 L 69.074 56.667 L 68.704 56.667 L 68.333 56.667 L 67.963 56.667 L 67.593 56.667 L 67.222 56.667 L 66.852 56.667 L 66.481 56.667 L 66.111 56.667 L 65.741 56.667 L 65.370 56.667 L 65.000 56.667 L 64.630 56.667 L 64.259 56.667 L 63.889 56.667 L 63.519 56.667 L 63.148 56.667 L 62.778 56.667 L 62.593 56.481 L 62.593 56.111 L 62.593 55.741 L 62.593 55.370 L 62.593 55.000 L 62.593 54.630 L 62.593 54.259 L 62.593 53.889 L 62.593 53.519 L 62.593 53.148 L 62.593 52.778 L 62.593 52.407 L 62.593 52.037 L 62.593 51.667 L 62.593 51.296 L 62.593 50.926 L 62.593 50.556 L 62.593 50.185 L 62.593 49.815 L 62.593 49.444 L 62.593 49.074 L 62.593 48.704 L 62.593 48.333 L 62.593 47.963 L 62.593 47.593 L 62.593 47.222 L 62.593 46.852 L 62.593 46.481 L 62.593 46.111 L 62.593 45.741 L 62.593 45.370 L 62.593 45.000 L 62.593 44.630 L 62.593 44.259 L 62.593 43.889 L 62.593 43.519 L 62.593 43.148 L 62.593 42.778 L 62.593 42.407 L 62.593 42.037 L 62.778 41.852 Z M 75.000 41.852 L 75.370 41.852 L 75.741 41.852 L 76.111 41.852 L 76.481 41.852 L 76.852 41.852 L 77.222 41.852 L 77.593 41.852 L 77.963 41.852 L 78.148 42.037 L 78.148 42.407 L 78.148 42.778 L 78.148 43.148 L 78.148 43.519 L 78.148 43.889 L 78.148 44.259 L 78.148 44.630 L 78.148 45.000 L 78.148 45.370 L 78.148 45.741 L 78.148 46.111 L 78.148 46.481 L 78.148 46.852 L 78.148 47.222 L 78.148 47.593 L 78.148 47.963 L 78.148 48.333 L 78.148 48.704 L 78.148 49.074 L 78.148 49.444 L 78.148 49.815 L 78.148 50.185 L 78.148 50.556 L 78.148 50.926 L 78.148 51.296 L 78.148 51.667 L 78.148 52.037 L 78.148 52.407 L 78.148 52.778 L 78.148 53.148 L 78.148 53.519 L 78.148 53.889 L 78.148 54.259 L 78.148 54.630 L 78.148 55.000 L 78.148 55.370 L 78.148 55.741 L 78.148 56.111 L 78.148 56.481 L 77.963 56.667 L 77.593 56.667 L 77.222 56.667 L 76.852 56.667 L 76.481 56.667 L 76.111 56.667 L 75.741 56.667 L 75.370 56.667 L 75.000 56.667 L 74.815 56.481 L 74.815 56.111 L 74.815 55.741 L 74.815 55.370 L 74.815 55.000 L 74.815 54.630 L 74.815 54.259 L 74.815 53.889 L 74.815 53.519 L 74.815 53.148 L 74.815 52.778 L 74.815 52.407 L 74.815 52.037 L 74.815 51.667 L 74.815 51.296 L 74.815 50.926 L 74.815 50.556 L 74.815 50.185 L 74.815 49.815 L 74.815 49.444 L 74.815 49.074 L 74.815 48.704 L 74.815 48.333 L 74.815 47.963 L 74.815 47.593 L 74.815 47.222 L 74.815 46.852 L 74.815 46.481 L 74.815 46.111 L 74.815 45.741 L 74.815 45.370 L 74.815 45.000 L 74.815 44.630 L 74.815 44.259 L 74.815 43.889 L 74.815 43.519 L 74.815 43.148 L 74.815 42.778 L 74.815 42.407 L 74.815 42.037 L 75.000 41.852 Z M 79.815 41.852 L 80.185 41.852 L 80.556 41.852 L 80.926 41.852 L 81.296 41.852 L 81.667 41.852 L 82.037 41.852 L 82.407 41.852 L 82.778 41.852 L 83.148 41.852 L 83.519 41.852 L 83.889 41.852 L 84.259 41.852 L 84.630 41.852 L 85.000 41.852 L 85.370 41.852 L 85.741 41.852 L 86.111 41.852 L 86.481 41.852 L 86.852 41.852 L 87.222 41.852 L 87.593 41.852 L 87.963 41.852 L 88.333 41.852 L 88.704 41.852 L 89.074 41.852 L 89.444 41.852 L 89.815 41.852 L 90.185 41.852 L 90.556 41.852 L 90.926 41.852 L 91.296 41.852 L 91.481 42.037 L 91.481 42.407 L 91.481 42.778 L 91.481 43.148 L 91.481 43.519 L 91.481 43.889 L 91.481 44.259 L 91.481 44.630 L 91.296 44.815 L 90.926 44.815 L 90.556 44.815 L 90.185 44.815 L 89.815 44.815 L 89.444 44.815 L 89.074 44.815 L 88.704 44.815 L 88.333 44.815 L 87.963 44.815 L 87.593 44.815 L 87.222 44.815 L 87.037 45.000 L 87.037 45.370 L 87.037 45.741 L 87.037 46.111 L 87.037 46.481 L 87.037 46.852 L 87.037 47.222 L 87.037 47.593 L 87.037 47.963 L 87.037 48.333 L 87.037 48.704 L 87.037 49.074 L 87.037 49.444 L 87.037 49.815 L 87.037 50.185 L 87.037 50.556 L 87.037 50.926 L 87.037 51.296 L 87.037 51.667 L 87.037 52.037 L 87.037 52.407 L 87.037 52.778 L 87.037 53.148 L 87.037 53.519 L 87.037 53.889 L 87.037 54.259 L 87.037 54.630 L 87.037 55.000 L 87.037 55.370 L 87.037 55.741 L 87.037 56.111 L 87.037 56.481 L 86.852 56.667 L 86.481 56.667 L 86.111 56.667 L 85.741 56.667 L 85.370 56.667 L 85.000 56.667 L 84.630 56.667 L 84.259 56.667 L 83.889 56.667 L 83.704 56.481 L 83.704 56.111 L 83.704 55.741 L 83.704 55.370 L 83.704 55.000 L 83.704 54.630 L 83.704 54.259 L 83.704 53.889 L 83.704 53.519 L 83.704 53.148 L 83.704 52.778 L 83.704 52.407 L 83.704 52.037 L 83.704 51.667 L 83.704 51.296 L 83.704 50.926 L 83.704 50.556 L 83.704 50.185 L 83.704 49.815 L 83.704 49.444 L 83.704 49.074 L 83.704 48.704 L 83.704 48.333 L 83.704 47.963 L 83.704 47.593 L 83.704 47.222 L 83.704 46.852 L 83.704 46.481 L 83.704 46.111 L 83.704 45.741 L 83.704 45.370 L 83.704 45.000 L 83.519 44.815 L 83.148 44.815 L 82.778 44.815 L 82.407 44.815 L 82.037 44.815 L 81.667 44.815 L 81.296 44.815 L 80.926 44.815 L 80.556 44.815 L 80.185 44.815 L 79.815 44.815 L 79.630 44.630 L 79.630 44.259 L 79.630 43.889 L 79.630 43.519 L 79.630 43.148 L 79.630 42.778 L 79.630 42.407 L 79.630 42.037 L 79.815 41.852 Z M 66.111 44.074 L 65.926 44.259 L 65.926 44.630 L 65.926 45.000 L 65.926 45.370 L 65.926 45.741 L 65.926 46.111 L 65.926 46.481 L 65.926 46.852 L 65.926 47.222 L 65.926 47.593 L 66.111 47.778 L 66.481 47.778 L 66.852 47.778 L 67.222 47.778 L 67.593 47.778 L 67.963 47.778 L 68.148 47.593 L 68.333 47.407 L 68.519 47.222 L 68.519 46.852 L 68.704 46.667 L 68.889 46.481 L 68.889 46.111 L 68.889 45.741 L 68.889 45.370 L 68.704 45.185 L 68.519 45.000 L 68.333 44.815 L 68.148 44.630 L 67.963 44.444 L 67.778 44.259 L 67.593 44.074 L 67.222 44.074 L 66.852 44.074 L 66.481 44.074 L 66.111 44.074 Z M 49.444 47.778 L 49.259 47.963 L 49.259 48.333 L 49.444 48.519 L 49.630 48.704 L 49.444 48.889 L 49.259 49.074 L 49.444 49.259 L 49.815 49.259 L 50.185 49.259 L 50.370 49.074 L 50.185 48.889 L 50.000 48.704 L 50.000 48.333 L 50.000 47.963 L 49.815 47.778 L 49.444 47.778 Z M 50.926 47.778 L 50.741 47.963 L 50.741 48.333 L 50.741 48.704 L 50.741 49.074 L 50.926 49.259 L 51.296 49.259 L 51.481 49.074 L 51.667 48.889 L 51.852 48.704 L 51.852 48.333 L 51.667 48.148 L 51.481 47.963 L 51.296 47.778 L 50.926 47.778 Z M 51.296 48.148 L 51.481 48.333 L 51.481 48.704 L 51.296 48.889 L 51.111 48.704 L 51.111 48.333 L 51.296 48.148 Z M 4.259 48.519 L 4.630 48.519 L 5.000 48.519 L 5.370 48.519 L 5.556 48.704 L 5.370 48.889 L 5.000 48.889 L 4.630 48.889 L 4.259 48.889 L 4.074 48.704 L 4.259 48.519 Z M 8.333 50.370 L 8.519 50.556 L 8.333 50.741 L 8.148 50.556 L 8.333 50.370 Z M 66.111 50.370 L 65.926 50.556 L 65.926 50.926 L 65.926 51.296 L 65.926 51.667 L 65.926 52.037 L 65.926 52.407 L 65.926 52.778 L 65.926 53.148 L 65.926 53.519 L 65.926 53.889 L 66.111 54.074 L 66.481 54.074 L 66.852 54.074 L 67.222 54.074 L 67.593 54.074 L 67.963 54.074 L 68.333 54.074 L 68.704 54.074 L 69.074 54.074 L 69.259 53.889 L 69.444 53.704 L 69.630 53.519 L 69.630 53.148 L 69.815 52.963 L 70.000 52.778 L 70.000 52.407 L 70.000 52.037 L 69.815 51.852 L 69.630 51.667 L 69.630 51.296 L 69.444 51.111 L 69.259 50.926 L 69.074 50.741 L 68.704 50.741 L 68.519 50.556 L 68.333 50.370 L 67.963 50.370 L 67.593 50.370 L 67.222 50.370 L 66.852 50.370 L 66.481 50.370 L 66.111 50.370 Z M 7.963 50.741 L 8.148 50.926 L 8.148 51.296 L 8.148 51.667 L 7.963 51.852 L 7.778 51.667 L 7.778 51.296 L 7.778 50.926 L 7.963 50.741 Z M 8.333 51.852 L 8.519 52.037 L 8.333 52.222 L 8.148 52.037 L 8.333 51.852 Z M 8.704 52.222 L 9.074 52.222 L 9.259 52.407 L 9.074 52.593 L 8.704 52.593 L 8.519 52.407 L 8.704 52.222 Z M 2.037 54.444 L 2.222 54.630 L 2.037 54.815 L 1.852 54.630 L 2.037 54.444 Z M 1.296 54.815 L 1.667 54.815 L 1.852 55.000 L 1.667 55.185 L 1.296 55.185 L 1.111 55.000 L 1.296 54.815 Z M 2.407 54.815 L 2.778 54.815 L 2.963 55.000 L 2.778 55.185 L 2.407 55.185 L 2.222 55.000 L 2.407 54.815 Z M 0.926 55.185 L 1.111 55.370 L 1.111 55.741 L 1.111 56.111 L 0.926 56.296 L 0.741 56.111 L 0.741 55.741 L 0.741 55.370 L 0.926 55.185 Z M 1.296 56.296 L 1.481 56.481 L 1.296 56.667 L 1.111 56.481 L 1.296 56.296 Z M 2.407 56.296 L 2.778 56.296 L 2.963 56.481 L 2.778 56.667 L 2.593 56.852 L 2.407 57.037 L 2.037 57.037 L 1.667 57.037 L 1.481 56.852 L 1.667 56.667 L 2.037 56.667 L 2.222 56.481 L 2.407 56.296 Z M 5.741 58.148 L 6.111 58.148 L 6.296 58.333 L 6.111 58.519 L 5.926 58.704 L 5.926 59.074 L 5.926 59.444 L 5.741 59.630 L 5.556 59.444 L 5.556 59.074 L 5.556 58.704 L 5.556 58.333 L 5.741 58.148 Z M 6.111 59.630 L 6.481 59.630 L 6.852 59.630 L 7.222 59.630 L 7.407 59.815 L 7.222 60.000 L 6.852 60.000 L 6.481 60.000 L 6.111 60.000 L 5.926 59.815 L 6.111 59.630 Z M 81.296 59.630 L 81.667 59.630 L 82.037 59.630 L 82.407 59.630 L 82.778 59.630 L 83.148 59.630 L 83.519 59.630 L 83.889 59.630 L 84.259 59.630 L 84.630 59.630 L 85.000 59.630 L 85.370 59.630 L 85.556 59.815 L 85.556 60.185 L 85.741 60.370 L 85.926 60.556 L 86.111 60.741 L 86.481 60.741 L 86.667 60.926 L 86.852 61.111 L 87.037 61.296 L 87.222 61.481 L 87.593 61.481 L 87.778 61.667 L 87.963 61.852 L 88.148 62.037 L 88.148 62.407 L 88.148 62.778 L 87.963 62.963 L 87.778 63.148 L 87.778 63.519 L 87.778 63.889 L 87.593 64.074 L 87.407 64.259 L 87.407 64.630 L 87.222 64.815 L 87.037 65.000 L 87.037 65.370 L 87.037 65.741 L 86.852 65.926 L 86.667 66.111 L 86.667 66.481 L 86.481 66.667 L 86.296 66.852 L 86.296 67.222 L 86.111 67.407 L 85.926 67.593 L 85.741 67.778 L 85.370 67.778 L 85.000 67.778 L 84.630 67.778 L 84.444 67.593 L 84.259 67.407 L 83.889 67.407 L 83.519 67.407 L 83.148 67.407 L 82.778 67.407 L 82.407 67.407 L 82.222 67.222 L 82.037 67.037 L 81.667 67.037 L 81.296 67.037 L 81.111 67.222 L 80.926 67.407 L 80.741 67.593 L 80.741 67.963 L 80.556 68.148 L 80.370 68.333 L 80.185 68.519 L 80.000 68.704 L 79.815 68.889 L 79.630 69.074 L 79.444 69.259 L 79.259 69.444 L 79.074 69.630 L 78.889 69.815 L 78.704 70.000 L 78.519 70.185 L 78.333 70.370 L 78.148 70.556 L 78.148 70.926 L 78.148 71.296 L 78.333 71.481 L 78.519 71.667 L 78.519 72.037 L 78.704 72.222 L 78.889 72.407 L 79.074 72.593 L 79.259 72.778 L 79.259 73.148 L 79.444 73.333 L 79.630 73.519 L 79.815 73.704 L 80.000 73.889 L 80.000 74.259 L 79.815 74.444 L 79.630 74.630 L 79.444 74.815 L 79.259 75.000 L 79.074 75.185 L 78.889 75.370 L 78.704 75.556 L 78.519 75.741 L 78.333 75.926 L 78.148 76.111 L 77.963 76.296 L 77.778 76.481 L 77.593 76.667 L 77.407 76.852 L 77.222 77.037 L 77.037 77.222 L 76.852 77.407 L 76.667 77.593 L 76.481 77.778 L 76.296 77.963 L 76.111 78.148 L 75.926 78.333 L 75.741 78.519 L 75.370 78.519 L 75.185 78.333 L 75.000 78.148 L 74.815 77.963 L 74.630 77.778 L 74.259 77.778 L 74.074 77.593 L 73.889 77.407 L 73.704 77.222 L 73.519 77.037 L 73.148 77.037 L 72.963 76.852 L 72.778 76.667 L 72.407 76.667 L 72.222 76.481 L 72.037 76.296 L 71.852 76.111 L 71.667 75.926 L 71.481 76.111 L 71.296 76.296 L 71.111 76.481 L 70.926 76.667 L 70.556 76.667 L 70.370 76.852 L 70.185 77.037 L 69.815 77.037 L 69.630 77.222 L 69.444 77.407 L 69.259 77.593 L 69.074 77.778 L 68.704 77.778 L 68.519 77.963 L 68.333 78.148 L 67.963 78.148 L 67.778 78.333 L 67.593 78.519 L 67.222 78.519 L 67.037 78.704 L 67.037 79.074 L 67.037 79.444 L 67.037 79.815 L 67.222 80.000 L 67.407 80.185 L 67.407 80.556 L 67.407 80.926 L 67.407 81.296 L 67.407 81.667 L 67.407 82.037 L 67.407 82.407 L 67.407 82.778 L 67.222 82.963 L 67.037 83.148 L 66.852 83.333 L 66.481 83.333 L 66.111 83.333 L 65.926 83.519 L 65.741 83.704 L 65.370 83.704 L 65.185 83.889 L 65.000 84.074 L 64.630 84.074 L 64.444 84.259 L 64.259 84.444 L 63.889 84.444 L 63.519 84.444 L 63.333 84.630 L 63.148 84.815 L 62.778 84.815 L 62.593 85.000 L 62.407 85.185 L 62.037 85.185 L 61.852 85.000 L 61.667 84.815 L 61.481 84.630 L 61.296 84.444 L 61.111 84.259 L 61.111 83.889 L 60.926 83.704 L 60.741 83.519 L 60.556 83.333 L 60.370 83.148 L 60.370 82.778 L 60.185 82.593 L 60.000 82.407 L 59.815 82.222 L 59.630 82.037 L 59.444 81.852 L 59.259 81.667 L 59.074 81.481 L 58.704 81.481 L 58.519 81.667 L 58.333 81.852 L 57.963 81.852 L 57.593 81.852 L 57.222 81.852 L 57.037 82.037 L 56.852 82.222 L 56.481 82.222 L 56.111 82.222 L 55.741 82.222 L 55.370 82.222 L 55.000 82.222 L 54.630 82.222 L 54.259 82.222 L 54.074 82.407 L 53.889 82.593 L 53.704 82.778 L 53.704 83.148 L 53.704 83.519 L 53.704 83.889 L 53.704 84.259 L 53.519 84.444 L 53.333 84.630 L 53.333 85.000 L 53.333 85.370 L 53.333 85.741 L 53.148 85.926 L 52.963 86.111 L 52.963 86.481 L 52.963 86.852 L 52.778 87.037 L 52.407 87.037 L 52.037 87.037 L 51.667 87.037 L 51.296 87.037 L 50.926 87.037 L 50.556 87.037 L 50.185 87.037 L 49.815 87.037 L 49.444 87.037 L 49.074 87.037 L 48.704 87.037 L 48.333 87.037 L 47.963 87.037 L 47.593 87.037 L 47.222 87.037 L 46.852 87.037 L 46.667 86.852 L 46.667 86.481 L 46.667 86.111 L 46.667 85.741 L 46.481 85.556 L 46.296 85.370 L 46.296 85.000 L 46.296 84.630 L 46.296 84.259 L 46.296 83.889 L 46.111 83.704 L 45.926 83.519 L 45.926 83.148 L 45.926 82.778 L 45.741 82.593 L 45.370 82.593 L 45.185 82.407 L 45.000 82.222 L 44.630 82.222 L 44.259 82.222 L 43.889 82.222 L 43.519 82.222 L 43.148 82.222 L 42.778 82.222 L 42.407 82.222 L 42.222 82.037 L 42.037 81.852 L 41.667 81.852 L 41.296 81.852 L 40.926 81.852 L 40.741 81.667 L 40.556 81.481 L 40.185 81.481 L 39.815 81.481 L 39.630 81.667 L 39.444 81.852 L 39.259 82.037 L 39.259 82.407 L 39.074 82.593 L 38.889 82.778 L 38.704 82.963 L 38.519 83.148 L 38.519 83.519 L 38.333 83.704 L 38.148 83.889 L 37.963 84.074 L 37.778 84.259 L 37.778 84.630 L 37.593 84.815 L 37.407 85.000 L 37.222 85.185 L 37.037 85.370 L 36.852 85.556 L 36.667 85.370 L 36.481 85.185 L 36.111 85.185 L 35.926 85.000 L 35.741 84.815 L 35.370 84.815 L 35.000 84.815 L 34.815 84.630 L 34.630 84.444 L 34.259 84.444 L 34.074 84.259 L 33.889 84.074 L 33.519 84.074 L 33.148 84.074 L 32.963 83.889 L 32.778 83.704 L 32.407 83.704 L 32.222 83.519 L 32.037 83.333 L 31.667 83.333 L 31.481 83.148 L 31.481 82.778 L 31.481 82.407 L 31.481 82.037 L 31.481 81.667 L 31.481 81.296 L 31.667 81.111 L 31.852 80.926 L 31.852 80.556 L 31.852 80.185 L 31.852 79.815 L 31.852 79.444 L 31.852 79.074 L 31.852 78.704 L 31.667 78.519 L 31.481 78.333 L 31.296 78.148 L 30.926 78.148 L 30.741 77.963 L 30.556 77.778 L 30.185 77.778 L 30.000 77.593 L 29.815 77.407 L 29.444 77.407 L 29.259 77.222 L 29.074 77.037 L 28.889 76.852 L 28.704 76.667 L 28.333 76.667 L 28.148 76.481 L 27.963 76.296 L 27.593 76.296 L 27.222 76.296 L 27.037 76.481 L 26.852 76.667 L 26.481 76.667 L 26.296 76.852 L 26.111 77.037 L 25.926 77.222 L 25.741 77.407 L 25.370 77.407 L 25.185 77.593 L 25.000 77.778 L 24.630 77.778 L 24.444 77.963 L 24.259 78.148 L 24.074 78.333 L 23.889 78.519 L 23.519 78.519 L 23.333 78.333 L 23.148 78.148 L 22.963 77.963 L 22.778 77.778 L 22.593 77.593 L 22.407 77.407 L 22.222 77.222 L 22.037 77.037 L 21.852 76.852 L 21.667 76.667 L 21.481 76.481 L 21.296 76.296 L 21.111 76.111 L 20.926 75.926 L 20.741 75.741 L 20.556 75.556 L 20.370 75.370 L 20.185 75.185 L 20.000 75.000 L 19.815 74.815 L 19.630 74.630 L 19.444 74.444 L 19.259 74.259 L 19.444 74.074 L 19.630 73.889 L 19.630 73.519 L 19.815 73.333 L 20.000 73.148 L 20.000 72.778 L 20.185 72.593 L 20.370 72.407 L 20.556 72.222 L 20.741 72.037 L 20.741 71.667 L 20.926 71.481 L 21.111 71.296 L 21.111 70.926 L 20.926 70.741 L 20.741 70.556 L 20.556 70.370 L 20.370 70.185 L 20.370 69.815 L 20.185 69.630 L 20.000 69.444 L 19.815 69.259 L 19.630 69.074 L 19.444 68.889 L 19.259 68.704 L 19.074 68.519 L 18.889 68.333 L 18.704 68.148 L 18.519 67.963 L 18.519 67.593 L 18.704 67.407 L 18.889 67.222 L 19.074 67.037 L 19.259 66.852 L 19.444 66.667 L 19.630 66.481 L 19.815 66.296 L 20.000 66.111 L 20.185 65.926 L 20.370 65.741 L 20.556 65.556 L 20.741 65.370 L 20.926 65.185 L 21.111 65.000 L 21.296 64.815 L 21.481 65.000 L 21.667 65.185 L 21.852 65.370 L 22.037 65.556 L 22.222 65.741 L 22.407 65.926 L 22.593 66.111 L 22.778 66.296 L 22.963 66.481 L 23.148 66.667 L 23.333 66.852 L 23.333 67.222 L 23.519 67.407 L 23.704 67.593 L 23.889 67.778 L 24.074 67.963 L 24.259 68.148 L 24.630 68.148 L 24.815 68.333 L 24.815 68.704 L 25.000 68.889 L 25.185 69.074 L 25.370 69.259 L 25.741 69.259 L 25.926 69.444 L 26.111 69.630 L 26.296 69.815 L 26.481 70.000 L 26.667 70.185 L 26.852 70.370 L 27.037 70.556 L 27.222 70.741 L 27.407 70.926 L 27.593 71.111 L 27.963 71.111 L 28.148 71.296 L 28.333 71.481 L 28.519 71.667 L 28.704 71.852 L 29.074 71.852 L 29.259 72.037 L 29.444 72.222 L 29.630 72.407 L 29.815 72.593 L 30.185 72.593 L 30.370 72.778 L 30.556 72.963 L 30.741 73.148 L 30.926 73.333 L 31.296 73.333 L 31.481 73.519 L 31.667 73.704 L 32.037 73.704 L 32.222 73.889 L 32.407 74.074 L 32.778 74.074 L 32.963 74.259 L 33.148 74.444 L 33.333 74.630 L 33.519 74.815 L 33.889 74.815 L 34.074 75.000 L 34.259 75.185 L 34.630 75.185 L 34.815 75.370 L 35.000 75.556 L 35.370 75.556 L 35.741 75.556 L 35.926 75.741 L 36.111 75.926 L 36.481 75.926 L 36.667 76.111 L 36.852 76.296 L 37.222 76.296 L 37.593 76.296 L 37.963 76.296 L 38.148 76.481 L 38.333 76.667 L 38.704 76.667 L 38.889 76.852 L 39.074 77.037 L 39.444 77.037 L 39.815 77.037 L 40.185 77.037 L 40.370 77.222 L 40.556 77.407 L 40.926 77.407 L 41.296 77.407 L 41.481 77.593 L 41.667 77.778 L 42.037 77.778 L 42.407 77.778 L 42.778 77.778 L 43.148 77.778 L 43.519 77.778 L 43.889 77.778 L 44.074 77.963 L 44.259 78.148 L 44.630 78.148 L 45.000 78.148 L 45.370 78.148 L 45.741 78.148 L 46.111 78.148 L 46.296 78.333 L 46.481 78.519 L 46.852 78.519 L 47.222 78.519 L 47.593 78.519 L 47.963 78.519 L 48.333 78.519 L 48.704 78.519 L 49.074 78.519 L 49.444 78.519 L 49.815 78.519 L 50.185 78.519 L 50.556 78.519 L 50.926 78.519 L 51.296 78.519 L 51.667 78.519 L 52.037 78.519 L 52.222 78.333 L 52.407 78.148 L 52.778 78.148 L 53.148 78.148 L 53.519 78.148 L 53.889 78.148 L 54.259 78.148 L 54.630 78.148 L 55.000 78.148 L 55.185 77.963 L 55.370 77.778 L 55.741 77.778 L 56.111 77.778 L 56.481 77.778 L 56.852 77.778 L 57.222 77.778 L 57.593 77.778 L 57.778 77.593 L 57.963 77.407 L 58.333 77.407 L 58.704 77.407 L 58.889 77.222 L 59.074 77.037 L 59.444 77.037 L 59.815 77.037 L 60.185 77.037 L 60.370 76.852 L 60.556 76.667 L 60.926 76.667 L 61.111 76.481 L 61.296 76.296 L 61.667 76.296 L 62.037 76.296 L 62.407 76.296 L 62.593 76.111 L 62.778 75.926 L 63.148 75.926 L 63.333 75.741 L 63.519 75.556 L 63.889 75.556 L 64.259 75.556 L 64.444 75.370 L 64.630 75.185 L 64.815 75.000 L 65.000 74.815 L 65.370 74.815 L 65.741 74.815 L 65.926 74.630 L 66.111 74.444 L 66.296 74.259 L 66.481 74.074 L 66.852 74.074 L 67.037 73.889 L 67.222 73.704 L 67.593 73.704 L 67.778 73.519 L 67.963 73.333 L 68.333 73.333 L 68.519 73.148 L 68.704 72.963 L 68.889 72.778 L 69.074 72.593 L 69.444 72.593 L 69.630 72.407 L 69.815 72.222 L 70.000 72.037 L 70.185 71.852 L 70.556 71.852 L 70.741 71.667 L 70.926 71.481 L 71.111 71.296 L 71.296 71.111 L 71.481 70.926 L 71.667 70.741 L 72.037 70.741 L 72.222 70.556 L 72.407 70.370 L 72.593 70.185 L 72.778 70.000 L 72.963 69.815 L 73.148 69.630 L 73.333 69.444 L 73.519 69.259 L 73.704 69.074 L 73.889 68.889 L 74.074 68.704 L 74.259 68.519 L 74.444 68.333 L 74.630 68.148 L 74.815 67.963 L 75.000 67.778 L 75.185 67.593 L 75.370 67.407 L 75.556 67.222 L 75.741 67.037 L 75.926 66.852 L 76.111 66.667 L 76.296 66.481 L 76.481 66.296 L 76.667 66.111 L 76.852 65.926 L 77.037 65.741 L 77.222 65.556 L 77.407 65.370 L 77.593 65.185 L 77.778 65.000 L 77.778 64.630 L 77.963 64.444 L 78.148 64.259 L 78.333 64.074 L 78.519 63.889 L 78.704 63.704 L 78.889 63.519 L 78.889 63.148 L 79.074 62.963 L 79.259 62.778 L 79.444 62.593 L 79.630 62.407 L 79.630 62.037 L 79.815 61.852 L 80.000 61.667 L 80.185 61.481 L 80.370 61.296 L 80.370 60.926 L 80.556 60.741 L 80.741 60.556 L 80.741 60.185 L 80.926 60.000 L 81.111 59.815 L 81.296 59.630 Z M 49.444 61.852 L 49.630 62.037 L 49.444 62.222 L 49.259 62.037 L 49.444 61.852 Z M 50.926 61.852 L 51.111 62.037 L 50.926 62.222 L 50.741 62.037 L 50.926 61.852 Z M 49.074 62.222 L 49.259 62.407 L 49.259 62.778 L 49.074 62.963 L 48.889 62.778 L 48.889 62.407 L 49.074 62.222 Z M 51.296 62.222 L 51.481 62.407 L 51.481 62.778 L 51.481 63.148 L 51.296 63.333 L 51.111 63.519 L 50.926 63.704 L 50.556 63.704 L 50.370 63.519 L 50.556 63.333 L 50.741 63.148 L 50.926 62.963 L 51.111 62.778 L 51.111 62.407 L 51.296 62.222 Z M 49.444 62.963 L 49.630 63.148 L 49.815 63.333 L 50.000 63.519 L 49.815 63.704 L 49.444 63.704 L 49.259 63.519 L 49.259 63.148 L 49.444 62.963 Z M 0.185 63.333 L 0.370 63.519 L 0.185 63.704 L 0.000 63.519 L 0.185 63.333 Z M 50.185 63.704 L 50.370 63.889 L 50.185 64.074 L 50.000 63.889 L 50.185 63.704 Z M 42.037 65.556 L 42.222 65.741 L 42.222 66.111 L 42.222 66.481 L 42.037 66.667 L 41.852 66.481 L 41.852 66.111 L 41.852 65.741 L 42.037 65.556 Z M 42.407 66.667 L 42.593 66.852 L 42.407 67.037 L 42.222 66.852 L 42.407 66.667 Z M 42.778 67.037 L 43.148 67.037 L 43.519 67.037 L 43.704 67.222 L 43.519 67.407 L 43.148 67.407 L 42.778 67.407 L 42.593 67.222 L 42.778 67.037 Z M 55.000 70.370 L 55.185 70.556 L 55.185 70.926 L 55.185 71.296 L 55.370 71.481 L 55.556 71.667 L 55.370 71.852 L 55.000 71.852 L 54.815 71.667 L 54.815 71.296 L 54.815 70.926 L 54.815 70.556 L 55.000 70.370 Z M 55.741 71.852 L 56.111 71.852 L 56.296 72.037 L 56.111 72.222 L 55.741 72.222 L 55.556 72.037 L 55.741 71.852 Z" />
  </g>
</svg>
