<?xml version="1.0" encoding="UTF-8" standalone="no"?>
<svg width="100.0mm" height="81.2mm" viewBox="0 0 100.000 81.164"
     xmlns="http://www.w3.org/2000/svg" version="1.1">
  <g fill="black" fill-rule="evenodd" stroke="none">
    <path d="M 44.349 0.000 L 44.692 0.000 L 45.034 0.000 L 45.377 0.000 L 45.719 0.000 L 46.062 0.000 L 46.404 0.000 L 46.747 0.000 L 47.089 0.000 L 47.432 0.000 L 47.774 0.000 L 48.116 0.000 L 48.459 0.000 L 48.801 0.000 L 49.144 0.000 L 49.486 0.000 L 49.829 0.000 L 50.000 0.171 L 50.171 0.342 L 50.342 0.514 L 50.342 0.856 L 50.342 1.199 L 50.514 1.370 L 50.685 1.541 L 50.685 1.884 L 50.685 2.226 L 50.685 2.568 L 50.685 2.911 L 50.685 3.253 L 50.856 3.425 L 51.027 3.596 L 51.027 3.938 L 51.199 4.110 L 51.541 4.110 L 51.884 4.110 L 52.226 4.110 L 52.568 4.110 L 52.911 4.110 L 53.253 4.110 L 53.425 4.281 L 53.596 4.452 L 53.938 4.452 L 54.281 4.452 L 54.623 4.452 L 54.966 4.452 L 55.308 4.452 L 55.479 4.623 L 55.651 4.795 L 55.993 4.795 L 56.336 4.795 L 56.678 4.795 L 56.849 4.623 L 56.849 4.281 L 57.021 4.110 L 57.192 3.938 L 57.363 3.767 L 57.534 3.596 L 57.705 3.425 L 57.877 3.253 L 57.877 2.911 L 58.048 2.740 L 58.219 2.568 L 58.390 2.397 L 58.562 2.226 L 58.562 1.884 L 58.733 1.712 L 58.904 1.541 L 59.075 1.370 L 59.418 1.370 L 59.760 1.370 L 60.103 1.370 L 60.274 1.541 L 60.445 1.712 L 60.788 1.712 L 60.959 1.884 L 61.130 2.055 L 61.473 2.055 L 61.644 2.226 L 61.815 2.397 L 62.158 2.397 L 62.500 2.397 L 62.671 2.568 L 62.842 2.740 L 63.185 2.740 L 63.356 2.911 L 63.527 3.082 L 63.870 3.082 L 64.041 3.253 L 64.212 3.425 L 64.384 3.596 L 64.384 3.938 L 64.384 4.281 L 64.384 4.623 L 64.212 4.795 L 64.041 4.966 L 64.041 5.308 L 64.041 5.651 L 64.041 5.993 L 64.041 6.336 L 64.041 6.678 L 63.870 6.849 L 63.699 7.021 L 63.699 7.363 L 63.870 7.534 L 64.041 7.705 L 64.212 7.877 L 64.555 7.877 L 64.726 8.048 L 64.897 8.219 L 65.240 8.219 L 65.411 8.390 L 65.582 8.562 L 65.925 8.562 L 66.096 8.733 L 66.267 8.904 L 66.610 8.904 L 66.781 9.075 L 66.952 9.247 L 67.123 9.418 L 67.295 9.589 L 67.637 9.589 L 67.808 9.760 L 67.979 9.932 L 68.151 9.760 L 68.322 9.589 L 68.493 9.418 L 68.664 9.247 L 69.007 9.247 L 69.178 9.075 L 69.349 8.904 L 69.521 8.733 L 69.692 8.562 L 70.034 8.562 L 70.205 8.390 L 70.377 8.219 L 70.548 8.048 L 70.719 7.877 L 71.062 7.877 L 71.233 7.705 L 71.404 7.534 L 71.575 7.705 L 71.747 7.877 L 71.918 8.048 L 72.089 8.219 L 72.260 8.390 L 72.432 8.562 L 72.603 8.733 L 72.774 8.904 L 72.945 9.075 L 73.116 9.247 L 73.288 9.418 L 73.459 9.589 L 73.630 9.760 L 73.801 9.932 L 74.144 9.932 L 74.315 10.103 L 74.315 10.445 L 74.486 10.616 L 74.658 10.788 L 74.829 10.959 L 75.000 11.130 L 75.171 11.301 L 75.342 11.473 L 75.342 11.815 L 75.342 12.158 L 75.171 12.329 L 75.000 12.500 L 74.829 12.671 L 74.658 12.842 L 74.658 13.185 L 74.486 13.356 L 74.315 13.527 L 74.315 13.870 L 74.144 14.041 L 73.973 14.212 L 73.801 14.384 L 73.630 14.555 L 73.801 14.726 L 73.973 14.897 L 74.144 15.068 L 74.315 15.240 L 74.486 15.411 L 74.658 15.582 L 74.829 15.753 L 75.000 15.925 L 75.171 16.096 L 75.342 16.267 L 75.514 16.438 L 75.685 16.610 L 75.685 16.952 L 75.856 17.123 L 76.027 17.295 L 76.199 17.466 L 76.370 17.637 L 76.199 17.808 L 76.027 17.979 L 75.856 18.151 L 75.685 18.322 L 75.514 18.493 L 75.342 18.664 L 75.171 18.836 L 75.000 19.007 L 74.829 19.178 L 74.658 19.349 L 74.486 19.521 L 74.315 19.692 L 74.144 19.863 L 73.973 20.034 L 73.801 20.205 L 73.459 20.205 L 73.288 20.034 L 73.288 19.692 L 73.116 19.521 L 72.945 19.349 L 72.774 19.178 L 72.432 19.178 L 72.260 19.007 L 72.260 18.664 L 72.089 18.493 L 71.918 18.322 L 71.747 18.151 L 71.575 17.979 L 71.404 17.808 L 71.233 17.637 L 71.062 17.466 L 70.890 17.295 L 70.719 17.123 L 70.548 16.952 L 70.377 16.781 L 70.205 16.610 L 70.034 16.438 L 69.692 16.438 L 69.521 16.267 L 69.521 15.925 L 69.349 15.753 L 69.007 15.753 L 68.836 15.582 L 68.836 15.240 L 68.664 15.068 L 68.322 15.068 L 68.151 14.897 L 67.979 14.726 L 67.808 14.555 L 67.637 14.384 L 67.295 14.384 L 67.123 14.212 L 66.952 14.041 L 66.781 13.870 L 66.610 13.699 L 66.438 13.527 L 66.267 13.356 L 65.925 13.356 L 65.753 13.185 L 65.582 13.014 L 65.411 12.842 L 65.240 12.671 L 64.897 12.671 L 64.726 12.500 L 64.555 12.329 L 64.212 12.329 L 64.041 12.158 L 63.870 11.986 L 63.699 11.815 L 63.527 11.644 L 63.185 11.644 L 63.014 11.473 L 62.842 11.301 L 62.500 11.301 L 62.329 11.130 L 62.158 10.959 L 61.815 10.959 L 61.644 10.788 L 61.473 10.616 L 61.130 10.616 L 60.788 10.616 L 60.616 10.445 L 60.445 10.274 L 60.103 10.274 L 59.932 10.103 L 59.760 9.932 L 59.418 9.932 L 59.247 9.760 L 59.075 9.589 L 58.733 9.589 L 58.390 9.589 L 58.219 9.418 L 58.048 9.247 L 57.705 9.247 L 57.363 9.247 L 57.021 9.247 L 56.849 9.075 L 56.678 8.904 L 56.336 8.904 L 55.993 8.904 L 55.822 8.733 L 55.651 8.562 L 55.308 8.562 L 54.966 8.562 L 54.623 8.562 L 54.452 8.390 L 54.281 8.219 L 53.938 8.219 L 53.596 8.219 L 53.253 8.219 L 52.911 8.219 L 52.568 8.219 L 52.397 8.048 L 52.226 7.877 L 51.884 7.877 L 51.541 7.877 L 51.199 7.877 L 50.856 7.877 L 50.514 7.877 L 50.342 7.705 L 50.171 7.534 L 49.829 7.534 L 49.486 7.534 L 49.144 7.534 L 48.801 7.534 L 48.459 7.534 L 48.116 7.534 L 47.774 7.534 L 47.432 7.534 L 47.089 7.534 L 46.747 7.534 L 46.404 7.534 L 46.062 7.534 L 45.719 7.534 L 45.377 7.534 L 45.205 7.705 L 45.034 7.877 L 44.692 7.877 L 44.349 7.877 L 44.007 7.877 L 43.664 7.877 L 43.322 7.877 L 42.979 7.877 L 42.637 7.877 L 42.466 8.048 L 42.295 8.219 L 41.952 8.219 L 41.610 8.219 L 41.267 8.219 L 40.925 8.219 L 40.582 8.219 L 40.411 8.390 L 40.240 8.562 L 39.897 8.562 L 39.555 8.562 L 39.212 8.562 L 39.041 8.733 L 38.870 8.904 L 38.527 8.904 L 38.185 8.904 L 38.014 9.075 L 37.842 9.247 L 37.500 9.247 L 37.158 9.247 L 36.815 9.247 L 36.644 9.418 L 36.473 9.589 L 36.130 9.589 L 35.959 9.760 L 35.788 9.932 L 35.445 9.932 L 35.103 9.932 L 34.932 10.103 L 34.760 10.274 L 34.418 10.274 L 34.247 10.445 L 34.075 10.616 L 33.733 10.616 L 33.390 10.616 L 33.219 10.788 L 33.048 10.959 L 32.705 10.959 L 32.534 11.130 L 32.363 11.301 L 32.192 11.473 L 32.021 11.644 L 31.678 11.644 L 31.507 11.815 L 31.336 11.986 L 30.993 11.986 L 30.822 12.158 L 30.651 12.329 L 30.308 12.329 L 30.137 12.500 L 29.966 12.671 L 29.795 12.842 L 29.623 13.014 L 29.281 13.014 L 29.110 13.185 L 28.938 13.356 L 28.767 13.527 L 28.596 13.699 L 28.253 13.699 L 28.082 13.870 L 27.911 14.041 L 27.740 14.212 L 27.568 14.384 L 27.226 14.384 L 27.055 14.555 L 26.884 14.726 L 26.712 14.897 L 26.541 15.068 L 26.370 15.240 L 26.199 15.411 L 26.027 15.582 L 25.856 15.753 L 25.685 15.925 L 25.514 16.096 L 25.342 16.267 L 25.171 16.438 L 24.829 16.438 L 24.658 16.610 L 24.658 16.952 L 24.486 17.123 L 24.144 17.123 L 23.973 17.295 L 23.801 17.466 L 23.630 17.637 L 23.630 17.979 L 23.459 18.151 L 23.288 18.322 L 23.116 18.493 L 22.945 18.664 L 22.774 18.836 L 22.603 19.007 L 22.432 19.178 L 22.260 19.349 L 22.089 19.521 L 21.918 19.692 L 21.918 20.034 L 21.747 20.205 L 21.404 20.205 L 21.233 20.377 L 21.233 20.719 L 21.062 20.890 L 20.890 21.062 L 20.719 21.233 L 20.548 21.404 L 20.548 21.747 L 20.377 21.918 L 20.205 22.089 L 20.034 22.260 L 19.863 22.432 L 19.863 22.774 L 19.692 22.945 L 19.521 23.116 L 19.349 23.288 L 19.178 23.459 L 19.178 23.801 L 19.007 23.973 L 18.836 24.144 L 18.664 24.315 L 18.493 24.486 L 18.493 24.829 L 18.322 25.000 L 18.151 25.171 L 17.979 25.342 L 17.637 25.342 L 17.295 25.342 L 16.952 25.342 L 16.610 25.342 L 16.267 25.342 L 15.925 25.342 L 15.582 25.342 L 15.240 25.342 L 14.897 25.342 L 14.555 25.342 L 14.212 25.342 L 14.041 25.171 L 14.041 24.829 L 14.041 24.486 L 13.870 24.315 L 13.699 24.144 L 13.527 23.973 L 13.185 23.973 L 13.014 23.801 L 12.842 23.630 L 12.671 23.459 L 12.500 23.288 L 12.329 23.116 L 12.158 22.945 L 11.815 22.945 L 11.644 22.774 L 11.815 22.603 L 11.986 22.432 L 11.986 22.089 L 11.986 21.747 L 12.158 21.575 L 12.329 21.404 L 12.329 21.062 L 12.500 20.890 L 12.671 20.719 L 12.671 20.377 L 12.671 20.034 L 12.842 19.863 L 13.014 19.692 L 13.014 19.349 L 13.185 19.178 L 13.356 19.007 L 13.356 18.664 L 13.356 18.322 L 13.527 18.151 L 13.699 17.979 L 13.699 17.637 L 13.870 17.466 L 14.212 17.466 L 14.555 17.466 L 14.897 17.466 L 15.068 17.637 L 15.240 17.808 L 15.582 17.808 L 15.925 17.808 L 16.267 17.808 L 16.610 17.808 L 16.781 17.979 L 16.952 18.151 L 17.295 18.151 L 17.637 18.151 L 17.979 18.151 L 18.322 18.151 L 18.493 17.979 L 18.493 17.637 L 18.664 17.466 L 18.836 17.295 L 19.007 17.123 L 19.178 16.952 L 19.349 16.781 L 19.521 16.610 L 19.692 16.438 L 19.863 16.267 L 20.034 16.096 L 20.205 15.925 L 20.205 15.582 L 20.377 15.411 L 20.548 15.240 L 20.719 15.068 L 20.890 14.897 L 21.062 14.726 L 21.233 14.555 L 21.062 14.384 L 20.890 14.212 L 20.890 13.870 L 20.719 13.699 L 20.548 13.527 L 20.377 13.356 L 20.205 13.185 L 20.205 12.842 L 20.034 12.671 L 19.863 12.500 L 19.692 12.329 L 19.521 12.158 L 19.521 11.815 L 19.521 11.473 L 19.692 11.301 L 19.863 11.130 L 20.034 10.959 L 20.205 10.788 L 20.377 10.616 L 20.548 10.445 L 20.719 10.274 L 20.890 10.103 L 21.062 9.932 L 21.233 9.760 L 21.404 9.589 L 21.575 9.418 L 21.747 9.247 L 21.918 9.075 L 22.089 8.904 L 22.260 8.733 L 22.432 8.562 L 22.603 8.390 L 22.774 8.219 L 22.945 8.048 L 23.116 7.877 L 23.288 7.705 L 23.459 7.534 L 23.630 7.705 L 23.801 7.877 L 23.973 8.048 L 24.144 8.219 L 24.486 8.219 L 24.658 8.390 L 24.829 8.562 L 25.000 8.733 L 25.171 8.904 L 25.514 8.904 L 25.685 9.075 L 25.856 9.247 L 26.199 9.247 L 26.370 9.418 L 26.541 9.589 L 26.712 9.760 L 26.884 9.932 L 27.226 9.932 L 27.397 9.760 L 27.568 9.589 L 27.740 9.418 L 27.911 9.247 L 28.253 9.247 L 28.425 9.075 L 28.596 8.904 L 28.938 8.904 L 29.110 8.733 L 29.281 8.562 L 29.623 8.562 L 29.795 8.390 L 29.966 8.219 L 30.137 8.048 L 30.308 7.877 L 30.651 7.877 L 30.822 7.705 L 30.993 7.534 L 31.336 7.534 L 31.507 7.363 L 31.336 7.192 L 31.164 7.021 L 31.164 6.678 L 31.164 6.336 L 31.164 5.993 L 31.164 5.651 L 31.164 5.308 L 31.164 4.966 L 31.164 4.623 L 30.993 4.452 L 30.822 4.281 L 30.822 3.938 L 30.822 3.596 L 30.993 3.425 L 31.336 3.425 L 31.507 3.253 L 31.678 3.082 L 32.021 3.082 L 32.363 3.082 L 32.534 2.911 L 32.705 2.740 L 33.048 2.740 L 33.219 2.568 L 33.390 2.397 L 33.733 2.397 L 33.904 2.226 L 34.075 2.055 L 34.418 2.055 L 34.760 2.055 L 34.932 1.884 L 35.103 1.712 L 35.445 1.712 L 35.616 1.541 L 35.788 1.370 L 36.130 1.370 L 36.301 1.541 L 36.301 1.884 L 36.473 2.055 L 36.644 2.226 L 36.815 2.397 L 36.986 2.568 L 36.986 2.911 L 37.158 3.082 L 37.329 3.253 L 37.500 3.425 L 37.671 3.596 L 37.671 3.938 L 37.842 4.110 L 38.014 4.281 L 38.185 4.452 L 38.356 4.623 L 38.527 4.795 L 38.870 4.795 L 39.212 4.795 L 39.384 4.623 L 39.555 4.452 L 39.897 4.452 L 40.240 4.452 L 40.582 4.452 L 40.925 4.452 L 41.267 4.452 L 41.610 4.452 L 41.781 4.281 L 41.952 4.110 L 42.295 4.110 L 42.637 4.110 L 42.979 4.110 L 43.322 4.110 L 43.493 3.938 L 43.493 3.596 L 43.493 3.253 L 43.664 3.082 L 43.836 2.911 L 43.836 2.568 L 43.836 2.226 L 43.836 1.884 L 43.836 1.541 L 44.007 1.370 L 44.178 1.199 L 44.178 0.856 L 44.178 0.514 L 44.178 0.171 L 44.349 0.000 Z M 41.952 13.014 L 42.295 13.014 L 42.637 13.014 L 42.979 13.014 L 43.151 13.185 L 43.322 13.356 L 43.493 13.527 L 43.493 13.870 L 43.493 14.212 L 43.493 14.555 L 43.322 14.726 L 43.151 14.555 L 43.151 14.212 L 43.151 13.870 L 42.979 13.699 L 42.808 13.527 L 42.637 13.356 L 42.295 13.356 L 42.123 13.527 L 41.952 13.699 L 41.781 13.870 L 41.781 14.212 L 41.781 14.555 L 41.610 14.726 L 41.438 14.555 L 41.438 14.212 L 41.438 13.870 L 41.438 13.527 L 41.610 13.356 L 41.781 13.185 L 41.952 13.014 Z M 41.952 14.726 L 42.295 14.726 L 42.637 14.726 L 42.979 14.726 L 43.151 14.897 L 42.979 15.068 L 42.808 15.240 L 42.808 15.582 L 42.808 15.925 L 42.808 16.267 L 42.808 16.610 L 42.808 16.952 L 42.808 17.295 L 42.808 17.637 L 42.808 17.979 L 42.808 18.322 L 42.808 18.664 L 42.808 19.007 L 42.808 19.349 L 42.808 19.692 L 42.808 20.034 L 42.979 20.205 L 43.151 20.377 L 43.322 20.548 L 43.493 20.719 L 43.664 20.890 L 43.836 21.062 L 44.007 21.233 L 44.178 21.404 L 44.349 21.575 L 44.521 21.747 L 44.692 21.918 L 44.863 22.089 L 44.863 22.432 L 44.863 22.774 L 44.863 23.116 L 44.863 23.459 L 44.863 23.801 L 44.863 24.144 L 44.863 24.486 L 44.863 24.829 L 44.863 25.171 L 44.863 25.514 L 44.863 25.856 L 44.863 26.199 L 44.863 26.541 L 44.863 26.884 L 44.863 27.226 L 44.863 27.568 L 44.863 27.911 L 44.863 28.253 L 44.863 28.596 L 44.863 28.938 L 44.863 29.281 L 44.863 29.623 L 44.863 29.966 L 44.863 30.308 L 44.863 30.651 L 44.863 30.993 L 44.863 31.336 L 45.034 31.507 L 45.377 31.507 L 45.719 31.507 L 46.062 31.507 L 46.404 31.507 L 46.747 31.507 L 47.089 31.507 L 47.260 31.336 L 47.260 30.993 L 47.260 30.651 L 47.260 30.308 L 47.260 29.966 L 47.260 29.623 L 47.260 29.281 L 47.260 28.938 L 47.260 28.596 L 47.260 28.253 L 47.260 27.911 L 47.260 27.568 L 47.260 27.226 L 47.260 26.884 L 47.260 26.541 L 47.260 26.199 L 47.260 25.856 L 47.260 25.514 L 47.260 25.171 L 47.260 24.829 L 47.260 24.486 L 47.260 24.144 L 47.260 23.801 L 47.260 23.459 L 47.260 23.116 L 47.260 22.774 L 47.432 22.603 L 47.774 22.603 L 48.116 22.603 L 48.288 22.774 L 48.116 22.945 L 47.945 23.116 L 47.945 23.459 L 47.945 23.801 L 47.945 24.144 L 47.945 24.486 L 47.945 24.829 L 47.945 25.171 L 47.945 25.514 L 47.945 25.856 L 47.945 26.199 L 47.945 26.541 L 47.945 26.884 L 47.945 27.226 L 47.945 27.568 L 47.945 27.911 L 47.945 28.253 L 47.945 28.596 L 47.945 28.938 L 47.945 29.281 L 47.945 29.623 L 47.945 29.966 L 47.945 30.308 L 47.945 30.651 L 47.945 30.993 L 47.945 31.336 L 48.116 31.507 L 48.459 31.507 L 48.801 31.507 L 49.144 31.507 L 49.486 31.507 L 49.829 31.507 L 50.171 31.507 L 50.514 31.507 L 50.685 31.336 L 50.685 30.993 L 50.685 30.651 L 50.685 30.308 L 50.685 29.966 L 50.685 29.623 L 50.685 29.281 L 50.685 28.938 L 50.685 28.596 L 50.685 28.253 L 50.685 27.911 L 50.685 27.568 L 50.685 27.226 L 50.685 26.884 L 50.685 26.541 L 50.685 26.199 L 50.685 25.856 L 50.685 25.514 L 50.685 25.171 L 50.685 24.829 L 50.685 24.486 L 50.685 24.144 L 50.685 23.801 L 50.685 23.459 L 50.685 23.116 L 50.856 22.945 L 51.027 22.774 L 51.199 22.603 L 51.370 22.432 L 51.370 22.089 L 51.541 21.918 L 51.712 21.747 L 51.884 21.575 L 52.055 21.404 L 52.055 21.062 L 52.226 20.890 L 52.397 20.719 L 52.568 20.548 L 52.740 20.377 L 52.740 20.034 L 52.911 19.863 L 53.082 19.692 L 53.253 19.521 L 53.425 19.349 L 53.425 19.007 L 53.425 18.664 L 53.425 18.322 L 53.425 17.979 L 53.596 17.808 L 53.767 17.979 L 53.767 18.322 L 53.767 18.664 L 53.767 19.007 L 53.938 19.178 L 54.281 19.178 L 54.623 19.178 L 54.795 19.007 L 54.966 18.836 L 55.137 19.007 L 55.137 19.349 L 54.966 19.521 L 54.623 19.521 L 54.281 19.521 L 54.110 19.692 L 53.938 19.863 L 53.767 20.034 L 53.596 20.205 L 53.425 20.377 L 53.425 20.719 L 53.253 20.890 L 53.082 21.062 L 52.911 21.233 L 52.740 21.404 L 52.740 21.747 L 52.568 21.918 L 52.397 22.089 L 52.226 22.260 L 52.055 22.432 L 52.055 22.774 L 51.884 22.945 L 51.712 23.116 L 51.541 23.288 L 51.370 23.459 L 51.370 23.801 L 51.370 24.144 L 51.370 24.486 L 51.370 24.829 L 51.370 25.171 L 51.370 25.514 L 51.370 25.856 L 51.370 26.199 L 51.370 26.541 L 51.370 26.884 L 51.370 27.226 L 51.370 27.568 L 51.370 27.911 L 51.370 28.253 L 51.370 28.596 L 51.370 28.938 L 51.370 29.281 L 51.370 29.623 L 51.370 29.966 L 51.370 30.308 L 51.370 30.651 L 51.370 30.993 L 51.370 31.336 L 51.541 31.507 L 51.884 31.507 L 52.226 31.507 L 52.568 31.507 L 52.911 31.507 L 53.253 31.507 L 53.596 31.507 L 53.938 31.507 L 54.281 31.507 L 54.452 31.678 L 54.623 31.849 L 54.966 31.849 L 55.137 32.021 L 55.308 32.192 L 55.479 32.363 L 55.479 32.705 L 55.651 32.877 L 55.822 33.048 L 55.822 33.390 L 55.822 33.733 L 55.993 33.904 L 56.336 33.904 L 56.678 33.904 L 57.021 33.904 L 57.363 33.904 L 57.705 33.904 L 58.048 33.904 L 58.390 33.904 L 58.733 33.904 L 59.075 33.904 L 59.418 33.904 L 59.760 33.904 L 60.103 33.904 L 60.445 33.904 L 60.788 33.904 L 60.959 33.733 L 60.959 33.390 L 61.130 33.219 L 61.301 33.048 L 61.473 32.877 L 61.644 32.705 L 61.815 32.534 L 61.986 32.363 L 61.986 32.021 L 62.158 31.849 L 62.329 31.678 L 62.500 31.507 L 62.671 31.336 L 62.842 31.164 L 63.014 30.993 L 63.185 30.822 L 63.356 30.651 L 63.527 30.479 L 63.699 30.308 L 63.699 29.966 L 63.870 29.795 L 64.041 29.623 L 64.212 29.452 L 64.384 29.281 L 64.555 29.110 L 64.726 28.938 L 64.897 28.767 L 65.068 28.596 L 65.068 28.253 L 65.240 28.082 L 65.411 27.911 L 65.582 27.740 L 65.753 27.568 L 65.925 27.397 L 66.096 27.226 L 66.267 27.055 L 66.438 26.884 L 66.610 26.712 L 66.781 26.541 L 66.952 26.370 L 67.123 26.199 L 67.123 25.856 L 67.295 25.685 L 67.466 25.514 L 67.637 25.342 L 67.808 25.171 L 67.979 25.000 L 68.322 25.000 L 68.664 25.000 L 69.007 25.000 L 69.349 25.000 L 69.692 25.000 L 70.034 25.000 L 70.377 25.000 L 70.719 25.000 L 71.062 25.000 L 71.404 25.000 L 71.747 25.000 L 72.089 25.000 L 72.432 25.000 L 72.774 25.000 L 73.116 25.000 L 73.459 25.000 L 73.801 25.000 L 74.144 25.000 L 74.315 24.829 L 74.315 24.486 L 74.486 24.315 L 74.658 24.144 L 74.829 23.973 L 75.000 23.801 L 75.171 23.630 L 75.342 23.459 L 75.514 23.288 L 75.685 23.116 L 75.856 22.945 L 76.027 22.774 L 76.027 22.432 L 76.199 22.260 L 76.370 22.089 L 76.541 21.918 L 76.712 21.747 L 76.884 21.575 L 77.055 21.404 L 77.226 21.233 L 77.397 21.062 L 77.568 20.890 L 77.740 20.719 L 77.740 20.377 L 77.911 20.205 L 78.082 20.034 L 78.253 19.863 L 78.596 19.863 L 78.938 19.863 L 79.281 19.863 L 79.623 19.863 L 79.966 19.863 L 80.308 19.863 L 80.651 19.863 L 80.993 19.863 L 81.336 19.863 L 81.678 19.863 L 82.021 19.863 L 82.363 19.863 L 82.705 19.863 L 83.048 19.863 L 83.390 19.863 L 83.733 19.863 L 84.075 19.863 L 84.418 19.863 L 84.760 19.863 L 85.103 19.863 L 85.445 19.863 L 85.788 19.863 L 86.130 19.863 L 86.473 19.863 L 86.815 19.863 L 87.158 19.863 L 87.500 19.863 L 87.842 19.863 L 88.185 19.863 L 88.527 19.863 L 88.870 19.863 L 89.212 19.863 L 89.555 19.863 L 89.897 19.863 L 90.240 19.863 L 90.582 19.863 L 90.925 19.863 L 91.267 19.863 L 91.610 19.863 L 91.952 19.863 L 92.295 19.863 L 92.637 19.863 L 92.808 19.692 L 92.979 19.521 L 93.151 19.692 L 93.151 20.034 L 93.151 20.377 L 92.979 20.548 L 92.637 20.548 L 92.295 20.548 L 91.952 20.548 L 91.610 20.548 L 91.267 20.548 L 90.925 20.548 L 90.582 20.548 L 90.240 20.548 L 89.897 20.548 L 89.555 20.548 L 89.212 20.548 L 88.870 20.548 L 88.527 20.548 L 88.185 20.548 L 87.842 20.548 L 87.500 20.548 L 87.158 20.548 L 86.815 20.548 L 86.473 20.548 L 86.130 20.548 L 85.788 20.548 L 85.445 20.548 L 85.103 20.548 L 84.760 20.548 L 84.418 20.548 L 84.075 20.548 L 83.733 20.548 L 83.390 20.548 L 83.048 20.548 L 82.705 20.548 L 82.363 20.548 L 82.021 20.548 L 81.678 20.548 L 81.336 20.548 L 80.993 20.548 L 80.651 20.548 L 80.308 20.548 L 79.966 20.548 L 79.623 20.548 L 79.281 20.548 L 78.938 20.548 L 78.596 20.548 L 78.425 20.719 L 78.253 20.890 L 78.082 21.062 L 78.082 21.404 L 77.911 21.575 L 77.740 21.747 L 77.568 21.918 L 77.397 22.089 L 77.226 22.260 L 77.055 22.432 L 76.884 22.603 L 76.712 22.774 L 76.712 23.116 L 76.541 23.288 L 76.370 23.459 L 76.199 23.630 L 76.027 23.801 L 75.856 23.973 L 75.685 24.144 L 75.514 24.315 L 75.342 24.486 L 75.514 24.658 L 75.685 24.829 L 75.856 25.000 L 76.199 25.000 L 76.541 25.000 L 76.884 25.000 L 77.226 25.000 L 77.568 25.000 L 77.911 25.000 L 78.253 25.000 L 78.596 25.000 L 78.938 25.000 L 79.281 25.000 L 79.623 25.000 L 79.966 25.000 L 80.308 25.000 L 80.651 25.000 L 80.993 25.000 L 81.336 25.000 L 81.678 25.000 L 82.021 25.000 L 82.363 25.000 L 82.705 25.000 L 83.048 25.000 L 83.390 25.000 L 83.733 25.000 L 84.075 25.000 L 84.418 25.000 L 84.760 25.000 L 85.103 25.000 L 85.445 25.000 L 85.788 25.000 L 86.130 25.000 L 86.473 25.000 L 86.644 24.829 L 86.815 24.658 L 86.986 24.486 L 87.158 24.315 L 87.500 24.315 L 87.842 24.315 L 88.185 24.315 L 88.527 24.315 L 88.699 24.486 L 88.527 24.658 L 88.185 24.658 L 87.842 24.658 L 87.500 24.658 L 87.329 24.829 L 87.329 25.171 L 87.329 25.514 L 87.500 25.685 L 87.671 25.856 L 87.500 26.027 L 87.158 26.027 L 86.986 25.856 L 86.815 25.685 L 86.473 25.685 L 86.130 25.685 L 85.788 25.685 L 85.445 25.685 L 85.103 25.685 L 84.760 25.685 L 84.418 25.685 L 84.075 25.685 L 83.733 25.685 L 83.390 25.685 L 83.048 25.685 L 82.705 25.685 L 82.363 25.685 L 82.021 25.685 L 81.678 25.685 L 81.336 25.685 L 80.993 25.685 L 80.651 25.685 L 80.308 25.685 L 79.966 25.685 L 79.795 25.856 L 79.966 26.027 L 80.137 26.199 L 80.308 26.370 L 80.479 26.541 L 80.651 26.712 L 80.822 26.884 L 80.993 27.055 L 81.336 27.055 L 81.507 27.226 L 81.678 27.397 L 81.849 27.568 L 82.021 27.740 L 82.363 27.740 L 82.705 27.740 L 83.048 27.740 L 83.390 27.740 L 83.733 27.740 L 84.075 27.740 L 84.418 27.740 L 84.760 27.740 L 85.103 27.740 L 85.445 27.740 L 85.788 27.740 L 86.130 27.740 L 86.473 27.740 L 86.815 27.740 L 87.158 27.740 L 87.500 27.740 L 87.842 27.740 L 88.185 27.740 L 88.527 27.740 L 88.870 27.740 L 89.212 27.740 L 89.555 27.740 L 89.897 27.740 L 90.240 27.740 L 90.582 27.740 L 90.925 27.740 L 91.267 27.740 L 91.438 27.911 L 91.438 28.253 L 91.610 28.425 L 91.781 28.596 L 91.952 28.767 L 92.295 28.767 L 92.637 28.767 L 92.808 28.596 L 92.979 28.425 L 93.151 28.253 L 93.151 27.911 L 93.322 27.740 L 93.493 27.911 L 93.493 28.253 L 93.493 28.596 L 93.322 28.767 L 93.151 28.938 L 92.979 29.110 L 92.637 29.110 L 92.295 29.110 L 91.952 29.110 L 91.610 29.110 L 91.438 28.938 L 91.267 28.767 L 90.925 28.767 L 90.582 28.767 L 90.240 28.767 L 89.897 28.767 L 89.555 28.767 L 89.212 28.767 L 88.870 28.767 L 88.527 28.767 L 88.185 28.767 L 87.842 28.767 L 87.500 28.767 L 87.158 28.767 L 86.815 28.767 L 86.473 28.767 L 86.130 28.767 L 85.788 28.767 L 85.445 28.767 L 85.103 28.767 L 84.760 28.767 L 84.418 28.767 L 84.075 28.767 L 83.733 28.767 L 83.390 28.767 L 83.048 28.767 L 82.705 28.767 L 82.363 28.767 L 82.192 28.596 L 82.021 28.425 L 81.678 28.425 L 81.507 28.253 L 81.336 28.082 L 81.164 27.911 L 80.993 27.740 L 80.651 27.740 L 80.479 27.568 L 80.308 27.397 L 80.137 27.226 L 79.966 27.055 L 79.795 26.884 L 79.623 26.712 L 79.281 26.712 L 79.110 26.541 L 78.938 26.370 L 78.767 26.199 L 78.596 26.027 L 78.425 25.856 L 78.253 25.685 L 77.911 25.685 L 77.568 25.685 L 77.226 25.685 L 76.884 25.685 L 76.541 25.685 L 76.199 25.685 L 75.856 25.685 L 75.514 25.685 L 75.171 25.685 L 74.829 25.685 L 74.486 25.685 L 74.144 25.685 L 73.801 25.685 L 73.459 25.685 L 73.116 25.685 L 72.774 25.685 L 72.432 25.685 L 72.089 25.685 L 71.747 25.685 L 71.404 25.685 L 71.062 25.685 L 70.719 25.685 L 70.377 25.685 L 70.034 25.685 L 69.692 25.685 L 69.349 25.685 L 69.007 25.685 L 68.664 25.685 L 68.322 25.685 L 68.151 25.856 L 67.979 26.027 L 67.808 26.199 L 67.637 26.370 L 67.466 26.541 L 67.466 26.884 L 67.295 27.055 L 67.123 27.226 L 66.952 27.397 L 66.781 27.568 L 66.610 27.740 L 66.438 27.911 L 66.267 28.082 L 66.096 28.253 L 66.096 28.596 L 65.925 28.767 L 65.753 28.938 L 65.582 29.110 L 65.411 29.281 L 65.240 29.452 L 65.068 29.623 L 64.897 29.795 L 64.726 29.966 L 64.726 30.308 L 64.555 30.479 L 64.384 30.651 L 64.212 30.822 L 64.041 30.993 L 63.870 31.164 L 63.699 31.336 L 63.527 31.507 L 63.356 31.678 L 63.185 31.849 L 63.014 32.021 L 63.014 32.363 L 62.842 32.534 L 62.671 32.705 L 62.500 32.877 L 62.329 33.048 L 62.158 33.219 L 61.986 33.390 L 61.815 33.562 L 61.644 33.733 L 61.815 33.904 L 62.158 33.904 L 62.500 33.904 L 62.842 33.904 L 63.185 33.904 L 63.527 33.904 L 63.870 33.904 L 64.212 33.904 L 64.555 33.904 L 64.897 33.904 L 65.240 33.904 L 65.582 33.904 L 65.925 33.904 L 66.267 33.904 L 66.610 33.904 L 66.952 33.904 L 67.295 33.904 L 67.637 33.904 L 67.979 33.904 L 68.322 33.904 L 68.664 33.904 L 69.007 33.904 L 69.349 33.904 L 69.692 33.904 L 69.863 33.733 L 70.034 33.562 L 70.205 33.390 L 70.377 33.219 L 70.548 33.048 L 70.719 32.877 L 70.890 32.705 L 71.062 32.534 L 71.233 32.363 L 71.404 32.192 L 71.575 32.021 L 71.747 31.849 L 72.089 31.849 L 72.432 31.849 L 72.774 31.849 L 73.116 31.849 L 73.459 31.849 L 73.801 31.849 L 74.144 31.849 L 74.486 31.849 L 74.829 31.849 L 75.171 31.849 L 75.514 31.849 L 75.856 31.849 L 76.199 31.849 L 76.541 31.849 L 76.884 31.849 L 77.226 31.849 L 77.568 31.849 L 77.911 31.849 L 78.253 31.849 L 78.596 31.849 L 78.938 31.849 L 79.281 31.849 L 79.623 31.849 L 79.966 31.849 L 80.308 31.849 L 80.651 31.849 L 80.993 31.849 L 81.336 31.849 L 81.678 31.849 L 82.021 31.849 L 82.363 31.849 L 82.705 31.849 L 83.048 31.849 L 83.390 31.849 L 83.733 31.849 L 84.075 31.849 L 84.418 31.849 L 84.760 31.849 L 84.932 32.021 L 84.932 32.363 L 85.103 32.534 L 85.274 32.705 L 85.445 32.877 L 85.788 32.877 L 86.130 32.877 L 86.301 32.705 L 86.473 32.534 L 86.644 32.363 L 86.473 32.192 L 86.301 32.021 L 86.301 31.678 L 86.473 31.507 L 86.644 31.678 L 86.815 31.849 L 86.986 32.021 L 86.986 32.363 L 86.986 32.705 L 86.815 32.877 L 86.644 33.048 L 86.473 33.219 L 86.130 33.219 L 85.788 33.219 L 85.445 33.219 L 85.103 33.219 L 84.932 33.048 L 84.760 32.877 L 84.589 32.705 L 84.418 32.534 L 84.075 32.534 L 83.733 32.534 L 83.390 32.534 L 83.048 32.534 L 82.705 32.534 L 82.363 32.534 L 82.021 32.534 L 81.678 32.534 L 81.336 32.534 L 80.993 32.534 L 80.651 32.534 L 80.308 32.534 L 79.966 32.534 L 79.623 32.534 L 79.281 32.534 L 78.938 32.534 L 78.596 32.534 L 78.253 32.534 L 77.911 32.534 L 77.740 32.705 L 77.568 32.877 L 77.397 33.048 L 77.568 33.219 L 77.911 33.219 L 78.082 33.390 L 78.253 33.562 L 78.425 33.733 L 78.596 33.904 L 78.767 34.075 L 78.938 34.247 L 79.110 34.418 L 79.281 34.589 L 79.452 34.760 L 79.623 34.932 L 79.966 34.932 L 80.137 35.103 L 80.308 35.274 L 80.651 35.274 L 80.993 35.274 L 81.336 35.274 L 81.678 35.274 L 82.021 35.274 L 82.363 35.274 L 82.705 35.274 L 83.048 35.274 L 83.390 35.274 L 83.733 35.274 L 84.075 35.274 L 84.418 35.274 L 84.760 35.274 L 85.103 35.274 L 85.445 35.274 L 85.788 35.274 L 86.130 35.274 L 86.473 35.274 L 86.815 35.274 L 87.158 35.274 L 87.500 35.274 L 87.842 35.274 L 88.185 35.274 L 88.527 35.274 L 88.699 35.103 L 88.699 34.760 L 88.870 34.589 L 89.212 34.589 L 89.555 34.589 L 89.897 34.589 L 90.240 34.589 L 90.411 34.760 L 90.240 34.932 L 89.897 34.932 L 89.555 34.932 L 89.212 34.932 L 89.041 35.103 L 89.041 35.445 L 89.041 35.788 L 89.212 35.959 L 89.384 36.130 L 89.212 36.301 L 88.870 36.301 L 88.699 36.130 L 88.527 35.959 L 88.185 35.959 L 87.842 35.959 L 87.500 35.959 L 87.158 35.959 L 86.815 35.959 L 86.473 35.959 L 86.130 35.959 L 85.788 35.959 L 85.445 35.959 L 85.103 35.959 L 84.760 35.959 L 84.418 35.959 L 84.075 35.959 L 83.733 35.959 L 83.390 35.959 L 83.048 35.959 L 82.705 35.959 L 82.363 35.959 L 82.021 35.959 L 81.678 35.959 L 81.336 35.959 L 80.993 35.959 L 80.651 35.959 L 80.308 35.959 L 79.966 35.959 L 79.795 35.788 L 79.623 35.616 L 79.281 35.616 L 79.110 35.445 L 78.938 35.274 L 78.767 35.103 L 78.596 34.932 L 78.425 34.760 L 78.253 34.589 L 78.082 34.418 L 77.911 34.247 L 77.740 34.075 L 77.568 33.904 L 77.226 33.904 L 77.055 33.733 L 76.884 33.562 L 76.712 33.390 L 76.541 33.219 L 76.370 33.048 L 76.199 32.877 L 75.856 32.877 L 75.685 32.705 L 75.514 32.534 L 75.171 32.534 L 74.829 32.534 L 74.486 32.534 L 74.144 32.534 L 73.801 32.534 L 73.459 32.534 L 73.116 32.534 L 72.774 32.534 L 72.432 32.534 L 72.089 32.534 L 71.918 32.705 L 71.747 32.877 L 71.575 33.048 L 71.404 33.219 L 71.233 33.390 L 71.062 33.562 L 70.890 33.733 L 70.719 33.904 L 70.548 34.075 L 70.377 34.247 L 70.205 34.418 L 70.034 34.589 L 69.863 34.760 L 69.692 34.932 L 69.349 34.932 L 69.007 34.932 L 68.664 34.932 L 68.322 34.932 L 67.979 34.932 L 67.637 34.932 L 67.295 34.932 L 66.952 34.932 L 66.610 34.932 L 66.267 34.932 L 65.925 34.932 L 65.582 34.932 L 65.240 34.932 L 64.897 34.932 L 64.555 34.932 L 64.212 34.932 L 63.870 34.932 L 63.527 34.932 L 63.185 34.932 L 62.842 34.932 L 62.500 34.932 L 62.158 34.932 L 61.815 34.932 L 61.473 34.932 L 61.130 34.932 L 60.788 34.932 L 60.445 34.932 L 60.103 34.932 L 59.760 34.932 L 59.418 34.932 L 59.075 34.932 L 58.733 34.932 L 58.390 34.932 L 58.048 34.932 L 57.705 34.932 L 57.363 34.932 L 57.021 34.932 L 56.678 34.932 L 56.336 34.932 L 55.993 34.932 L 55.822 35.103 L 55.822 35.445 L 55.822 35.788 L 55.822 36.130 L 55.822 36.473 L 55.822 36.815 L 55.822 37.158 L 55.822 37.500 L 55.822 37.842 L 55.822 38.185 L 55.822 38.527 L 55.822 38.870 L 55.822 39.212 L 55.822 39.555 L 55.822 39.897 L 55.822 40.240 L 55.822 40.582 L 55.822 40.925 L 55.822 41.267 L 55.822 41.610 L 55.822 41.952 L 55.822 42.295 L 55.822 42.637 L 55.822 42.979 L 55.822 43.322 L 55.822 43.664 L 55.822 44.007 L 55.822 44.349 L 55.822 44.692 L 55.822 45.034 L 55.822 45.377 L 55.822 45.719 L 55.822 46.062 L 55.822 46.404 L 55.822 46.747 L 55.651 46.918 L 55.479 47.089 L 55.479 47.432 L 55.308 47.603 L 55.137 47.774 L 54.966 47.945 L 54.623 47.945 L 54.452 48.116 L 54.281 48.288 L 53.938 48.288 L 53.596 48.288 L 53.253 48.288 L 52.911 48.288 L 52.568 48.288 L 52.226 48.288 L 51.884 48.288 L 51.541 48.288 L 51.370 48.459 L 51.370 48.801 L 51.370 49.144 L 51.370 49.486 L 51.370 49.829 L 51.370 50.171 L 51.370 50.514 L 51.370 50.856 L 51.370 51.199 L 51.370 51.541 L 51.370 51.884 L 51.370 52.226 L 51.370 52.568 L 51.370 52.911 L 51.370 53.253 L 51.370 53.596 L 51.370 53.938 L 51.370 54.281 L 51.370 54.623 L 51.370 54.966 L 51.370 55.308 L 51.370 55.651 L 51.370 55.993 L 51.370 56.336 L 51.370 56.678 L 51.370 57.021 L 51.370 57.363 L 51.370 57.705 L 51.541 57.877 L 51.712 58.048 L 51.884 58.219 L 52.055 58.390 L 52.226 58.562 L 52.397 58.733 L 52.568 58.904 L 52.740 59.075 L 52.911 59.247 L 53.082 59.418 L 53.082 59.760 L 53.082 60.103 L 53.082 60.445 L 53.082 60.788 L 53.082 61.130 L 53.082 61.473 L 53.082 61.815 L 53.082 62.158 L 53.082 62.500 L 53.082 62.842 L 53.082 63.185 L 53.082 63.527 L 53.082 63.870 L 53.082 64.212 L 53.082 64.555 L 53.253 64.726 L 53.596 64.726 L 53.767 64.897 L 53.767 65.240 L 53.767 65.582 L 53.767 65.925 L 53.767 66.267 L 53.596 66.438 L 53.253 66.438 L 53.082 66.267 L 53.253 66.096 L 53.425 65.925 L 53.425 65.582 L 53.425 65.240 L 53.253 65.068 L 52.911 65.068 L 52.568 65.068 L 52.226 65.068 L 52.055 64.897 L 52.226 64.726 L 52.397 64.555 L 52.397 64.212 L 52.397 63.870 L 52.397 63.527 L 52.397 63.185 L 52.397 62.842 L 52.397 62.500 L 52.397 62.158 L 52.397 61.815 L 52.397 61.473 L 52.397 61.130 L 52.397 60.788 L 52.397 60.445 L 52.397 60.103 L 52.397 59.760 L 52.226 59.589 L 52.055 59.418 L 51.884 59.247 L 51.712 59.075 L 51.541 58.904 L 51.370 58.733 L 51.199 58.562 L 51.027 58.390 L 50.856 58.219 L 50.685 58.048 L 50.514 57.877 L 50.342 57.705 L 50.342 57.363 L 50.342 57.021 L 50.342 56.678 L 50.342 56.336 L 50.342 55.993 L 50.342 55.651 L 50.342 55.308 L 50.342 54.966 L 50.342 54.623 L 50.342 54.281 L 50.342 53.938 L 50.342 53.596 L 50.342 53.253 L 50.342 52.911 L 50.342 52.568 L 50.342 52.226 L 50.342 51.884 L 50.342 51.541 L 50.342 51.199 L 50.342 50.856 L 50.342 50.514 L 50.342 50.171 L 50.342 49.829 L 50.342 49.486 L 50.342 49.144 L 50.342 48.801 L 50.342 48.459 L 50.171 48.288 L 49.829 48.288 L 49.486 48.288 L 49.144 48.288 L 48.801 48.288 L 48.459 48.288 L 48.116 48.288 L 47.945 48.459 L 47.945 48.801 L 47.945 49.144 L 47.945 49.486 L 47.945 49.829 L 47.945 50.171 L 47.945 50.514 L 47.945 50.856 L 47.945 51.199 L 47.945 51.541 L 47.945 51.884 L 47.945 52.226 L 47.945 52.568 L 47.945 52.911 L 47.945 53.253 L 47.945 53.596 L 47.945 53.938 L 47.945 54.281 L 47.945 54.623 L 47.945 54.966 L 47.945 55.308 L 47.945 55.651 L 47.945 55.993 L 47.774 56.164 L 47.603 56.336 L 47.774 56.507 L 47.945 56.678 L 47.945 57.021 L 47.774 57.192 L 47.432 57.192 L 47.089 57.192 L 46.918 57.021 L 46.918 56.678 L 46.918 56.336 L 46.918 55.993 L 46.918 55.651 L 46.918 55.308 L 46.918 54.966 L 46.918 54.623 L 46.918 54.281 L 46.918 53.938 L 46.918 53.596 L 46.918 53.253 L 46.918 52.911 L 46.918 52.568 L 46.918 52.226 L 46.918 51.884 L 46.918 51.541 L 46.918 51.199 L 46.918 50.856 L 46.918 50.514 L 46.918 50.171 L 46.918 49.829 L 46.918 49.486 L 46.918 49.144 L 46.918 48.801 L 46.918 48.459 L 46.747 48.288 L 46.404 48.288 L 46.062 48.288 L 45.719 48.288 L 45.377 48.288 L 45.034 48.288 L 44.692 48.288 L 44.521 48.459 L 44.521 48.801 L 44.521 49.144 L 44.521 49.486 L 44.521 49.829 L 44.521 50.171 L 44.521 50.514 L 44.521 50.856 L 44.521 51.199 L 44.521 51.541 L 44.521 51.884 L 44.521 52.226 L 44.521 52.568 L 44.521 52.911 L 44.521 53.253 L 44.521 53.596 L 44.521 53.938 L 44.521 54.281 L 44.521 54.623 L 44.521 54.966 L 44.521 55.308 L 44.521 55.651 L 44.521 55.993 L 44.521 56.336 L 44.349 56.507 L 44.178 56.678 L 44.178 57.021 L 44.007 57.192 L 43.836 57.363 L 43.836 57.705 L 43.664 57.877 L 43.493 58.048 L 43.322 58.219 L 43.151 58.390 L 42.979 58.562 L 42.808 58.733 L 42.808 59.075 L 42.637 59.247 L 42.466 59.418 L 42.295 59.589 L 42.123 59.760 L 42.123 60.103 L 41.952 60.274 L 41.781 60.445 L 41.781 60.788 L 41.781 61.130 L 41.781 61.473 L 41.781 61.815 L 41.610 61.986 L 41.438 61.815 L 41.438 61.473 L 41.438 61.130 L 41.438 60.788 L 41.267 60.616 L 40.925 60.616 L 40.582 60.616 L 40.240 60.616 L 40.068 60.445 L 40.240 60.274 L 40.582 60.274 L 40.925 60.274 L 41.096 60.103 L 41.267 59.932 L 41.438 59.760 L 41.438 59.418 L 41.610 59.247 L 41.781 59.075 L 41.952 58.904 L 42.123 58.733 L 42.123 58.390 L 42.295 58.219 L 42.466 58.048 L 42.637 57.877 L 42.808 57.705 L 42.979 57.534 L 43.151 57.363 L 43.151 57.021 L 43.322 56.849 L 43.493 56.678 L 43.493 56.336 L 43.664 56.164 L 43.836 55.993 L 43.836 55.651 L 43.836 55.308 L 43.836 54.966 L 43.836 54.623 L 43.836 54.281 L 43.836 53.938 L 43.836 53.596 L 43.836 53.253 L 43.836 52.911 L 43.836 52.568 L 43.836 52.226 L 43.836 51.884 L 43.836 51.541 L 43.836 51.199 L 43.836 50.856 L 43.836 50.514 L 43.836 50.171 L 43.836 49.829 L 43.836 49.486 L 43.836 49.144 L 43.836 48.801 L 43.836 48.459 L 43.664 48.288 L 43.322 48.288 L 42.979 48.288 L 42.637 48.288 L 42.295 48.288 L 41.952 48.288 L 41.610 48.288 L 41.267 48.288 L 40.925 48.288 L 40.753 48.116 L 40.582 47.945 L 40.240 47.945 L 40.068 47.774 L 39.897 47.603 L 39.726 47.432 L 39.726 47.089 L 39.555 46.918 L 39.384 46.747 L 39.384 46.404 L 39.384 46.062 L 39.212 45.890 L 38.870 45.890 L 38.527 45.890 L 38.185 45.890 L 37.842 45.890 L 37.500 45.890 L 37.158 45.890 L 36.815 45.890 L 36.473 45.890 L 36.130 45.890 L 35.788 45.890 L 35.445 45.890 L 35.103 45.890 L 34.760 45.890 L 34.418 45.890 L 34.247 46.062 L 34.075 46.233 L 33.904 46.404 L 33.904 46.747 L 33.733 46.918 L 33.562 47.089 L 33.390 47.260 L 33.219 47.432 L 33.048 47.603 L 32.877 47.774 L 32.877 48.116 L 32.705 48.288 L 32.363 48.288 L 32.192 48.459 L 32.192 48.801 L 32.021 48.973 L 31.849 49.144 L 31.678 49.315 L 31.507 49.486 L 31.336 49.658 L 31.164 49.829 L 30.993 50.000 L 30.822 50.171 L 30.822 50.514 L 30.651 50.685 L 30.479 50.856 L 30.308 51.027 L 30.137 51.199 L 29.966 51.370 L 29.795 51.541 L 29.795 51.884 L 29.623 52.055 L 29.452 52.226 L 29.281 52.397 L 29.110 52.568 L 28.938 52.740 L 28.767 52.911 L 28.596 53.082 L 28.425 53.253 L 28.253 53.425 L 28.082 53.596 L 27.911 53.767 L 27.740 53.938 L 27.740 54.281 L 27.568 54.452 L 27.397 54.623 L 27.226 54.795 L 26.884 54.795 L 26.541 54.795 L 26.199 54.795 L 25.856 54.795 L 25.514 54.795 L 25.171 54.795 L 24.829 54.795 L 24.486 54.795 L 24.144 54.795 L 23.801 54.795 L 23.459 54.795 L 23.116 54.795 L 22.774 54.795 L 22.432 54.795 L 22.089 54.795 L 21.747 54.795 L 21.404 54.795 L 21.062 54.795 L 20.890 54.966 L 20.719 55.137 L 20.548 55.308 L 20.377 55.479 L 20.205 55.651 L 20.205 55.993 L 20.034 56.164 L 19.863 56.336 L 19.692 56.507 L 19.521 56.678 L 19.349 56.849 L 19.178 57.021 L 19.007 57.192 L 18.836 57.363 L 18.836 57.705 L 18.664 57.877 L 18.493 58.048 L 18.322 58.219 L 18.151 58.390 L 17.979 58.562 L 17.808 58.733 L 17.637 58.904 L 17.466 59.075 L 17.295 59.247 L 17.123 59.418 L 17.123 59.760 L 16.952 59.932 L 16.610 59.932 L 16.267 59.932 L 15.925 59.932 L 15.582 59.932 L 15.240 59.932 L 14.897 59.932 L 14.555 59.932 L 14.212 59.932 L 13.870 59.932 L 13.527 59.932 L 13.185 59.932 L 12.842 59.932 L 12.500 59.932 L 12.158 59.932 L 11.815 59.932 L 11.473 59.932 L 11.130 59.932 L 10.788 59.932 L 10.445 59.932 L 10.103 59.932 L 9.760 59.932 L 9.418 59.932 L 9.075 59.932 L 8.733 59.932 L 8.390 59.932 L 8.048 59.932 L 7.705 59.932 L 7.363 59.932 L 7.021 59.932 L 6.678 59.932 L 6.336 59.932 L 5.993 59.932 L 5.651 59.932 L 5.308 59.932 L 4.966 59.932 L 4.623 59.932 L 4.281 59.932 L 3.938 59.932 L 3.596 59.932 L 3.253 59.932 L 2.911 59.932 L 2.568 59.932 L 2.397 60.103 L 2.226 60.274 L 2.055 60.445 L 1.884 60.616 L 1.541 60.616 L 1.370 60.445 L 1.541 60.274 L 1.712 60.103 L 1.712 59.760 L 1.712 59.418 L 1.541 59.247 L 1.370 59.075 L 1.541 58.904 L 1.884 58.904 L 2.055 59.075 L 2.226 59.247 L 2.568 59.247 L 2.911 59.247 L 3.253 59.247 L 3.596 59.247 L 3.938 59.247 L 4.281 59.247 L 4.623 59.247 L 4.966 59.247 L 5.308 59.247 L 5.651 59.247 L 5.993 59.247 L 6.336 59.247 L 6.678 59.247 L 7.021 59.247 L 7.363 59.247 L 7.705 59.247 L 8.048 59.247 L 8.390 59.247 L 8.733 59.247 L 9.075 59.247 L 9.418 59.247 L 9.760 59.247 L 10.103 59.247 L 10.445 59.247 L 10.788 59.247 L 11.130 59.247 L 11.473 59.247 L 11.815 59.247 L 12.158 59.247 L 12.500 59.247 L 12.842 59.247 L 13.185 59.247 L 13.527 59.247 L 13.870 59.247 L 14.212 59.247 L 14.555 59.247 L 14.897 59.247 L 15.240 59.247 L 15.582 59.247 L 15.925 59.247 L 16.267 59.247 L 16.438 59.075 L 16.610 58.904 L 16.781 58.733 L 16.952 58.562 L 17.123 58.390 L 17.295 58.219 L 17.466 58.048 L 17.637 57.877 L 17.808 57.705 L 17.979 57.534 L 18.151 57.363 L 18.151 57.021 L 18.322 56.849 L 18.493 56.678 L 18.664 56.507 L 18.836 56.336 L 19.007 56.164 L 19.178 55.993 L 19.349 55.822 L 19.521 55.651 L 19.521 55.308 L 19.692 55.137 L 19.863 54.966 L 19.692 54.795 L 19.349 54.795 L 19.007 54.795 L 18.664 54.795 L 18.322 54.795 L 17.979 54.795 L 17.637 54.795 L 17.295 54.795 L 16.952 54.795 L 16.610 54.795 L 16.267 54.795 L 15.925 54.795 L 15.582 54.795 L 15.240 54.795 L 14.897 54.795 L 14.555 54.795 L 14.212 54.795 L 13.870 54.795 L 13.527 54.795 L 13.185 54.795 L 12.842 54.795 L 12.500 54.795 L 12.158 54.795 L 11.815 54.795 L 11.473 54.795 L 11.130 54.795 L 10.788 54.795 L 10.445 54.795 L 10.103 54.795 L 9.760 54.795 L 9.418 54.795 L 9.075 54.795 L 8.733 54.795 L 8.390 54.795 L 8.219 54.966 L 8.048 55.137 L 7.877 54.966 L 7.877 54.623 L 7.877 54.281 L 7.705 54.110 L 7.534 53.938 L 7.363 53.767 L 7.021 53.767 L 6.849 53.596 L 7.021 53.425 L 7.363 53.425 L 7.705 53.425 L 7.877 53.596 L 8.048 53.767 L 8.219 53.938 L 8.390 54.110 L 8.733 54.110 L 9.075 54.110 L 9.418 54.110 L 9.760 54.110 L 10.103 54.110 L 10.445 54.110 L 10.788 54.110 L 11.130 54.110 L 11.473 54.110 L 11.815 54.110 L 12.158 54.110 L 12.500 54.110 L 12.842 54.110 L 13.185 54.110 L 13.527 54.110 L 13.870 54.110 L 14.212 54.110 L 14.555 54.110 L 14.897 54.110 L 15.240 54.110 L 15.411 53.938 L 15.240 53.767 L 15.068 53.596 L 14.897 53.425 L 14.726 53.253 L 14.555 53.082 L 14.384 52.911 L 14.212 52.740 L 14.041 52.568 L 13.870 52.397 L 13.527 52.397 L 13.356 52.226 L 13.185 52.055 L 13.014 51.884 L 12.842 51.712 L 12.500 51.712 L 12.158 51.712 L 11.815 51.712 L 11.473 51.712 L 11.130 51.712 L 10.788 51.712 L 10.445 51.712 L 10.103 51.712 L 9.760 51.712 L 9.418 51.712 L 9.075 51.712 L 8.733 51.712 L 8.390 51.712 L 8.048 51.712 L 7.705 51.712 L 7.363 51.712 L 7.021 51.712 L 6.678 51.712 L 6.336 51.712 L 5.993 51.712 L 5.651 51.712 L 5.308 51.712 L 4.966 51.712 L 4.623 51.712 L 4.281 51.712 L 4.110 51.884 L 3.938 52.055 L 3.767 51.884 L 3.767 51.541 L 3.767 51.199 L 3.938 51.027 L 4.281 51.027 L 4.623 51.027 L 4.966 51.027 L 5.308 51.027 L 5.651 51.027 L 5.993 51.027 L 6.336 51.027 L 6.678 51.027 L 7.021 51.027 L 7.363 51.027 L 7.705 51.027 L 8.048 51.027 L 8.390 51.027 L 8.733 51.027 L 9.075 51.027 L 9.418 51.027 L 9.760 51.027 L 10.103 51.027 L 10.445 51.027 L 10.788 51.027 L 11.130 51.027 L 11.473 51.027 L 11.815 51.027 L 12.158 51.027 L 12.500 51.027 L 12.842 51.027 L 13.014 51.199 L 13.185 51.370 L 13.527 51.370 L 13.699 51.541 L 13.870 51.712 L 14.041 51.884 L 14.212 52.055 L 14.555 52.055 L 14.726 52.226 L 14.897 52.397 L 15.068 52.568 L 15.240 52.740 L 15.411 52.911 L 15.582 53.082 L 15.925 53.082 L 16.096 53.253 L 16.267 53.425 L 16.438 53.596 L 16.610 53.767 L 16.781 53.938 L 16.952 54.110 L 17.295 54.110 L 17.637 54.110 L 17.979 54.110 L 18.322 54.110 L 18.664 54.110 L 19.007 54.110 L 19.349 54.110 L 19.692 54.110 L 20.034 54.110 L 20.377 54.110 L 20.719 54.110 L 21.062 54.110 L 21.404 54.110 L 21.747 54.110 L 22.089 54.110 L 22.432 54.110 L 22.774 54.110 L 23.116 54.110 L 23.459 54.110 L 23.801 54.110 L 24.144 54.110 L 24.486 54.110 L 24.829 54.110 L 25.171 54.110 L 25.514 54.110 L 25.856 54.110 L 26.199 54.110 L 26.541 54.110 L 26.712 53.938 L 26.884 53.767 L 27.055 53.596 L 27.226 53.425 L 27.397 53.253 L 27.568 53.082 L 27.740 52.911 L 27.911 52.740 L 28.082 52.568 L 28.253 52.397 L 28.425 52.226 L 28.596 52.055 L 28.767 51.884 L 28.767 51.541 L 28.938 51.370 L 29.110 51.199 L 29.281 51.027 L 29.452 50.856 L 29.623 50.685 L 29.795 50.514 L 29.795 50.171 L 29.966 50.000 L 30.137 49.829 L 30.308 49.658 L 30.479 49.486 L 30.651 49.315 L 30.822 49.144 L 30.993 48.973 L 31.164 48.801 L 31.336 48.630 L 31.507 48.459 L 31.678 48.288 L 31.849 48.116 L 31.849 47.774 L 32.021 47.603 L 32.192 47.432 L 32.363 47.260 L 32.534 47.089 L 32.705 46.918 L 32.877 46.747 L 33.048 46.575 L 33.219 46.404 L 33.219 46.062 L 33.048 45.890 L 32.705 45.890 L 32.363 45.890 L 32.021 45.890 L 31.678 45.890 L 31.336 45.890 L 30.993 45.890 L 30.651 45.890 L 30.308 45.890 L 29.966 45.890 L 29.623 45.890 L 29.281 45.890 L 28.938 45.890 L 28.596 45.890 L 28.253 45.890 L 27.911 45.890 L 27.568 45.890 L 27.226 45.890 L 26.884 45.890 L 26.541 45.890 L 26.199 45.890 L 25.856 45.890 L 25.514 45.890 L 25.171 45.890 L 25.000 46.062 L 25.000 46.404 L 24.829 46.575 L 24.486 46.575 L 24.315 46.747 L 24.144 46.918 L 23.973 47.089 L 23.801 47.260 L 23.630 47.432 L 23.459 47.603 L 23.288 47.774 L 23.116 47.945 L 22.774 47.945 L 22.432 47.945 L 22.089 47.945 L 21.747 47.945 L 21.404 47.945 L 21.062 47.945 L 20.719 47.945 L 20.377 47.945 L 20.034 47.945 L 19.692 47.945 L 19.349 47.945 L 19.007 47.945 L 18.664 47.945 L 18.322 47.945 L 17.979 47.945 L 17.637 47.945 L 17.295 47.945 L 16.952 47.945 L 16.610 47.945 L 16.267 47.945 L 15.925 47.945 L 15.582 47.945 L 15.240 47.945 L 14.897 47.945 L 14.555 47.945 L 14.212 47.945 L 13.870 47.945 L 13.527 47.945 L 13.185 47.945 L 12.842 47.945 L 12.500 47.945 L 12.158 47.945 L 11.815 47.945 L 11.473 47.945 L 11.130 47.945 L 10.788 47.945 L 10.445 47.945 L 10.274 48.116 L 10.103 48.288 L 9.932 48.116 L 9.932 47.774 L 9.932 47.432 L 9.932 47.089 L 9.760 46.918 L 9.589 46.747 L 9.418 46.575 L 9.075 46.575 L 8.904 46.404 L 9.075 46.233 L 9.418 46.233 L 9.760 46.233 L 9.932 46.404 L 10.103 46.575 L 10.274 46.747 L 10.445 46.918 L 10.788 46.918 L 11.130 46.918 L 11.473 46.918 L 11.815 46.918 L 12.158 46.918 L 12.500 46.918 L 12.842 46.918 L 13.185 46.918 L 13.527 46.918 L 13.870 46.918 L 14.212 46.918 L 14.555 46.918 L 14.897 46.918 L 15.240 46.918 L 15.582 46.918 L 15.925 46.918 L 16.267 46.918 L 16.610 46.918 L 16.952 46.918 L 17.295 46.918 L 17.637 46.918 L 17.808 46.747 L 17.637 46.575 L 17.295 46.575 L 17.123 46.404 L 16.952 46.233 L 16.781 46.062 L 16.610 45.890 L 16.438 45.719 L 16.267 45.548 L 16.096 45.377 L 15.925 45.205 L 15.753 45.034 L 15.582 44.863 L 15.240 44.863 L 15.068 44.692 L 14.897 44.521 L 14.555 44.521 L 14.212 44.521 L 13.870 44.521 L 13.527 44.521 L 13.185 44.521 L 12.842 44.521 L 12.500 44.521 L 12.158 44.521 L 11.815 44.521 L 11.473 44.521 L 11.130 44.521 L 10.788 44.521 L 10.445 44.521 L 10.103 44.521 L 9.760 44.521 L 9.418 44.521 L 9.075 44.521 L 8.733 44.521 L 8.390 44.521 L 8.048 44.521 L 7.705 44.521 L 7.363 44.521 L 7.021 44.521 L 6.678 44.521 L 6.507 44.692 L 6.336 44.863 L 6.164 44.692 L 6.164 44.349 L 6.164 44.007 L 5.993 43.836 L 5.822 43.664 L 5.651 43.493 L 5.308 43.493 L 5.137 43.664 L 4.966 43.836 L 4.795 44.007 L 4.795 44.349 L 4.795 44.692 L 4.623 44.863 L 4.452 44.692 L 4.452 44.349 L 4.452 44.007 L 4.452 43.664 L 4.623 43.493 L 4.795 43.322 L 4.966 43.151 L 5.308 43.151 L 5.651 43.151 L 5.993 43.151 L 6.164 43.322 L 6.336 43.493 L 6.507 43.664 L 6.678 43.836 L 7.021 43.836 L 7.363 43.836 L 7.705 43.836 L 8.048 43.836 L 8.390 43.836 L 8.733 43.836 L 9.075 43.836 L 9.418 43.836 L 9.760 43.836 L 10.103 43.836 L 10.445 43.836 L 10.788 43.836 L 11.130 43.836 L 11.473 43.836 L 11.815 43.836 L 12.158 43.836 L 12.500 43.836 L 12.842 43.836 L 13.185 43.836 L 13.527 43.836 L 13.870 43.836 L 14.212 43.836 L 14.555 43.836 L 14.897 43.836 L 15.240 43.836 L 15.411 44.007 L 15.582 44.178 L 15.925 44.178 L 16.096 44.349 L 16.267 44.521 L 16.438 44.692 L 16.610 44.863 L 16.781 45.034 L 16.952 45.205 L 17.123 45.377 L 17.295 45.548 L 17.466 45.719 L 17.637 45.890 L 17.979 45.890 L 18.151 46.062 L 18.322 46.233 L 18.493 46.404 L 18.664 46.575 L 18.836 46.747 L 19.007 46.918 L 19.349 46.918 L 19.692 46.918 L 20.034 46.918 L 20.377 46.918 L 20.719 46.918 L 21.062 46.918 L 21.404 46.918 L 21.747 46.918 L 22.089 46.918 L 22.432 46.918 L 22.774 46.918 L 23.116 46.918 L 23.459 46.918 L 23.630 46.747 L 23.801 46.575 L 23.973 46.404 L 23.973 46.062 L 24.144 45.890 L 24.315 45.719 L 24.486 45.548 L 24.658 45.377 L 24.829 45.205 L 25.000 45.034 L 25.171 44.863 L 25.514 44.863 L 25.856 44.863 L 26.199 44.863 L 26.541 44.863 L 26.884 44.863 L 27.226 44.863 L 27.568 44.863 L 27.911 44.863 L 28.253 44.863 L 28.596 44.863 L 28.938 44.863 L 29.281 44.863 L 29.623 44.863 L 29.966 44.863 L 30.308 44.863 L 30.651 44.863 L 30.993 44.863 L 31.336 44.863 L 31.678 44.863 L 32.021 44.863 L 32.363 44.863 L 32.705 44.863 L 33.048 44.863 L 33.390 44.863 L 33.733 44.863 L 34.075 44.863 L 34.418 44.863 L 34.760 44.863 L 35.103 44.863 L 35.445 44.863 L 35.788 44.863 L 36.130 44.863 L 36.473 44.863 L 36.815 44.863 L 37.158 44.863 L 37.500 44.863 L 37.842 44.863 L 38.185 44.863 L 38.527 44.863 L 38.870 44.863 L 39.212 44.863 L 39.384 44.692 L 39.384 44.349 L 39.384 44.007 L 39.384 43.664 L 39.384 43.322 L 39.384 42.979 L 39.384 42.637 L 39.384 42.295 L 39.384 41.952 L 39.384 41.610 L 39.384 41.267 L 39.384 40.925 L 39.384 40.582 L 39.384 40.240 L 39.384 39.897 L 39.384 39.555 L 39.384 39.212 L 39.384 38.870 L 39.384 38.527 L 39.384 38.185 L 39.384 37.842 L 39.384 37.500 L 39.384 37.158 L 39.384 36.815 L 39.384 36.473 L 39.384 36.130 L 39.384 35.788 L 39.384 35.445 L 39.384 35.103 L 39.384 34.760 L 39.384 34.418 L 39.384 34.075 L 39.384 33.733 L 39.384 33.390 L 39.384 33.048 L 39.384 32.705 L 39.555 32.534 L 39.726 32.363 L 39.897 32.192 L 40.068 32.021 L 40.240 31.849 L 40.582 31.849 L 40.753 31.678 L 40.925 31.507 L 41.267 31.507 L 41.610 31.507 L 41.952 31.507 L 42.295 31.507 L 42.637 31.507 L 42.979 31.507 L 43.322 31.507 L 43.664 31.507 L 43.836 31.336 L 43.836 30.993 L 43.836 30.651 L 43.836 30.308 L 43.836 29.966 L 43.836 29.623 L 43.836 29.281 L 43.836 28.938 L 43.836 28.596 L 43.836 28.253 L 43.836 27.911 L 43.836 27.568 L 43.836 27.226 L 43.836 26.884 L 43.836 26.541 L 43.836 26.199 L 43.836 25.856 L 43.836 25.514 L 43.836 25.171 L 43.836 24.829 L 43.836 24.486 L 43.836 24.144 L 43.836 23.801 L 43.836 23.459 L 43.836 23.116 L 43.836 22.774 L 43.836 22.432 L 43.836 22.089 L 43.664 21.918 L 43.493 21.747 L 43.322 21.575 L 43.151 21.404 L 42.979 21.233 L 42.808 21.062 L 42.637 20.890 L 42.466 20.719 L 42.295 20.548 L 42.123 20.377 L 42.123 20.034 L 42.123 19.692 L 42.123 19.349 L 42.123 19.007 L 42.123 18.664 L 42.123 18.322 L 42.123 17.979 L 42.123 17.637 L 42.123 17.295 L 42.123 16.952 L 42.123 16.610 L 42.123 16.267 L 42.123 15.925 L 42.123 15.582 L 42.123 15.240 L 41.952 15.068 L 41.781 14.897 L 41.952 14.726 Z M 53.938 17.466 L 54.281 17.466 L 54.623 17.466 L 54.795 17.637 L 54.623 17.808 L 54.281 17.808 L 53.938 17.808 L 53.767 17.637 L 53.938 17.466 Z M 54.966 17.808 L 55.137 17.979 L 54.966 18.151 L 54.795 17.979 L 54.966 17.808 Z M 55.308 18.151 L 55.479 18.322 L 55.479 18.664 L 55.308 18.836 L 55.137 18.664 L 55.137 18.322 L 55.308 18.151 Z M 93.664 18.836 L 94.007 18.836 L 94.349 18.836 L 94.521 19.007 L 94.692 19.178 L 94.863 19.349 L 94.863 19.692 L 94.863 20.034 L 94.863 20.377 L 94.863 20.719 L 94.692 20.890 L 94.349 20.890 L 94.178 20.719 L 94.349 20.548 L 94.521 20.377 L 94.521 20.034 L 94.521 19.692 L 94.349 19.521 L 94.178 19.349 L 94.007 19.178 L 93.664 19.178 L 93.493 19.007 L 93.664 18.836 Z M 93.322 19.178 L 93.493 19.349 L 93.322 19.521 L 93.151 19.349 L 93.322 19.178 Z M 47.432 20.548 L 47.774 20.548 L 47.945 20.719 L 47.774 20.890 L 47.432 20.890 L 47.260 20.719 L 47.432 20.548 Z M 93.322 20.548 L 93.664 20.548 L 93.836 20.719 L 93.664 20.890 L 93.322 20.890 L 93.151 20.719 L 93.322 20.548 Z M 47.089 20.890 L 47.260 21.062 L 47.089 21.233 L 46.918 21.062 L 47.089 20.890 Z M 48.116 20.890 L 48.459 20.890 L 48.630 21.062 L 48.630 21.404 L 48.630 21.747 L 48.630 22.089 L 48.630 22.432 L 48.459 22.603 L 48.288 22.432 L 48.288 22.089 L 48.288 21.747 L 48.288 21.404 L 48.116 21.233 L 47.945 21.062 L 48.116 20.890 Z M 94.007 20.890 L 94.178 21.062 L 94.007 21.233 L 93.836 21.062 L 94.007 20.890 Z M 46.747 21.233 L 46.918 21.404 L 46.918 21.747 L 46.918 22.089 L 46.747 22.260 L 46.575 22.089 L 46.575 21.747 L 46.575 21.404 L 46.747 21.233 Z M 47.089 22.260 L 47.260 22.432 L 47.089 22.603 L 46.918 22.432 L 47.089 22.260 Z M 88.870 24.658 L 89.041 24.829 L 89.041 25.171 L 89.041 25.514 L 89.041 25.856 L 88.870 26.027 L 88.527 26.027 L 88.356 25.856 L 88.527 25.685 L 88.699 25.514 L 88.699 25.171 L 88.699 24.829 L 88.870 24.658 Z M 87.842 26.027 L 88.185 26.027 L 88.356 26.199 L 88.185 26.370 L 87.842 26.370 L 87.671 26.199 L 87.842 26.027 Z M 91.952 27.055 L 92.295 27.055 L 92.637 27.055 L 92.808 27.226 L 92.637 27.397 L 92.295 27.397 L 91.952 27.397 L 91.781 27.226 L 91.952 27.055 Z M 91.610 27.397 L 91.781 27.568 L 91.610 27.740 L 91.438 27.568 L 91.610 27.397 Z M 92.979 27.397 L 93.151 27.568 L 92.979 27.740 L 92.808 27.568 L 92.979 27.397 Z M 11.473 27.740 L 11.815 27.740 L 12.158 27.740 L 12.500 27.740 L 12.842 27.740 L 13.185 27.740 L 13.527 27.740 L 13.870 27.740 L 14.212 27.740 L 14.555 27.740 L 14.897 27.740 L 15.240 27.740 L 15.582 27.740 L 15.925 27.740 L 16.267 27.740 L 16.610 27.740 L 16.952 27.740 L 17.123 27.911 L 17.295 28.082 L 17.637 28.082 L 17.808 28.253 L 17.979 28.425 L 18.322 28.425 L 18.493 28.596 L 18.664 28.767 L 18.836 28.938 L 19.007 29.110 L 19.178 29.281 L 19.178 29.623 L 19.349 29.795 L 19.521 29.966 L 19.521 30.308 L 19.521 30.651 L 19.692 30.822 L 19.863 30.993 L 19.863 31.336 L 19.863 31.678 L 19.692 31.849 L 19.521 32.021 L 19.521 32.363 L 19.349 32.534 L 19.178 32.705 L 19.178 33.048 L 19.007 33.219 L 18.836 33.390 L 18.664 33.562 L 18.493 33.733 L 18.322 33.904 L 18.151 34.075 L 18.322 34.247 L 18.493 34.418 L 18.664 34.589 L 19.007 34.589 L 19.178 34.760 L 19.349 34.932 L 19.692 34.932 L 19.863 35.103 L 20.034 35.274 L 20.205 35.445 L 20.205 35.788 L 20.377 35.959 L 20.548 36.130 L 20.548 36.473 L 20.548 36.815 L 20.719 36.986 L 20.890 37.158 L 20.890 37.500 L 20.890 37.842 L 20.890 38.185 L 20.719 38.356 L 20.548 38.527 L 20.548 38.870 L 20.548 39.212 L 20.548 39.555 L 20.377 39.726 L 20.205 39.897 L 20.034 40.068 L 19.863 40.240 L 19.863 40.582 L 19.692 40.753 L 19.349 40.753 L 19.178 40.925 L 19.007 41.096 L 18.664 41.096 L 18.493 41.267 L 18.322 41.438 L 17.979 41.438 L 17.637 41.438 L 17.295 41.438 L 16.952 41.438 L 16.610 41.438 L 16.267 41.438 L 15.925 41.438 L 15.582 41.438 L 15.240 41.438 L 14.897 41.438 L 14.555 41.438 L 14.212 41.438 L 13.870 41.438 L 13.527 41.438 L 13.185 41.438 L 12.842 41.438 L 12.500 41.438 L 12.158 41.438 L 11.815 41.438 L 11.473 41.438 L 11.301 41.267 L 11.301 40.925 L 11.301 40.582 L 11.301 40.240 L 11.301 39.897 L 11.301 39.555 L 11.301 39.212 L 11.301 38.870 L 11.301 38.527 L 11.301 38.185 L 11.301 37.842 L 11.301 37.500 L 11.301 37.158 L 11.301 36.815 L 11.301 36.473 L 11.301 36.130 L 11.301 35.788 L 11.301 35.445 L 11.301 35.103 L 11.301 34.760 L 11.301 34.418 L 11.301 34.075 L 11.301 33.733 L 11.301 33.390 L 11.301 33.048 L 11.301 32.705 L 11.301 32.363 L 11.301 32.021 L 11.301 31.678 L 11.301 31.336 L 11.301 30.993 L 11.301 30.651 L 11.301 30.308 L 11.301 29.966 L 11.301 29.623 L 11.301 29.281 L 11.301 28.938 L 11.301 28.596 L 11.301 28.253 L 11.301 27.911 L 11.473 27.740 Z M 22.432 27.740 L 22.774 27.740 L 23.116 27.740 L 23.459 27.740 L 23.801 27.740 L 24.144 27.740 L 24.486 27.740 L 24.829 27.740 L 25.171 27.740 L 25.342 27.911 L 25.342 28.253 L 25.342 28.596 L 25.342 28.938 L 25.342 29.281 L 25.342 29.623 L 25.342 29.966 L 25.342 30.308 L 25.342 30.651 L 25.342 30.993 L 25.342 31.336 L 25.342 31.678 L 25.342 32.021 L 25.342 32.363 L 25.342 32.705 L 25.342 33.048 L 25.342 33.390 L 25.342 33.733 L 25.342 34.075 L 25.342 34.418 L 25.342 34.760 L 25.342 35.103 L 25.342 35.445 L 25.342 35.788 L 25.342 36.130 L 25.342 36.473 L 25.342 36.815 L 25.342 37.158 L 25.342 37.500 L 25.342 37.842 L 25.342 38.185 L 25.342 38.527 L 25.342 38.870 L 25.342 39.212 L 25.342 39.555 L 25.342 39.897 L 25.342 40.240 L 25.342 40.582 L 25.342 40.925 L 25.342 41.267 L 25.171 41.438 L 24.829 41.438 L 24.486 41.438 L 24.144 41.438 L 23.801 41.438 L 23.459 41.438 L 23.116 41.438 L 22.774 41.438 L 22.432 41.438 L 22.260 41.267 L 22.260 40.925 L 22.260 40.582 L 22.260 40.240 L 22.260 39.897 L 22.260 39.555 L 22.260 39.212 L 22.260 38.870 L 22.260 38.527 L 22.260 38.185 L 22.260 37.842 L 22.260 37.500 L 22.260 37.158 L 22.260 36.815 L 22.260 36.473 L 22.260 36.130 L 22.260 35.788 L 22.260 35.445 L 22.260 35.103 L 22.260 34.760 L 22.260 34.418 L 22.260 34.075 L 22.260 33.733 L 22.260 33.390 L 22.260 33.048 L 22.260 32.705 L 22.260 32.363 L 22.260 32.021 L 22.260 31.678 L 22.260 31.336 L 22.260 30.993 L 22.260 30.651 L 22.260 30.308 L 22.260 29.966 L 22.260 29.623 L 22.260 29.281 L 22.260 28.938 L 22.260 28.596 L 22.260 28.253 L 22.260 27.911 L 22.432 27.740 Z M 26.884 27.740 L 27.226 27.740 L 27.568 27.740 L 27.911 27.740 L 28.253 27.740 L 28.596 27.740 L 28.938 27.740 L 29.281 27.740 L 29.623 27.740 L 29.966 27.740 L 30.308 27.740 L 30.651 27.740 L 30.993 27.740 L 31.336 27.740 L 31.678 27.740 L 32.021 27.740 L 32.363 27.740 L 32.705 27.740 L 33.048 27.740 L 33.390 27.740 L 33.733 27.740 L 34.075 27.740 L 34.418 27.740 L 34.760 27.740 L 35.103 27.740 L 35.445 27.740 L 35.788 27.740 L 36.130 27.740 L 36.473 27.740 L 36.815 27.740 L 37.158 27.740 L 37.500 27.740 L 37.671 27.911 L 37.671 28.253 L 37.671 28.596 L 37.671 28.938 L 37.671 29.281 L 37.671 29.623 L 37.671 29.966 L 37.671 30.308 L 37.500 30.479 L 37.158 30.479 L 36.815 30.479 L 36.473 30.479 L 36.130 30.479 L 35.788 30.479 L 35.445 30.479 L 35.103 30.479 L 34.760 30.479 L 34.418 30.479 L 34.075 30.479 L 33.904 30.651 L 33.904 30.993 L 33.904 31.336 L 33.904 31.678 L 33.904 32.021 L 33.904 32.363 L 33.904 32.705 L 33.904 33.048 L 33.904 33.390 L 33.904 33.733 L 33.904 34.075 L 33.904 34.418 L 33.904 34.760 L 33.904 35.103 L 33.904 35.445 L 33.904 35.788 L 33.904 36.130 L 33.904 36.473 L 33.904 36.815 L 33.904 37.158 L 33.904 37.500 L 33.904 37.842 L 33.904 38.185 L 33.904 38.527 L 33.904 38.870 L 33.904 39.212 L 33.904 39.555 L 33.904 39.897 L 33.904 40.240 L 33.904 40.582 L 33.904 40.925 L 33.904 41.267 L 33.733 41.438 L 33.390 41.438 L 33.048 41.438 L 32.705 41.438 L 32.363 41.438 L 32.021 41.438 L 31.678 41.438 L 31.336 41.438 L 30.993 41.438 L 30.822 41.267 L 30.822 40.925 L 30.822 40.582 L 30.822 40.240 L 30.822 39.897 L 30.822 39.555 L 30.822 39.212 L 30.822 38.870 L 30.822 38.527 L 30.822 38.185 L 30.822 37.842 L 30.822 37.500 L 30.822 37.158 L 30.822 36.815 L 30.822 36.473 L 30.822 36.130 L 30.822 35.788 L 30.822 35.445 L 30.822 35.103 L 30.822 34.760 L 30.822 34.418 L 30.822 34.075 L 30.822 33.733 L 30.822 33.390 L 30.822 33.048 L 30.822 32.705 L 30.822 32.363 L 30.822 32.021 L 30.822 31.678 L 30.822 31.336 L 30.822 30.993 L 30.822 30.651 L 30.651 30.479 L 30.308 30.479 L 29.966 30.479 L 29.623 30.479 L 29.281 30.479 L 28.938 30.479 L 28.596 30.479 L 28.253 30.479 L 27.911 30.479 L 27.568 30.479 L 27.226 30.479 L 26.884 30.479 L 26.712 30.308 L 26.712 29.966 L 26.712 29.623 L 26.712 29.281 L 26.712 28.938 L 26.712 28.596 L 26.712 28.253 L 26.712 27.911 L 26.884 27.740 Z M 14.212 30.137 L 14.041 30.308 L 14.041 30.651 L 14.041 30.993 L 14.041 31.336 L 14.041 31.678 L 14.041 32.021 L 14.041 32.363 L 14.041 32.705 L 14.041 33.048 L 14.041 33.390 L 14.212 33.562 L 14.555 33.562 L 14.897 33.562 L 15.240 33.562 L 15.411 33.390 L 15.582 33.219 L 15.925 33.219 L 16.096 33.048 L 16.267 32.877 L 16.438 32.705 L 16.610 32.534 L 16.781 32.363 L 16.781 32.021 L 16.781 31.678 L 16.781 31.336 L 16.781 30.993 L 16.610 30.822 L 16.438 30.651 L 16.267 30.479 L 16.096 30.308 L 15.925 30.137 L 15.582 30.137 L 15.240 30.137 L 14.897 30.137 L 14.555 30.137 L 14.212 30.137 Z M 85.445 31.164 L 85.788 31.164 L 86.130 31.164 L 86.301 31.336 L 86.130 31.507 L 85.788 31.507 L 85.445 31.507 L 85.274 31.336 L 85.445 31.164 Z M 85.103 31.507 L 85.274 31.678 L 85.103 31.849 L 84.932 31.678 L 85.103 31.507 Z M 41.952 32.534 L 41.781 32.705 L 41.610 32.877 L 41.438 33.048 L 41.267 33.219 L 41.096 33.390 L 40.925 33.562 L 40.753 33.733 L 40.582 33.904 L 40.411 34.075 L 40.411 34.418 L 40.411 34.760 L 40.411 35.103 L 40.411 35.445 L 40.411 35.788 L 40.411 36.130 L 40.411 36.473 L 40.411 36.815 L 40.411 37.158 L 40.411 37.500 L 40.411 37.842 L 40.411 38.185 L 40.411 38.527 L 40.411 38.870 L 40.411 39.212 L 40.411 39.555 L 40.411 39.897 L 40.411 40.240 L 40.411 40.582 L 40.411 40.925 L 40.411 41.267 L 40.411 41.610 L 40.411 41.952 L 40.411 42.295 L 40.411 42.637 L 40.411 42.979 L 40.411 43.322 L 40.411 43.664 L 40.411 44.007 L 40.411 44.349 L 40.411 44.692 L 40.411 45.034 L 40.411 45.377 L 40.582 45.548 L 40.753 45.719 L 40.925 45.890 L 41.096 46.062 L 41.267 46.233 L 41.438 46.404 L 41.610 46.575 L 41.781 46.747 L 41.952 46.918 L 42.295 46.918 L 42.637 46.918 L 42.979 46.918 L 43.322 46.918 L 43.664 46.918 L 44.007 46.918 L 44.349 46.918 L 44.692 46.918 L 45.034 46.918 L 45.377 46.918 L 45.719 46.918 L 46.062 46.918 L 46.404 46.918 L 46.747 46.918 L 47.089 46.918 L 47.432 46.918 L 47.774 46.918 L 48.116 46.918 L 48.459 46.918 L 48.801 46.918 L 49.144 46.918 L 49.486 46.918 L 49.829 46.918 L 50.171 46.918 L 50.514 46.918 L 50.856 46.918 L 51.199 46.918 L 51.541 46.918 L 51.884 46.918 L 52.226 46.918 L 52.568 46.918 L 52.911 46.918 L 53.253 46.918 L 53.425 46.747 L 53.596 46.575 L 53.767 46.404 L 53.938 46.233 L 54.110 46.062 L 54.281 45.890 L 54.452 45.719 L 54.623 45.548 L 54.795 45.377 L 54.795 45.034 L 54.795 44.692 L 54.795 44.349 L 54.795 44.007 L 54.795 43.664 L 54.795 43.322 L 54.795 42.979 L 54.795 42.637 L 54.795 42.295 L 54.795 41.952 L 54.795 41.610 L 54.795 41.267 L 54.795 40.925 L 54.795 40.582 L 54.795 40.240 L 54.795 39.897 L 54.795 39.555 L 54.795 39.212 L 54.795 38.870 L 54.795 38.527 L 54.795 38.185 L 54.795 37.842 L 54.795 37.500 L 54.795 37.158 L 54.795 36.815 L 54.795 36.473 L 54.795 36.130 L 54.795 35.788 L 54.795 35.445 L 54.795 35.103 L 54.795 34.760 L 54.795 34.418 L 54.795 34.075 L 54.623 33.904 L 54.452 33.733 L 54.452 33.390 L 54.281 33.219 L 54.110 33.048 L 53.938 32.877 L 53.596 32.877 L 53.425 32.705 L 53.253 32.534 L 52.911 32.534 L 52.568 32.534 L 52.226 32.534 L 51.884 32.534 L 51.541 32.534 L 51.199 32.534 L 50.856 32.534 L 50.514 32.534 L 50.171 32.534 L 49.829 32.534 L 49.486 32.534 L 49.144 32.534 L 48.801 32.534 L 48.459 32.534 L 48.116 32.534 L 47.774 32.534 L 47.432 32.534 L 47.089 32.534 L 46.747 32.534 L 46.404 32.534 L 46.062 32.534 L 45.719 32.534 L 45.377 32.534 L 45.034 32.534 L 44.692 32.534 L 44.349 32.534 L 44.007 32.534 L 43.664 32.534 L 43.322 32.534 L 42.979 32.534 L 42.637 32.534 L 42.295 32.534 L 41.952 32.534 Z M 43.322 33.219 L 43.664 33.219 L 44.007 33.219 L 44.349 33.219 L 44.692 33.219 L 45.034 33.219 L 45.377 33.219 L 45.719 33.219 L 46.062 33.219 L 46.404 33.219 L 46.747 33.219 L 47.089 33.219 L 47.432 33.219 L 47.774 33.219 L 48.116 33.219 L 48.459 33.219 L 48.801 33.219 L 49.144 33.219 L 49.486 33.219 L 49.829 33.219 L 50.171 33.219 L 50.514 33.219 L 50.856 33.219 L 51.199 33.219 L 51.541 33.219 L 51.884 33.219 L 52.226 33.219 L 52.397 33.390 L 52.568 33.562 L 52.911 33.562 L 53.082 33.733 L 53.253 33.904 L 53.425 34.075 L 53.596 34.247 L 53.767 34.418 L 53.767 34.760 L 53.767 35.103 L 53.767 35.445 L 53.767 35.788 L 53.767 36.130 L 53.767 36.473 L 53.767 36.815 L 53.767 37.158 L 53.767 37.500 L 53.767 37.842 L 53.767 38.185 L 53.767 38.527 L 53.767 38.870 L 53.767 39.212 L 53.767 39.555 L 53.767 39.897 L 53.767 40.240 L 53.767 40.582 L 53.767 40.925 L 53.767 41.267 L 53.767 41.610 L 53.767 41.952 L 53.767 42.295 L 53.767 42.637 L 53.767 42.979 L 53.767 43.322 L 53.767 43.664 L 53.767 44.007 L 53.767 44.349 L 53.767 44.692 L 53.767 45.034 L 53.596 45.205 L 53.425 45.377 L 53.253 45.548 L 53.082 45.719 L 52.911 45.890 L 52.568 45.890 L 52.226 45.890 L 51.884 45.890 L 51.541 45.890 L 51.199 45.890 L 50.856 45.890 L 50.514 45.890 L 50.171 45.890 L 49.829 45.890 L 49.486 45.890 L 49.144 45.890 L 48.801 45.890 L 48.459 45.890 L 48.116 45.890 L 47.774 45.890 L 47.432 45.890 L 47.089 45.890 L 46.747 45.890 L 46.404 45.890 L 46.062 45.890 L 45.719 45.890 L 45.377 45.890 L 45.034 45.890 L 44.692 45.890 L 44.349 45.890 L 44.007 45.890 L 43.664 45.890 L 43.322 45.890 L 42.979 45.890 L 42.637 45.890 L 42.295 45.890 L 42.123 45.719 L 41.952 45.548 L 41.781 45.377 L 41.610 45.205 L 41.438 45.034 L 41.438 44.692 L 41.438 44.349 L 41.438 44.007 L 41.438 43.664 L 41.438 43.322 L 41.438 42.979 L 41.438 42.637 L 41.438 42.295 L 41.438 41.952 L 41.438 41.610 L 41.438 41.267 L 41.438 40.925 L 41.438 40.582 L 41.438 40.240 L 41.438 39.897 L 41.438 39.555 L 41.438 39.212 L 41.438 38.870 L 41.438 38.527 L 41.438 38.185 L 41.438 37.842 L 41.438 37.500 L 41.438 37.158 L 41.438 36.815 L 41.438 36.473 L 41.438 36.130 L 41.438 35.788 L 41.438 35.445 L 41.438 35.103 L 41.438 34.760 L 41.438 34.418 L 41.610 34.247 L 41.781 34.075 L 41.952 33.904 L 42.123 33.733 L 42.295 33.562 L 42.637 33.562 L 42.979 33.562 L 43.151 33.390 L 43.322 33.219 Z M 47.089 34.589 L 46.918 34.760 L 46.747 34.932 L 46.575 35.103 L 46.575 35.445 L 46.404 35.616 L 46.233 35.788 L 46.233 36.130 L 46.233 36.473 L 46.062 36.644 L 45.890 36.815 L 45.890 37.158 L 45.719 37.329 L 45.548 37.500 L 45.548 37.842 L 45.548 38.185 L 45.377 38.356 L 45.205 38.527 L 45.205 38.870 L 45.034 39.041 L 44.863 39.212 L 44.863 39.555 L 44.863 39.897 L 44.692 40.068 L 44.521 40.240 L 44.521 40.582 L 44.349 40.753 L 44.178 40.925 L 44.178 41.267 L 44.178 41.610 L 44.007 41.781 L 43.836 41.952 L 43.836 42.295 L 43.664 42.466 L 43.493 42.637 L 43.493 42.979 L 43.322 43.151 L 43.151 43.322 L 43.151 43.664 L 43.322 43.836 L 43.664 43.836 L 44.007 43.836 L 44.349 43.836 L 44.692 43.836 L 45.034 43.836 L 45.377 43.836 L 45.548 43.664 L 45.548 43.322 L 45.548 42.979 L 45.719 42.808 L 45.890 42.637 L 45.890 42.295 L 46.062 42.123 L 46.233 41.952 L 46.404 41.781 L 46.747 41.781 L 47.089 41.781 L 47.432 41.781 L 47.774 41.781 L 48.116 41.781 L 48.459 41.781 L 48.801 41.781 L 49.144 41.781 L 49.315 41.952 L 49.315 42.295 L 49.486 42.466 L 49.658 42.637 L 49.658 42.979 L 49.829 43.151 L 50.000 43.322 L 50.000 43.664 L 50.171 43.836 L 50.514 43.836 L 50.856 43.836 L 51.199 43.836 L 51.541 43.836 L 51.884 43.836 L 52.055 43.664 L 52.055 43.322 L 52.055 42.979 L 51.884 42.808 L 51.712 42.637 L 51.712 42.295 L 51.541 42.123 L 51.370 41.952 L 51.370 41.610 L 51.370 41.267 L 51.199 41.096 L 51.027 40.925 L 51.027 40.582 L 51.027 40.240 L 50.856 40.068 L 50.685 39.897 L 50.685 39.555 L 50.514 39.384 L 50.342 39.212 L 50.342 38.870 L 50.171 38.699 L 50.000 38.527 L 50.000 38.185 L 49.829 38.014 L 49.658 37.842 L 49.658 37.500 L 49.658 37.158 L 49.486 36.986 L 49.315 36.815 L 49.315 36.473 L 49.315 36.130 L 49.144 35.959 L 48.973 35.788 L 48.973 35.445 L 48.801 35.274 L 48.630 35.103 L 48.630 34.760 L 48.459 34.589 L 48.116 34.589 L 47.774 34.589 L 47.432 34.589 L 47.089 34.589 Z M 90.582 34.932 L 90.753 35.103 L 90.753 35.445 L 90.753 35.788 L 90.582 35.959 L 90.411 35.788 L 90.411 35.445 L 90.411 35.103 L 90.582 34.932 Z M 14.555 35.616 L 14.384 35.788 L 14.212 35.959 L 14.041 36.130 L 14.041 36.473 L 14.041 36.815 L 14.041 37.158 L 14.041 37.500 L 14.041 37.842 L 14.041 38.185 L 14.041 38.527 L 14.041 38.870 L 14.041 39.212 L 14.212 39.384 L 14.555 39.384 L 14.897 39.384 L 15.240 39.384 L 15.582 39.384 L 15.925 39.384 L 16.267 39.384 L 16.610 39.384 L 16.781 39.212 L 16.952 39.041 L 17.123 38.870 L 17.295 38.699 L 17.466 38.527 L 17.637 38.356 L 17.808 38.185 L 17.808 37.842 L 17.808 37.500 L 17.808 37.158 L 17.808 36.815 L 17.637 36.644 L 17.466 36.473 L 17.295 36.301 L 17.123 36.130 L 16.952 35.959 L 16.610 35.959 L 16.267 35.959 L 16.096 35.788 L 15.925 35.616 L 15.582 35.616 L 15.240 35.616 L 14.897 35.616 L 14.555 35.616 Z M 90.240 35.959 L 90.411 36.130 L 90.240 36.301 L 90.068 36.130 L 90.240 35.959 Z M 89.555 36.301 L 89.897 36.301 L 90.068 36.473 L 89.897 36.644 L 89.555 36.644 L 89.384 36.473 L 89.555 36.301 Z M 47.774 37.671 L 47.945 37.842 L 47.945 38.185 L 48.116 38.356 L 48.288 38.527 L 48.288 38.870 L 48.288 39.212 L 48.459 39.384 L 48.630 39.555 L 48.630 39.897 L 48.459 40.068 L 48.116 40.068 L 47.774 40.068 L 47.432 40.068 L 47.089 40.068 L 46.918 39.897 L 46.918 39.555 L 46.918 39.212 L 47.089 39.041 L 47.260 38.870 L 47.260 38.527 L 47.260 38.185 L 47.432 38.014 L 47.603 37.842 L 47.774 37.671 Z M 59.075 38.699 L 59.418 38.699 L 59.760 38.699 L 60.103 38.699 L 60.445 38.699 L 60.788 38.699 L 61.130 38.699 L 61.473 38.699 L 61.815 38.699 L 62.158 38.699 L 62.500 38.699 L 62.842 38.699 L 63.185 38.699 L 63.527 38.699 L 63.870 38.699 L 64.212 38.699 L 64.555 38.699 L 64.897 38.699 L 65.068 38.870 L 65.240 39.041 L 65.582 39.041 L 65.925 39.041 L 66.096 39.212 L 66.267 39.384 L 66.438 39.555 L 66.610 39.726 L 66.781 39.897 L 66.952 40.068 L 67.123 40.240 L 67.123 40.582 L 67.295 40.753 L 67.466 40.925 L 67.466 41.267 L 67.466 41.610 L 67.466 41.952 L 67.466 42.295 L 67.466 42.637 L 67.466 42.979 L 67.466 43.322 L 67.295 43.493 L 67.123 43.664 L 67.123 44.007 L 66.952 44.178 L 66.781 44.349 L 66.610 44.521 L 66.267 44.521 L 66.096 44.692 L 66.096 45.034 L 66.267 45.205 L 66.610 45.205 L 66.781 45.377 L 66.952 45.548 L 67.295 45.548 L 67.466 45.719 L 67.637 45.890 L 67.808 46.062 L 67.979 46.233 L 68.151 46.404 L 68.151 46.747 L 68.322 46.918 L 68.493 47.089 L 68.493 47.432 L 68.493 47.774 L 68.493 48.116 L 68.493 48.459 L 68.493 48.801 L 68.493 49.144 L 68.493 49.486 L 68.493 49.829 L 68.493 50.171 L 68.322 50.342 L 68.151 50.514 L 68.151 50.856 L 67.979 51.027 L 67.808 51.199 L 67.637 51.370 L 67.466 51.541 L 67.295 51.712 L 66.952 51.712 L 66.781 51.884 L 66.610 52.055 L 66.267 52.055 L 66.096 52.226 L 65.925 52.397 L 65.582 52.397 L 65.240 52.397 L 64.897 52.397 L 64.555 52.397 L 64.212 52.397 L 63.870 52.397 L 63.527 52.397 L 63.185 52.397 L 62.842 52.397 L 62.500 52.397 L 62.158 52.397 L 61.815 52.397 L 61.473 52.397 L 61.130 52.397 L 60.788 52.397 L 60.445 52.397 L 60.103 52.397 L 59.760 52.397 L 59.418 52.397 L 59.075 52.397 L 58.904 52.226 L 58.904 51.884 L 58.904 51.541 L 58.904 51.199 L 58.904 50.856 L 58.904 50.514 L 58.904 50.171 L 58.904 49.829 L 58.904 49.486 L 58.904 49.144 L 58.904 48.801 L 58.904 48.459 L 58.904 48.116 L 58.904 47.774 L 58.904 47.432 L 58.904 47.089 L 58.904 46.747 L 58.904 46.404 L 58.904 46.062 L 58.904 45.719 L 58.904 45.377 L 58.904 45.034 L 58.904 44.692 L 58.904 44.349 L 58.904 44.007 L 58.904 43.664 L 58.904 43.322 L 58.904 42.979 L 58.904 42.637 L 58.904 42.295 L 58.904 41.952 L 58.904 41.610 L 58.904 41.267 L 58.904 40.925 L 58.904 40.582 L 58.904 40.240 L 58.904 39.897 L 58.904 39.555 L 58.904 39.212 L 58.904 38.870 L 59.075 38.699 Z M 70.377 38.699 L 70.719 38.699 L 71.062 38.699 L 71.404 38.699 L 71.747 38.699 L 72.089 38.699 L 72.432 38.699 L 72.774 38.699 L 73.116 38.699 L 73.288 38.870 L 73.288 39.212 L 73.288 39.555 L 73.288 39.897 L 73.288 40.240 L 73.288 40.582 L 73.288 40.925 L 73.288 41.267 L 73.288 41.610 L 73.288 41.952 L 73.288 42.295 L 73.288 42.637 L 73.288 42.979 L 73.288 43.322 L 73.288 43.664 L 73.288 44.007 L 73.288 44.349 L 73.288 44.692 L 73.288 45.034 L 73.288 45.377 L 73.288 45.719 L 73.288 46.062 L 73.288 46.404 L 73.288 46.747 L 73.288 47.089 L 73.288 47.432 L 73.288 47.774 L 73.288 48.116 L 73.288 48.459 L 73.288 48.801 L 73.288 49.144 L 73.288 49.486 L 73.288 49.829 L 73.288 50.171 L 73.288 50.514 L 73.288 50.856 L 73.288 51.199 L 73.288 51.541 L 73.288 51.884 L 73.288 52.226 L 73.116 52.397 L 72.774 52.397 L 72.432 52.397 L 72.089 52.397 L 71.747 52.397 L 71.404 52.397 L 71.062 52.397 L 70.719 52.397 L 70.377 52.397 L 70.205 52.226 L 70.205 51.884 L 70.205 51.541 L 70.205 51.199 L 70.205 50.856 L 70.205 50.514 L 70.205 50.171 L 70.205 49.829 L 70.205 49.486 L 70.205 49.144 L 70.205 48.801 L 70.205 48.459 L 70.205 48.116 L 70.205 47.774 L 70.205 47.432 L 70.205 47.089 L 70.205 46.747 L 70.205 46.404 L 70.205 46.062 L 70.205 45.719 L 70.205 45.377 L 70.205 45.034 L 70.205 44.692 L 70.205 44.349 L 70.205 44.007 L 70.205 43.664 L 70.205 43.322 L 70.205 42.979 L 70.205 42.637 L 70.205 42.295 L 70.205 41.952 L 70.205 41.610 L 70.205 41.267 L 70.205 40.925 L 70.205 40.582 L 70.205 40.240 L 70.205 39.897 L 70.205 39.555 L 70.205 39.212 L 70.205 38.870 L 70.377 38.699 Z M 74.829 38.699 L 75.171 38.699 L 75.514 38.699 L 75.856 38.699 L 76.199 38.699 L 76.541 38.699 L 76.884 38.699 L 77.226 38.699 L 77.568 38.699 L 77.911 38.699 L 78.253 38.699 L 78.596 38.699 L 78.938 38.699 L 79.281 38.699 L 79.623 38.699 L 79.966 38.699 L 80.308 38.699 L 80.651 38.699 L 80.993 38.699 L 81.336 38.699 L 81.678 38.699 L 82.021 38.699 L 82.363 38.699 L 82.705 38.699 L 83.048 38.699 L 83.390 38.699 L 83.733 38.699 L 84.075 38.699 L 84.418 38.699 L 84.760 38.699 L 85.103 38.699 L 85.445 38.699 L 85.616 38.870 L 85.616 39.212 L 85.616 39.555 L 85.616 39.897 L 85.616 40.240 L 85.616 40.582 L 85.616 40.925 L 85.616 41.267 L 85.445 41.438 L 85.103 41.438 L 84.760 41.438 L 84.418 41.438 L 84.075 41.438 L 83.733 41.438 L 83.390 41.438 L 83.048 41.438 L 82.705 41.438 L 82.363 41.438 L 82.021 41.438 L 81.678 41.438 L 81.507 41.610 L 81.507 41.952 L 81.507 42.295 L 81.507 42.637 L 81.507 42.979 L 81.507 43.322 L 81.507 43.664 L 81.507 44.007 L 81.507 44.349 L 81.507 44.692 L 81.507 45.034 L 81.507 45.377 L 81.507 45.719 L 81.507 46.062 L 81.507 46.404 L 81.507 46.747 L 81.507 47.089 L 81.507 47.432 L 81.507 47.774 L 81.507 48.116 L 81.507 48.459 L 81.507 48.801 L 81.507 49.144 L 81.507 49.486 L 81.507 49.829 L 81.507 50.171 L 81.507 50.514 L 81.507 50.856 L 81.507 51.199 L 81.507 51.541 L 81.507 51.884 L 81.507 52.226 L 81.336 52.397 L 80.993 52.397 L 80.651 52.397 L 80.308 52.397 L 79.966 52.397 L 79.623 52.397 L 79.281 52.397 L 78.938 52.397 L 78.596 52.397 L 78.425 52.226 L 78.425 51.884 L 78.425 51.541 L 78.425 51.199 L 78.425 50.856 L 78.425 50.514 L 78.425 50.171 L 78.425 49.829 L 78.425 49.486 L 78.425 49.144 L 78.425 48.801 L 78.425 48.459 L 78.425 48.116 L 78.425 47.774 L 78.425 47.432 L 78.425 47.089 L 78.425 46.747 L 78.425 46.404 L 78.425 46.062 L 78.425 45.719 L 78.425 45.377 L 78.425 45.034 L 78.425 44.692 L 78.425 44.349 L 78.425 44.007 L 78.425 43.664 L 78.425 43.322 L 78.425 42.979 L 78.425 42.637 L 78.425 42.295 L 78.425 41.952 L 78.425 41.610 L 78.253 41.438 L 77.911 41.438 L 77.568 41.438 L 77.226 41.438 L 76.884 41.438 L 76.541 41.438 L 76.199 41.438 L 75.856 41.438 L 75.514 41.438 L 75.171 41.438 L 74.829 41.438 L 74.658 41.267 L 74.658 40.925 L 74.658 40.582 L 74.658 40.240 L 74.658 39.897 L 74.658 39.555 L 74.658 39.212 L 74.658 38.870 L 74.829 38.699 Z M 62.158 40.753 L 61.986 40.925 L 61.986 41.267 L 61.986 41.610 L 61.986 41.952 L 61.986 42.295 L 61.986 42.637 L 61.986 42.979 L 61.986 43.322 L 61.986 43.664 L 61.986 44.007 L 62.158 44.178 L 62.500 44.178 L 62.842 44.178 L 63.185 44.178 L 63.527 44.178 L 63.870 44.178 L 64.041 44.007 L 64.212 43.836 L 64.384 43.664 L 64.384 43.322 L 64.555 43.151 L 64.726 42.979 L 64.726 42.637 L 64.726 42.295 L 64.726 41.952 L 64.555 41.781 L 64.384 41.610 L 64.212 41.438 L 64.041 41.267 L 63.870 41.096 L 63.699 40.925 L 63.527 40.753 L 63.185 40.753 L 62.842 40.753 L 62.500 40.753 L 62.158 40.753 Z M 46.747 44.178 L 46.575 44.349 L 46.575 44.692 L 46.747 44.863 L 46.918 45.034 L 46.747 45.205 L 46.575 45.377 L 46.747 45.548 L 47.089 45.548 L 47.432 45.548 L 47.603 45.377 L 47.432 45.205 L 47.260 45.034 L 47.260 44.692 L 47.260 44.349 L 47.089 44.178 L 46.747 44.178 Z M 48.116 44.178 L 47.945 44.349 L 47.945 44.692 L 47.945 45.034 L 47.945 45.377 L 48.116 45.548 L 48.459 45.548 L 48.630 45.377 L 48.801 45.205 L 48.973 45.034 L 48.973 44.692 L 48.801 44.521 L 48.630 44.349 L 48.459 44.178 L 48.116 44.178 Z M 48.459 44.521 L 48.630 44.692 L 48.630 45.034 L 48.459 45.205 L 48.288 45.034 L 48.288 44.692 L 48.459 44.521 Z M 4.966 44.863 L 5.308 44.863 L 5.651 44.863 L 5.993 44.863 L 6.164 45.034 L 5.993 45.205 L 5.651 45.205 L 5.308 45.205 L 4.966 45.205 L 4.795 45.034 L 4.966 44.863 Z M 8.733 46.575 L 8.904 46.747 L 8.733 46.918 L 8.562 46.747 L 8.733 46.575 Z M 62.158 46.575 L 61.986 46.747 L 61.986 47.089 L 61.986 47.432 L 61.986 47.774 L 61.986 48.116 L 61.986 48.459 L 61.986 48.801 L 61.986 49.144 L 61.986 49.486 L 61.986 49.829 L 62.158 50.000 L 62.500 50.000 L 62.842 50.000 L 63.185 50.000 L 63.527 50.000 L 63.870 50.000 L 64.212 50.000 L 64.555 50.000 L 64.897 50.000 L 65.068 49.829 L 65.240 49.658 L 65.411 49.486 L 65.411 49.144 L 65.582 48.973 L 65.753 48.801 L 65.753 48.459 L 65.753 48.116 L 65.582 47.945 L 65.411 47.774 L 65.411 47.432 L 65.240 47.260 L 65.068 47.089 L 64.897 46.918 L 64.555 46.918 L 64.384 46.747 L 64.212 46.575 L 63.870 46.575 L 63.527 46.575 L 63.185 46.575 L 62.842 46.575 L 62.500 46.575 L 62.158 46.575 Z M 8.390 46.918 L 8.562 47.089 L 8.562 47.432 L 8.562 47.774 L 8.390 47.945 L 8.219 47.774 L 8.219 47.432 L 8.219 47.089 L 8.390 46.918 Z M 8.733 47.945 L 8.904 48.116 L 8.733 48.288 L 8.562 48.116 L 8.733 47.945 Z M 9.075 48.288 L 9.418 48.288 L 9.589 48.459 L 9.418 48.630 L 9.075 48.630 L 8.904 48.459 L 9.075 48.288 Z M 2.911 50.342 L 3.082 50.514 L 2.911 50.685 L 2.740 50.514 L 2.911 50.342 Z M 2.226 50.685 L 2.568 50.685 L 2.740 50.856 L 2.568 51.027 L 2.226 51.027 L 2.055 50.856 L 2.226 50.685 Z M 3.253 50.685 L 3.596 50.685 L 3.767 50.856 L 3.596 51.027 L 3.253 51.027 L 3.082 50.856 L 3.253 50.685 Z M 1.884 51.027 L 2.055 51.199 L 2.055 51.541 L 2.055 51.884 L 1.884 52.055 L 1.712 51.884 L 1.712 51.541 L 1.712 51.199 L 1.884 51.027 Z M 2.226 52.055 L 2.397 52.226 L 2.226 52.397 L 2.055 52.226 L 2.226 52.055 Z M 3.253 52.055 L 3.596 52.055 L 3.767 52.226 L 3.596 52.397 L 3.425 52.568 L 3.253 52.740 L 2.911 52.740 L 2.568 52.740 L 2.397 52.568 L 2.568 52.397 L 2.911 52.397 L 3.082 52.226 L 3.253 52.055 Z M 6.336 53.767 L 6.678 53.767 L 6.849 53.938 L 6.678 54.110 L 6.507 54.281 L 6.507 54.623 L 6.507 54.966 L 6.336 55.137 L 6.164 54.966 L 6.164 54.623 L 6.164 54.281 L 6.164 53.938 L 6.336 53.767 Z M 6.678 55.137 L 7.021 55.137 L 7.363 55.137 L 7.705 55.137 L 7.877 55.308 L 7.705 55.479 L 7.363 55.479 L 7.021 55.479 L 6.678 55.479 L 6.507 55.308 L 6.678 55.137 Z M 76.199 55.137 L 76.541 55.137 L 76.884 55.137 L 77.226 55.137 L 77.568 55.137 L 77.911 55.137 L 78.253 55.137 L 78.596 55.137 L 78.938 55.137 L 79.281 55.137 L 79.623 55.137 L 79.966 55.137 L 80.137 55.308 L 80.137 55.651 L 80.308 55.822 L 80.479 55.993 L 80.651 56.164 L 80.993 56.164 L 81.164 56.336 L 81.336 56.507 L 81.507 56.678 L 81.678 56.849 L 82.021 56.849 L 82.192 57.021 L 82.363 57.192 L 82.534 57.363 L 82.534 57.705 L 82.534 58.048 L 82.363 58.219 L 82.192 58.390 L 82.192 58.733 L 82.192 59.075 L 82.021 59.247 L 81.849 59.418 L 81.849 59.760 L 81.678 59.932 L 81.507 60.103 L 81.507 60.445 L 81.507 60.788 L 81.336 60.959 L 81.164 61.130 L 81.164 61.473 L 80.993 61.644 L 80.822 61.815 L 80.822 62.158 L 80.651 62.329 L 80.479 62.500 L 80.308 62.671 L 79.966 62.671 L 79.623 62.671 L 79.281 62.671 L 79.110 62.500 L 78.938 62.329 L 78.596 62.329 L 78.253 62.329 L 77.911 62.329 L 77.568 62.329 L 77.226 62.329 L 77.055 62.158 L 76.884 61.986 L 76.541 61.986 L 76.199 61.986 L 76.027 62.158 L 75.856 62.329 L 75.685 62.500 L 75.685 62.842 L 75.514 63.014 L 75.342 63.185 L 75.171 63.356 L 75.000 63.527 L 74.829 63.699 L 74.658 63.870 L 74.486 64.041 L 74.315 64.212 L 74.144 64.384 L 73.973 64.555 L 73.801 64.726 L 73.630 64.897 L 73.459 65.068 L 73.288 65.240 L 73.288 65.582 L 73.288 65.925 L 73.459 66.096 L 73.630 66.267 L 73.630 66.610 L 73.801 66.781 L 73.973 66.952 L 74.144 67.123 L 74.315 67.295 L 74.315 67.637 L 74.486 67.808 L 74.658 67.979 L 74.829 68.151 L 75.000 68.322 L 75.000 68.664 L 74.829 68.836 L 74.658 69.007 L 74.486 69.178 L 74.315 69.349 L 74.144 69.521 L 73.973 69.692 L 73.801 69.863 L 73.630 70.034 L 73.459 70.205 L 73.288 70.377 L 73.116 70.548 L 72.945 70.719 L 72.774 70.890 L 72.603 71.062 L 72.432 71.233 L 72.260 71.404 L 72.089 71.575 L 71.918 71.747 L 71.747 71.918 L 71.575 72.089 L 71.404 72.260 L 71.233 72.432 L 71.062 72.603 L 70.719 72.603 L 70.548 72.432 L 70.377 72.260 L 70.205 72.089 L 70.034 71.918 L 69.692 71.918 L 69.521 71.747 L 69.349 71.575 L 69.178 71.404 L 69.007 71.233 L 68.664 71.233 L 68.493 71.062 L 68.322 70.890 L 67.979 70.890 L 67.808 70.719 L 67.637 70.548 L 67.466 70.377 L 67.295 70.205 L 67.123 70.377 L 66.952 70.548 L 66.781 70.719 L 66.610 70.890 L 66.267 70.890 L 66.096 71.062 L 65.925 71.233 L 65.582 71.233 L 65.411 71.404 L 65.240 71.575 L 65.068 71.747 L 64.897 71.918 L 64.555 71.918 L 64.384 72.089 L 64.212 72.260 L 63.870 72.260 L 63.699 72.432 L 63.527 72.603 L 63.185 72.603 L 63.014 72.774 L 63.014 73.116 L 63.014 73.459 L 63.014 73.801 L 63.185 73.973 L 63.356 74.144 L 63.356 74.486 L 63.356 74.829 L 63.356 75.171 L 63.356 75.514 L 63.356 75.856 L 63.356 76.199 L 63.356 76.541 L 63.185 76.712 L 63.014 76.884 L 62.842 77.055 L 62.500 77.055 L 62.158 77.055 L 61.986 77.226 L 61.815 77.397 L 61.473 77.397 L 61.301 77.568 L 61.130 77.740 L 60.788 77.740 L 60.616 77.911 L 60.445 78.082 L 60.103 78.082 L 59.760 78.082 L 59.589 78.253 L 59.418 78.425 L 59.075 78.425 L 58.904 78.596 L 58.733 78.767 L 58.390 78.767 L 58.219 78.596 L 58.048 78.425 L 57.877 78.253 L 57.705 78.082 L 57.534 77.911 L 57.534 77.568 L 57.363 77.397 L 57.192 77.226 L 57.021 77.055 L 56.849 76.884 L 56.849 76.541 L 56.678 76.370 L 56.507 76.199 L 56.336 76.027 L 56.164 75.856 L 55.993 75.685 L 55.822 75.514 L 55.651 75.342 L 55.308 75.342 L 55.137 75.514 L 54.966 75.685 L 54.623 75.685 L 54.281 75.685 L 53.938 75.685 L 53.767 75.856 L 53.596 76.027 L 53.253 76.027 L 52.911 76.027 L 52.568 76.027 L 52.226 76.027 L 51.884 76.027 L 51.541 76.027 L 51.199 76.027 L 51.027 76.199 L 50.856 76.370 L 50.685 76.541 L 50.685 76.884 L 50.685 77.226 L 50.685 77.568 L 50.685 77.911 L 50.514 78.082 L 50.342 78.253 L 50.342 78.596 L 50.342 78.938 L 50.342 79.281 L 50.171 79.452 L 50.000 79.623 L 50.000 79.966 L 50.000 80.308 L 49.829 80.479 L 49.486 80.479 L 49.144 80.479 L 48.801 80.479 L 48.459 80.479 L 48.116 80.479 L 47.774 80.479 L 47.432 80.479 L 47.089 80.479 L 46.747 80.479 L 46.404 80.479 L 46.062 80.479 L 45.719 80.479 L 45.377 80.479 L 45.034 80.479 L 44.692 80.479 L 44.349 80.479 L 44.178 80.308 L 44.178 79.966 L 44.178 79.623 L 44.178 79.281 L 44.007 79.110 L 43.836 78.938 L 43.836 78.596 L 43.836 78.253 L 43.836 77.911 L 43.836 77.568 L 43.664 77.397 L 43.493 77.226 L 43.493 76.884 L 43.493 76.541 L 43.322 76.370 L 42.979 76.370 L 42.808 76.199 L 42.637 76.027 L 42.295 76.027 L 41.952 76.027 L 41.610 76.027 L 41.267 76.027 L 40.925 76.027 L 40.582 76.027 L 40.240 76.027 L 40.068 75.856 L 39.897 75.685 L 39.555 75.685 L 39.212 75.685 L 38.870 75.685 L 38.699 75.514 L 38.527 75.342 L 38.185 75.342 L 37.842 75.342 L 37.671 75.514 L 37.500 75.685 L 37.329 75.856 L 37.329 76.199 L 37.158 76.370 L 36.986 76.541 L 36.815 76.712 L 36.644 76.884 L 36.644 77.226 L 36.473 77.397 L 36.301 77.568 L 36.130 77.740 L 35.959 77.911 L 35.959 78.253 L 35.788 78.425 L 35.616 78.596 L 35.445 78.767 L 35.274 78.938 L 35.103 79.110 L 34.932 78.938 L 34.760 78.767 L 34.418 78.767 L 34.247 78.596 L 34.075 78.425 L 33.733 78.425 L 33.390 78.425 L 33.219 78.253 L 33.048 78.082 L 32.705 78.082 L 32.534 77.911 L 32.363 77.740 L 32.021 77.740 L 31.678 77.740 L 31.507 77.568 L 31.336 77.397 L 30.993 77.397 L 30.822 77.226 L 30.651 77.055 L 30.308 77.055 L 30.137 76.884 L 30.137 76.541 L 30.137 76.199 L 30.137 75.856 L 30.137 75.514 L 30.137 75.171 L 30.308 75.000 L 30.479 74.829 L 30.479 74.486 L 30.479 74.144 L 30.479 73.801 L 30.479 73.459 L 30.479 73.116 L 30.479 72.774 L 30.308 72.603 L 30.137 72.432 L 29.966 72.260 L 29.623 72.260 L 29.452 72.089 L 29.281 71.918 L 28.938 71.918 L 28.767 71.747 L 28.596 71.575 L 28.253 71.575 L 28.082 71.404 L 27.911 71.233 L 27.740 71.062 L 27.568 70.890 L 27.226 70.890 L 27.055 70.719 L 26.884 70.548 L 26.541 70.548 L 26.199 70.548 L 26.027 70.719 L 25.856 70.890 L 25.514 70.890 L 25.342 71.062 L 25.171 71.233 L 25.000 71.404 L 24.829 71.575 L 24.486 71.575 L 24.315 71.747 L 24.144 71.918 L 23.801 71.918 L 23.630 72.089 L 23.459 72.260 L 23.288 72.432 L 23.116 72.603 L 22.774 72.603 L 22.603 72.432 L 22.432 72.260 L 22.260 72.089 L 22.089 71.918 L 21.918 71.747 L 21.747 71.575 L 21.575 71.404 L 21.404 71.233 L 21.233 71.062 L 21.062 70.890 L 20.890 70.719 L 20.719 70.548 L 20.548 70.377 L 20.377 70.205 L 20.205 70.034 L 20.034 69.863 L 19.863 69.692 L 19.692 69.521 L 19.521 69.349 L 19.349 69.178 L 19.178 69.007 L 19.007 68.836 L 18.836 68.664 L 19.007 68.493 L 19.178 68.322 L 19.178 67.979 L 19.349 67.808 L 19.521 67.637 L 19.521 67.295 L 19.692 67.123 L 19.863 66.952 L 20.034 66.781 L 20.205 66.610 L 20.205 66.267 L 20.377 66.096 L 20.548 65.925 L 20.548 65.582 L 20.377 65.411 L 20.205 65.240 L 20.034 65.068 L 19.863 64.897 L 19.863 64.555 L 19.692 64.384 L 19.521 64.212 L 19.349 64.041 L 19.178 63.870 L 19.007 63.699 L 18.836 63.527 L 18.664 63.356 L 18.493 63.185 L 18.322 63.014 L 18.151 62.842 L 18.151 62.500 L 18.322 62.329 L 18.493 62.158 L 18.664 61.986 L 18.836 61.815 L 19.007 61.644 L 19.178 61.473 L 19.349 61.301 L 19.521 61.130 L 19.692 60.959 L 19.863 60.788 L 20.034 60.616 L 20.205 60.445 L 20.377 60.274 L 20.548 60.103 L 20.719 59.932 L 20.890 60.103 L 21.062 60.274 L 21.233 60.445 L 21.404 60.616 L 21.575 60.788 L 21.747 60.959 L 21.918 61.130 L 22.089 61.301 L 22.260 61.473 L 22.432 61.644 L 22.603 61.815 L 22.603 62.158 L 22.774 62.329 L 22.945 62.500 L 23.116 62.671 L 23.288 62.842 L 23.459 63.014 L 23.801 63.014 L 23.973 63.185 L 23.973 63.527 L 24.144 63.699 L 24.315 63.870 L 24.486 64.041 L 24.829 64.041 L 25.000 64.212 L 25.171 64.384 L 25.342 64.555 L 25.514 64.726 L 25.685 64.897 L 25.856 65.068 L 26.027 65.240 L 26.199 65.411 L 26.370 65.582 L 26.541 65.753 L 26.884 65.753 L 27.055 65.925 L 27.226 66.096 L 27.397 66.267 L 27.568 66.438 L 27.911 66.438 L 28.082 66.610 L 28.253 66.781 L 28.425 66.952 L 28.596 67.123 L 28.938 67.123 L 29.110 67.295 L 29.281 67.466 L 29.452 67.637 L 29.623 67.808 L 29.966 67.808 L 30.137 67.979 L 30.308 68.151 L 30.651 68.151 L 30.822 68.322 L 30.993 68.493 L 31.336 68.493 L 31.507 68.664 L 31.678 68.836 L 31.849 69.007 L 32.021 69.178 L 32.363 69.178 L 32.534 69.349 L 32.705 69.521 L 33.048 69.521 L 33.219 69.692 L 33.390 69.863 L 33.733 69.863 L 34.075 69.863 L 34.247 70.034 L 34.418 70.205 L 34.760 70.205 L 34.932 70.377 L 35.103 70.548 L 35.445 70.548 L 35.788 70.548 L 36.130 70.548 L 36.301 70.719 L 36.473 70.890 L 36.815 70.890 L 36.986 71.062 L 37.158 71.233 L 37.500 71.233 L 37.842 71.233 L 38.185 71.233 L 38.356 71.404 L 38.527 71.575 L 38.870 71.575 L 39.212 71.575 L 39.384 71.747 L 39.555 71.918 L 39.897 71.918 L 40.240 71.918 L 40.582 71.918 L 40.925 71.918 L 41.267 71.918 L 41.610 71.918 L 41.781 72.089 L 41.952 72.260 L 42.295 72.260 L 42.637 72.260 L 42.979 72.260 L 43.322 72.260 L 43.664 72.260 L 43.836 72.432 L 44.007 72.603 L 44.349 72.603 L 44.692 72.603 L 45.034 72.603 L 45.377 72.603 L 45.719 72.603 L 46.062 72.603 L 46.404 72.603 L 46.747 72.603 L 47.089 72.603 L 47.432 72.603 L 47.774 72.603 L 48.116 72.603 L 48.459 72.603 L 48.801 72.603 L 49.144 72.603 L 49.315 72.432 L 49.486 72.260 L 49.829 72.260 L 50.171 72.260 L 50.514 72.260 L 50.856 72.260 L 51.199 72.260 L 51.541 72.260 L 51.884 72.260 L 52.055 72.089 L 52.226 71.918 L 52.568 71.918 L 52.911 71.918 L 53.253 71.918 L 53.596 71.918 L 53.938 71.918 L 54.281 71.918 L 54.452 71.747 L 54.623 71.575 L 54.966 71.575 L 55.308 71.575 L 55.479 71.404 L 55.651 71.233 L 55.993 71.233 L 56.336 71.233 L 56.678 71.233 L 56.849 71.062 L 57.021 70.890 L 57.363 70.890 L 57.534 70.719 L 57.705 70.548 L 58.048 70.548 L 58.390 70.548 L 58.733 70.548 L 58.904 70.377 L 59.075 70.205 L 59.418 70.205 L 59.589 70.034 L 59.760 69.863 L 60.103 69.863 L 60.445 69.863 L 60.616 69.692 L 60.788 69.521 L 60.959 69.349 L 61.130 69.178 L 61.473 69.178 L 61.815 69.178 L 61.986 69.007 L 62.158 68.836 L 62.329 68.664 L 62.500 68.493 L 62.842 68.493 L 63.014 68.322 L 63.185 68.151 L 63.527 68.151 L 63.699 67.979 L 63.870 67.808 L 64.212 67.808 L 64.384 67.637 L 64.555 67.466 L 64.726 67.295 L 64.897 67.123 L 65.240 67.123 L 65.411 66.952 L 65.582 66.781 L 65.753 66.610 L 65.925 66.438 L 66.267 66.438 L 66.438 66.267 L 66.610 66.096 L 66.781 65.925 L 66.952 65.753 L 67.123 65.582 L 67.295 65.411 L 67.637 65.411 L 67.808 65.240 L 67.979 65.068 L 68.151 64.897 L 68.322 64.726 L 68.493 64.555 L 68.664 64.384 L 68.836 64.212 L 69.007 64.041 L 69.178 63.870 L 69.349 63.699 L 69.521 63.527 L 69.692 63.356 L 69.863 63.185 L 70.034 63.014 L 70.205 62.842 L 70.377 62.671 L 70.548 62.500 L 70.719 62.329 L 70.890 62.158 L 71.062 61.986 L 71.233 61.815 L 71.404 61.644 L 71.575 61.473 L 71.747 61.301 L 71.918 61.130 L 72.089 60.959 L 72.260 60.788 L 72.432 60.616 L 72.603 60.445 L 72.774 60.274 L 72.945 60.103 L 72.945 59.760 L 73.116 59.589 L 73.288 59.418 L 73.459 59.247 L 73.630 59.075 L 73.801 58.904 L 73.973 58.733 L 73.973 58.390 L 74.144 58.219 L 74.315 58.048 L 74.486 57.877 L 74.658 57.705 L 74.658 57.363 L 74.829 57.192 L 75.000 57.021 L 75.171 56.849 L 75.342 56.678 L 75.342 56.336 L 75.514 56.164 L 75.685 55.993 L 75.685 55.651 L 75.856 55.479 L 76.027 55.308 L 76.199 55.137 Z M 46.747 57.192 L 46.918 57.363 L 46.747 57.534 L 46.575 57.363 L 46.747 57.192 Z M 48.116 57.192 L 48.288 57.363 L 48.116 57.534 L 47.945 57.363 L 48.116 57.192 Z M 46.404 57.534 L 46.575 57.705 L 46.575 58.048 L 46.404 58.219 L 46.233 58.048 L 46.233 57.705 L 46.404 57.534 Z M 48.459 57.534 L 48.630 57.705 L 48.630 58.048 L 48.630 58.390 L 48.459 58.562 L 48.288 58.733 L 48.116 58.904 L 47.774 58.904 L 47.603 58.733 L 47.774 58.562 L 47.945 58.390 L 48.116 58.219 L 48.288 58.048 L 48.288 57.705 L 48.459 57.534 Z M 46.747 58.219 L 46.918 58.390 L 47.089 58.562 L 47.260 58.733 L 47.089 58.904 L 46.747 58.904 L 46.575 58.733 L 46.575 58.390 L 46.747 58.219 Z M 0.856 58.562 L 1.199 58.562 L 1.370 58.733 L 1.199 58.904 L 1.027 59.075 L 0.856 59.247 L 0.685 59.418 L 0.514 59.589 L 0.342 59.760 L 0.171 59.932 L 0.000 59.760 L 0.000 59.418 L 0.171 59.247 L 0.342 59.075 L 0.514 58.904 L 0.685 58.733 L 0.856 58.562 Z M 47.432 58.904 L 47.603 59.075 L 47.432 59.247 L 47.260 59.075 L 47.432 58.904 Z M 0.514 59.932 L 0.685 60.103 L 0.856 60.274 L 1.027 60.445 L 0.856 60.616 L 0.514 60.616 L 0.342 60.445 L 0.342 60.103 L 0.514 59.932 Z M 1.199 60.616 L 1.370 60.788 L 1.199 60.959 L 1.027 60.788 L 1.199 60.616 Z M 39.897 60.616 L 40.068 60.788 L 40.068 61.130 L 40.068 61.473 L 39.897 61.644 L 39.726 61.473 L 39.726 61.130 L 39.726 60.788 L 39.897 60.616 Z M 40.240 61.644 L 40.411 61.815 L 40.240 61.986 L 40.068 61.815 L 40.240 61.644 Z M 40.582 61.986 L 40.925 61.986 L 41.267 61.986 L 41.438 62.158 L 41.267 62.329 L 40.925 62.329 L 40.582 62.329 L 40.411 62.158 L 40.582 61.986 Z M 51.884 65.068 L 52.055 65.240 L 52.055 65.582 L 52.055 65.925 L 52.226 66.096 L 52.397 66.267 L 52.226 66.438 L 51.884 66.438 L 51.712 66.267 L 51.712 65.925 L 51.712 65.582 L 51.712 65.240 L 51.884 65.068 Z M 52.568 66.438 L 52.911 66.438 L 53.082 66.610 L 52.911 66.781 L 52.568 66.781 L 52.397 66.610 L 52.568 66.438 Z M 89.212 73.630 L 89.555 73.630 L 89.897 73.630 L 90.240 73.630 L 90.411 73.801 L 90.582 73.973 L 90.925 73.973 L 91.267 73.973 L 91.610 73.973 L 91.952 73.973 L 92.295 73.973 L 92.637 73.973 L 92.808 74.144 L 92.637 74.315 L 92.295 74.315 L 91.952 74.315 L 91.610 74.315 L 91.267 74.315 L 90.925 74.315 L 90.582 74.315 L 90.240 74.315 L 89.897 74.315 L 89.726 74.144 L 89.555 73.973 L 89.384 74.144 L 89.212 74.315 L 88.870 74.315 L 88.699 74.144 L 88.870 73.973 L 89.041 73.801 L 89.212 73.630 Z M 99.829 73.973 L 100.000 74.144 L 99.829 74.315 L 99.658 74.144 L 99.829 73.973 Z M 88.185 74.315 L 88.527 74.315 L 88.699 74.486 L 88.527 74.658 L 88.356 74.829 L 88.185 75.000 L 87.842 75.000 L 87.671 74.829 L 87.842 74.658 L 88.014 74.486 L 88.185 74.315 Z M 92.979 74.315 L 93.322 74.315 L 93.493 74.486 L 93.322 74.658 L 92.979 74.658 L 92.808 74.486 L 92.979 74.315 Z M 99.144 74.315 L 99.486 74.315 L 99.658 74.486 L 99.486 74.658 L 99.144 74.658 L 98.973 74.486 L 99.144 74.315 Z M 93.664 74.658 L 94.007 74.658 L 94.178 74.829 L 94.349 75.000 L 94.692 75.000 L 94.863 75.171 L 94.692 75.342 L 94.349 75.342 L 94.007 75.342 L 93.836 75.171 L 93.664 75.000 L 93.493 74.829 L 93.664 74.658 Z M 98.801 74.658 L 98.973 74.829 L 98.801 75.000 L 98.630 74.829 L 98.801 74.658 Z M 86.130 75.000 L 86.473 75.000 L 86.815 75.000 L 87.158 75.000 L 87.500 75.000 L 87.671 75.171 L 87.500 75.342 L 87.158 75.342 L 86.815 75.342 L 86.473 75.342 L 86.301 75.514 L 86.130 75.685 L 85.959 75.856 L 85.788 76.027 L 85.445 76.027 L 85.274 75.856 L 85.445 75.685 L 85.616 75.514 L 85.788 75.342 L 85.959 75.171 L 86.130 75.000 Z M 98.116 75.000 L 98.459 75.000 L 98.630 75.171 L 98.459 75.342 L 98.116 75.342 L 97.945 75.171 L 98.116 75.000 Z M 95.034 75.342 L 95.377 75.342 L 95.548 75.514 L 95.548 75.856 L 95.548 76.199 L 95.377 76.370 L 95.205 76.199 L 95.205 75.856 L 95.034 75.685 L 94.863 75.514 L 95.034 75.342 Z M 97.774 75.342 L 97.945 75.514 L 97.774 75.685 L 97.603 75.514 L 97.774 75.342 Z M 97.089 75.685 L 97.432 75.685 L 97.603 75.856 L 97.432 76.027 L 97.260 76.199 L 97.089 76.370 L 96.747 76.370 L 96.575 76.199 L 96.747 76.027 L 96.918 75.856 L 97.089 75.685 Z M 85.103 76.027 L 85.274 76.199 L 85.103 76.370 L 84.932 76.199 L 85.103 76.027 Z M 84.760 76.370 L 84.932 76.541 L 84.760 76.712 L 84.589 76.541 L 84.760 76.370 Z M 95.719 76.370 L 96.062 76.370 L 96.404 76.370 L 96.575 76.541 L 96.404 76.712 L 96.233 76.884 L 96.062 77.055 L 95.719 77.055 L 95.548 76.884 L 95.548 76.541 L 95.719 76.370 Z M 84.418 76.712 L 84.589 76.884 L 84.418 77.055 L 84.247 76.884 L 84.418 76.712 Z M 84.075 77.055 L 84.247 77.226 L 84.075 77.397 L 83.904 77.226 L 84.075 77.055 Z M 83.733 77.397 L 83.904 77.568 L 83.904 77.911 L 83.733 78.082 L 83.562 77.911 L 83.562 77.568 L 83.733 77.397 Z M 83.390 78.082 L 83.562 78.253 L 83.390 78.425 L 83.219 78.253 L 83.390 78.082 Z M 83.048 78.425 L 83.219 78.596 L 83.219 78.938 L 83.219 79.281 L 83.219 79.623 L 83.048 79.795 L 82.877 79.966 L 82.877 80.308 L 83.048 80.479 L 83.390 80.479 L 83.733 80.479 L 84.075 80.479 L 84.418 80.479 L 84.760 80.479 L 85.103 80.479 L 85.445 80.479 L 85.788 80.479 L 86.130 80.479 L 86.473 80.479 L 86.644 80.308 L 86.815 80.137 L 87.158 80.137 L 87.500 80.137 L 87.842 80.137 L 88.185 80.137 L 88.356 80.308 L 88.185 80.479 L 87.842 80.479 L 87.500 80.479 L 87.158 80.479 L 86.986 80.651 L 86.815 80.822 L 86.473 80.822 L 86.130 80.822 L 85.788 80.822 L 85.616 80.993 L 85.445 81.164 L 85.103 81.164 L 84.932 80.993 L 84.760 80.822 L 84.418 80.822 L 84.075 80.822 L 83.733 80.822 L 83.390 80.822 L 83.048 80.822 L 82.705 80.822 L 82.363 80.822 L 82.192 80.993 L 82.021 81.164 L 81.678 81.164 L 81.507 80.993 L 81.678 80.822 L 81.849 80.651 L 82.021 80.479 L 82.192 80.308 L 82.363 80.137 L 82.534 79.966 L 82.534 79.623 L 82.705 79.452 L 82.877 79.281 L 82.877 78.938 L 82.877 78.596 L 83.048 78.425 Z" />
  </g>
</svg>
